<?xml version="1.0" encoding="UTF-8"?>
<svg id="perso4" xmlns="http://www.w3.org/2000/svg" viewBox="0 0 456.39 456.02">
  <defs>
    <style>
      .cls-1, .cls-2, .cls-3, .cls-4, .cls-5, .cls-6, .cls-7 {
        stroke: #1d1d1b;
        stroke-miterlimit: 10;
      }

      .cls-1, .cls-8 {
        fill: #e7b992;
      }

      .cls-9 {
        fill: #edeae8;
      }

      .cls-9, .cls-10, .cls-11, .cls-12, .cls-13, .cls-8, .cls-14, .cls-15, .cls-16, .cls-17, .cls-18, .cls-19 {
        stroke-width: 0px;
      }

      .cls-10 {
        fill: #e88c76;
      }

      .cls-11 {
        fill: #d5aa88;
      }

      .cls-2 {
        fill: #afaea9;
      }

      .cls-3 {
        fill: #e2a3c6;
      }

      .cls-12 {
        fill: #7cb793;
      }

      .cls-4 {
        fill: #72a988;
        stroke-width: .25px;
      }

      .cls-13, .cls-5 {
        fill: #d1cfc8;
      }

      .cls-6, .cls-17 {
        fill: #e2ded6;
      }

      .cls-14 {
        fill: #fbceaa;
      }

      .cls-15 {
        fill: #292836;
      }

      .cls-16 {
        fill: #1d1d1b;
      }

      .cls-18 {
        fill: #fac79d;
      }

      .cls-19 {
        fill: #86c69e;
      }

      .cls-7 {
        fill: #f2f2f2;
      }
    </style>
  </defs>
  <rect class="cls-3" x=".84" y="1.12" width="454.56" height="454.56"/>
  <g id="silhouette-4" data-name="silhouette">
    <polygon class="cls-4" points="116.05 255.32 105.29 281.64 126.87 285.28 135.26 275.61 116.05 255.32"/>
    <g>
      <path class="cls-8" d="M281.68,210.54c3.46,4.14,3.33,15.21,4.5,20.47.63,2.84.89,5.75,1.07,8.65.49,8.06.25,16.53-3.62,23.62l-27.98-31.19,26.03-21.55Z"/>
      <path class="cls-16" d="M281.24,210.98c1.66,2.07,2.2,4.99,2.64,7.53.52,3,.76,6.03,1.13,9.05.42,3.41,1.21,6.73,1.48,10.17.32,3.97.46,7.97.17,11.95-.34,4.62-1.37,9.18-3.57,13.29l.98-.13c-8.19-9.13-16.37-18.25-24.56-27.38-1.14-1.27-2.28-2.54-3.42-3.81v.88c7.59-6.28,15.17-12.56,22.76-18.85,1.09-.9,2.18-1.81,3.27-2.71.62-.51-.27-1.39-.88-.88-7.59,6.28-15.17,12.56-22.76,18.85-1.09.9-2.18,1.81-3.27,2.71-.27.22-.21.65,0,.88,8.19,9.13,16.37,18.25,24.56,27.38,1.14,1.27,2.28,2.54,3.42,3.81.26.29.8.22.98-.13,3.92-7.33,4.2-15.81,3.7-23.93-.14-2.23-.33-4.46-.68-6.67-.26-1.62-.64-3.21-.86-4.84-.41-3.1-.65-6.22-1.14-9.31s-1.11-6.31-3.07-8.75c-.5-.63-1.38.26-.88.88Z"/>
    </g>
    <g>
      <path class="cls-14" d="M77.69,238.82c-14.05,13.85-28.75,28.87-32.79,48.17-1.58,7.55-.93,16.51,5.02,21.42,4.94,4.08,11.99,4.15,17.94,6.52,4.2,1.67,19.1,10.13,23.57,9.49,4.32-.61-3.4-9.87-.58-13.2,9.4-11.13,20.39-20.78,31.2-30.53.98-.89,1.71-1.23.67-2.04-1.14-.89-1.69-1.08-2.86-1.9-2.17-1.52-3.78-2.85-5.34-4.99-.31-.43-.64-.92-.59-1.45.05-.51.44-.91.81-1.25,3.1-2.88,6.89-5.28,8.71-9.09,1.83-3.82.21-9.65-4-10.03l-41.77-11.1Z"/>
      <path class="cls-16" d="M77.25,238.38c-8.74,8.62-17.52,17.42-24.17,27.8-3.26,5.08-5.96,10.56-7.69,16.36-1.56,5.21-2.4,10.74-1.43,16.15s3.94,9.95,8.92,12.32,10.54,2.61,15.52,4.82c3.72,1.65,7.3,3.6,10.99,5.32,3.37,1.57,7.09,3.5,10.84,3.89,1.1.12,2.43.01,2.97-1.12.58-1.22-.03-2.83-.43-4.01-.58-1.69-1.31-3.34-1.71-5.09-.17-.75-.31-1.57-.13-2.33.29-1.24,1.69-2.37,2.5-3.3,4.66-5.29,9.67-10.26,14.8-15.08,2.54-2.39,5.12-4.74,7.71-7.08,1.27-1.14,2.53-2.29,3.8-3.43.69-.62,1.38-1.24,2.07-1.87.56-.5,1.26-.97,1.72-1.57.56-.74.3-1.4-.36-1.98-1.1-.97-2.48-1.62-3.66-2.47s-2.31-1.79-3.3-2.88c-.44-.49-1.18-1.14-1.38-1.75-.44-1.31.7-1.94,1.51-2.64,3.8-3.29,8.83-6.87,8.47-12.52-.13-2.01-.87-4.12-2.45-5.44-.88-.74-1.84-.98-2.92-1.23-1.61-.36-3.2-.85-4.8-1.28-11.98-3.18-23.96-6.37-35.95-9.55l-.85-.23c-.78-.21-1.11,1-.33,1.21,10.43,2.77,20.87,5.55,31.3,8.32,3.67.97,7.33,2.06,11.03,2.87,2.22.48,3.38,2.73,3.66,4.82.34,2.63-.7,4.93-2.37,6.92-1.83,2.17-4.16,3.85-6.27,5.73-.8.71-1.74,1.49-1.53,2.68s1.45,2.4,2.24,3.24,1.72,1.62,2.66,2.33c.6.45,1.21.89,1.84,1.3s1.45.74,1.97,1.27l.2.3c.28.21.27.38-.04.52-.15.28-.71.62-.95.83-.58.52-1.15,1.04-1.73,1.56-1.27,1.14-2.54,2.28-3.8,3.43-5.06,4.57-10.09,9.18-14.92,14-2.41,2.41-4.77,4.86-7.05,7.39-1.04,1.15-2.06,2.31-3.06,3.49-.53.63-.91,1.19-1.05,2.01-.56,3.24,1.72,6.39,2.38,9.45.29,1.35-.04,2.02-1.49,1.93-1.61-.1-3.24-.71-4.74-1.27-4.04-1.5-7.91-3.46-11.77-5.36-3.59-1.78-7.02-3.39-10.93-4.37-5.44-1.37-11.5-2.41-15.04-7.25-3.19-4.36-3.68-10.16-3.08-15.37.67-5.77,2.7-11.44,5.29-16.61,5.35-10.72,13.44-19.78,21.77-28.27,2-2.04,4.03-4.05,6.07-6.06.57-.57-.31-1.45-.88-.88Z"/>
    </g>
    <g>
      <path class="cls-19" d="M125.69,272.47c-9.66-17.88-31.82-25.73-51-32.44,16.34-9.72,21.31-30.89,33.67-45.33,4.96-5.8,11.17-10.55,15.31-16.95,5.23-8.09,6.89-18.36,13.38-25.47,3.13-3.43,7.18-5.86,11.17-8.25,19.57-11.71,38.31-24.05,59.03-33.57,5.93-2.72,11.63-1.2,16.07.14.8,2.58-5.56-.42-8.22.06-2.66.48-3.52,2.35-5.54,4.15-3.34,2.99-3.35,6.43-.99,10.24,8.52,13.77,18.57,28.23,33.96,33.25,7.08,2.3,16.58,1.31,19.56-5.51,2.37-5.42-.42-12.47,3.09-17.23,2.68-3.63,8.2-4.19,12.27-2.26,4.07,1.93,6.91,5.78,9.04,9.75,11.19,20.9,8.42,57.88-2.95,77.4-4.42,7.58-3.17,10.14-6.35,18.38-5.4,14.02-12.49,25.8-13.82,40.68-.98,11,.11,22.11-.92,33.1-2.18,23.08-13.53,44.14-24.66,64.48-1.33,2.42-2.72,4.93-4.96,6.55-1.92,1.39-4.29,1.99-6.59,2.57-10,2.49-19.99,4.99-29.99,7.48-9.87,2.46-19.85,4.94-30.03,5.1-9.08.14-18.07-1.56-27.07-2.81-12.75-1.77-25.63-2.64-38.5-2.58,10.28-9.53,14.84-23.79,16.75-37.68,1.91-13.89,1.61-28.06,4.2-41.84.72-3.85,1.67-7.67,2.84-11.41l.73-23.56s1.98-3.71.52-6.42Z"/>
      <path class="cls-16" d="M126.23,272.16c-7.9-14.45-23.41-22.2-38.16-27.93-4.37-1.7-8.79-3.25-13.22-4.8l.15,1.14c9.85-5.94,15.74-16.02,21.2-25.8,2.89-5.18,5.75-10.4,9.18-15.24,3.84-5.4,8.7-9.77,13.23-14.56,2.35-2.48,4.55-5.12,6.29-8.06,1.57-2.65,2.81-5.48,4-8.32,2.51-6,4.85-12.31,9.62-16.95,2.64-2.57,5.79-4.55,8.93-6.44s6.59-3.97,9.87-5.97c6.44-3.93,12.86-7.88,19.35-11.73,7.41-4.39,14.9-8.63,22.59-12.51,3.85-1.94,7.97-4.49,12.27-5.21,3.94-.66,7.85.29,11.61,1.41l-.44-.44c.16.63-2.69-.09-3.12-.18-1.31-.29-2.69-.66-4.04-.6-1.57.08-2.95.88-4.05,1.95-1.31,1.27-2.82,2.61-3.88,4.1-2.31,3.22-1.16,6.82.76,9.9,2.21,3.55,4.47,7.07,6.91,10.47,4.64,6.47,9.93,12.62,16.5,17.19,5.91,4.11,13.17,7.22,20.5,6.28,3.09-.4,6.23-1.55,8.41-3.86,2.49-2.63,3.03-6.13,3.11-9.63.09-4.01-.38-8.94,3.12-11.75,3.22-2.58,8.02-2.18,11.39-.16,6.56,3.94,9.85,12.53,11.8,19.57s2.85,15.07,2.86,22.71c.03,14.64-2.55,30.38-9.9,43.24-1.77,3.1-3.08,6.25-3.9,9.72-.93,3.91-2.04,7.65-3.55,11.38-3.46,8.56-7.67,16.84-10.36,25.7-2.9,9.57-3.01,19.36-2.97,29.27.04,10.18-.37,20.17-2.82,30.1-2.32,9.42-5.92,18.48-10.07,27.24-2.08,4.41-4.31,8.75-6.59,13.06s-4.32,8.32-6.72,12.33c-1.22,2.04-2.67,3.91-4.8,5.05s-4.59,1.6-6.91,2.17c-5.18,1.29-10.37,2.59-15.55,3.88-10.08,2.51-20.15,5.38-30.4,7.09-5.24.87-10.53,1.32-15.84,1.14s-10.41-.87-15.58-1.63c-10.32-1.52-20.63-2.82-31.05-3.37-5.1-.27-10.22-.38-15.33-.37l.44,1.07c16.01-15.01,17.34-38.33,18.76-58.8.44-6.37.94-12.76,2.01-19.06.51-3.04,1.16-6.05,1.94-9.04.4-1.54,1.13-3.15,1.27-4.73.44-4.93.31-9.98.46-14.93l.24-7.7c0-.21,0-.43.02-.64.01-.1-.16.46-.01.13.11-.25.22-.49.32-.74.8-2,1.07-4.18.12-6.17-.35-.73-1.42-.09-1.08.63.96,2.01.14,3.78-.47,5.71-.12.37-.14.64-.15,1.03l-.19,6.26-.48,15.71c-.02.74-.1,1.14-.33,1.87-.9,2.84-1.59,5.77-2.19,8.69-1.17,5.73-1.82,11.55-2.3,17.38-.94,11.44-1.18,23.02-3.67,34.27s-6.9,21.52-15.14,29.24c-.4.37-.09,1.07.44,1.07,14.9-.05,29.66,1.25,44.39,3.44,7.1,1.06,14.25,2.09,21.45,1.95,7.09-.14,14.1-1.39,21-2.96s14.28-3.5,21.41-5.27c3.61-.9,7.22-1.8,10.83-2.7,3.35-.84,6.84-1.48,10.1-2.64,5.96-2.12,8.29-8.04,11.1-13.22,3.28-6.04,6.5-12.13,9.45-18.34,5.7-12.02,10.43-24.65,12.25-37.89,1.94-14.17-.57-28.7,2.21-42.76,2.55-12.91,9.44-24.19,13.64-36.53,1.6-4.7,2.14-9.67,4.4-14.15,1.13-2.24,2.45-4.36,3.5-6.63.98-2.12,1.85-4.3,2.61-6.5,3.47-10.03,5.07-20.76,5.22-31.35.15-10.32-1.04-21-4.87-30.65-1.89-4.76-4.43-9.71-8.46-13.02-3.72-3.05-9.06-4.36-13.48-1.96-5.03,2.73-4.75,8.62-4.86,13.56-.07,2.96-.42,6.01-2.39,8.36-1.52,1.81-3.69,2.91-5.95,3.5-10.98,2.85-22.16-4.83-29.43-12.28-4.13-4.23-7.69-8.98-10.98-13.89-1.61-2.41-3.2-4.85-4.7-7.33-1.71-2.83-2.29-5.97.05-8.64.91-1.04,1.97-2.01,2.95-3s2.2-1.83,3.7-1.86c1.95-.04,3.87.78,5.8,1,1.04.12,2.56-.01,2.38-1.43-.12-.98-1.1-.98-1.92-1.21-1.45-.41-2.92-.76-4.41-.99-3.02-.45-6.11-.35-9.02.64-3.28,1.11-6.43,2.89-9.52,4.44-6.25,3.14-12.38,6.52-18.43,10.03-12.04,6.98-23.98,14.22-35.78,21.59-5.2,3.25-9.52,7.09-12.5,12.5s-4.58,10.86-7.27,16.1c-2.93,5.73-7.35,10.19-11.86,14.69-4.04,4.03-7.7,8.24-10.82,13.03-5.87,9.01-10.17,19.06-16.81,27.57-3.16,4.05-6.87,7.63-11.29,10.3-.48.29-.35.97.15,1.14,14.86,5.2,30.85,10.55,42.49,21.64,3.23,3.08,5.99,6.59,8.14,10.51.39.71,1.47.08,1.08-.63Z"/>
    </g>
    <path class="cls-2" d="M380.85,298.43c-4.56.58-25.71,5.41-56.06,12.72-.17.04-.34.08-.52.12-14.73,3.54-31.61,7.65-49.79,12.15-.27.06-.54.13-.82.2-4.5,1.11-9.08,2.25-13.74,3.39-.2.05-.4.1-.6.15-.49.12-.98.25-1.47.38h-.01s-.05,0-.08.02c-.08.02-.17.04-.25.06-13.83,3.43-28.22,7.04-42.84,10.74-1.49.38-2.98.77-4.47,1.14-3.76.96-7.51,1.91-11.29,2.87-.16.04-.31.08-.47.12-4.11,1.03-8.25,2.08-12.37,3.13-.15.04-.29.07-.44.11-23.63,6.05-47.28,12.18-69.64,18.09h-.01c-.2.05-.38.1-.58.15h-.01c-49.46,13.08-92.48,25.02-114.53,32.37-.19.07-.38.13-.56.19v59.15h55.75c3.99-2.9,8.43-5.34,12.76-7.57,26.78-13.83,54.97-25.87,84.82-30.07,7.98-1.13,16.06-1.68,23.89-3.54,11.41-2.67,22-7.99,32.5-13.18,7.25-3.59,14.55-7.17,21.89-10.64.12-.06.25-.12.37-.17,8.34-3.94,16.74-7.74,25.22-11.34.03,0,.05-.03.08-.04,0,0,0,.01.01,0,1.06-.44,2.12-.89,3.18-1.33.54-.22,1.09-.44,1.63-.66,2.09-.87,4.19-1.7,6.29-2.53,1.36-.53,2.72-1.07,4.09-1.59,3.03-1.16,6.07-2.28,9.12-3.36.24-.08.47-.17.72-.25,14.63-5.16,29.57-9.41,44.86-12.25.37-.07.75-.13,1.11-.2.19-.04.39-.07.58-.1,9.13-1.65,18.4-2.93,27.17-5.91,6.91-2.36,13.48-5.75,20.59-7.32,21.41-4.69,42.33,7.66,61.93,17.47,5.44,2.72,10.96,5.28,16.55,7.64v-50.86c-37.23-11.57-68.63-20.22-74.55-19.45ZM437.59,446.84c-4.77,3.36-9.77,6.3-14.95,8.84h13.68c6.32-3.08,12.7-6.18,19.08-9.32v-13.39c-5.99,4.53-11.66,9.54-17.81,13.87Z"/>
    <path class="cls-5" d="M381.12,316.6c14.15.49,43.08,7.43,74.28,16.29v109.01c-9.11,5.1-17.54,9.79-24.71,13.78H.27v-38.34c.17-.08.37-.18.56-.28,13.4-6.79,55.97-19.74,108.07-34.15,28.88-7.99,60.69-16.43,92.09-24.5,2.65-.68,5.29-1.36,7.93-2.03,15-3.84,29.83-7.58,44.13-11.14.26-.06.51-.12.78-.19,7.62-1.89,15.1-3.73,22.36-5.5,19.34-4.72,37.2-8.97,52.52-12.49,28.55-6.56,48.3-10.58,52.41-10.44Z"/>
    <path class="cls-6" d="M56.03,455.68c3.99-2.9,8.43-5.34,12.76-7.57,26.78-13.83,54.97-25.87,84.82-30.07,7.98-1.13,16.06-1.68,23.89-3.54,11.41-2.67,22-7.99,32.5-13.18,7.25-3.59,14.55-7.17,21.89-10.64.12-.06.25-.12.37-.17,8.34-3.94,16.74-7.74,25.22-11.34.03,0,.06-.03.09-.04,1.06-.44,2.12-.89,3.18-1.33.54-.22,1.09-.44,1.63-.66,2.09-.87,4.19-1.7,6.29-2.53,1.36-.53,2.72-1.07,4.09-1.59,3.03-1.16,6.07-2.28,9.12-3.36.24-.08.47-.17.72-.25,14.63-5.16,29.57-9.41,44.86-12.25.37-.07.75-.13,1.11-.2.19-.04.39-.07.58-.1,9.13-1.65,18.4-2.93,27.17-5.91,6.91-2.36,13.48-5.75,20.59-7.32,21.41-4.69,42.33,7.66,61.93,17.47,5.44,2.72,10.96,5.28,16.55,7.64v86.95H56.03Z"/>
    <path class="cls-1" d="M226.19,97.75s-12.01,15.03-20.21,17.23,26.58,46.37,41.4,44.31c14.82-2.05,14.28-9.9,14.28-9.9l-35.47-51.64Z"/>
    <path class="cls-7" d="M186.21,318.39s-21.47-70.52,37.54-83.69c66.73-14.89,131.51,84.1,97.7,151.44-20.7,41.23-110.96,12.65-124.93-37.41,0,0-11.64-5.85-10.32-30.34Z"/>
    <g>
      <path class="cls-9" d="M76.58,305.72c-2.63,4.9,1.07,11.24,5.44,14.68,4.37,3.45,9.95,4.89,15.4,6.04,14,2.96,28.28,4.54,42.59,4.74,5.56.08,11.3-.01,16.43,2.14,2.46,1.03,4.74,2.58,7.35,3.1,2.01.4,4.08.18,6.12.36,5.69.51,10.59,4.11,14.96,7.81,7.86,6.65,15.18,14.09,24.12,19.18,0,0,15.37,11.25,18.36,13.15,4.4,2.8,9.49,5.26,14.12,6.62,5.07,1.49,9.81-2.03,8.97-7.24,2.71,2,6.29,1.99,9.38,3.92,1.21.76,2.34,1.72,3.74,2.05,2.33.56,4.82-.53,6.54-2.2s2.83-3.86,3.9-6.01c4.5.59,9.11-3.09,9.52-7.61.41-4.52-3.45-8.98-7.98-9.22,2.51-1.03,4.14-3.63,4.49-6.32s-.42-5.41-1.63-7.83c-2.7-5.38-7.53-9.45-12.85-12.26s-11.16-4.47-16.97-6.04c-3.86-1.05-10.03-4.27-13.88-5.37-6.52-1.86-7.89-.98-9.4-4.56-1.98-4.7-4.43-5.47-4.63-9.09-.12-2.13,1.72-3.95,3.74-4.61,2.02-.67,4.21-.48,6.34-.45,3.89.05,7.78-.44,11.53-1.46,2.59-.71,5.23-1.74,6.96-3.8,1.73-2.05,2.2-5.37.41-7.37-2.06-2.3-5.69-1.81-8.74-2.33-2.4-.41-4.62-1.54-7-2.04-4.23-.89-8.62.27-12.62,1.9-6.92,2.83-13.2,7.07-20.09,9.97-6.9,2.89-13.77,1.53-21.78,1.35,0,0-42.57-7.81-59.55-20.16-2.66-1.94-29.89,3.99-43.28,28.97Z"/>
      <path class="cls-16" d="M76.04,305.4c-2.99,5.92,1.6,12.61,6.32,16.04,6.37,4.63,14.99,5.76,22.54,7.08,8.7,1.52,17.5,2.52,26.32,2.99,4.36.23,8.72.25,13.08.37s8.63.52,12.58,2.33c1.71.78,3.34,1.74,5.12,2.37,1.88.66,3.8.72,5.77.75,4.22.06,7.89,1.4,11.4,3.7s6.4,4.96,9.41,7.62,6.05,5.4,9.18,7.97,6.2,4.87,9.57,6.91c1.08.66,2.06,1.32,3.09,2.06,3.66,2.67,7.32,5.33,11.01,7.97,4.22,3.02,8.44,5.87,13.19,8.04,3.05,1.4,6.74,3.27,10.19,2.84,2.55-.32,4.86-1.88,5.84-4.3.52-1.3.58-2.64.39-4.01l-.92.71c2.06,1.44,4.51,1.9,6.85,2.73s4.35,2.99,6.89,3.39c5.41.86,8.63-4.51,10.68-8.59l-.54.31c4.86.52,9.71-3.32,10.15-8.24s-3.75-9.47-8.6-9.84l.32,1.16c2.55-1.13,4.25-3.63,4.73-6.34.59-3.37-.54-6.79-2.2-9.7-3.24-5.69-8.74-9.76-14.59-12.48-6.4-2.98-13.38-4.14-19.86-6.84-2.82-1.17-5.59-2.52-8.51-3.44-2.36-.75-4.92-.97-7.24-1.84-1.97-.74-2.36-2.88-3.31-4.55-1.23-2.18-3.54-4.17-3.59-6.83-.1-4.56,5.9-4.51,9-4.45,3.79.07,7.57-.33,11.25-1.24,2.95-.73,6.12-1.79,8.14-4.19,1.64-1.95,2.34-4.95,1.09-7.28-1.36-2.55-4.36-2.97-6.95-3.18-1.7-.14-3.32-.33-4.96-.83-1.88-.59-3.71-1.35-5.67-1.64-7.05-1.05-14.04,2.7-20.06,5.89-3.37,1.79-6.7,3.67-10.17,5.27s-6.83,2.49-10.61,2.64c-3.56.14-7.12-.21-10.67-.37-.99-.04-1.92-.02-2.88-.2-2.35-.45-4.7-.95-7.04-1.46-8.95-1.97-17.85-4.27-26.57-7.11-4.93-1.6-9.82-3.38-14.55-5.52-2.13-.96-4.22-2-6.25-3.16-.89-.51-1.77-1.04-2.64-1.61-.6-.39-1.17-.92-1.82-1.22-1.59-.74-3.9-.21-5.52.1-3.42.65-6.75,1.82-9.93,3.21-9.29,4.05-17.55,10.48-23.68,18.55-1.79,2.35-3.37,4.85-4.78,7.45-.38.71.7,1.34,1.08.63,5.18-9.59,13.05-17.47,22.54-22.82,3.53-1.99,7.26-3.65,11.14-4.82,2.36-.71,4.9-1.4,7.39-1.35.82.01,1.14.11,1.75.53,1.68,1.19,3.45,2.24,5.26,3.21,4.22,2.26,8.66,4.1,13.15,5.76,9.04,3.33,18.36,5.91,27.72,8.14,3.18.76,6.37,1.47,9.57,2.13,1.25.26,2.51.59,3.78.74,1.76.2,3.6.15,5.38.25s3.68.21,5.52.23c3.19.02,6.41-.25,9.46-1.25,6.81-2.24,12.84-6.53,19.32-9.52,3.41-1.57,7.06-3,10.85-3.2,1.91-.1,3.74.17,5.56.73s3.66,1.33,5.59,1.62c2.71.41,6.71-.12,8.43,2.54,1.97,3.04-.59,6.61-3.25,8.1-3.07,1.73-6.94,2.41-10.4,2.79-1.85.2-3.71.27-5.58.24-1.73-.03-3.47-.13-5.17.25-2.58.56-5.16,2.59-5.08,5.45.07,2.38,1.52,4.08,2.81,5.94.81,1.17,1.41,2.4,2.01,3.69.35.76.76,1.5,1.4,2.06,1.24,1.09,3.08,1.3,4.63,1.65,2.79.62,5.45,1.46,8.09,2.56,2.79,1.16,5.54,2.48,8.42,3.42,3.42,1.11,6.93,1.91,10.33,3.09s6.79,2.64,9.89,4.57c5.5,3.42,11.27,9.12,11.83,15.95.27,3.27-1.11,6.64-4.23,8.02-.62.27-.23,1.12.32,1.16,4.2.32,7.76,4.35,7.35,8.59s-4.74,7.43-8.9,6.99c-.2-.02-.45.13-.54.31-1.91,3.8-5.62,10.12-10.85,7.5-1.9-.95-3.46-2.24-5.5-2.95-2.17-.75-4.44-1.2-6.35-2.54-.5-.35-.98.23-.92.71.43,3.13-1.44,5.96-4.56,6.64-1.67.36-3.25-.02-4.84-.54-1.91-.63-3.77-1.38-5.59-2.23-4.43-2.07-8.4-4.73-12.36-7.56-3.61-2.57-7.19-5.18-10.77-7.79s-7.59-4.92-11.17-7.74c-5.99-4.71-11.38-10.12-17.35-14.84-2.71-2.14-5.62-4.11-8.89-5.28-1.64-.59-3.35-.93-5.1-1.02-2.1-.11-4.22.07-6.26-.55-1.84-.55-3.5-1.54-5.23-2.35s-3.38-1.37-5.17-1.75c-3.74-.81-7.6-.85-11.41-.89-8.51-.1-17-.64-25.45-1.7s-16.4-2.19-24.22-4.55c-6.47-1.95-13.65-6.2-14.99-13.44-.31-1.66-.12-3.34.65-4.85.36-.72-.72-1.35-1.08-.63Z"/>
    </g>
    <g>
      <path class="cls-14" d="M318.95,79.5c1.11,12.47-3.5,25.33-12.29,34.24-2.62,2.66-5.62,5.02-7.62,8.18-2.12,3.35-2.96,7.36-4.85,10.84-5.03,9.25-16.44,13.19-22.74,21.63-.97,1.3-2.82,2.08-4.23,2.9-1.15.67-3.73.31-5.02-.05-6.3-1.75-11.6-3.77-14.84-5.87-5.19-3.37-9.03-7.32-12.29-12.57-8.72-14.01-7.08-24.24-10.32-40.42-.95-4.77-3.87-15.6,1.23-20.3,2.94-2.71,3-3.95,4.94-9.96,1.77-5.46,7.88-9.03,13.53-10.09,5.61-1.06,11.14,1.71,16.28,4.18,14.32,6.85,29.48,11.96,45.02,15.15l13.2,2.13Z"/>
      <path class="cls-16" d="M318.33,79.5c.93,11-2.48,22.24-9.45,30.83-3.47,4.28-8.36,7.46-11.01,12.37-1.35,2.5-2.15,5.24-3.28,7.83-1.02,2.33-2.39,4.43-4.09,6.31-3.28,3.62-7.39,6.35-11.25,9.3-1.89,1.44-3.74,2.94-5.43,4.61-1.78,1.77-3.05,3.86-5.29,5.11-1.14.64-2.06,1.19-3.4,1.17-1.27-.02-2.47-.32-3.68-.67-2.83-.81-5.65-1.72-8.37-2.84-4.88-1.99-9.2-5.01-12.78-8.88-7.16-7.73-10.73-17.74-12.23-28-.73-5.01-1.22-10.04-2.07-15.03-.71-4.2-1.87-8.35-2.21-12.61-.17-2.19-.17-4.44.4-6.57s1.76-3.33,3.2-4.86c2.68-2.86,2.97-6.72,4.48-10.18,2.01-4.62,7.03-7.43,11.73-8.55,6.3-1.5,12.14,1.68,17.67,4.3,11.3,5.35,23.12,9.61,35.23,12.72,6.71,1.72,13.45,2.8,20.28,3.91.67.11,1.34.22,2.02.33.79.13,1.13-1.08.33-1.21-5-.81-10.07-1.45-15.02-2.52-12.95-2.79-25.63-6.9-37.75-12.27-5.62-2.49-11.28-6.09-17.5-6.82-5-.59-10.35,1.39-14.2,4.55-1.78,1.46-3.25,3.31-4.1,5.46s-1.29,4.47-2.22,6.61c-.72,1.66-1.88,2.74-3.1,4.02-1.4,1.46-2.17,3.38-2.51,5.35-.74,4.2.04,8.56.9,12.69,1.04,5.02,1.83,10.06,2.47,15.14s1.2,9.8,2.51,14.56c1.45,5.26,3.78,10.27,6.83,14.8s6.8,8.24,11.29,11.2c4.57,3.02,10.19,4.85,15.46,6.19,1.06.27,2.2.44,3.3.41,1.19-.03,2-.42,3.02-.98s2.1-1.11,2.93-1.94c.92-.91,1.63-2.02,2.52-2.96,3.46-3.65,7.7-6.42,11.65-9.49,3.9-3.03,7.56-6.45,9.71-10.97,1.31-2.75,2.12-5.72,3.54-8.42s3.63-4.9,5.86-7.02c4.07-3.86,7.58-8.07,10.14-13.1,2.46-4.85,4.04-10.13,4.64-15.53.31-2.78.33-5.58.1-8.37-.07-.8-1.32-.8-1.25,0Z"/>
    </g>
    <g>
      <path class="cls-15" d="M229.7,69.37c3.05-5.38,9.73-17.63,17.49-24.08,4.18-3.47,8.63-6.84,13.85-8.33,3.65-1.04,7.51-1.11,11.31-1.02,12.45.32,25.42,2.56,35.31,10.12,11.37,8.69,17.07,24.2,14.04,38.19-.34,1.56-.8,3.15-1.76,4.43-1.63,2.16-4.51,3.1-7.22,2.98-2.71-.12-5.29-1.15-7.74-2.3-4.79-2.25-9.34-5.02-13.55-8.24-4.09-3.14-8.72-6.95-13.76-5.84-2.62.58-4.76,2.42-6.77,4.2-3.1,2.74-6.2,5.49-9.3,8.23-1.75,1.55-3.65,3.17-5.97,3.48-3.76.5-7.03-2.61-9.02-5.84s-3.45-6.98-6.49-9.24c-3.06-2.28-5.89-2.15-9.45-.79,0,0-6.43,3.65-.98-5.96Z"/>
      <path class="cls-16" d="M230.24,69.68c3.63-6.41,7.31-12.85,12.06-18.52,2.81-3.36,6.06-6.23,9.62-8.79,4.15-3,8.64-5.13,13.79-5.65,4.78-.48,9.72-.16,14.49.32s9.16,1.3,13.57,2.68c8.41,2.64,16.01,7.48,21.11,14.77,4.74,6.78,7.27,15.08,7,23.35-.07,2.1-.32,4.19-.77,6.24-.51,2.34-1.35,4.58-3.53,5.84-4.46,2.6-9.77.18-13.91-1.89-4.45-2.23-8.62-4.92-12.56-7.95-3.31-2.55-7.06-5.55-11.46-5.62-4.55-.07-7.88,3.43-11.04,6.23-2.05,1.81-4.09,3.62-6.14,5.43-1.83,1.62-3.75,3.67-6.19,4.31-4.89,1.28-8.29-3.83-10.29-7.45s-4.07-7.38-8.12-8.82c-2.62-.93-5.44-.28-7.9.82-.88.39-1.99.82-1.79-.56.25-1.67,1.26-3.3,2.07-4.75.39-.7-.69-1.33-1.08-.63-.79,1.4-3.54,5.52-1.77,7.16.93.86,2.36.22,3.33-.2,3.76-1.66,7.53-1.22,10.42,1.84,3.16,3.35,4.32,8.09,7.7,11.28,1.46,1.38,3.28,2.5,5.32,2.71,2.2.22,4.19-.73,5.9-2.02,4.41-3.32,8.29-7.39,12.51-10.95,1.97-1.66,4.21-3.13,6.88-3.15,2.52-.01,4.86,1.15,6.93,2.48s4.12,3.04,6.19,4.55,4.24,2.92,6.46,4.21c4.21,2.44,9.22,5.39,14.24,5.34,2.01-.02,4.06-.58,5.69-1.79,1.75-1.3,2.64-3.24,3.16-5.3,2.08-8.24.91-17.21-2.54-24.91-3.63-8.1-9.9-14.63-17.8-18.66-8.49-4.33-18.14-5.87-27.57-6.26-5.31-.22-10.74-.21-15.74,1.82-4.44,1.81-8.35,4.79-11.97,7.88-6.37,5.42-10.96,12.89-15.09,20.06-.75,1.3-1.49,2.62-2.23,3.93-.4.7.68,1.33,1.08.63Z"/>
    </g>
  </g>
  <g id="ombres-2" data-name="ombres">
    <path class="cls-18" d="M64.93,262.48c-11.41-2.24,28.35-18.89,46.63,5.03,7.64,10-32.44-2.24-46.63-5.03Z"/>
    <path class="cls-18" d="M242.84,138.34c.59,9.82-18.64-20.52-5.31-39.47,5.57-7.92,4.58,27.26,5.31,39.47Z"/>
    <path class="cls-11" d="M235.75,148.13c3.81,9-21.47-15.46-17.62-35.63,1.61-8.43,12.87,24.43,17.62,35.63Z"/>
    <path class="cls-17" d="M207.21,301.32c-2.73-1.04,9.07-3.42,11.55,3.32,2.48,6.75-4.4-.61-11.55-3.32Z"/>
    <path class="cls-17" d="M230.08,297.91c-.08,2.38-5.27-5.74-.53-9.74,4.74-4,.73,3.5.53,9.74Z"/>
    <path class="cls-17" d="M249.91,340.11c-.08,2.38-5.27-5.74-.53-9.74s.73,3.5.53,9.74Z"/>
    <path class="cls-17" d="M232.63,377.67c.25,1.63-4.31-3.23-1.6-6.55,2.71-3.32.94,2.29,1.6,6.55Z"/>
    <path class="cls-17" d="M243.65,358.15c-.97,2.18-2.72-7.3,3.18-9.22,5.9-1.92-.64,3.52-3.18,9.22Z"/>
    <path class="cls-17" d="M247.99,372.54c.21,1.78-4.59-3.68-1.51-7.2,3.08-3.52.94,2.53,1.51,7.2Z"/>
    <path class="cls-17" d="M192.61,324.46s8.45-4.91,15.12,6.57c6.67,11.48,10.19,5.93,10,7.68s-11.94,2.75-17.9-6.01c-5.96-8.76-8.17-5.57-7.22-8.23Z"/>
    <path class="cls-17" d="M242.63,382.37s-4.28-4.19,1.31-5.89c5.6-1.7,1.72,5.99-1.31,5.89Z"/>
    <path class="cls-17" d="M268.81,376.53c-.31,4.74-7.82,5.39-8.65-.67s9.13-6.8,8.65.67Z"/>
    <path class="cls-17" d="M281.1,367.22c-.31,4.74-7.82,5.39-8.65-.67-.85-6.28,9.13-6.8,8.65.67Z"/>
    <path class="cls-17" d="M277.71,351.66c-.31,4.74-7.82,5.39-8.65-.67-.85-6.28,9.13-6.8,8.65.67Z"/>
    <path class="cls-17" d="M246.44,294.35c-2.82,3.81-8.09,1.01-5.28-4.41,2.92-5.62,9.73-1.6,5.28,4.41Z"/>
    <path class="cls-17" d="M253.35,292.69c1.64-2.41,32.81,48.66,22.63,42.2-4.42-2.8-13.7-4.88-27.84-11.48-17.06-7.96-20.58-5.37-21.2-7.71-1.12-4.25-6.36-8.08-4.84-11.55,2-4.56,21.99,2.09,31.25-11.46Z"/>
    <path class="cls-13" d="M239.6,308.63s17.68,1.58,21.39,11.65c3.71,10.08-27.28-7.41-29.08-7.5s-3.75-4.91,7.69-4.15Z"/>
    <path class="cls-12" d="M142.06,162.68c9.24-12.83,19.25-29.9,52.76-34.88s-28.18,23.75-49.13,35.88c-6.49,3.76-4.18-.23-3.63-1Z"/>
    <path class="cls-12" d="M282.78,217.25c-1.28-6.84-3.62-15.4,4.29-24.98,7.9-9.58-.74,15.21-2.97,24.51-.69,2.88-1.25.88-1.32.48Z"/>
    <path class="cls-12" d="M127.96,251.16c-2.66-13.03-7.44-28.29,7.91-60.39,15.35-32.1-1.14,34.12-5.32,57.47-1.29,7.24-2.43,3.69-2.59,2.92Z"/>
    <path class="cls-12" d="M225.52,153.59c-2.52-3.09-17.89-12.73-12.91-.43,4.98,12.3,30.83,24.28,44.02,20.71,13.19-3.58-16.79-2.7-31.11-20.28Z"/>
    <path class="cls-12" d="M272.88,159.84c.58,3.23,1.53,27.91,9.28,29.82,7.75,1.91,8.81-23.41,8.17-28.07-1.68-12.2-4.02-16.26-5.84-16.28s-12.67,8.6-11.61,14.53Z"/>
    <path class="cls-12" d="M242.05,181.51c2.9,0,17.39,20.02,19.93,19.89s2.27-7.9,5.41-5.99c3.13,1.91,13.82,31.02-12.67,13.26-13.68-9.17-13.56-27.15-12.67-27.15Z"/>
    <path class="cls-10" d="M261.67,140.85s7.29,2.55,13.68,4.26c.66.18,3.98-.6,3.9-.17-.87,4.85-8.82,4.52-17.58-4.09Z"/>
  </g>
  <g id="plis-4" data-name="plis">
    <path class="cls-16" d="M68.34,261.19c.44-.93,1.47-1.44,2.41-1.76,2.87-.9,5.73-1.67,8.7-2.24,10.91-2.44,23.16,1.12,30.24,9.96.61.68,1.21,1.76,2.26,1.49-.45.27-1.04.11-1.47-.15-1.23-.86-2.23-1.96-3.46-2.83-10.1-7.79-21.07-8.36-33.19-6.13-1.58.34-4.38.22-5.49,1.66h0Z"/>
    <path class="cls-16" d="M129.86,166.96c2.9-.5,5.79-.88,8.7-1.32.74-.09,1.54-.16,2.36.02,1.61.36,2.76,1.61,3.8,2.73,8.69,9.15,14.09,20.75,19.18,32.12,2.35,5.33,4.48,11.22,3.78,17.13-.13-5.91-2.61-11.27-5.2-16.46-2.66-5.21-5.2-10.48-8.01-15.57-2.78-5.11-5.85-10.04-9.44-14.58-1.33-1.49-2.48-3.55-4.4-4.26-3.51-.45-7.22.27-10.79.19h0Z"/>
    <path class="cls-16" d="M141.21,181.51c-4.21,11.21-3.72,23.13-4.48,34.91-.79,11.84-2.49,23.64-5.55,35.11,1.49-11.73,2.83-23.45,3.55-35.24.79-11.66.78-24.2,6.47-34.78h0Z"/>
    <path class="cls-16" d="M196.53,124.1c-7.42,8.4-18.35,12.5-27.77,18.01-9.53,5.5-18.02,12.58-25.5,20.67,6.32-9.18,14.87-16.79,24.5-22.4,9.62-5.57,20.23-9.02,28.77-16.28h0Z"/>
    <path class="cls-16" d="M201.02,129.3c5.93,7.07,11.95,14,18.29,20.68,10.93,11.97,21.78,21.11,39.07,18.84-12.75,3.52-25.03-1.71-34.04-10.85-8.78-8.71-16.64-18.28-23.32-28.66h0Z"/>
    <path class="cls-16" d="M243.83,185.34c3.74,6.47,7.89,12.62,12.89,18.15,1.83,2.08,3.79,4.05,5.8,5.95,1.69,1.72,4.63,3.02,5.48-.15.46-1.74-.49-3.54-1.25-5.12,1.98,2.1,3.58,6.01.55,8.05-3.94,2.29-9.49-4.91-12.08-7.41-5.02-5.66-9.09-12.27-11.4-19.48h0Z"/>
    <path class="cls-16" d="M286.99,191.62c-.32,4.34-1.29,8.64-2.01,12.89-.67,4.24-.51,8.65-1.23,12.93-.49-4.39-.89-8.75-.25-13.16.81-4.35,2-8.5,3.49-12.65h0Z"/>
    <path class="cls-16" d="M126.87,276.93c11.75-7.46,16.76-20.92,24.71-31.76,2.57-3.7,6.1-6.91,9.18-10.07,2.96-3.16,4.79-7.29,6.72-11.35,1.93-4.07,3.69-8.21,5.49-12.35,2.6-6.25,5.54-12.35,7.57-18.81.49-1.88,1.26-3.78,1.32-5.73,0-.13.05-.34.24-.35.08.04.1.12.12.18.03.11-.02.17-.08.06.02.02.05.07.07.04,0-.09-.05-.22-.13-.25-.11,0-.16.19-.15.31.13,1.96-.51,3.94-.89,5.87-1.58,6.62-4.22,12.93-6.64,19.26-2.5,6.34-5.03,12.64-8.19,18.71-3.06,6.23-9.25,10-13.13,15.6-8.04,10.61-13.83,24.23-26.22,30.63h0Z"/>
    <path class="cls-16" d="M242.96,289.07c-.34.86-1.14,1.45-1.56,2.09-.97,1.45.57,2.66,2,2.97.4.11.89.2,1.32.5.41.29.69.86.47,1.29-.02-.46-.37-.75-.7-.86-.35-.13-.76-.12-1.21-.16-1.39-.04-3.18-1.11-3.11-2.79.07-1.64,1.82-2.16,2.81-3.04h0Z"/>
    <path class="cls-16" d="M210.5,300.22c.66-.79,1.98-.3,2.73.05,2.24,1.01,4.25,2.62,5.59,4.7.13.19.19.39.41.47-.24.1-.51-.07-.7-.16-2.1-1.15-4.04-2.53-5.91-4.01-.69-.5-1.2-1.18-2.13-1.05h0Z"/>
    <path class="cls-16" d="M230.49,288.86c-1.22.87-1.23,2.21-1.21,3.57.01,1.06-.06,2.08-.01,3.13.01.35.02.67.25.97-.72-.31-.86-1.25-1.04-1.93-.33-1.94-.58-5.38,2.01-5.74h0Z"/>
    <path class="cls-16" d="M196.53,322.69c2.81.76,5.72,2.11,7.57,4.51,1.75,2.2,2.64,5.16,4.44,7.12,1.15,1.28,2.85,2.17,4.5,3.21-8.13-.84-7.7-6.58-12.15-11.25-1.29-1.26-2.86-2.35-4.36-3.6h0Z"/>
    <path class="cls-16" d="M220.79,360.14c5.27,2.52,10.19,5.78,15.12,8.8,3.67,2.48,7.77,3.55,11.82,5.22,1.34.67,2.65,1.59,3.42,2.87-3.44-2.9-8.33-2.36-12.29-4.31-6.69-3.17-12.44-7.85-18.06-12.58h0Z"/>
    <path class="cls-16" d="M232.27,354.06c3.8,1.22,7.51,2.42,11.18,4.05,1.88.84,3.47,2.06,5.16,2.59,1.72.59,3.66.77,5.68,1.28,4.07,1.11,7.38,3.45,10.71,5.48,3.2,2.25,7.08,3.9,9.43,7.15-2.93-2.64-6.85-3.8-10.21-5.79-3.42-1.74-6.74-3.95-10.43-4.9-1.79-.5-3.81-.68-5.81-1.43-2.04-.79-3.59-2.07-5.24-2.98-3.41-1.84-7.07-3.48-10.47-5.43h0Z"/>
    <path class="cls-16" d="M275.98,356.26c-1.43,1.43-3.84.95-5.4-.07-1.67-1.11-2.75-2.72-3.99-3.92-2.08-2.16-6.81-3.33-9.56-4.51-3.39-1.29-12.15-4.63-15.42-5.9-1.68-.61-3.39-1.61-5.19-.95,1.62-1.1,3.76-.37,5.49,0,1.79.44,3.58.91,5.34,1.44,6.2,1.92,12.43,3.89,18.2,6.9,3.75,1.98,5.41,9.29,10.54,6.99h0Z"/>
    <path class="cls-16" d="M247.93,338.41c-.75-1.7-.73-3.55.09-5.23.56,1.78.52,3.47-.09,5.23h0Z"/>
    <path class="cls-16" d="M250.72,335.74c-1.22-.63-.93-2.73.42-3-.08.75-.29,2.25-.42,3h0Z"/>
    <path class="cls-16" d="M231.07,376.77c-.87-1.02-1.09-2.32-.6-3.56.88,1.1,1.07,2.23.6,3.56h0Z"/>
    <path class="cls-16" d="M232.63,374.6c-1.1-.13-1.19-1.86-.1-2.09.28,1.01.28,1.05.1,2.09h0Z"/>
    <path class="cls-16" d="M245.27,352.1c-.38,1.54-.69,2.46-1.33,3.91-.83-1.36-.14-3.34,1.33-3.91h0Z"/>
    <path class="cls-16" d="M246.65,353.49c-.96-1.34-.03-4.08,1.84-3.38-1.31.83-1.18,2.02-1.84,3.38h0Z"/>
    <path class="cls-16" d="M246.7,367.99c.52,1.17.65,1.77.65,3.05-1.21-.46-1.56-2.14-.65-3.05h0Z"/>
    <path class="cls-16" d="M248.14,368.35c-1.37-.4-1.71-2.79-.11-2.9-.36,1.13.17,1.66.11,2.9h0Z"/>
    <path class="cls-16" d="M274.98,347.01c-1.5.31-3.57.32-4.25,1.86-.17.75-.22,1.66-.19,2.5.04.86.17,1.73.38,2.63-.58-.72-.96-1.6-1.15-2.53-.9-3.97,1.63-5.43,5.21-4.46h0Z"/>
    <path class="cls-16" d="M274,368.35c-.88-.88-1.09-2.17-1.35-3.35-.63-4.22,3.9-5.49,6.66-2.83.42.43.99.78,1.17,1.37-.15-.27-.44-.37-.68-.53-5.32-3.39-7.57.16-5.8,5.34h0Z"/>
    <path class="cls-16" d="M264.74,371.59c-3.67,1.98-3.04,4.29-.63,7.07.67.78,1.42,1.5,2.23,2.22-1.02-.35-1.97-.94-2.79-1.67-3.11-2.55-3.51-6.86,1.19-7.62h0Z"/>
    <path class="cls-16" d="M243.16,377.47c-.84,1.76.29,3.01.98,4.69-1.95-.6-3.23-3.76-.98-4.69h0Z"/>
    <path class="cls-16" d="M231.76,293.8c-.84-1.35-.64-3.16.49-4.29.2,1.6.06,2.78-.49,4.29h0Z"/>
    <path class="cls-16" d="M253.35,293.97c14.49,8.94,23.95,25.93,23.89,42.96-2.82-16.58-11.29-31.83-23.89-42.96h0Z"/>
    <path class="cls-16" d="M237.83,310.2c7.35-1.52,15.62,2.28,19.35,8.78-.15-.04-.66-.14-.82-.18,0,0,.58-.12.58-.12,0,0-.1.21-.1.21-1.44-1.11-2.88-2.14-4.36-3.06-4.5-2.84-9.42-4.56-14.65-5.61h0Z"/>
    <path class="cls-16" d="M221.03,113.25c.11,5.87,1.08,11.66,3.23,17.11,1.5,4.17,3.94,7.76,6.27,11.53.69,1.33,1.23,2.87.96,4.36-.08-1.49-.72-2.82-1.59-3.97-6.9-7.8-10.85-18.6-8.87-29.02h0Z"/>
    <path class="cls-16" d="M242.16,80.61c-5.6-3.8-12.73-7.59-17.06,0,.29-3.89,4.38-6.95,8.24-6.29,3.85.44,6.85,3.19,8.82,6.29h0Z"/>
    <path class="cls-16" d="M225.58,98.62c.88,2.69,3.17,4.2,5.91,4.08-2.63,1.82-6.67-.97-5.91-4.08h0Z"/>
    <path class="cls-16" d="M229.64,79.01c-1.76,2.63-5.03,10.9-1.87,13.19-.62-.13-1.15-.6-1.49-1.16-1.75-4,.19-9.29,3.36-12.03h0Z"/>
    <path class="cls-16" d="M231.42,95.38c-.14-2.38-1.4-4.01-2.29-6.11-.84-2.73,2.26-4.4,4.54-4.5,1.48-.21,2.98-.2,4.44.02-1.47.17-2.89.42-4.29.74-1.9.4-4.25,1.3-3.77,3.49.77,1.94,1.87,4.18,1.38,6.36h0Z"/>
    <path class="cls-16" d="M234.5,94.33c-1.69-1.58-.56-5.01,1.75-5.26-1.37,1.61-1.89,3.14-1.75,5.26h0Z"/>
    <path class="cls-16" d="M237.01,103.81c-4.98,9.01-2.65,19.65.35,28.92.4,1.38.85,2.73,1.25,4.12-.61-1.3-1.15-2.63-1.71-3.95-3.76-9.06-6.1-20.56.12-29.09h0Z"/>
    <path class="cls-16" d="M261.67,141.52c3.18,2.12,5.99,4.74,9.6,6.06,1.72.66,3.63.98,5.26.32,1.26-.66,3.35-1.85,4.31-2.76.06-.05.03-.13.04.05.08.22.16.17.07.16-.13-.04-.82-.08-.98-.09-.9-.06-3.37-.18-4.3-.23-3.95-.24-7.51-2.04-10.97-3.73-1.69-.85-3.55-1.45-5.48-1.25,1.9-.44,3.9.07,5.68.79,3.47,1.48,7.04,3.05,10.81,3.28,1.33.07,3.74.16,5.05.27,1.2.02,1.35,1,.52,1.66-1.38,1.07-2.88,1.99-4.39,2.79-2.01.78-4.15.32-5.96-.4-3.72-1.4-6.59-4.14-9.27-6.91h0Z"/>
    <path class="cls-16" d="M268.67,144.94c1.65.26,3.2.95,4.82,1.23,1.62.32,3.3.52,4.89,1.04-3.41.22-6.82-.38-9.71-2.27h0Z"/>
    <path class="cls-16" d="M263.72,106.28c3.88-1.04,7.78-1.41,11.8-1.24,2.15.2,3.94,1.36,5.68,2.47,1.24.76,2.33,1.82,3.49,2.66.38.23.82.41,1.31.25-.37.36-1,.4-1.51.27-2.31-.81-4.41-2.1-6.67-2.98-1.76-.82-3.41-.73-5.32-.8-2.94-.12-5.83-.22-8.78-.63h0Z"/>
    <path class="cls-16" d="M296.83,114.81c2.27-1.12,4.93-1,7.08.35-2.16,1.39-5.06,1.24-7.08-.35h0Z"/>
    <path class="cls-16" d="M293.74,111.36c.45,1.21.16,2.69-.78,3.65-.99.86-1.92,1.59-2.17,2.94-.65,2.46-1.08,4.99-1.27,7.52-.33,3.81.14,7.76-.71,11.57-1.04,4.17-3.37,6.61-7.4,3.54-1.62-1.02-2.54-3.02-4.35-3.58-1.65-.62-4.28-.92-5.06-2.93-.85-1.83-.66-4.34,1.06-5.61,1.81-1.26,5.2-1.88,7.29-2.63,0,0-3.6,1.38-3.6,1.38-2.33.75-4.99,1.97-4.61,4.84.24,4.2,4.56,3.03,7.01,5.17,1.36,1.34,2.61,2.76,4.37,3.5,1.1.56,2.09.34,2.83-.64,3.02-4.09,1.67-9.85,2.39-14.68.29-2.57.81-5.11,1.57-7.59.21-.62.48-1.25.95-1.76.47-.5,1.04-.81,1.5-1.23.9-.84,1.31-2.22.96-3.46h0Z"/>
    <path class="cls-16" d="M267.29,108.22c1.69,1.35,2.89,3.33,5.12,3.72,1.01.25,2.1.31,3.2.38,1.12.03,2.2.25,3.26-.17-.41.4-.99.61-1.56.74-5.03.83-7.64,0-10.02-4.66h0Z"/>
    <path class="cls-16" d="M294.95,117.67c2.12.61,3.82,1.68,6.07,1.66-2.05,1.11-4.58-.16-6.07-1.66h0Z"/>
    <path class="cls-16" d="M276.68,153.46c4.33,8.2,5.66,17.63,6.69,26.74-3.03-8.57-4.35-17.98-6.69-26.74h0Z"/>
    <path class="cls-16" d="M381.11,301.54c1.53,3.53.36,8.13-2.69,10.49.56-3.67,1.43-7,2.69-10.49h0Z"/>
    <path class="cls-16" d="M380.88,320.44c1.04,4.42,1.03,8.95.57,13.43-.1.92-.25,1.87-.44,2.79-.08.54-.5,1.52-1.18,1.25.58-.09.47-.83.4-1.26-.8-5.38-.73-10.92.64-16.21h0Z"/>
    <path class="cls-16" d="M153.56,442.39c6.68-5.06,15.2-7.61,23.57-7.46,4.22.05,8.42.84,12.38,2.24,1.96.71,3.83,1.56,5.82,1.62,1.91.08,4.12-.84,4.84-2.85-.17,1.04-.87,1.96-1.77,2.55-2.77,1.95-6.43.71-9.26-.21-2.94-.86-5.94-1.45-8.99-1.72-9.2-.76-18.54,1.34-26.59,5.83h0Z"/>
    <path class="cls-16" d="M362.22,427.95c3.94-1.72,8.48-2.18,12.78-1.3,4.32.77,8.08,3.31,11.75,5.47,7.32,4.68,16.2,4.22,24.58,3.96-6.33,1.04-13.02,1.83-19.33,0-6.23-1.73-11.06-6.87-17.27-8.29-4.04-1.02-8.39-1.01-12.52.16h0Z"/>
    <path class="cls-16" d="M334.15,378.43c1.07-3.41,8.65-2.75,11.63-2.83,4.1.19,8.55,1.21,11.61,4.11-5.54-2.8-11.71-2.66-17.76-2.75-1.94,0-4.19-.27-5.48,1.48h0Z"/>
    <path class="cls-16" d="M303.04,56.18c4.88,4.63,6.11,11.74,4.87,18.14-.64-3.12-.82-6.29-1.55-9.36-.62-3.11-2.09-5.85-3.33-8.78h0Z"/>
    <path class="cls-16" d="M238.95,68.84c2.01-.76,4.57-.15,6.14,1.58,1.51,1.64,2.13,3.73,3.23,5.58,1.38,2.46,2.47,6.12,5.69,6,.93-.07,1.93-.6,2.23-1.65.05,1.16-1.01,2.09-2.09,2.37-2.39.72-4.5-1.39-5.62-3.22-1.06-1.84-2.09-3.76-2.91-5.7-1.03-2.9-3.28-5.19-6.66-4.97h0Z"/>
    <path class="cls-16" d="M315.02,68.81c2.34,3.52,2.67,8.41.8,12.21-.15-1.83-.21-4.28-.33-6.11-.12-1.84-.37-4.26-.47-6.1h0Z"/>
    <path class="cls-16" d="M280.31,66.81c5.56-1.77,12.38,1.7,14.21,7.25-3.69-4.21-8.57-6.74-14.21-7.25h0Z"/>
    <path class="cls-16" d="M276.04,43.16c6.28,1.93,11.66,6.89,14.3,12.88,0,0-.32.05-.32.05.61-1.55.4-.53.29.47-4.14-5.25-8.81-9.56-14.28-13.4h0Z"/>
    <path class="cls-16" d="M248.33,50.89c5.69-6.35,15.78-2.12,19.58,4.27-1.48-1.16-2.93-2.29-4.46-3.24-4.47-2.91-10.37-4.01-15.11-1.03h0Z"/>
    <path class="cls-16" d="M244.74,59.98c4.38-.94,9.31.84,12.25,4.3,2.73,3.11,3.91,8.09,8.34,9.11,2.08.53,4.19-.37,6.28-.7.74-.09,1.59.03,2.13.56-.64-.39-1.39-.34-2.06-.17-3.78,1.63-7.42,2.61-10.73-.67-2.18-2.09-3.23-4.97-5.05-7.22-2.68-3.32-6.82-5.19-11.17-5.2h0Z"/>
  </g>
</svg>