<svg width="197" height="96" viewBox="0 0 197 96" fill="none" xmlns="http://www.w3.org/2000/svg">
<path d="M27.808 42.16C26.9973 42.16 26.4213 41.7333 26.08 40.88C25.76 40.0267 25.6 38.6613 25.6 36.784C25.6 34.0107 25.9947 31.376 26.784 28.88C26.976 28.2613 27.2853 27.8133 27.712 27.536C28.16 27.2373 28.7787 27.088 29.568 27.088C29.9947 27.088 30.2933 27.1413 30.464 27.248C30.6347 27.3547 30.72 27.5573 30.72 27.856C30.72 28.1973 30.56 28.9653 30.24 30.16C30.0267 31.0133 29.856 31.76 29.728 32.4C29.6 33.0187 29.4933 33.7973 29.408 34.736C29.984 33.072 30.6667 31.664 31.456 30.512C32.2667 29.36 33.088 28.5067 33.92 27.952C34.7733 27.376 35.5733 27.088 36.32 27.088C37.0667 27.088 37.5893 27.2587 37.888 27.6C38.208 27.9413 38.368 28.464 38.368 29.168C38.368 29.8507 38.1653 31.088 37.76 32.88C37.5893 33.648 37.472 34.224 37.408 34.608C38.4747 31.984 39.6587 30.0747 40.96 28.88C42.2613 27.6853 43.4773 27.088 44.608 27.088C45.9947 27.088 46.688 27.7813 46.688 29.168C46.688 30 46.4533 31.504 45.984 33.68C45.5787 35.536 45.376 36.7627 45.376 37.36C45.376 38.2133 45.6853 38.64 46.304 38.64C46.7307 38.64 47.232 38.384 47.808 37.872C48.4053 37.3387 49.1947 36.4853 50.176 35.312C50.432 35.0133 50.72 34.864 51.04 34.864C51.3173 34.864 51.5307 34.992 51.68 35.248C51.8507 35.504 51.936 35.856 51.936 36.304C51.936 37.1573 51.7333 37.8187 51.328 38.288C50.4107 39.4187 49.4187 40.3467 48.352 41.072C47.3067 41.7973 46.112 42.16 44.768 42.16C43.68 42.16 42.8587 41.8507 42.304 41.232C41.7493 40.592 41.472 39.6747 41.472 38.48C41.472 37.8827 41.6213 36.816 41.92 35.28C42.1973 33.936 42.336 33.008 42.336 32.496C42.336 32.1547 42.2187 31.984 41.984 31.984C41.7067 31.984 41.312 32.3467 40.8 33.072C40.288 33.776 39.776 34.7147 39.264 35.888C38.752 37.0613 38.336 38.2987 38.016 39.6C37.7813 40.624 37.504 41.3067 37.184 41.648C36.8853 41.9893 36.3947 42.16 35.712 42.16C35.008 42.16 34.4747 41.8293 34.112 41.168C33.7707 40.4853 33.6 39.664 33.6 38.704C33.6 37.8933 33.7067 36.72 33.92 35.184C34.0907 33.8187 34.176 32.9227 34.176 32.496C34.176 32.1547 34.0587 31.984 33.824 31.984C33.504 31.984 33.0987 32.368 32.608 33.136C32.1173 33.904 31.6373 34.8853 31.168 36.08C30.72 37.2747 30.3573 38.448 30.08 39.6C29.8453 40.6027 29.568 41.2853 29.248 41.648C28.9493 41.9893 28.4693 42.16 27.808 42.16ZM65.6685 32.176C65.9458 32.176 66.1592 32.3147 66.3085 32.592C66.4578 32.8693 66.5325 33.2213 66.5325 33.648C66.5325 34.672 66.2232 35.28 65.6045 35.472C64.3245 35.92 62.9165 36.176 61.3805 36.24C60.9752 38.032 60.1752 39.472 58.9805 40.56C57.7858 41.6267 56.4312 42.16 54.9165 42.16C53.6365 42.16 52.5378 41.8507 51.6205 41.232C50.7245 40.6133 50.0418 39.792 49.5725 38.768C49.1032 37.744 48.8685 36.6347 48.8685 35.44C48.8685 33.8187 49.1778 32.3787 49.7965 31.12C50.4152 29.84 51.2685 28.848 52.3565 28.144C53.4445 27.4187 54.6498 27.056 55.9725 27.056C57.5938 27.056 58.8952 27.6213 59.8765 28.752C60.8792 29.8613 61.4658 31.2373 61.6365 32.88C62.6392 32.816 63.8338 32.6027 65.2205 32.24C65.3912 32.1973 65.5405 32.176 65.6685 32.176ZM55.1725 38.768C55.8552 38.768 56.4418 38.4907 56.9325 37.936C57.4445 37.3813 57.7858 36.5813 57.9565 35.536C57.2952 35.088 56.7832 34.5013 56.4205 33.776C56.0792 33.0507 55.9085 32.2827 55.9085 31.472C55.9085 31.1307 55.9405 30.7893 56.0045 30.448H55.8445C54.9912 30.448 54.2765 30.864 53.7005 31.696C53.1458 32.5067 52.8685 33.6587 52.8685 35.152C52.8685 36.3253 53.0925 37.2213 53.5405 37.84C54.0098 38.4587 54.5538 38.768 55.1725 38.768ZM66.058 42.16C65.2473 42.16 64.6713 41.7333 64.33 40.88C64.01 40.0267 63.85 38.6613 63.85 36.784C63.85 34.0107 64.2447 31.376 65.034 28.88C65.226 28.2613 65.5353 27.8133 65.962 27.536C66.41 27.2373 67.0287 27.088 67.818 27.088C68.2447 27.088 68.5433 27.1413 68.714 27.248C68.8847 27.3547 68.97 27.5573 68.97 27.856C68.97 28.1973 68.81 28.9653 68.49 30.16C68.2767 31.0133 68.106 31.76 67.978 32.4C67.85 33.04 67.7433 33.8293 67.658 34.768C68.362 32.9333 69.1513 31.44 70.026 30.288C70.9007 29.136 71.754 28.3147 72.586 27.824C73.4393 27.3333 74.218 27.088 74.922 27.088C75.6047 27.088 76.1167 27.2693 76.458 27.632C76.8207 27.9733 77.002 28.4853 77.002 29.168C77.002 29.7227 76.8847 30.768 76.65 32.304C76.4367 33.6053 76.266 34.8427 76.138 36.016C76.01 37.168 75.946 38.4587 75.946 39.888C75.946 40.6987 75.7753 41.2853 75.434 41.648C75.114 41.9893 74.5807 42.16 73.834 42.16C73.13 42.16 72.618 41.9787 72.298 41.616C71.978 41.2533 71.818 40.7093 71.818 39.984C71.818 39.1307 71.9673 37.7227 72.266 35.76C72.522 34.0533 72.65 32.9653 72.65 32.496C72.65 32.1547 72.5327 31.984 72.298 31.984C72.0207 31.984 71.626 32.3467 71.114 33.072C70.6233 33.776 70.1113 34.7147 69.578 35.888C69.066 37.0613 68.65 38.2987 68.33 39.6C68.0953 40.6027 67.818 41.2853 67.498 41.648C67.1993 41.9893 66.7193 42.16 66.058 42.16ZM91.6908 42.16C90.3681 42.16 89.3121 41.68 88.5228 40.72C87.7334 39.76 87.3388 38.5013 87.3388 36.944C87.3388 35.2373 87.7334 33.6267 88.5228 32.112C89.3121 30.576 90.3574 29.3493 91.6588 28.432C92.9814 27.4933 94.3788 27.024 95.8508 27.024C96.3201 27.024 96.6294 27.12 96.7788 27.312C96.9494 27.4827 97.0881 27.8027 97.1948 28.272C97.6428 28.1867 98.1121 28.144 98.6028 28.144C99.6481 28.144 100.171 28.5173 100.171 29.264C100.171 29.712 100.011 30.7787 99.6908 32.464C99.2001 34.9173 98.9548 36.624 98.9548 37.584C98.9548 37.904 99.0294 38.16 99.1788 38.352C99.3494 38.544 99.5628 38.64 99.8188 38.64C100.224 38.64 100.715 38.384 101.291 37.872C101.867 37.3387 102.645 36.4853 103.627 35.312C103.883 35.0133 104.171 34.864 104.491 34.864C104.768 34.864 104.981 34.992 105.131 35.248C105.301 35.504 105.387 35.856 105.387 36.304C105.387 37.1573 105.184 37.8187 104.779 38.288C103.904 39.376 102.976 40.2933 101.995 41.04C101.013 41.7867 100.064 42.16 99.1468 42.16C98.4428 42.16 97.7921 41.9253 97.1948 41.456C96.6188 40.9653 96.1814 40.304 95.8828 39.472C94.7734 41.264 93.3761 42.16 91.6908 42.16ZM92.8428 38.928C93.3121 38.928 93.7601 38.6507 94.1868 38.096C94.6134 37.5413 94.9228 36.8053 95.1148 35.888L96.2988 30C95.4028 30.0213 94.5708 30.3627 93.8028 31.024C93.0561 31.664 92.4588 32.5173 92.0108 33.584C91.5628 34.6507 91.3388 35.7813 91.3388 36.976C91.3388 37.6373 91.4668 38.128 91.7228 38.448C92.0001 38.768 92.3734 38.928 92.8428 38.928ZM125.258 33.04C125.855 33.04 126.154 33.488 126.154 34.384C126.154 36.0907 124.788 36.944 122.058 36.944C121.951 36.944 121.354 36.912 120.266 36.848C120.5 37.9787 120.682 39.2693 120.81 40.72C120.959 42.1493 121.034 43.5787 121.034 45.008C121.034 47.312 120.639 49.072 119.85 50.288C119.082 51.504 118.09 52.112 116.874 52.112C115.338 52.112 114.239 51.024 113.578 48.848C112.938 46.672 112.618 43.3867 112.618 38.992C112.618 37.8613 112.65 36.72 112.714 35.568C112.522 35.5893 112.212 35.6 111.786 35.6C111.21 35.6 110.74 35.6107 110.378 35.632C110.591 37.2107 110.751 38.7253 110.858 40.176C110.986 41.6267 111.05 43.2373 111.05 45.008C111.05 47.312 110.655 49.072 109.866 50.288C109.098 51.504 108.106 52.112 106.89 52.112C105.354 52.112 104.255 51.024 103.594 48.848C102.954 46.672 102.634 43.3867 102.634 38.992C102.634 34.8747 103.039 30.7147 103.85 26.512C104.682 22.288 105.834 18.8 107.306 16.048C108.778 13.296 110.442 11.92 112.298 11.92C113.258 11.92 114.004 12.3253 114.538 13.136C115.092 13.9253 115.37 15.0667 115.37 16.56C115.37 18.8853 114.74 21.4773 113.482 24.336C112.244 27.1733 110.047 30.16 106.89 33.296C106.698 35.1733 106.602 36.9973 106.602 38.768C106.602 40.9653 106.676 43.216 106.826 45.52C106.975 47.8453 107.22 49.008 107.562 49.008C107.882 49.008 108.138 48.7413 108.33 48.208C108.522 47.6747 108.618 46.832 108.618 45.68C108.618 43.5893 108.532 41.744 108.362 40.144C108.212 38.5227 108.031 37.2213 107.818 36.24C107.775 36.0907 107.754 35.8667 107.754 35.568C107.754 34.6507 108.116 33.8933 108.842 33.296C109.588 32.6987 110.57 32.3893 111.786 32.368H112.554H113.002C113.407 28.8267 114.068 25.4987 114.986 22.384C115.924 19.248 117.055 16.72 118.378 14.8C119.722 12.88 121.162 11.92 122.698 11.92C123.7 11.92 124.479 12.368 125.034 13.264C125.61 14.16 125.898 15.3653 125.898 16.88C125.898 18.7573 125.546 20.8587 124.842 23.184C124.138 25.5093 123.092 27.696 121.706 29.744C120.34 31.7707 118.708 33.296 116.81 34.32C116.66 35.7493 116.586 37.232 116.586 38.768C116.586 40.9653 116.66 43.216 116.81 45.52C116.959 47.8453 117.204 49.008 117.546 49.008C117.866 49.008 118.122 48.7413 118.314 48.208C118.506 47.6747 118.602 46.832 118.602 45.68C118.602 44.016 118.516 42.4267 118.346 40.912C118.175 39.3973 117.994 38.16 117.802 37.2C117.759 37.0293 117.738 36.7947 117.738 36.496C117.738 35.6213 118.036 34.8853 118.634 34.288C119.231 33.6693 119.914 33.36 120.682 33.36C121.407 33.36 122.068 33.3387 122.666 33.296C123.284 33.232 123.679 33.1893 123.85 33.168C124.575 33.0827 125.044 33.04 125.258 33.04ZM111.626 15.088C111.242 15.088 110.783 15.7387 110.25 17.04C109.738 18.3413 109.226 20.0693 108.714 22.224C108.202 24.3787 107.764 26.672 107.402 29.104C109.023 27.184 110.239 25.104 111.05 22.864C111.882 20.6027 112.298 18.5547 112.298 16.72C112.298 16.1867 112.234 15.7813 112.106 15.504C111.978 15.2267 111.818 15.088 111.626 15.088ZM122.026 15.088C121.599 15.088 121.076 15.8347 120.458 17.328C119.86 18.8213 119.263 20.7733 118.666 23.184C118.09 25.5947 117.61 28.0907 117.226 30.672C118.442 29.712 119.466 28.432 120.298 26.832C121.151 25.232 121.78 23.5573 122.186 21.808C122.612 20.0587 122.826 18.4693 122.826 17.04C122.826 15.7387 122.559 15.088 122.026 15.088ZM127.916 24.976C127.02 24.976 126.348 24.7733 125.9 24.368C125.452 23.9413 125.228 23.3547 125.228 22.608C125.228 21.8613 125.516 21.2427 126.092 20.752C126.689 20.24 127.425 19.984 128.3 19.984C129.089 19.984 129.729 20.176 130.22 20.56C130.71 20.944 130.956 21.488 130.956 22.192C130.956 23.0453 130.678 23.728 130.124 24.24C129.569 24.7307 128.833 24.976 127.916 24.976ZM127.66 42.16C126.273 42.16 125.26 41.6693 124.62 40.688C124.001 39.7067 123.692 38.4053 123.692 36.784C123.692 35.824 123.809 34.5973 124.044 33.104C124.3 31.5893 124.62 30.1813 125.004 28.88C125.196 28.1973 125.452 27.728 125.772 27.472C126.092 27.216 126.604 27.088 127.308 27.088C128.396 27.088 128.94 27.4507 128.94 28.176C128.94 28.7093 128.737 29.9467 128.332 31.888C127.82 34.2347 127.564 35.824 127.564 36.656C127.564 37.296 127.649 37.7867 127.82 38.128C127.99 38.4693 128.278 38.64 128.684 38.64C129.068 38.64 129.548 38.3733 130.124 37.84C130.7 37.3067 131.468 36.464 132.428 35.312C132.684 35.0133 132.972 34.864 133.292 34.864C133.569 34.864 133.782 34.992 133.932 35.248C134.102 35.504 134.188 35.856 134.188 36.304C134.188 37.1573 133.985 37.8187 133.58 38.288C131.468 40.8693 129.494 42.16 127.66 42.16ZM137.711 42.16C135.62 42.16 133.988 41.5733 132.815 40.4C131.663 39.2053 131.087 37.6373 131.087 35.696C131.087 33.968 131.428 32.4533 132.111 31.152C132.793 29.8507 133.679 28.848 134.766 28.144C135.855 27.44 136.996 27.088 138.191 27.088C139.364 27.088 140.271 27.44 140.911 28.144C141.572 28.8267 141.903 29.712 141.903 30.8C141.903 31.696 141.7 32.4533 141.295 33.072C140.911 33.6907 140.399 34 139.759 34C139.353 34 139.023 33.904 138.767 33.712C138.532 33.52 138.415 33.2533 138.415 32.912C138.415 32.7627 138.436 32.592 138.479 32.4C138.521 32.208 138.553 32.0693 138.575 31.984C138.681 31.664 138.735 31.3653 138.735 31.088C138.735 30.8107 138.66 30.5973 138.51 30.448C138.383 30.2987 138.191 30.224 137.935 30.224C137.444 30.224 136.985 30.448 136.559 30.896C136.132 31.3227 135.791 31.9093 135.535 32.656C135.279 33.4027 135.151 34.224 135.151 35.12C135.151 37.5947 136.228 38.832 138.383 38.832C139.257 38.832 140.196 38.544 141.199 37.968C142.223 37.3707 143.225 36.4853 144.207 35.312C144.463 35.0133 144.751 34.864 145.071 34.864C145.348 34.864 145.561 34.992 145.711 35.248C145.881 35.504 145.967 35.856 145.967 36.304C145.967 37.1147 145.764 37.776 145.359 38.288C144.356 39.5253 143.151 40.4853 141.743 41.168C140.356 41.8293 139.012 42.16 137.711 42.16ZM161.14 34.864C161.417 34.864 161.63 34.992 161.78 35.248C161.95 35.504 162.036 35.856 162.036 36.304C162.036 37.1573 161.833 37.8187 161.428 38.288C160.446 39.4187 159.433 40.3467 158.388 41.072C157.364 41.7973 156.19 42.16 154.868 42.16C153.78 42.16 152.958 41.8507 152.404 41.232C151.849 40.592 151.572 39.6747 151.572 38.48C151.572 37.8827 151.721 36.816 152.02 35.28C152.297 33.936 152.436 33.008 152.436 32.496C152.436 32.1547 152.318 31.984 152.084 31.984C151.806 31.984 151.412 32.3467 150.9 33.072C150.388 33.776 149.876 34.7147 149.364 35.888C148.852 37.0613 148.436 38.2987 148.116 39.6C147.71 41.3067 146.708 42.16 145.108 42.16C144.468 42.16 144.041 41.936 143.828 41.488C143.636 41.0187 143.54 40.1867 143.54 38.992C143.54 38.3093 143.55 37.7653 143.572 37.36L143.604 34.8C143.604 31.5147 143.934 28.0907 144.596 24.528C145.278 20.9653 146.27 17.9787 147.572 15.568C148.894 13.136 150.473 11.92 152.308 11.92C153.289 11.92 154.078 12.3467 154.676 13.2C155.294 14.032 155.604 15.12 155.604 16.464C155.604 18.6187 154.974 20.8587 153.716 23.184C152.457 25.488 150.409 28.1867 147.572 31.28C147.508 32.3893 147.476 33.5307 147.476 34.704C148.18 32.8907 148.958 31.4187 149.812 30.288C150.686 29.136 151.54 28.3147 152.372 27.824C153.225 27.3333 154.004 27.088 154.708 27.088C156.094 27.088 156.788 27.7813 156.788 29.168C156.788 30 156.553 31.504 156.084 33.68C155.678 35.536 155.476 36.7627 155.476 37.36C155.476 38.2133 155.785 38.64 156.404 38.64C156.83 38.64 157.332 38.384 157.908 37.872C158.505 37.3387 159.294 36.4853 160.276 35.312C160.532 35.0133 160.82 34.864 161.14 34.864ZM151.636 15.088C151.252 15.088 150.825 15.6427 150.356 16.752C149.886 17.84 149.428 19.3227 148.98 21.2C148.553 23.056 148.201 25.0827 147.924 27.28C149.246 25.7227 150.334 24.0267 151.188 22.192C152.062 20.3573 152.5 18.6933 152.5 17.2C152.5 16.5173 152.425 15.9947 152.276 15.632C152.126 15.2693 151.913 15.088 151.636 15.088ZM170.898 35.824C171.176 35.824 171.389 35.952 171.538 36.208C171.709 36.464 171.794 36.816 171.794 37.264C171.794 38.032 171.613 38.6933 171.25 39.248C170.653 40.1653 169.864 40.88 168.882 41.392C167.922 41.904 166.77 42.16 165.426 42.16C163.378 42.16 161.789 41.552 160.658 40.336C159.528 39.0987 158.962 37.4347 158.962 35.344C158.962 33.872 159.272 32.5067 159.89 31.248C160.509 29.968 161.362 28.9547 162.45 28.208C163.56 27.4613 164.808 27.088 166.194 27.088C167.432 27.088 168.424 27.4613 169.17 28.208C169.917 28.9333 170.29 29.9253 170.29 31.184C170.29 32.656 169.757 33.9253 168.69 34.992C167.645 36.0373 165.853 36.8693 163.314 37.488C163.826 38.4693 164.69 38.96 165.906 38.96C166.781 38.96 167.496 38.7573 168.05 38.352C168.626 37.9467 169.288 37.264 170.034 36.304C170.29 35.984 170.578 35.824 170.898 35.824ZM165.65 30.224C164.861 30.224 164.189 30.6827 163.634 31.6C163.101 32.5173 162.834 33.6267 162.834 34.928V34.992C164.093 34.6933 165.085 34.2453 165.81 33.648C166.536 33.0507 166.898 32.3573 166.898 31.568C166.898 31.1627 166.781 30.8427 166.546 30.608C166.333 30.352 166.034 30.224 165.65 30.224Z" fill="#001AFF"/>
<path d="M0.0287924 87.1664C-0.157707 88.2551 0.573681 89.2889 1.66239 89.4754L19.404 92.5146C20.4927 92.7011 21.5264 91.9697 21.7129 90.881C21.8994 89.7923 21.168 88.7585 20.0793 88.572L4.30905 85.8705L7.01054 70.1002C7.19704 69.0115 6.46565 67.9778 5.37694 67.7913C4.28823 67.6048 3.25447 68.3361 3.06797 69.4249L0.0287924 87.1664ZM193.367 80.8939C194.395 81.2967 195.555 80.7895 195.958 79.761C196.361 78.7326 195.854 77.5722 194.825 77.1694L193.367 80.8939ZM3.15521 89.1368C52.9166 53.9306 127.747 55.1913 193.367 80.8939L194.825 77.1694C128.534 51.2038 52.133 49.5851 0.844949 85.8714L3.15521 89.1368Z" fill="#001AFF"/>
</svg>
