<svg width="186" height="271" viewBox="0 0 186 271" fill="none" xmlns="http://www.w3.org/2000/svg">
<path d="M30.808 42.16C29.9973 42.16 29.4213 41.7333 29.08 40.88C28.76 40.0267 28.6 38.6613 28.6 36.784C28.6 34.0107 28.9947 31.376 29.784 28.88C29.976 28.2613 30.2853 27.8133 30.712 27.536C31.16 27.2373 31.7787 27.088 32.568 27.088C32.9947 27.088 33.2933 27.1413 33.464 27.248C33.6347 27.3547 33.72 27.5573 33.72 27.856C33.72 28.1973 33.56 28.9653 33.24 30.16C33.0267 31.0133 32.856 31.76 32.728 32.4C32.6 33.0187 32.4933 33.7973 32.408 34.736C32.984 33.072 33.6667 31.664 34.456 30.512C35.2667 29.36 36.088 28.5067 36.92 27.952C37.7733 27.376 38.5733 27.088 39.32 27.088C40.0667 27.088 40.5893 27.2587 40.888 27.6C41.208 27.9413 41.368 28.464 41.368 29.168C41.368 29.8507 41.1653 31.088 40.76 32.88C40.5893 33.648 40.472 34.224 40.408 34.608C41.4747 31.984 42.6587 30.0747 43.96 28.88C45.2613 27.6853 46.4773 27.088 47.608 27.088C48.9947 27.088 49.688 27.7813 49.688 29.168C49.688 30 49.4533 31.504 48.984 33.68C48.5787 35.536 48.376 36.7627 48.376 37.36C48.376 38.2133 48.6853 38.64 49.304 38.64C49.7307 38.64 50.232 38.384 50.808 37.872C51.4053 37.3387 52.1947 36.4853 53.176 35.312C53.432 35.0133 53.72 34.864 54.04 34.864C54.3173 34.864 54.5307 34.992 54.68 35.248C54.8507 35.504 54.936 35.856 54.936 36.304C54.936 37.1573 54.7333 37.8187 54.328 38.288C53.4107 39.4187 52.4187 40.3467 51.352 41.072C50.3067 41.7973 49.112 42.16 47.768 42.16C46.68 42.16 45.8587 41.8507 45.304 41.232C44.7493 40.592 44.472 39.6747 44.472 38.48C44.472 37.8827 44.6213 36.816 44.92 35.28C45.1973 33.936 45.336 33.008 45.336 32.496C45.336 32.1547 45.2187 31.984 44.984 31.984C44.7067 31.984 44.312 32.3467 43.8 33.072C43.288 33.776 42.776 34.7147 42.264 35.888C41.752 37.0613 41.336 38.2987 41.016 39.6C40.7813 40.624 40.504 41.3067 40.184 41.648C39.8853 41.9893 39.3947 42.16 38.712 42.16C38.008 42.16 37.4747 41.8293 37.112 41.168C36.7707 40.4853 36.6 39.664 36.6 38.704C36.6 37.8933 36.7067 36.72 36.92 35.184C37.0907 33.8187 37.176 32.9227 37.176 32.496C37.176 32.1547 37.0587 31.984 36.824 31.984C36.504 31.984 36.0987 32.368 35.608 33.136C35.1173 33.904 34.6373 34.8853 34.168 36.08C33.72 37.2747 33.3573 38.448 33.08 39.6C32.8453 40.6027 32.568 41.2853 32.248 41.648C31.9493 41.9893 31.4693 42.16 30.808 42.16ZM68.6685 32.176C68.9458 32.176 69.1592 32.3147 69.3085 32.592C69.4578 32.8693 69.5325 33.2213 69.5325 33.648C69.5325 34.672 69.2232 35.28 68.6045 35.472C67.3245 35.92 65.9165 36.176 64.3805 36.24C63.9752 38.032 63.1752 39.472 61.9805 40.56C60.7858 41.6267 59.4312 42.16 57.9165 42.16C56.6365 42.16 55.5378 41.8507 54.6205 41.232C53.7245 40.6133 53.0418 39.792 52.5725 38.768C52.1032 37.744 51.8685 36.6347 51.8685 35.44C51.8685 33.8187 52.1778 32.3787 52.7965 31.12C53.4152 29.84 54.2685 28.848 55.3565 28.144C56.4445 27.4187 57.6498 27.056 58.9725 27.056C60.5938 27.056 61.8952 27.6213 62.8765 28.752C63.8792 29.8613 64.4658 31.2373 64.6365 32.88C65.6392 32.816 66.8338 32.6027 68.2205 32.24C68.3912 32.1973 68.5405 32.176 68.6685 32.176ZM58.1725 38.768C58.8552 38.768 59.4418 38.4907 59.9325 37.936C60.4445 37.3813 60.7858 36.5813 60.9565 35.536C60.2952 35.088 59.7832 34.5013 59.4205 33.776C59.0792 33.0507 58.9085 32.2827 58.9085 31.472C58.9085 31.1307 58.9405 30.7893 59.0045 30.448H58.8445C57.9912 30.448 57.2765 30.864 56.7005 31.696C56.1458 32.5067 55.8685 33.6587 55.8685 35.152C55.8685 36.3253 56.0925 37.2213 56.5405 37.84C57.0098 38.4587 57.5538 38.768 58.1725 38.768ZM69.058 42.16C68.2473 42.16 67.6713 41.7333 67.33 40.88C67.01 40.0267 66.85 38.6613 66.85 36.784C66.85 34.0107 67.2447 31.376 68.034 28.88C68.226 28.2613 68.5353 27.8133 68.962 27.536C69.41 27.2373 70.0287 27.088 70.818 27.088C71.2447 27.088 71.5433 27.1413 71.714 27.248C71.8847 27.3547 71.97 27.5573 71.97 27.856C71.97 28.1973 71.81 28.9653 71.49 30.16C71.2767 31.0133 71.106 31.76 70.978 32.4C70.85 33.04 70.7433 33.8293 70.658 34.768C71.362 32.9333 72.1513 31.44 73.026 30.288C73.9007 29.136 74.754 28.3147 75.586 27.824C76.4393 27.3333 77.218 27.088 77.922 27.088C78.6047 27.088 79.1167 27.2693 79.458 27.632C79.8207 27.9733 80.002 28.4853 80.002 29.168C80.002 29.7227 79.8847 30.768 79.65 32.304C79.4367 33.6053 79.266 34.8427 79.138 36.016C79.01 37.168 78.946 38.4587 78.946 39.888C78.946 40.6987 78.7753 41.2853 78.434 41.648C78.114 41.9893 77.5807 42.16 76.834 42.16C76.13 42.16 75.618 41.9787 75.298 41.616C74.978 41.2533 74.818 40.7093 74.818 39.984C74.818 39.1307 74.9673 37.7227 75.266 35.76C75.522 34.0533 75.65 32.9653 75.65 32.496C75.65 32.1547 75.5327 31.984 75.298 31.984C75.0207 31.984 74.626 32.3467 74.114 33.072C73.6233 33.776 73.1113 34.7147 72.578 35.888C72.066 37.0613 71.65 38.2987 71.33 39.6C71.0953 40.6027 70.818 41.2853 70.498 41.648C70.1993 41.9893 69.7193 42.16 69.058 42.16ZM94.6908 42.16C93.3681 42.16 92.3121 41.68 91.5228 40.72C90.7334 39.76 90.3388 38.5013 90.3388 36.944C90.3388 35.2373 90.7334 33.6267 91.5228 32.112C92.3121 30.576 93.3574 29.3493 94.6588 28.432C95.9814 27.4933 97.3788 27.024 98.8508 27.024C99.3201 27.024 99.6294 27.12 99.7788 27.312C99.9494 27.4827 100.088 27.8027 100.195 28.272C100.643 28.1867 101.112 28.144 101.603 28.144C102.648 28.144 103.171 28.5173 103.171 29.264C103.171 29.712 103.011 30.7787 102.691 32.464C102.2 34.9173 101.955 36.624 101.955 37.584C101.955 37.904 102.029 38.16 102.179 38.352C102.349 38.544 102.563 38.64 102.819 38.64C103.224 38.64 103.715 38.384 104.291 37.872C104.867 37.3387 105.645 36.4853 106.627 35.312C106.883 35.0133 107.171 34.864 107.491 34.864C107.768 34.864 107.981 34.992 108.131 35.248C108.301 35.504 108.387 35.856 108.387 36.304C108.387 37.1573 108.184 37.8187 107.779 38.288C106.904 39.376 105.976 40.2933 104.995 41.04C104.013 41.7867 103.064 42.16 102.147 42.16C101.443 42.16 100.792 41.9253 100.195 41.456C99.6188 40.9653 99.1814 40.304 98.8828 39.472C97.7734 41.264 96.3761 42.16 94.6908 42.16ZM95.8428 38.928C96.3121 38.928 96.7601 38.6507 97.1868 38.096C97.6134 37.5413 97.9228 36.8053 98.1148 35.888L99.2988 30C98.4028 30.0213 97.5708 30.3627 96.8028 31.024C96.0561 31.664 95.4588 32.5173 95.0108 33.584C94.5628 34.6507 94.3388 35.7813 94.3388 36.976C94.3388 37.6373 94.4668 38.128 94.7228 38.448C95.0001 38.768 95.3734 38.928 95.8428 38.928ZM128.258 33.04C128.855 33.04 129.154 33.488 129.154 34.384C129.154 36.0907 127.788 36.944 125.058 36.944C124.951 36.944 124.354 36.912 123.266 36.848C123.5 37.9787 123.682 39.2693 123.81 40.72C123.959 42.1493 124.034 43.5787 124.034 45.008C124.034 47.312 123.639 49.072 122.85 50.288C122.082 51.504 121.09 52.112 119.874 52.112C118.338 52.112 117.239 51.024 116.578 48.848C115.938 46.672 115.618 43.3867 115.618 38.992C115.618 37.8613 115.65 36.72 115.714 35.568C115.522 35.5893 115.212 35.6 114.786 35.6C114.21 35.6 113.74 35.6107 113.378 35.632C113.591 37.2107 113.751 38.7253 113.858 40.176C113.986 41.6267 114.05 43.2373 114.05 45.008C114.05 47.312 113.655 49.072 112.866 50.288C112.098 51.504 111.106 52.112 109.89 52.112C108.354 52.112 107.255 51.024 106.594 48.848C105.954 46.672 105.634 43.3867 105.634 38.992C105.634 34.8747 106.039 30.7147 106.85 26.512C107.682 22.288 108.834 18.8 110.306 16.048C111.778 13.296 113.442 11.92 115.298 11.92C116.258 11.92 117.004 12.3253 117.538 13.136C118.092 13.9253 118.37 15.0667 118.37 16.56C118.37 18.8853 117.74 21.4773 116.482 24.336C115.244 27.1733 113.047 30.16 109.89 33.296C109.698 35.1733 109.602 36.9973 109.602 38.768C109.602 40.9653 109.676 43.216 109.826 45.52C109.975 47.8453 110.22 49.008 110.562 49.008C110.882 49.008 111.138 48.7413 111.33 48.208C111.522 47.6747 111.618 46.832 111.618 45.68C111.618 43.5893 111.532 41.744 111.362 40.144C111.212 38.5227 111.031 37.2213 110.818 36.24C110.775 36.0907 110.754 35.8667 110.754 35.568C110.754 34.6507 111.116 33.8933 111.842 33.296C112.588 32.6987 113.57 32.3893 114.786 32.368H115.554H116.002C116.407 28.8267 117.068 25.4987 117.986 22.384C118.924 19.248 120.055 16.72 121.378 14.8C122.722 12.88 124.162 11.92 125.698 11.92C126.7 11.92 127.479 12.368 128.034 13.264C128.61 14.16 128.898 15.3653 128.898 16.88C128.898 18.7573 128.546 20.8587 127.842 23.184C127.138 25.5093 126.092 27.696 124.706 29.744C123.34 31.7707 121.708 33.296 119.81 34.32C119.66 35.7493 119.586 37.232 119.586 38.768C119.586 40.9653 119.66 43.216 119.81 45.52C119.959 47.8453 120.204 49.008 120.546 49.008C120.866 49.008 121.122 48.7413 121.314 48.208C121.506 47.6747 121.602 46.832 121.602 45.68C121.602 44.016 121.516 42.4267 121.346 40.912C121.175 39.3973 120.994 38.16 120.802 37.2C120.759 37.0293 120.738 36.7947 120.738 36.496C120.738 35.6213 121.036 34.8853 121.634 34.288C122.231 33.6693 122.914 33.36 123.682 33.36C124.407 33.36 125.068 33.3387 125.666 33.296C126.284 33.232 126.679 33.1893 126.85 33.168C127.575 33.0827 128.044 33.04 128.258 33.04ZM114.626 15.088C114.242 15.088 113.783 15.7387 113.25 17.04C112.738 18.3413 112.226 20.0693 111.714 22.224C111.202 24.3787 110.764 26.672 110.402 29.104C112.023 27.184 113.239 25.104 114.05 22.864C114.882 20.6027 115.298 18.5547 115.298 16.72C115.298 16.1867 115.234 15.7813 115.106 15.504C114.978 15.2267 114.818 15.088 114.626 15.088ZM125.026 15.088C124.599 15.088 124.076 15.8347 123.458 17.328C122.86 18.8213 122.263 20.7733 121.666 23.184C121.09 25.5947 120.61 28.0907 120.226 30.672C121.442 29.712 122.466 28.432 123.298 26.832C124.151 25.232 124.78 23.5573 125.186 21.808C125.612 20.0587 125.826 18.4693 125.826 17.04C125.826 15.7387 125.559 15.088 125.026 15.088ZM130.916 24.976C130.02 24.976 129.348 24.7733 128.9 24.368C128.452 23.9413 128.228 23.3547 128.228 22.608C128.228 21.8613 128.516 21.2427 129.092 20.752C129.689 20.24 130.425 19.984 131.3 19.984C132.089 19.984 132.729 20.176 133.22 20.56C133.71 20.944 133.956 21.488 133.956 22.192C133.956 23.0453 133.678 23.728 133.124 24.24C132.569 24.7307 131.833 24.976 130.916 24.976ZM130.66 42.16C129.273 42.16 128.26 41.6693 127.62 40.688C127.001 39.7067 126.692 38.4053 126.692 36.784C126.692 35.824 126.809 34.5973 127.044 33.104C127.3 31.5893 127.62 30.1813 128.004 28.88C128.196 28.1973 128.452 27.728 128.772 27.472C129.092 27.216 129.604 27.088 130.308 27.088C131.396 27.088 131.94 27.4507 131.94 28.176C131.94 28.7093 131.737 29.9467 131.332 31.888C130.82 34.2347 130.564 35.824 130.564 36.656C130.564 37.296 130.649 37.7867 130.82 38.128C130.99 38.4693 131.278 38.64 131.684 38.64C132.068 38.64 132.548 38.3733 133.124 37.84C133.7 37.3067 134.468 36.464 135.428 35.312C135.684 35.0133 135.972 34.864 136.292 34.864C136.569 34.864 136.782 34.992 136.932 35.248C137.102 35.504 137.188 35.856 137.188 36.304C137.188 37.1573 136.985 37.8187 136.58 38.288C134.468 40.8693 132.494 42.16 130.66 42.16ZM140.711 42.16C138.62 42.16 136.988 41.5733 135.815 40.4C134.663 39.2053 134.087 37.6373 134.087 35.696C134.087 33.968 134.428 32.4533 135.111 31.152C135.793 29.8507 136.679 28.848 137.766 28.144C138.855 27.44 139.996 27.088 141.191 27.088C142.364 27.088 143.271 27.44 143.911 28.144C144.572 28.8267 144.903 29.712 144.903 30.8C144.903 31.696 144.7 32.4533 144.295 33.072C143.911 33.6907 143.399 34 142.759 34C142.353 34 142.023 33.904 141.767 33.712C141.532 33.52 141.415 33.2533 141.415 32.912C141.415 32.7627 141.436 32.592 141.479 32.4C141.521 32.208 141.553 32.0693 141.575 31.984C141.681 31.664 141.735 31.3653 141.735 31.088C141.735 30.8107 141.66 30.5973 141.51 30.448C141.383 30.2987 141.191 30.224 140.935 30.224C140.444 30.224 139.985 30.448 139.559 30.896C139.132 31.3227 138.791 31.9093 138.535 32.656C138.279 33.4027 138.151 34.224 138.151 35.12C138.151 37.5947 139.228 38.832 141.383 38.832C142.257 38.832 143.196 38.544 144.199 37.968C145.223 37.3707 146.225 36.4853 147.207 35.312C147.463 35.0133 147.751 34.864 148.071 34.864C148.348 34.864 148.561 34.992 148.711 35.248C148.881 35.504 148.967 35.856 148.967 36.304C148.967 37.1147 148.764 37.776 148.359 38.288C147.356 39.5253 146.151 40.4853 144.743 41.168C143.356 41.8293 142.012 42.16 140.711 42.16ZM164.14 34.864C164.417 34.864 164.63 34.992 164.78 35.248C164.95 35.504 165.036 35.856 165.036 36.304C165.036 37.1573 164.833 37.8187 164.428 38.288C163.446 39.4187 162.433 40.3467 161.388 41.072C160.364 41.7973 159.19 42.16 157.868 42.16C156.78 42.16 155.958 41.8507 155.404 41.232C154.849 40.592 154.572 39.6747 154.572 38.48C154.572 37.8827 154.721 36.816 155.02 35.28C155.297 33.936 155.436 33.008 155.436 32.496C155.436 32.1547 155.318 31.984 155.084 31.984C154.806 31.984 154.412 32.3467 153.9 33.072C153.388 33.776 152.876 34.7147 152.364 35.888C151.852 37.0613 151.436 38.2987 151.116 39.6C150.71 41.3067 149.708 42.16 148.108 42.16C147.468 42.16 147.041 41.936 146.828 41.488C146.636 41.0187 146.54 40.1867 146.54 38.992C146.54 38.3093 146.55 37.7653 146.572 37.36L146.604 34.8C146.604 31.5147 146.934 28.0907 147.596 24.528C148.278 20.9653 149.27 17.9787 150.572 15.568C151.894 13.136 153.473 11.92 155.308 11.92C156.289 11.92 157.078 12.3467 157.676 13.2C158.294 14.032 158.604 15.12 158.604 16.464C158.604 18.6187 157.974 20.8587 156.716 23.184C155.457 25.488 153.409 28.1867 150.572 31.28C150.508 32.3893 150.476 33.5307 150.476 34.704C151.18 32.8907 151.958 31.4187 152.812 30.288C153.686 29.136 154.54 28.3147 155.372 27.824C156.225 27.3333 157.004 27.088 157.708 27.088C159.094 27.088 159.788 27.7813 159.788 29.168C159.788 30 159.553 31.504 159.084 33.68C158.678 35.536 158.476 36.7627 158.476 37.36C158.476 38.2133 158.785 38.64 159.404 38.64C159.83 38.64 160.332 38.384 160.908 37.872C161.505 37.3387 162.294 36.4853 163.276 35.312C163.532 35.0133 163.82 34.864 164.14 34.864ZM154.636 15.088C154.252 15.088 153.825 15.6427 153.356 16.752C152.886 17.84 152.428 19.3227 151.98 21.2C151.553 23.056 151.201 25.0827 150.924 27.28C152.246 25.7227 153.334 24.0267 154.188 22.192C155.062 20.3573 155.5 18.6933 155.5 17.2C155.5 16.5173 155.425 15.9947 155.276 15.632C155.126 15.2693 154.913 15.088 154.636 15.088ZM173.898 35.824C174.176 35.824 174.389 35.952 174.538 36.208C174.709 36.464 174.794 36.816 174.794 37.264C174.794 38.032 174.613 38.6933 174.25 39.248C173.653 40.1653 172.864 40.88 171.882 41.392C170.922 41.904 169.77 42.16 168.426 42.16C166.378 42.16 164.789 41.552 163.658 40.336C162.528 39.0987 161.962 37.4347 161.962 35.344C161.962 33.872 162.272 32.5067 162.89 31.248C163.509 29.968 164.362 28.9547 165.45 28.208C166.56 27.4613 167.808 27.088 169.194 27.088C170.432 27.088 171.424 27.4613 172.17 28.208C172.917 28.9333 173.29 29.9253 173.29 31.184C173.29 32.656 172.757 33.9253 171.69 34.992C170.645 36.0373 168.853 36.8693 166.314 37.488C166.826 38.4693 167.69 38.96 168.906 38.96C169.781 38.96 170.496 38.7573 171.05 38.352C171.626 37.9467 172.288 37.264 173.034 36.304C173.29 35.984 173.578 35.824 173.898 35.824ZM168.65 30.224C167.861 30.224 167.189 30.6827 166.634 31.6C166.101 32.5173 165.834 33.6267 165.834 34.928V34.992C167.093 34.6933 168.085 34.2453 168.81 33.648C169.536 33.0507 169.898 32.3573 169.898 31.568C169.898 31.1627 169.781 30.8427 169.546 30.608C169.333 30.352 169.034 30.224 168.65 30.224Z" fill="#001AFF"/>
<path d="M3.01378 82.2345C3.14324 83.3314 4.13744 84.1157 5.2344 83.9863L23.1103 81.8767C24.2073 81.7472 24.9916 80.753 24.8622 79.6561C24.7327 78.5591 23.7385 77.7748 22.6415 77.9042L6.75182 79.7794L4.87661 63.8897C4.74716 62.7928 3.75295 62.0084 2.656 62.1379C1.55904 62.2674 0.774724 63.2616 0.90418 64.3585L3.01378 82.2345ZM77 82L75.7266 83.5422L75.7266 83.5422L77 82ZM139.5 192.5L138.824 190.618L139.5 192.5ZM183.583 270.456C184.663 270.686 185.726 269.997 185.956 268.917C186.186 267.836 185.497 266.774 184.417 266.544L183.583 270.456ZM5 82.0001C6.57021 83.2388 6.56957 83.2396 6.56904 83.2403C6.56901 83.2403 6.56858 83.2408 6.56851 83.2409C6.56837 83.2411 6.56866 83.2407 6.56938 83.2398C6.5708 83.2381 6.57394 83.2341 6.57877 83.2281C6.58843 83.2161 6.60488 83.1958 6.62807 83.1676C6.67445 83.1111 6.74775 83.0231 6.84757 82.9068C7.04725 82.674 7.35274 82.3282 7.76074 81.8954C8.57725 81.0293 9.8012 79.8181 11.4061 78.4681C14.6217 75.7635 19.3308 72.532 25.3251 70.3827C37.1637 66.1377 54.4307 65.9584 75.7266 83.5422L78.2734 80.4578C55.9693 62.0415 37.2363 61.8623 23.9749 66.6174C17.4192 68.9681 12.3033 72.4866 8.83136 75.407C7.09255 76.8695 5.75712 78.1896 4.8502 79.1516C4.39648 79.6328 4.04923 80.0254 3.81161 80.3023C3.69277 80.4409 3.60128 80.5506 3.53753 80.6282C3.50566 80.667 3.48071 80.6977 3.46273 80.7201C3.45375 80.7312 3.4465 80.7403 3.44101 80.7472C3.43827 80.7506 3.43596 80.7535 3.43408 80.7559C3.43315 80.7571 3.43207 80.7584 3.43161 80.759C3.43064 80.7603 3.42979 80.7613 5 82.0001ZM75.7266 83.5422C102.348 105.523 108.15 135.941 112.089 159.702C113.069 165.608 113.942 171.153 115.003 175.983C116.06 180.801 117.337 185.085 119.196 188.438C121.078 191.833 123.635 194.41 127.263 195.528C130.832 196.628 135.092 196.207 140.176 194.382L138.824 190.618C134.158 192.292 130.855 192.45 128.442 191.706C126.087 190.98 124.242 189.292 122.695 186.499C121.124 183.665 119.944 179.84 118.91 175.126C117.878 170.425 117.025 165.017 116.036 159.048C112.1 135.309 106.152 103.477 78.2734 80.4578L75.7266 83.5422ZM140.176 194.382C141.691 193.838 142.946 193.257 143.913 192.623C144.847 192.01 145.717 191.216 146.14 190.164C146.622 188.967 146.393 187.782 145.761 186.833C145.193 185.979 144.32 185.329 143.423 184.822C141.605 183.796 138.966 182.961 135.893 182.309C132.783 181.649 129.086 181.148 125.064 180.854C117.027 180.265 107.571 180.492 98.7297 181.987C89.9365 183.473 81.5068 186.253 75.7375 190.949L78.2625 194.051C83.2432 189.997 90.8696 187.372 99.3964 185.931C107.875 184.498 117.004 184.274 124.772 184.843C128.653 185.127 132.165 185.607 135.063 186.222C138 186.845 140.169 187.578 141.456 188.305C142.11 188.675 142.364 188.948 142.432 189.05C142.436 189.056 142.353 188.86 142.43 188.67C142.448 188.626 142.359 188.858 141.719 189.278C141.112 189.676 140.177 190.132 138.824 190.618L140.176 194.382ZM75.7375 190.949C72.7941 193.345 70.7643 196.184 69.7627 199.394C68.761 202.605 68.8309 206.047 69.8614 209.576C71.9029 216.568 77.735 224.012 86.8769 231.313C105.21 245.954 137.667 260.671 183.583 270.456L184.417 266.544C138.833 256.829 107.04 242.296 89.3731 228.187C80.515 221.113 75.4096 214.307 73.7011 208.455C72.8566 205.563 72.8484 202.934 73.5811 200.586C74.3138 198.238 75.8309 196.03 78.2625 194.051L75.7375 190.949Z" fill="#001AFF"/>
</svg>
