<svg width="236" height="128" viewBox="0 0 236 128" fill="none" xmlns="http://www.w3.org/2000/svg">
<path d="M178.496 125.944C178.201 127.009 177.099 127.633 176.034 127.338L158.687 122.535C157.623 122.24 156.999 121.138 157.293 120.074C157.588 119.009 158.69 118.385 159.754 118.68L175.174 122.95L179.444 107.53C179.738 106.465 180.84 105.841 181.905 106.136C182.969 106.431 183.593 107.532 183.299 108.597L178.496 125.944ZM6.22377 37.9597C5.12163 37.8864 4.28763 36.9335 4.36096 35.8313C4.43431 34.7292 5.38721 33.8952 6.48934 33.9685L6.22377 37.9597ZM174.828 126.396C144.789 73.3551 76.5424 42.6388 6.22377 37.9597L6.48934 33.9685C77.5276 38.6955 147.348 69.7567 178.308 124.425L174.828 126.396Z" fill="#001AFF"/>
<path d="M106.808 42.16C105.997 42.16 105.421 41.7333 105.08 40.88C104.76 40.0267 104.6 38.6613 104.6 36.784C104.6 34.0107 104.995 31.376 105.784 28.88C105.976 28.2613 106.285 27.8133 106.712 27.536C107.16 27.2373 107.779 27.088 108.568 27.088C108.995 27.088 109.293 27.1413 109.464 27.248C109.635 27.3547 109.72 27.5573 109.72 27.856C109.72 28.1973 109.56 28.9653 109.24 30.16C109.027 31.0133 108.856 31.76 108.728 32.4C108.6 33.0187 108.493 33.7973 108.408 34.736C108.984 33.072 109.667 31.664 110.456 30.512C111.267 29.36 112.088 28.5067 112.92 27.952C113.773 27.376 114.573 27.088 115.32 27.088C116.067 27.088 116.589 27.2587 116.888 27.6C117.208 27.9413 117.368 28.464 117.368 29.168C117.368 29.8507 117.165 31.088 116.76 32.88C116.589 33.648 116.472 34.224 116.408 34.608C117.475 31.984 118.659 30.0747 119.96 28.88C121.261 27.6853 122.477 27.088 123.608 27.088C124.995 27.088 125.688 27.7813 125.688 29.168C125.688 30 125.453 31.504 124.984 33.68C124.579 35.536 124.376 36.7627 124.376 37.36C124.376 38.2133 124.685 38.64 125.304 38.64C125.731 38.64 126.232 38.384 126.808 37.872C127.405 37.3387 128.195 36.4853 129.176 35.312C129.432 35.0133 129.72 34.864 130.04 34.864C130.317 34.864 130.531 34.992 130.68 35.248C130.851 35.504 130.936 35.856 130.936 36.304C130.936 37.1573 130.733 37.8187 130.328 38.288C129.411 39.4187 128.419 40.3467 127.352 41.072C126.307 41.7973 125.112 42.16 123.768 42.16C122.68 42.16 121.859 41.8507 121.304 41.232C120.749 40.592 120.472 39.6747 120.472 38.48C120.472 37.8827 120.621 36.816 120.92 35.28C121.197 33.936 121.336 33.008 121.336 32.496C121.336 32.1547 121.219 31.984 120.984 31.984C120.707 31.984 120.312 32.3467 119.8 33.072C119.288 33.776 118.776 34.7147 118.264 35.888C117.752 37.0613 117.336 38.2987 117.016 39.6C116.781 40.624 116.504 41.3067 116.184 41.648C115.885 41.9893 115.395 42.16 114.712 42.16C114.008 42.16 113.475 41.8293 113.112 41.168C112.771 40.4853 112.6 39.664 112.6 38.704C112.6 37.8933 112.707 36.72 112.92 35.184C113.091 33.8187 113.176 32.9227 113.176 32.496C113.176 32.1547 113.059 31.984 112.824 31.984C112.504 31.984 112.099 32.368 111.608 33.136C111.117 33.904 110.637 34.8853 110.168 36.08C109.72 37.2747 109.357 38.448 109.08 39.6C108.845 40.6027 108.568 41.2853 108.248 41.648C107.949 41.9893 107.469 42.16 106.808 42.16ZM142.621 34.864C142.898 34.864 143.111 34.992 143.26 35.248C143.431 35.504 143.517 35.856 143.517 36.304C143.517 37.1573 143.314 37.8187 142.909 38.288C142.119 39.248 140.999 40.1333 139.549 40.944C138.119 41.7547 136.583 42.16 134.941 42.16C132.701 42.16 130.962 41.552 129.725 40.336C128.487 39.12 127.868 37.456 127.868 35.344C127.868 33.872 128.178 32.5067 128.797 31.248C129.415 29.968 130.269 28.9547 131.357 28.208C132.466 27.4613 133.714 27.088 135.101 27.088C136.338 27.088 137.33 27.4613 138.077 28.208C138.823 28.9333 139.197 29.9253 139.197 31.184C139.197 32.656 138.663 33.9253 137.597 34.992C136.551 36.0373 134.77 36.8693 132.253 37.488C132.786 38.4693 133.799 38.96 135.293 38.96C136.253 38.96 137.341 38.6293 138.557 37.968C139.794 37.2853 140.861 36.4 141.757 35.312C142.013 35.0133 142.301 34.864 142.621 34.864ZM134.557 30.224C133.767 30.224 133.095 30.6827 132.541 31.6C132.007 32.5173 131.741 33.6267 131.741 34.928V34.992C132.999 34.6933 133.991 34.2453 134.717 33.648C135.442 33.0507 135.805 32.3573 135.805 31.568C135.805 31.1627 135.687 30.8427 135.453 30.608C135.239 30.352 134.941 30.224 134.557 30.224ZM146.863 42.864C145.754 42.864 144.9 42.608 144.303 42.096C143.727 41.584 143.439 41.008 143.439 40.368C143.439 39.8133 143.642 39.3333 144.047 38.928C144.452 38.5227 145.05 38.32 145.839 38.32C146.116 38.32 146.436 38.352 146.799 38.416C147.183 38.4587 147.471 38.4907 147.663 38.512C147.642 37.9573 147.514 37.4347 147.279 36.944C147.066 36.4533 146.788 35.984 146.447 35.536C146.106 35.0667 145.786 34.6613 145.487 34.32C144.826 35.5787 144.164 36.624 143.503 37.456C142.863 38.288 142.159 39.0773 141.391 39.824C141.007 40.208 140.602 40.4 140.175 40.4C139.834 40.4 139.556 40.2827 139.343 40.048C139.13 39.792 139.023 39.4827 139.023 39.12C139.023 38.6933 139.172 38.2987 139.471 37.936L139.887 37.424C141.06 35.9733 141.946 34.7787 142.543 33.84C142.927 33.2213 143.311 32.4853 143.695 31.632C144.1 30.7787 144.623 29.616 145.263 28.144C145.668 27.2053 146.511 26.736 147.791 26.736C148.388 26.736 148.804 26.7893 149.039 26.896C149.274 27.0027 149.391 27.1733 149.391 27.408C149.391 27.536 149.348 27.7387 149.263 28.016C149.178 28.2933 149.06 28.5707 148.911 28.848C148.527 29.616 148.335 30.2667 148.335 30.8C148.335 31.12 148.442 31.472 148.655 31.856C148.89 32.24 149.242 32.72 149.711 33.296C150.394 34.192 150.906 34.96 151.247 35.6C151.61 36.2187 151.791 36.9013 151.791 37.648C151.791 38.544 151.578 39.3973 151.151 40.208C150.746 40.9973 150.17 41.6373 149.423 42.128C148.676 42.6187 147.823 42.864 146.863 42.864ZM166.166 24.976C165.27 24.976 164.598 24.7733 164.15 24.368C163.702 23.9413 163.478 23.3547 163.478 22.608C163.478 21.8613 163.766 21.2427 164.342 20.752C164.939 20.24 165.675 19.984 166.55 19.984C167.339 19.984 167.979 20.176 168.47 20.56C168.96 20.944 169.206 21.488 169.206 22.192C169.206 23.0453 168.928 23.728 168.374 24.24C167.819 24.7307 167.083 24.976 166.166 24.976ZM165.91 42.16C164.523 42.16 163.51 41.6693 162.87 40.688C162.251 39.7067 161.942 38.4053 161.942 36.784C161.942 35.824 162.059 34.5973 162.294 33.104C162.55 31.5893 162.87 30.1813 163.254 28.88C163.446 28.1973 163.702 27.728 164.022 27.472C164.342 27.216 164.854 27.088 165.558 27.088C166.646 27.088 167.19 27.4507 167.19 28.176C167.19 28.7093 166.987 29.9467 166.582 31.888C166.07 34.2347 165.814 35.824 165.814 36.656C165.814 37.296 165.899 37.7867 166.07 38.128C166.24 38.4693 166.528 38.64 166.934 38.64C167.318 38.64 167.798 38.3733 168.374 37.84C168.95 37.3067 169.718 36.464 170.678 35.312C170.934 35.0133 171.222 34.864 171.542 34.864C171.819 34.864 172.032 34.992 172.182 35.248C172.352 35.504 172.438 35.856 172.438 36.304C172.438 37.1573 172.235 37.8187 171.83 38.288C169.718 40.8693 167.744 42.16 165.91 42.16ZM175.961 42.16C173.87 42.16 172.238 41.5733 171.065 40.4C169.913 39.2053 169.337 37.6373 169.337 35.696C169.337 33.968 169.678 32.4533 170.361 31.152C171.043 29.8507 171.929 28.848 173.016 28.144C174.105 27.44 175.246 27.088 176.441 27.088C177.614 27.088 178.521 27.44 179.161 28.144C179.822 28.8267 180.153 29.712 180.153 30.8C180.153 31.696 179.95 32.4533 179.545 33.072C179.161 33.6907 178.649 34 178.009 34C177.603 34 177.273 33.904 177.017 33.712C176.782 33.52 176.665 33.2533 176.665 32.912C176.665 32.7627 176.686 32.592 176.729 32.4C176.771 32.208 176.803 32.0693 176.825 31.984C176.931 31.664 176.985 31.3653 176.985 31.088C176.985 30.8107 176.91 30.5973 176.76 30.448C176.633 30.2987 176.441 30.224 176.185 30.224C175.694 30.224 175.235 30.448 174.809 30.896C174.382 31.3227 174.041 31.9093 173.785 32.656C173.529 33.4027 173.401 34.224 173.401 35.12C173.401 37.5947 174.478 38.832 176.633 38.832C177.507 38.832 178.446 38.544 179.449 37.968C180.473 37.3707 181.475 36.4853 182.457 35.312C182.713 35.0133 183.001 34.864 183.321 34.864C183.598 34.864 183.811 34.992 183.961 35.248C184.131 35.504 184.217 35.856 184.217 36.304C184.217 37.1147 184.014 37.776 183.609 38.288C182.606 39.5253 181.401 40.4853 179.993 41.168C178.606 41.8293 177.262 42.16 175.961 42.16ZM197.95 32.176C198.227 32.176 198.44 32.3147 198.59 32.592C198.739 32.8693 198.814 33.2213 198.814 33.648C198.814 34.672 198.504 35.28 197.886 35.472C196.606 35.92 195.198 36.176 193.662 36.24C193.256 38.032 192.456 39.472 191.262 40.56C190.067 41.6267 188.712 42.16 187.198 42.16C185.918 42.16 184.819 41.8507 183.902 41.232C183.006 40.6133 182.323 39.792 181.854 38.768C181.384 37.744 181.15 36.6347 181.15 35.44C181.15 33.8187 181.459 32.3787 182.078 31.12C182.696 29.84 183.55 28.848 184.638 28.144C185.726 27.4187 186.931 27.056 188.254 27.056C189.875 27.056 191.176 27.6213 192.158 28.752C193.16 29.8613 193.747 31.2373 193.918 32.88C194.92 32.816 196.115 32.6027 197.502 32.24C197.672 32.1973 197.822 32.176 197.95 32.176ZM187.454 38.768C188.136 38.768 188.723 38.4907 189.214 37.936C189.726 37.3813 190.067 36.5813 190.238 35.536C189.576 35.088 189.064 34.5013 188.702 33.776C188.36 33.0507 188.19 32.2827 188.19 31.472C188.19 31.1307 188.222 30.7893 188.286 30.448H188.126C187.272 30.448 186.558 30.864 185.982 31.696C185.427 32.5067 185.15 33.6587 185.15 35.152C185.15 36.3253 185.374 37.2213 185.822 37.84C186.291 38.4587 186.835 38.768 187.454 38.768ZM192.062 25.008C191.571 25.008 191.176 24.8907 190.878 24.656C190.579 24.4 190.387 23.9413 190.302 23.28L189.566 17.616L186.782 23.28C186.462 23.9413 186.12 24.3893 185.758 24.624C185.395 24.8587 184.99 24.976 184.542 24.976C184.094 24.976 183.731 24.88 183.454 24.688C183.198 24.4747 183.07 24.176 183.07 23.792C183.07 23.4293 183.187 23.0453 183.422 22.64L187.006 16.464C187.39 15.8027 187.816 15.312 188.286 14.992C188.776 14.6507 189.352 14.48 190.014 14.48C190.654 14.48 191.155 14.672 191.518 15.056C191.88 15.44 192.158 16.048 192.35 16.88L193.758 22.64C193.822 22.896 193.854 23.1307 193.854 23.344C193.854 23.8773 193.672 24.2933 193.31 24.592C192.968 24.8693 192.552 25.008 192.062 25.008ZM198.339 42.16C197.529 42.16 196.953 41.7333 196.611 40.88C196.291 40.0267 196.131 38.6613 196.131 36.784C196.131 34.0107 196.526 31.376 197.315 28.88C197.507 28.2613 197.817 27.8133 198.243 27.536C198.691 27.2373 199.31 27.088 200.099 27.088C200.526 27.088 200.825 27.1413 200.995 27.248C201.166 27.3547 201.251 27.5573 201.251 27.856C201.251 28.1973 201.091 28.9653 200.771 30.16C200.558 31.0133 200.387 31.76 200.259 32.4C200.131 33.04 200.025 33.8293 199.939 34.768C200.643 32.9333 201.433 31.44 202.307 30.288C203.182 29.136 204.035 28.3147 204.867 27.824C205.721 27.3333 206.499 27.088 207.203 27.088C208.59 27.088 209.283 27.7813 209.283 29.168C209.283 30 209.049 31.504 208.579 33.68C208.174 35.536 207.971 36.7627 207.971 37.36C207.971 38.2133 208.281 38.64 208.899 38.64C209.326 38.64 209.827 38.384 210.403 37.872C211.001 37.3387 211.79 36.4853 212.771 35.312C213.027 35.0133 213.315 34.864 213.635 34.864C213.913 34.864 214.126 34.992 214.275 35.248C214.446 35.504 214.531 35.856 214.531 36.304C214.531 37.1573 214.329 37.8187 213.923 38.288C213.006 39.4187 212.014 40.3467 210.947 41.072C209.902 41.7973 208.707 42.16 207.363 42.16C206.275 42.16 205.454 41.8507 204.899 41.232C204.345 40.592 204.067 39.6747 204.067 38.48C204.067 37.8827 204.217 36.816 204.515 35.28C204.793 33.936 204.931 33.008 204.931 32.496C204.931 32.1547 204.814 31.984 204.579 31.984C204.302 31.984 203.907 32.3467 203.395 33.072C202.905 33.776 202.393 34.7147 201.859 35.888C201.347 37.0613 200.931 38.2987 200.611 39.6C200.377 40.6027 200.099 41.2853 199.779 41.648C199.481 41.9893 199.001 42.16 198.339 42.16ZM226.214 34.864C226.492 34.864 226.705 34.992 226.854 35.248C227.025 35.504 227.11 35.856 227.11 36.304C227.11 37.1573 226.908 37.8187 226.502 38.288C225.713 39.248 224.593 40.1333 223.142 40.944C221.713 41.7547 220.177 42.16 218.534 42.16C216.294 42.16 214.556 41.552 213.318 40.336C212.081 39.12 211.462 37.456 211.462 35.344C211.462 33.872 211.772 32.5067 212.39 31.248C213.009 29.968 213.862 28.9547 214.95 28.208C216.06 27.4613 217.308 27.088 218.694 27.088C219.932 27.088 220.924 27.4613 221.67 28.208C222.417 28.9333 222.79 29.9253 222.79 31.184C222.79 32.656 222.257 33.9253 221.19 34.992C220.145 36.0373 218.364 36.8693 215.846 37.488C216.38 38.4693 217.393 38.96 218.886 38.96C219.846 38.96 220.934 38.6293 222.15 37.968C223.388 37.2853 224.454 36.4 225.35 35.312C225.606 35.0133 225.894 34.864 226.214 34.864ZM218.15 30.224C217.361 30.224 216.689 30.6827 216.134 31.6C215.601 32.5173 215.334 33.6267 215.334 34.928V34.992C216.593 34.6933 217.585 34.2453 218.31 33.648C219.036 33.0507 219.398 32.3573 219.398 31.568C219.398 31.1627 219.281 30.8427 219.046 30.608C218.833 30.352 218.534 30.224 218.15 30.224ZM230.457 42.864C229.347 42.864 228.494 42.608 227.897 42.096C227.321 41.584 227.033 41.008 227.033 40.368C227.033 39.8133 227.235 39.3333 227.641 38.928C228.046 38.5227 228.643 38.32 229.433 38.32C229.71 38.32 230.03 38.352 230.393 38.416C230.777 38.4587 231.065 38.4907 231.257 38.512C231.235 37.9573 231.107 37.4347 230.873 36.944C230.659 36.4533 230.382 35.984 230.041 35.536C229.699 35.0667 229.379 34.6613 229.081 34.32C228.419 35.5787 227.758 36.624 227.097 37.456C226.457 38.288 225.753 39.0773 224.985 39.824C224.601 40.208 224.195 40.4 223.769 40.4C223.427 40.4 223.15 40.2827 222.937 40.048C222.723 39.792 222.617 39.4827 222.617 39.12C222.617 38.6933 222.766 38.2987 223.065 37.936L223.481 37.424C224.654 35.9733 225.539 34.7787 226.137 33.84C226.521 33.2213 226.905 32.4853 227.289 31.632C227.694 30.7787 228.217 29.616 228.857 28.144C229.262 27.2053 230.105 26.736 231.385 26.736C231.982 26.736 232.398 26.7893 232.633 26.896C232.867 27.0027 232.985 27.1733 232.985 27.408C232.985 27.536 232.942 27.7387 232.857 28.016C232.771 28.2933 232.654 28.5707 232.505 28.848C232.121 29.616 231.929 30.2667 231.929 30.8C231.929 31.12 232.035 31.472 232.249 31.856C232.483 32.24 232.835 32.72 233.305 33.296C233.987 34.192 234.499 34.96 234.841 35.6C235.203 36.2187 235.385 36.9013 235.385 37.648C235.385 38.544 235.171 39.3973 234.745 40.208C234.339 40.9973 233.763 41.6373 233.017 42.128C232.27 42.6187 231.417 42.864 230.457 42.864Z" fill="#001AFF"/>
</svg>
