<svg width="401" height="98" viewBox="0 0 401 98" fill="none" xmlns="http://www.w3.org/2000/svg">
<path d="M3.19112 0.393376C2.3038 -0.26446 1.05121 -0.0784311 0.393376 0.808883C-0.26446 1.6962 -0.0784311 2.94879 0.808883 3.60662L3.19112 0.393376ZM88.5 42.5L88.3252 40.5077L88.5 42.5ZM70.5 56L68.9122 57.2162L70.5 56ZM174.242 97.3331C175.255 97.7748 176.434 97.3123 176.875 96.2999L184.074 79.8022C184.516 78.7898 184.054 77.611 183.041 77.1692C182.029 76.7274 180.85 77.19 180.408 78.2024L174.009 92.867L159.344 86.4679C158.332 86.0262 157.153 86.4887 156.711 87.5011C156.27 88.5135 156.732 89.6923 157.745 90.1341L174.242 97.3331ZM0.808883 3.60662C10.5398 10.8209 26.5525 21.505 43.0207 30.146C51.2549 34.4665 59.644 38.298 67.4458 40.9266C75.2105 43.5426 82.5679 45.028 88.6748 44.4923L88.3252 40.5077C83.0321 40.972 76.2937 39.6866 68.7229 37.1359C61.1894 34.5978 53.0034 30.8668 44.8793 26.604C28.6308 18.0783 12.7935 7.51238 3.19112 0.393376L0.808883 3.60662ZM88.6748 44.4923C90.5444 44.3283 92.0839 44.0389 93.2827 43.6028C94.4352 43.1835 95.5749 42.5186 96.189 41.3912C96.877 40.128 96.6281 38.8318 96.1002 37.8458C95.6004 36.9126 94.782 36.0887 93.8955 35.3817C90.3792 32.5774 83.5071 29.8449 77.0306 28.7171C73.7653 28.1486 70.4371 27.9569 67.5568 28.4429C64.6981 28.9253 61.9631 30.139 60.4236 32.6723C58.8767 35.218 58.8722 38.5418 60.2138 42.4697C61.5589 46.408 64.3519 51.2624 68.9122 57.2162L72.0878 54.7838C67.6481 48.9876 65.1442 44.5295 63.9991 41.1768C62.8504 37.8136 63.1624 35.8679 63.842 34.7496C64.5291 33.6188 65.9308 32.7739 68.2224 32.3872C70.4926 32.0041 73.3284 32.1327 76.3444 32.6579C82.4304 33.7176 88.5895 36.2664 91.4014 38.5089C92.0969 39.0636 92.4415 39.4869 92.5739 39.734C92.678 39.9285 92.5302 39.746 92.6762 39.478C92.7483 39.3456 92.703 39.5572 91.9153 39.8438C91.1739 40.1135 90.0181 40.3592 88.3252 40.5077L88.6748 44.4923ZM68.9122 57.2162C74.976 65.1327 83.9074 68.9742 93.7817 71.0209C103.616 73.0592 114.731 73.3776 125.315 73.9966C136.018 74.6225 146.203 75.5544 154.65 78.6877C162.992 81.7817 169.554 86.9889 173.18 96.2306L176.904 94.7694C172.78 84.2611 165.224 78.3433 156.042 74.9373C146.965 71.5706 136.219 70.6275 125.549 70.0034C114.76 69.3724 104.058 69.0658 94.5935 67.1041C85.1697 65.1508 77.3219 61.6173 72.0878 54.7838L68.9122 57.2162Z" fill="#001AFF"/>
<path d="M114.511 53.16C113.7 53.16 113.124 52.7333 112.783 51.88C112.463 51.0267 112.303 49.6613 112.303 47.784C112.303 45.0107 112.698 42.376 113.487 39.88C113.679 39.2613 113.988 38.8133 114.415 38.536C114.863 38.2373 115.482 38.088 116.271 38.088C116.698 38.088 116.996 38.1413 117.167 38.248C117.338 38.3547 117.423 38.5573 117.423 38.856C117.423 39.1973 117.263 39.9653 116.943 41.16C116.73 42.0133 116.559 42.76 116.431 43.4C116.303 44.0187 116.196 44.7973 116.111 45.736C116.687 44.072 117.37 42.664 118.159 41.512C118.97 40.36 119.791 39.5067 120.623 38.952C121.476 38.376 122.276 38.088 123.023 38.088C123.77 38.088 124.292 38.2587 124.591 38.6C124.911 38.9413 125.071 39.464 125.071 40.168C125.071 40.8507 124.868 42.088 124.463 43.88C124.292 44.648 124.175 45.224 124.111 45.608C125.178 42.984 126.362 41.0747 127.663 39.88C128.964 38.6853 130.18 38.088 131.311 38.088C132.698 38.088 133.391 38.7813 133.391 40.168C133.391 41 133.156 42.504 132.687 44.68C132.282 46.536 132.079 47.7627 132.079 48.36C132.079 49.2133 132.388 49.64 133.007 49.64C133.434 49.64 133.935 49.384 134.511 48.872C135.108 48.3387 135.898 47.4853 136.879 46.312C137.135 46.0133 137.423 45.864 137.743 45.864C138.02 45.864 138.234 45.992 138.383 46.248C138.554 46.504 138.639 46.856 138.639 47.304C138.639 48.1573 138.436 48.8187 138.031 49.288C137.114 50.4187 136.122 51.3467 135.055 52.072C134.01 52.7973 132.815 53.16 131.471 53.16C130.383 53.16 129.562 52.8507 129.007 52.232C128.452 51.592 128.175 50.6747 128.175 49.48C128.175 48.8827 128.324 47.816 128.623 46.28C128.9 44.936 129.039 44.008 129.039 43.496C129.039 43.1547 128.922 42.984 128.687 42.984C128.41 42.984 128.015 43.3467 127.503 44.072C126.991 44.776 126.479 45.7147 125.967 46.888C125.455 48.0613 125.039 49.2987 124.719 50.6C124.484 51.624 124.207 52.3067 123.887 52.648C123.588 52.9893 123.098 53.16 122.415 53.16C121.711 53.16 121.178 52.8293 120.815 52.168C120.474 51.4853 120.303 50.664 120.303 49.704C120.303 48.8933 120.41 47.72 120.623 46.184C120.794 44.8187 120.879 43.9227 120.879 43.496C120.879 43.1547 120.762 42.984 120.527 42.984C120.207 42.984 119.802 43.368 119.311 44.136C118.82 44.904 118.34 45.8853 117.871 47.08C117.423 48.2747 117.06 49.448 116.783 50.6C116.548 51.6027 116.271 52.2853 115.951 52.648C115.652 52.9893 115.172 53.16 114.511 53.16ZM152.372 43.176C152.649 43.176 152.862 43.3147 153.012 43.592C153.161 43.8693 153.236 44.2213 153.236 44.648C153.236 45.672 152.926 46.28 152.308 46.472C151.028 46.92 149.62 47.176 148.084 47.24C147.678 49.032 146.878 50.472 145.684 51.56C144.489 52.6267 143.134 53.16 141.62 53.16C140.34 53.16 139.241 52.8507 138.324 52.232C137.428 51.6133 136.745 50.792 136.276 49.768C135.806 48.744 135.572 47.6347 135.572 46.44C135.572 44.8187 135.881 43.3787 136.5 42.12C137.118 40.84 137.972 39.848 139.06 39.144C140.148 38.4187 141.353 38.056 142.676 38.056C144.297 38.056 145.598 38.6213 146.58 39.752C147.582 40.8613 148.169 42.2373 148.34 43.88C149.342 43.816 150.537 43.6027 151.924 43.24C152.094 43.1973 152.244 43.176 152.372 43.176ZM141.876 49.768C142.558 49.768 143.145 49.4907 143.636 48.936C144.148 48.3813 144.489 47.5813 144.66 46.536C143.998 46.088 143.486 45.5013 143.124 44.776C142.782 44.0507 142.612 43.2827 142.612 42.472C142.612 42.1307 142.644 41.7893 142.708 41.448H142.548C141.694 41.448 140.98 41.864 140.404 42.696C139.849 43.5067 139.572 44.6587 139.572 46.152C139.572 47.3253 139.796 48.2213 140.244 48.84C140.713 49.4587 141.257 49.768 141.876 49.768ZM152.761 53.16C151.95 53.16 151.374 52.7333 151.033 51.88C150.713 51.0267 150.553 49.6613 150.553 47.784C150.553 45.0107 150.948 42.376 151.737 39.88C151.929 39.2613 152.238 38.8133 152.665 38.536C153.113 38.2373 153.732 38.088 154.521 38.088C154.948 38.088 155.246 38.1413 155.417 38.248C155.588 38.3547 155.673 38.5573 155.673 38.856C155.673 39.1973 155.513 39.9653 155.193 41.16C154.98 42.0133 154.809 42.76 154.681 43.4C154.553 44.04 154.446 44.8293 154.361 45.768C155.065 43.9333 155.854 42.44 156.729 41.288C157.604 40.136 158.457 39.3147 159.289 38.824C160.142 38.3333 160.921 38.088 161.625 38.088C162.308 38.088 162.82 38.2693 163.161 38.632C163.524 38.9733 163.705 39.4853 163.705 40.168C163.705 40.7227 163.588 41.768 163.353 43.304C163.14 44.6053 162.969 45.8427 162.841 47.016C162.713 48.168 162.649 49.4587 162.649 50.888C162.649 51.6987 162.478 52.2853 162.137 52.648C161.817 52.9893 161.284 53.16 160.537 53.16C159.833 53.16 159.321 52.9787 159.001 52.616C158.681 52.2533 158.521 51.7093 158.521 50.984C158.521 50.1307 158.67 48.7227 158.969 46.76C159.225 45.0533 159.353 43.9653 159.353 43.496C159.353 43.1547 159.236 42.984 159.001 42.984C158.724 42.984 158.329 43.3467 157.817 44.072C157.326 44.776 156.814 45.7147 156.281 46.888C155.769 48.0613 155.353 49.2987 155.033 50.6C154.798 51.6027 154.521 52.2853 154.201 52.648C153.902 52.9893 153.422 53.16 152.761 53.16ZM198.17 45.864C198.447 45.864 198.661 45.992 198.81 46.248C198.981 46.504 199.066 46.856 199.066 47.304C199.066 48.1573 198.863 48.8187 198.458 49.288C197.541 50.4187 196.538 51.3467 195.45 52.072C194.383 52.7973 193.167 53.16 191.802 53.16C190.351 53.16 189.189 52.6373 188.314 51.592C187.439 50.5253 186.842 49.0853 186.522 47.272C185.797 47.464 185.029 47.56 184.218 47.56C183.514 47.56 182.735 47.5067 181.882 47.4C182.181 48.744 182.426 50.248 182.618 51.912C182.81 53.576 182.906 54.9413 182.906 56.008C182.906 58.312 182.533 60.072 181.786 61.288C181.039 62.504 180.058 63.112 178.842 63.112C177.306 63.112 176.207 62.024 175.546 59.848C174.906 57.672 174.586 54.3867 174.586 49.992C174.586 45.896 175.023 41.7467 175.898 37.544C176.794 33.32 178.01 29.832 179.546 27.08C181.103 24.3067 182.81 22.92 184.666 22.92C185.669 22.92 186.447 23.368 187.002 24.264C187.578 25.16 187.866 26.3653 187.866 27.88C187.866 32.8933 184.869 38.3547 178.874 44.264C178.661 46.3547 178.554 48.1893 178.554 49.768C178.554 51.9653 178.629 54.216 178.778 56.52C178.927 58.8453 179.173 60.008 179.514 60.008C180.154 60.008 180.474 58.8987 180.474 56.68C180.474 55.016 180.357 53.4053 180.122 51.848C179.909 50.2907 179.61 48.648 179.226 46.92C179.205 46.6427 179.29 46.2907 179.482 45.864C179.695 45.4373 179.951 45.064 180.25 44.744C180.549 44.424 180.815 44.264 181.05 44.264C181.327 44.264 181.765 44.2853 182.362 44.328C183.045 44.3707 183.557 44.392 183.898 44.392C184.666 44.392 185.455 44.2853 186.266 44.072V43.976C186.266 41.3733 186.597 38.408 187.258 35.08C187.941 31.752 188.933 28.8933 190.234 26.504C191.557 24.1147 193.125 22.92 194.938 22.92C195.962 22.92 196.762 23.4 197.338 24.36C197.935 25.2987 198.234 26.6533 198.234 28.424C198.234 30.152 197.914 32.1147 197.274 34.312C196.634 36.5093 195.706 38.6213 194.49 40.648C193.274 42.6533 191.845 44.264 190.202 45.48C190.287 46.9947 190.511 48.072 190.874 48.712C191.237 49.3307 191.77 49.64 192.474 49.64C193.349 49.64 194.117 49.3947 194.778 48.904C195.439 48.392 196.282 47.528 197.306 46.312C197.562 46.0133 197.85 45.864 198.17 45.864ZM183.994 26.088C183.61 26.088 183.13 26.7387 182.554 28.04C181.999 29.3413 181.445 31.0693 180.89 33.224C180.335 35.3573 179.855 37.6187 179.45 40.008C181.157 38.0667 182.469 36.0507 183.386 33.96C184.303 31.848 184.773 29.8747 184.794 28.04C184.794 26.7387 184.527 26.088 183.994 26.088ZM194.234 26.088C193.786 26.088 193.263 26.888 192.666 28.488C192.09 30.0667 191.567 32.072 191.098 34.504C190.629 36.936 190.341 39.3147 190.234 41.64C191.301 40.552 192.207 39.2293 192.954 37.672C193.701 36.0933 194.245 34.504 194.586 32.904C194.949 31.2827 195.13 29.8213 195.13 28.52C195.13 26.8987 194.831 26.088 194.234 26.088ZM212.873 45.928C213.15 45.928 213.364 46.0667 213.513 46.344C213.684 46.6 213.769 46.9307 213.769 47.336C213.769 47.8267 213.694 48.2107 213.545 48.488C213.396 48.7653 213.161 49.0107 212.841 49.224L206.697 53.352C205.886 57.768 204.82 61.2347 203.497 63.752C202.196 66.2907 200.532 67.56 198.505 67.56C197.417 67.56 196.532 67.2187 195.849 66.536C195.166 65.8747 194.825 65 194.825 63.912C194.825 62.9093 195.049 61.8853 195.497 60.84C195.966 59.7947 196.82 58.5893 198.057 57.224C199.316 55.88 201.086 54.3333 203.369 52.584L203.465 51.848C203.614 51.0587 203.785 49.928 203.977 48.456C203.55 49.992 202.953 51.1653 202.185 51.976C201.417 52.7653 200.606 53.16 199.753 53.16C198.793 53.16 198.004 52.7227 197.385 51.848C196.788 50.952 196.489 49.8427 196.489 48.52C196.489 46.92 196.596 45.4587 196.809 44.136C197.022 42.792 197.374 41.3733 197.865 39.88C198.078 39.24 198.377 38.7813 198.761 38.504C199.145 38.2267 199.753 38.088 200.585 38.088C201.054 38.088 201.374 38.1627 201.545 38.312C201.737 38.4613 201.833 38.6853 201.833 38.984C201.833 39.1547 201.716 39.7307 201.481 40.712C201.268 41.5013 201.097 42.216 200.969 42.856C200.798 43.7307 200.649 44.5733 200.521 45.384C200.393 46.1733 200.329 46.824 200.329 47.336C200.329 48.1467 200.553 48.552 201.001 48.552C201.321 48.552 201.716 48.232 202.185 47.592C202.676 46.952 203.188 45.9813 203.721 44.68C204.276 43.3787 204.809 41.7787 205.321 39.88C205.492 39.24 205.748 38.7813 206.089 38.504C206.452 38.2267 206.985 38.088 207.689 38.088C208.18 38.088 208.521 38.152 208.713 38.28C208.905 38.408 209.001 38.6213 209.001 38.92C209.001 39.4533 208.724 41.288 208.169 44.424L207.337 49.576C208.98 48.3387 210.58 47.208 212.137 46.184C212.414 46.0133 212.66 45.928 212.873 45.928ZM198.857 64.456C199.39 64.456 199.988 63.8373 200.649 62.6C201.31 61.3627 201.972 59.304 202.633 56.424C200.99 57.8107 199.796 59.0693 199.049 60.2C198.324 61.352 197.961 62.3547 197.961 63.208C197.961 63.5707 198.025 63.8693 198.153 64.104C198.302 64.3387 198.537 64.456 198.857 64.456ZM226.074 45.864C226.351 45.864 226.564 45.992 226.714 46.248C226.884 46.504 226.97 46.856 226.97 47.304C226.97 48.1573 226.767 48.8187 226.362 49.288C225.572 50.248 224.452 51.1333 223.002 51.944C221.572 52.7547 220.036 53.16 218.394 53.16C216.154 53.16 214.415 52.552 213.178 51.336C211.94 50.12 211.322 48.456 211.322 46.344C211.322 44.872 211.631 43.5067 212.25 42.248C212.868 40.968 213.722 39.9547 214.81 39.208C215.919 38.4613 217.167 38.088 218.554 38.088C219.791 38.088 220.783 38.4613 221.53 39.208C222.276 39.9333 222.65 40.9253 222.65 42.184C222.65 43.656 222.116 44.9253 221.05 45.992C220.004 47.0373 218.223 47.8693 215.706 48.488C216.239 49.4693 217.252 49.96 218.746 49.96C219.706 49.96 220.794 49.6293 222.01 48.968C223.247 48.2853 224.314 47.4 225.21 46.312C225.466 46.0133 225.754 45.864 226.074 45.864ZM218.01 41.224C217.22 41.224 216.548 41.6827 215.994 42.6C215.46 43.5173 215.194 44.6267 215.194 45.928V45.992C216.452 45.6933 217.444 45.2453 218.17 44.648C218.895 44.0507 219.258 43.3573 219.258 42.568C219.258 42.1627 219.14 41.8427 218.906 41.608C218.692 41.352 218.394 41.224 218.01 41.224ZM237.292 42.472C237.761 42.472 238.156 42.6427 238.476 42.984C238.817 43.304 238.988 43.7093 238.988 44.2C238.988 44.4773 238.924 44.776 238.796 45.096C238.455 45.8853 237.975 46.5467 237.356 47.08C236.737 47.6133 236.055 47.88 235.308 47.88C234.711 47.88 234.199 47.6667 233.772 47.24C233.367 46.8133 233.164 46.2373 233.164 45.512C233.164 45.1067 233.185 44.6693 233.228 44.2C233.271 43.8587 233.292 43.624 233.292 43.496C233.292 43.3253 233.249 43.1973 233.164 43.112C233.1 43.0267 233.015 42.984 232.908 42.984C232.609 42.984 232.204 43.3467 231.692 44.072C231.18 44.776 230.668 45.7147 230.156 46.888C229.644 48.0613 229.228 49.2987 228.908 50.6C228.673 51.624 228.407 52.3067 228.108 52.648C227.809 52.9893 227.319 53.16 226.636 53.16C225.825 53.16 225.249 52.7333 224.908 51.88C224.588 51.0267 224.428 49.6613 224.428 47.784C224.428 45.0107 224.823 42.376 225.612 39.88C225.804 39.2613 226.113 38.8133 226.54 38.536C226.988 38.2373 227.607 38.088 228.396 38.088C228.823 38.088 229.121 38.1413 229.292 38.248C229.463 38.3547 229.548 38.5573 229.548 38.856C229.548 39.1973 229.388 39.9653 229.068 41.16C228.855 42.0133 228.684 42.76 228.556 43.4C228.428 44.04 228.321 44.8293 228.236 45.768C228.94 43.9333 229.729 42.44 230.604 41.288C231.479 40.136 232.332 39.3147 233.164 38.824C233.996 38.3333 234.753 38.088 235.436 38.088C236.055 38.088 236.524 38.2693 236.844 38.632C237.185 38.9733 237.356 39.4853 237.356 40.168C237.356 40.5733 237.239 41.3413 237.004 42.472H237.292ZM250.949 53.16C250.138 53.16 249.562 52.7333 249.221 51.88C248.901 51.0267 248.741 49.6613 248.741 47.784C248.741 45.0107 249.135 42.376 249.925 39.88C250.117 39.2613 250.426 38.8133 250.853 38.536C251.301 38.2373 251.919 38.088 252.709 38.088C253.135 38.088 253.434 38.1413 253.605 38.248C253.775 38.3547 253.861 38.5573 253.861 38.856C253.861 39.1973 253.701 39.9653 253.381 41.16C253.167 42.0133 252.997 42.76 252.869 43.4C252.741 44.04 252.634 44.8293 252.549 45.768C253.253 43.9333 254.042 42.44 254.917 41.288C255.791 40.136 256.645 39.3147 257.477 38.824C258.33 38.3333 259.109 38.088 259.813 38.088C261.199 38.088 261.893 38.7813 261.893 40.168C261.893 40.4453 261.797 41.1173 261.605 42.184C261.434 43.0373 261.349 43.5707 261.349 43.784C261.349 44.5307 261.615 44.904 262.149 44.904C262.746 44.904 263.514 44.4347 264.453 43.496C264.73 43.2187 265.018 43.08 265.317 43.08C265.594 43.08 265.807 43.208 265.957 43.464C266.127 43.6987 266.213 44.0187 266.213 44.424C266.213 45.2133 265.999 45.832 265.573 46.28C264.975 46.8987 264.271 47.432 263.461 47.88C262.671 48.3067 261.829 48.52 260.933 48.52C259.802 48.52 258.938 48.232 258.341 47.656C257.765 47.08 257.477 46.3013 257.477 45.32C257.477 45 257.509 44.68 257.573 44.36C257.615 43.9333 257.637 43.6453 257.637 43.496C257.637 43.1547 257.519 42.984 257.285 42.984C256.965 42.984 256.538 43.3467 256.005 44.072C255.493 44.776 254.981 45.7147 254.469 46.888C253.957 48.0613 253.541 49.2987 253.221 50.6C252.986 51.6027 252.709 52.2853 252.389 52.648C252.09 52.9893 251.61 53.16 250.949 53.16ZM277.511 45.864C277.788 45.864 278.002 45.992 278.151 46.248C278.322 46.504 278.407 46.856 278.407 47.304C278.407 48.1573 278.204 48.8187 277.799 49.288C277.01 50.248 275.89 51.1333 274.439 51.944C273.01 52.7547 271.474 53.16 269.831 53.16C267.591 53.16 265.852 52.552 264.615 51.336C263.378 50.12 262.759 48.456 262.759 46.344C262.759 44.872 263.068 43.5067 263.687 42.248C264.306 40.968 265.159 39.9547 266.247 39.208C267.356 38.4613 268.604 38.088 269.991 38.088C271.228 38.088 272.22 38.4613 272.967 39.208C273.714 39.9333 274.087 40.9253 274.087 42.184C274.087 43.656 273.554 44.9253 272.487 45.992C271.442 47.0373 269.66 47.8693 267.143 48.488C267.676 49.4693 268.69 49.96 270.183 49.96C271.143 49.96 272.231 49.6293 273.447 48.968C274.684 48.2853 275.751 47.4 276.647 46.312C276.903 46.0133 277.191 45.864 277.511 45.864ZM269.447 41.224C268.658 41.224 267.986 41.6827 267.431 42.6C266.898 43.5173 266.631 44.6267 266.631 45.928V45.992C267.89 45.6933 268.882 45.2453 269.607 44.648C270.332 44.0507 270.695 43.3573 270.695 42.568C270.695 42.1627 270.578 41.8427 270.343 41.608C270.13 41.352 269.831 41.224 269.447 41.224ZM281.914 53.16C279.823 53.16 278.191 52.5733 277.018 51.4C275.866 50.2053 275.29 48.6373 275.29 46.696C275.29 44.968 275.631 43.4533 276.314 42.152C276.996 40.8507 277.882 39.848 278.97 39.144C280.058 38.44 281.199 38.088 282.394 38.088C283.567 38.088 284.474 38.44 285.114 39.144C285.775 39.8267 286.106 40.712 286.106 41.8C286.106 42.696 285.903 43.4533 285.498 44.072C285.114 44.6907 284.602 45 283.962 45C283.556 45 283.226 44.904 282.97 44.712C282.735 44.52 282.618 44.2533 282.618 43.912C282.618 43.7627 282.639 43.592 282.682 43.4C282.724 43.208 282.756 43.0693 282.778 42.984C282.884 42.664 282.938 42.3653 282.938 42.088C282.938 41.8107 282.863 41.5973 282.714 41.448C282.586 41.2987 282.394 41.224 282.138 41.224C281.647 41.224 281.188 41.448 280.762 41.896C280.335 42.3227 279.994 42.9093 279.738 43.656C279.482 44.4027 279.354 45.224 279.354 46.12C279.354 48.5947 280.431 49.832 282.586 49.832C283.46 49.832 284.399 49.544 285.402 48.968C286.426 48.3707 287.428 47.4853 288.41 46.312C288.666 46.0133 288.954 45.864 289.274 45.864C289.551 45.864 289.764 45.992 289.914 46.248C290.084 46.504 290.17 46.856 290.17 47.304C290.17 48.1147 289.967 48.776 289.562 49.288C288.559 50.5253 287.354 51.4853 285.946 52.168C284.559 52.8293 283.215 53.16 281.914 53.16ZM302.011 45.864C302.288 45.864 302.502 45.992 302.651 46.248C302.822 46.504 302.907 46.856 302.907 47.304C302.907 48.1573 302.704 48.8187 302.299 49.288C301.382 50.4187 300.379 51.3467 299.291 52.072C298.203 52.7973 296.955 53.16 295.547 53.16C291.195 53.16 289.019 50.0987 289.019 43.976C289.019 43.0373 289.051 42.088 289.115 41.128H287.867C287.227 41.128 286.79 41.0107 286.555 40.776C286.342 40.5413 286.235 40.168 286.235 39.656C286.235 38.4613 286.715 37.864 287.675 37.864H289.499C289.862 35.5173 290.416 33.3733 291.163 31.432C291.91 29.4907 292.806 27.944 293.851 26.792C294.918 25.64 296.059 25.064 297.275 25.064C298.171 25.064 298.875 25.4587 299.387 26.248C299.899 27.0373 300.155 28.0293 300.155 29.224C300.155 32.5307 298.768 35.4107 295.995 37.864H299.579C299.92 37.864 300.166 37.9387 300.315 38.088C300.464 38.2373 300.539 38.5147 300.539 38.92C300.539 40.392 299.334 41.128 296.923 41.128H293.019C292.976 42.1947 292.955 43.0267 292.955 43.624C292.955 45.8427 293.211 47.4 293.723 48.296C294.256 49.192 295.088 49.64 296.219 49.64C297.136 49.64 297.947 49.3627 298.651 48.808C299.355 48.2533 300.187 47.4213 301.147 46.312C301.403 46.0133 301.691 45.864 302.011 45.864ZM296.411 28.136C296.091 28.136 295.728 28.5413 295.323 29.352C294.939 30.1413 294.566 31.2507 294.203 32.68C293.862 34.088 293.574 35.656 293.339 37.384C294.598 36.296 295.536 35.08 296.155 33.736C296.795 32.3707 297.115 31.1333 297.115 30.024C297.115 28.7653 296.88 28.136 296.411 28.136ZM305.71 53.16C304.451 53.16 303.374 52.8507 302.478 52.232C301.603 51.592 300.942 50.76 300.494 49.736C300.046 48.712 299.822 47.6133 299.822 46.44C299.822 44.8187 300.12 43.3787 300.718 42.12C301.336 40.84 302.168 39.848 303.214 39.144C304.259 38.4187 305.432 38.056 306.734 38.056C307.992 38.056 309.07 38.376 309.966 39.016C310.862 39.6347 311.534 40.456 311.982 41.48C312.43 42.504 312.654 43.6027 312.654 44.776C312.654 46.3973 312.344 47.848 311.726 49.128C311.107 50.3867 310.264 51.3787 309.198 52.104C308.152 52.808 306.99 53.16 305.71 53.16ZM306.062 49.704C306.787 49.704 307.395 49.3093 307.886 48.52C308.398 47.7307 308.654 46.5787 308.654 45.064C308.654 43.8907 308.44 43.0053 308.014 42.408C307.587 41.8107 307.075 41.512 306.478 41.512C305.71 41.512 305.07 41.9067 304.558 42.696C304.067 43.464 303.822 44.616 303.822 46.152C303.822 47.368 304.035 48.264 304.462 48.84C304.888 49.416 305.422 49.704 306.062 49.704ZM316.786 45.128C316.274 45.1707 315.858 45.0213 315.538 44.68C315.239 44.3387 315.09 43.8587 315.09 43.24C315.09 42.664 315.228 42.2373 315.506 41.96C315.804 41.6827 316.231 41.5227 316.786 41.48L323.346 40.84C323.879 40.7973 324.284 40.936 324.562 41.256C324.86 41.5547 325.01 42.0027 325.01 42.6C325.01 43.752 324.455 44.3813 323.346 44.488L316.786 45.128ZM343.548 43.272C343.612 43.2507 343.719 43.24 343.868 43.24C344.188 43.24 344.433 43.3467 344.604 43.56C344.775 43.7733 344.86 44.0613 344.86 44.424C344.86 45.0853 344.732 45.608 344.476 45.992C344.22 46.3547 343.836 46.6213 343.324 46.792C342.343 47.112 341.297 47.272 340.188 47.272C339.249 47.272 338.364 47.144 337.532 46.888C336.913 47.8907 336.231 48.9253 335.484 49.992C334.631 51.208 333.895 52.04 333.276 52.488C332.657 52.936 331.953 53.16 331.164 53.16C330.289 53.16 329.596 52.8187 329.084 52.136C328.593 51.4533 328.284 50.376 328.156 48.904C327.9 45.9173 327.772 43.304 327.772 41.064V39.944C327.793 39.24 327.985 38.7493 328.348 38.472C328.711 38.1947 329.255 38.056 329.98 38.056C330.535 38.056 330.94 38.184 331.196 38.44C331.473 38.6747 331.612 39.08 331.612 39.656C331.612 42.1093 331.761 45.2987 332.06 49.224C333.34 47.3253 334.3 45.8107 334.94 44.68C334.62 44.0613 334.46 43.3253 334.46 42.472C334.46 41.7467 334.62 41.0427 334.94 40.36C335.26 39.6773 335.697 39.1227 336.252 38.696C336.807 38.2693 337.436 38.056 338.14 38.056C338.759 38.056 339.26 38.28 339.644 38.728C340.028 39.1547 340.22 39.784 340.22 40.616C340.22 41.576 339.964 42.6747 339.452 43.912C340.263 43.8693 341.34 43.7093 342.684 43.432L343.548 43.272ZM356.355 45.864C356.632 45.864 356.846 45.992 356.995 46.248C357.166 46.504 357.251 46.856 357.251 47.304C357.251 48.1573 357.048 48.8187 356.643 49.288C355.854 50.248 354.734 51.1333 353.283 51.944C351.854 52.7547 350.318 53.16 348.675 53.16C346.435 53.16 344.696 52.552 343.459 51.336C342.222 50.12 341.603 48.456 341.603 46.344C341.603 44.872 341.912 43.5067 342.531 42.248C343.15 40.968 344.003 39.9547 345.091 39.208C346.2 38.4613 347.448 38.088 348.835 38.088C350.072 38.088 351.064 38.4613 351.811 39.208C352.558 39.9333 352.931 40.9253 352.931 42.184C352.931 43.656 352.398 44.9253 351.331 45.992C350.286 47.0373 348.504 47.8693 345.987 48.488C346.52 49.4693 347.534 49.96 349.027 49.96C349.987 49.96 351.075 49.6293 352.291 48.968C353.528 48.2853 354.595 47.4 355.491 46.312C355.747 46.0133 356.035 45.864 356.355 45.864ZM348.291 41.224C347.502 41.224 346.83 41.6827 346.275 42.6C345.742 43.5173 345.475 44.6267 345.475 45.928V45.992C346.734 45.6933 347.726 45.2453 348.451 44.648C349.176 44.0507 349.539 43.3573 349.539 42.568C349.539 42.1627 349.422 41.8427 349.187 41.608C348.974 41.352 348.675 41.224 348.291 41.224ZM367.573 42.472C368.043 42.472 368.437 42.6427 368.757 42.984C369.099 43.304 369.269 43.7093 369.269 44.2C369.269 44.4773 369.205 44.776 369.077 45.096C368.736 45.8853 368.256 46.5467 367.637 47.08C367.019 47.6133 366.336 47.88 365.589 47.88C364.992 47.88 364.48 47.6667 364.053 47.24C363.648 46.8133 363.445 46.2373 363.445 45.512C363.445 45.1067 363.467 44.6693 363.509 44.2C363.552 43.8587 363.573 43.624 363.573 43.496C363.573 43.3253 363.531 43.1973 363.445 43.112C363.381 43.0267 363.296 42.984 363.189 42.984C362.891 42.984 362.485 43.3467 361.973 44.072C361.461 44.776 360.949 45.7147 360.437 46.888C359.925 48.0613 359.509 49.2987 359.189 50.6C358.955 51.624 358.688 52.3067 358.389 52.648C358.091 52.9893 357.6 53.16 356.917 53.16C356.107 53.16 355.531 52.7333 355.189 51.88C354.869 51.0267 354.709 49.6613 354.709 47.784C354.709 45.0107 355.104 42.376 355.893 39.88C356.085 39.2613 356.395 38.8133 356.821 38.536C357.269 38.2373 357.888 38.088 358.677 38.088C359.104 38.088 359.403 38.1413 359.573 38.248C359.744 38.3547 359.829 38.5573 359.829 38.856C359.829 39.1973 359.669 39.9653 359.349 41.16C359.136 42.0133 358.965 42.76 358.837 43.4C358.709 44.04 358.603 44.8293 358.517 45.768C359.221 43.9333 360.011 42.44 360.885 41.288C361.76 40.136 362.613 39.3147 363.445 38.824C364.277 38.3333 365.035 38.088 365.717 38.088C366.336 38.088 366.805 38.2693 367.125 38.632C367.467 38.9733 367.637 39.4853 367.637 40.168C367.637 40.5733 367.52 41.3413 367.285 42.472H367.573ZM375.629 53.864C374.519 53.864 373.666 53.608 373.069 53.096C372.493 52.584 372.205 52.008 372.205 51.368C372.205 50.8133 372.407 50.3333 372.813 49.928C373.218 49.5227 373.815 49.32 374.605 49.32C374.882 49.32 375.202 49.352 375.565 49.416C375.949 49.4587 376.237 49.4907 376.429 49.512C376.407 48.9573 376.279 48.4347 376.045 47.944C375.831 47.4533 375.554 46.984 375.213 46.536C374.871 46.0667 374.551 45.6613 374.253 45.32C373.591 46.5787 372.93 47.624 372.269 48.456C371.629 49.288 370.925 50.0773 370.157 50.824C369.773 51.208 369.367 51.4 368.941 51.4C368.599 51.4 368.322 51.2827 368.109 51.048C367.895 50.792 367.789 50.4827 367.789 50.12C367.789 49.6933 367.938 49.2987 368.237 48.936L368.653 48.424C369.826 46.9733 370.711 45.7787 371.309 44.84C371.671 44.2213 372.098 43.4 372.589 42.376C373.079 41.3307 373.559 40.2533 374.029 39.144C374.434 38.2053 375.277 37.736 376.557 37.736C377.154 37.736 377.57 37.7893 377.805 37.896C378.039 38.0027 378.157 38.1733 378.157 38.408C378.157 38.536 378.114 38.7387 378.029 39.016C377.943 39.2933 377.826 39.5707 377.677 39.848C377.293 40.616 377.101 41.2667 377.101 41.8C377.101 42.12 377.207 42.472 377.421 42.856C377.655 43.24 378.007 43.72 378.477 44.296C379.159 45.192 379.671 45.96 380.013 46.6C380.375 47.2187 380.557 47.9013 380.557 48.648C380.557 48.8613 380.535 49.16 380.493 49.544C381.538 49.1387 382.765 48.0613 384.173 46.312C384.429 46.0133 384.717 45.864 385.037 45.864C385.314 45.864 385.527 45.992 385.677 46.248C385.847 46.504 385.933 46.856 385.933 47.304C385.933 48.1147 385.73 48.776 385.325 49.288C384.258 50.6107 383.234 51.5173 382.253 52.008C381.293 52.4773 380.098 52.7333 378.669 52.776C377.815 53.5013 376.802 53.864 375.629 53.864ZM388.741 53.16C387.482 53.16 386.405 52.8507 385.509 52.232C384.634 51.592 383.973 50.76 383.525 49.736C383.077 48.712 382.853 47.6133 382.853 46.44C382.853 44.8187 383.152 43.3787 383.749 42.12C384.368 40.84 385.2 39.848 386.245 39.144C387.29 38.4187 388.464 38.056 389.765 38.056C391.024 38.056 392.101 38.376 392.997 39.016C393.893 39.6347 394.565 40.456 395.013 41.48C395.461 42.504 395.685 43.6027 395.685 44.776C395.685 46.3973 395.376 47.848 394.757 49.128C394.138 50.3867 393.296 51.3787 392.229 52.104C391.184 52.808 390.021 53.16 388.741 53.16ZM389.093 49.704C389.818 49.704 390.426 49.3093 390.917 48.52C391.429 47.7307 391.685 46.5787 391.685 45.064C391.685 43.8907 391.472 43.0053 391.045 42.408C390.618 41.8107 390.106 41.512 389.509 41.512C388.741 41.512 388.101 41.9067 387.589 42.696C387.098 43.464 386.853 44.616 386.853 46.152C386.853 47.368 387.066 48.264 387.493 48.84C387.92 49.416 388.453 49.704 389.093 49.704Z" fill="#001AFF"/>
</svg>
