<svg width="197" height="96" viewBox="0 0 197 96" fill="none" xmlns="http://www.w3.org/2000/svg">
<path d="M48.9887 34.864C49.266 34.864 49.4793 34.992 49.6287 35.248C49.7993 35.504 49.8847 35.856 49.8847 36.304C49.8847 37.1573 49.682 37.8187 49.2767 38.288C48.3593 39.4187 47.3567 40.3467 46.2687 41.072C45.1807 41.7973 43.9327 42.16 42.5247 42.16C38.1727 42.16 35.9967 39.0987 35.9967 32.976C35.9967 32.0373 36.0287 31.088 36.0927 30.128H34.8447C34.2047 30.128 33.7673 30.0107 33.5327 29.776C33.3193 29.5413 33.2127 29.168 33.2127 28.656C33.2127 27.4613 33.6927 26.864 34.6527 26.864H36.4767C36.8393 24.5173 37.394 22.3733 38.1407 20.432C38.8873 18.4907 39.7833 16.944 40.8287 15.792C41.8953 14.64 43.0367 14.064 44.2527 14.064C45.1487 14.064 45.8527 14.4587 46.3647 15.248C46.8767 16.0373 47.1327 17.0293 47.1327 18.224C47.1327 21.5307 45.746 24.4107 42.9727 26.864H46.5567C46.898 26.864 47.1433 26.9387 47.2927 27.088C47.442 27.2373 47.5167 27.5147 47.5167 27.92C47.5167 29.392 46.3113 30.128 43.9007 30.128H39.9967C39.954 31.1947 39.9327 32.0267 39.9327 32.624C39.9327 34.8427 40.1887 36.4 40.7007 37.296C41.234 38.192 42.066 38.64 43.1967 38.64C44.114 38.64 44.9247 38.3627 45.6287 37.808C46.3327 37.2533 47.1647 36.4213 48.1247 35.312C48.3807 35.0133 48.6687 34.864 48.9887 34.864ZM43.3887 17.136C43.0687 17.136 42.706 17.5413 42.3007 18.352C41.9167 19.1413 41.5433 20.2507 41.1807 21.68C40.8393 23.088 40.5513 24.656 40.3167 26.384C41.5753 25.296 42.514 24.08 43.1327 22.736C43.7727 21.3707 44.0927 20.1333 44.0927 19.024C44.0927 17.7653 43.858 17.136 43.3887 17.136ZM49.5512 42.16C48.7405 42.16 48.1645 41.7333 47.8232 40.88C47.5032 40.0267 47.3432 38.6613 47.3432 36.784C47.3432 34.0107 47.7378 31.376 48.5272 28.88C48.7192 28.2613 49.0285 27.8133 49.4552 27.536C49.9032 27.2373 50.5218 27.088 51.3112 27.088C51.7378 27.088 52.0365 27.1413 52.2072 27.248C52.3778 27.3547 52.4632 27.5573 52.4632 27.856C52.4632 28.1973 52.3032 28.9653 51.9832 30.16C51.7698 31.0133 51.5992 31.76 51.4712 32.4C51.3432 33.04 51.2365 33.8293 51.1512 34.768C51.8552 32.9333 52.6445 31.44 53.5192 30.288C54.3938 29.136 55.2472 28.3147 56.0792 27.824C56.9325 27.3333 57.7112 27.088 58.4152 27.088C59.8018 27.088 60.4952 27.7813 60.4952 29.168C60.4952 29.4453 60.3992 30.1173 60.2072 31.184C60.0365 32.0373 59.9512 32.5707 59.9512 32.784C59.9512 33.5307 60.2178 33.904 60.7512 33.904C61.3485 33.904 62.1165 33.4347 63.0552 32.496C63.3325 32.2187 63.6205 32.08 63.9192 32.08C64.1965 32.08 64.4098 32.208 64.5592 32.464C64.7298 32.6987 64.8152 33.0187 64.8152 33.424C64.8152 34.2133 64.6018 34.832 64.1752 35.28C63.5778 35.8987 62.8738 36.432 62.0632 36.88C61.2738 37.3067 60.4312 37.52 59.5352 37.52C58.4045 37.52 57.5405 37.232 56.9432 36.656C56.3672 36.08 56.0792 35.3013 56.0792 34.32C56.0792 34 56.1112 33.68 56.1752 33.36C56.2178 32.9333 56.2392 32.6453 56.2392 32.496C56.2392 32.1547 56.1218 31.984 55.8872 31.984C55.5672 31.984 55.1405 32.3467 54.6072 33.072C54.0952 33.776 53.5832 34.7147 53.0712 35.888C52.5592 37.0613 52.1432 38.2987 51.8232 39.6C51.5885 40.6027 51.3112 41.2853 50.9912 41.648C50.6925 41.9893 50.2125 42.16 49.5512 42.16ZM65.7777 42.16C64.455 42.16 63.399 41.68 62.6097 40.72C61.8203 39.76 61.4257 38.5013 61.4257 36.944C61.4257 35.2373 61.8203 33.6267 62.6097 32.112C63.399 30.576 64.4443 29.3493 65.7457 28.432C67.0683 27.4933 68.4657 27.024 69.9377 27.024C70.407 27.024 70.7163 27.12 70.8657 27.312C71.0363 27.4827 71.175 27.8027 71.2817 28.272C71.7297 28.1867 72.199 28.144 72.6897 28.144C73.735 28.144 74.2577 28.5173 74.2577 29.264C74.2577 29.712 74.0977 30.7787 73.7777 32.464C73.287 34.9173 73.0417 36.624 73.0417 37.584C73.0417 37.904 73.1163 38.16 73.2657 38.352C73.4363 38.544 73.6497 38.64 73.9057 38.64C74.311 38.64 74.8017 38.384 75.3777 37.872C75.9537 37.3387 76.7323 36.4853 77.7137 35.312C77.9697 35.0133 78.2577 34.864 78.5777 34.864C78.855 34.864 79.0683 34.992 79.2177 35.248C79.3883 35.504 79.4737 35.856 79.4737 36.304C79.4737 37.1573 79.271 37.8187 78.8657 38.288C77.991 39.376 77.063 40.2933 76.0817 41.04C75.1003 41.7867 74.151 42.16 73.2337 42.16C72.5297 42.16 71.879 41.9253 71.2817 41.456C70.7057 40.9653 70.2683 40.304 69.9697 39.472C68.8603 41.264 67.463 42.16 65.7777 42.16ZM66.9297 38.928C67.399 38.928 67.847 38.6507 68.2737 38.096C68.7003 37.5413 69.0097 36.8053 69.2017 35.888L70.3857 30C69.4897 30.0213 68.6577 30.3627 67.8897 31.024C67.143 31.664 66.5457 32.5173 66.0977 33.584C65.6497 34.6507 65.4257 35.7813 65.4257 36.976C65.4257 37.6373 65.5537 38.128 65.8097 38.448C66.087 38.768 66.4603 38.928 66.9297 38.928ZM79.1449 42.16C78.3342 42.16 77.7582 41.7333 77.4169 40.88C77.0969 40.0267 76.9369 38.6613 76.9369 36.784C76.9369 34.0107 77.3316 31.376 78.1209 28.88C78.3129 28.2613 78.6222 27.8133 79.0489 27.536C79.4969 27.2373 80.1156 27.088 80.9049 27.088C81.3316 27.088 81.6302 27.1413 81.8009 27.248C81.9716 27.3547 82.0569 27.5573 82.0569 27.856C82.0569 28.1973 81.8969 28.9653 81.5769 30.16C81.3636 31.0133 81.1929 31.76 81.0649 32.4C80.9369 33.04 80.8302 33.8293 80.7449 34.768C81.4489 32.9333 82.2382 31.44 83.1129 30.288C83.9876 29.136 84.8409 28.3147 85.6729 27.824C86.5262 27.3333 87.3049 27.088 88.0089 27.088C89.3956 27.088 90.0889 27.7813 90.0889 29.168C90.0889 30 89.8542 31.504 89.3849 33.68C88.9796 35.536 88.7769 36.7627 88.7769 37.36C88.7769 38.2133 89.0862 38.64 89.7049 38.64C90.1316 38.64 90.6329 38.384 91.2089 37.872C91.8062 37.3387 92.5956 36.4853 93.5769 35.312C93.8329 35.0133 94.1209 34.864 94.4409 34.864C94.7182 34.864 94.9316 34.992 95.0809 35.248C95.2516 35.504 95.3369 35.856 95.3369 36.304C95.3369 37.1573 95.1342 37.8187 94.7289 38.288C93.8116 39.4187 92.8196 40.3467 91.7529 41.072C90.7076 41.7973 89.5129 42.16 88.1689 42.16C87.0809 42.16 86.2596 41.8507 85.7049 41.232C85.1502 40.592 84.8729 39.6747 84.8729 38.48C84.8729 37.8827 85.0222 36.816 85.3209 35.28C85.5982 33.936 85.7369 33.008 85.7369 32.496C85.7369 32.1547 85.6196 31.984 85.3849 31.984C85.1076 31.984 84.7129 32.3467 84.2009 33.072C83.7102 33.776 83.1982 34.7147 82.6649 35.888C82.1529 37.0613 81.7369 38.2987 81.4169 39.6C81.1822 40.6027 80.9049 41.2853 80.5849 41.648C80.2862 41.9893 79.8062 42.16 79.1449 42.16ZM98.6999 42.864C97.5906 42.864 96.7372 42.608 96.1399 42.096C95.5639 41.584 95.2759 41.008 95.2759 40.368C95.2759 39.8133 95.4786 39.3333 95.8839 38.928C96.2892 38.5227 96.8866 38.32 97.6759 38.32C97.9532 38.32 98.2732 38.352 98.6359 38.416C99.0199 38.4587 99.3079 38.4907 99.4999 38.512C99.4786 37.9573 99.3506 37.4347 99.1159 36.944C98.9026 36.4533 98.6252 35.984 98.2839 35.536C97.9426 35.0667 97.6226 34.6613 97.3239 34.32C96.6626 35.5787 96.0012 36.624 95.3399 37.456C94.6999 38.288 93.9959 39.0773 93.2279 39.824C92.8439 40.208 92.4386 40.4 92.0119 40.4C91.6706 40.4 91.3932 40.2827 91.1799 40.048C90.9666 39.792 90.8599 39.4827 90.8599 39.12C90.8599 38.6933 91.0092 38.2987 91.3079 37.936L91.7239 37.424C92.8972 35.9733 93.7826 34.7787 94.3799 33.84C94.7426 33.2213 95.1692 32.4 95.6599 31.376C96.1506 30.3307 96.6306 29.2533 97.0999 28.144C97.5052 27.2053 98.3479 26.736 99.6279 26.736C100.225 26.736 100.641 26.7893 100.876 26.896C101.111 27.0027 101.228 27.1733 101.228 27.408C101.228 27.536 101.185 27.7387 101.1 28.016C101.015 28.2933 100.897 28.5707 100.748 28.848C100.364 29.616 100.172 30.2667 100.172 30.8C100.172 31.12 100.279 31.472 100.492 31.856C100.727 32.24 101.079 32.72 101.548 33.296C102.231 34.192 102.743 34.96 103.084 35.6C103.447 36.2187 103.628 36.9013 103.628 37.648C103.628 37.8613 103.607 38.16 103.564 38.544C104.609 38.1387 105.836 37.0613 107.244 35.312C107.5 35.0133 107.788 34.864 108.108 34.864C108.385 34.864 108.599 34.992 108.748 35.248C108.919 35.504 109.004 35.856 109.004 36.304C109.004 37.1147 108.801 37.776 108.396 38.288C107.329 39.6107 106.305 40.5173 105.324 41.008C104.364 41.4773 103.169 41.7333 101.74 41.776C100.887 42.5013 99.8732 42.864 98.6999 42.864ZM110.596 24.976C109.7 24.976 109.028 24.7733 108.58 24.368C108.132 23.9413 107.908 23.3547 107.908 22.608C107.908 21.8613 108.196 21.2427 108.772 20.752C109.369 20.24 110.105 19.984 110.98 19.984C111.769 19.984 112.409 20.176 112.9 20.56C113.391 20.944 113.636 21.488 113.636 22.192C113.636 23.0453 113.359 23.728 112.804 24.24C112.249 24.7307 111.513 24.976 110.596 24.976ZM110.34 42.16C108.953 42.16 107.94 41.6693 107.3 40.688C106.681 39.7067 106.372 38.4053 106.372 36.784C106.372 35.824 106.489 34.5973 106.724 33.104C106.98 31.5893 107.3 30.1813 107.684 28.88C107.876 28.1973 108.132 27.728 108.452 27.472C108.772 27.216 109.284 27.088 109.988 27.088C111.076 27.088 111.62 27.4507 111.62 28.176C111.62 28.7093 111.417 29.9467 111.012 31.888C110.5 34.2347 110.244 35.824 110.244 36.656C110.244 37.296 110.329 37.7867 110.5 38.128C110.671 38.4693 110.959 38.64 111.364 38.64C111.748 38.64 112.228 38.3733 112.804 37.84C113.38 37.3067 114.148 36.464 115.108 35.312C115.364 35.0133 115.652 34.864 115.972 34.864C116.249 34.864 116.463 34.992 116.612 35.248C116.783 35.504 116.868 35.856 116.868 36.304C116.868 37.1573 116.665 37.8187 116.26 38.288C114.148 40.8693 112.175 42.16 110.34 42.16ZM128.551 34.864C128.828 34.864 129.042 34.992 129.191 35.248C129.362 35.504 129.447 35.856 129.447 36.304C129.447 37.1573 129.244 37.8187 128.839 38.288C127.922 39.4187 126.919 40.3467 125.831 41.072C124.743 41.7973 123.495 42.16 122.087 42.16C117.735 42.16 115.559 39.0987 115.559 32.976C115.559 32.0373 115.591 31.088 115.655 30.128H114.407C113.767 30.128 113.33 30.0107 113.095 29.776C112.882 29.5413 112.775 29.168 112.775 28.656C112.775 27.4613 113.255 26.864 114.215 26.864H116.039C116.402 24.5173 116.956 22.3733 117.703 20.432C118.45 18.4907 119.346 16.944 120.391 15.792C121.458 14.64 122.599 14.064 123.815 14.064C124.711 14.064 125.415 14.4587 125.927 15.248C126.439 16.0373 126.695 17.0293 126.695 18.224C126.695 21.5307 125.308 24.4107 122.535 26.864H126.119C126.46 26.864 126.706 26.9387 126.855 27.088C127.004 27.2373 127.079 27.5147 127.079 27.92C127.079 29.392 125.874 30.128 123.463 30.128H119.559C119.516 31.1947 119.495 32.0267 119.495 32.624C119.495 34.8427 119.751 36.4 120.263 37.296C120.796 38.192 121.628 38.64 122.759 38.64C123.676 38.64 124.487 38.3627 125.191 37.808C125.895 37.2533 126.727 36.4213 127.687 35.312C127.943 35.0133 128.231 34.864 128.551 34.864ZM122.951 17.136C122.631 17.136 122.268 17.5413 121.863 18.352C121.479 19.1413 121.106 20.2507 120.743 21.68C120.402 23.088 120.114 24.656 119.879 26.384C121.138 25.296 122.076 24.08 122.695 22.736C123.335 21.3707 123.655 20.1333 123.655 19.024C123.655 17.7653 123.42 17.136 122.951 17.136ZM131.034 24.976C130.138 24.976 129.466 24.7733 129.018 24.368C128.57 23.9413 128.346 23.3547 128.346 22.608C128.346 21.8613 128.634 21.2427 129.21 20.752C129.807 20.24 130.543 19.984 131.418 19.984C132.207 19.984 132.847 20.176 133.338 20.56C133.828 20.944 134.074 21.488 134.074 22.192C134.074 23.0453 133.796 23.728 133.242 24.24C132.687 24.7307 131.951 24.976 131.034 24.976ZM130.778 42.16C129.391 42.16 128.378 41.6693 127.738 40.688C127.119 39.7067 126.81 38.4053 126.81 36.784C126.81 35.824 126.927 34.5973 127.162 33.104C127.418 31.5893 127.738 30.1813 128.122 28.88C128.314 28.1973 128.57 27.728 128.89 27.472C129.21 27.216 129.722 27.088 130.426 27.088C131.514 27.088 132.058 27.4507 132.058 28.176C132.058 28.7093 131.855 29.9467 131.45 31.888C130.938 34.2347 130.682 35.824 130.682 36.656C130.682 37.296 130.767 37.7867 130.938 38.128C131.108 38.4693 131.396 38.64 131.802 38.64C132.186 38.64 132.666 38.3733 133.242 37.84C133.818 37.3067 134.586 36.464 135.546 35.312C135.802 35.0133 136.09 34.864 136.41 34.864C136.687 34.864 136.9 34.992 137.05 35.248C137.22 35.504 137.306 35.856 137.306 36.304C137.306 37.1573 137.103 37.8187 136.698 38.288C134.586 40.8693 132.612 42.16 130.778 42.16ZM151.037 32.176C151.314 32.176 151.527 32.3147 151.677 32.592C151.826 32.8693 151.901 33.2213 151.901 33.648C151.901 34.672 151.591 35.28 150.973 35.472C149.693 35.92 148.285 36.176 146.749 36.24C146.343 38.032 145.543 39.472 144.349 40.56C143.154 41.6267 141.799 42.16 140.285 42.16C139.005 42.16 137.906 41.8507 136.989 41.232C136.093 40.6133 135.41 39.792 134.941 38.768C134.471 37.744 134.237 36.6347 134.237 35.44C134.237 33.8187 134.546 32.3787 135.165 31.12C135.783 29.84 136.637 28.848 137.725 28.144C138.813 27.4187 140.018 27.056 141.341 27.056C142.962 27.056 144.263 27.6213 145.245 28.752C146.247 29.8613 146.834 31.2373 147.005 32.88C148.007 32.816 149.202 32.6027 150.589 32.24C150.759 32.1973 150.909 32.176 151.037 32.176ZM140.541 38.768C141.223 38.768 141.81 38.4907 142.301 37.936C142.813 37.3813 143.154 36.5813 143.325 35.536C142.663 35.088 142.151 34.5013 141.789 33.776C141.447 33.0507 141.277 32.2827 141.277 31.472C141.277 31.1307 141.309 30.7893 141.373 30.448H141.213C140.359 30.448 139.645 30.864 139.069 31.696C138.514 32.5067 138.237 33.6587 138.237 35.152C138.237 36.3253 138.461 37.2213 138.909 37.84C139.378 38.4587 139.922 38.768 140.541 38.768ZM151.426 42.16C150.615 42.16 150.039 41.7333 149.698 40.88C149.378 40.0267 149.218 38.6613 149.218 36.784C149.218 34.0107 149.613 31.376 150.402 28.88C150.594 28.2613 150.903 27.8133 151.33 27.536C151.778 27.2373 152.397 27.088 153.186 27.088C153.613 27.088 153.911 27.1413 154.082 27.248C154.253 27.3547 154.338 27.5573 154.338 27.856C154.338 28.1973 154.178 28.9653 153.858 30.16C153.645 31.0133 153.474 31.76 153.346 32.4C153.218 33.04 153.111 33.8293 153.026 34.768C153.73 32.9333 154.519 31.44 155.394 30.288C156.269 29.136 157.122 28.3147 157.954 27.824C158.807 27.3333 159.586 27.088 160.29 27.088C160.973 27.088 161.485 27.2693 161.826 27.632C162.189 27.9733 162.37 28.4853 162.37 29.168C162.37 29.7227 162.253 30.768 162.018 32.304C161.805 33.6053 161.634 34.8427 161.506 36.016C161.378 37.168 161.314 38.4587 161.314 39.888C161.314 40.6987 161.143 41.2853 160.802 41.648C160.482 41.9893 159.949 42.16 159.202 42.16C158.498 42.16 157.986 41.9787 157.666 41.616C157.346 41.2533 157.186 40.7093 157.186 39.984C157.186 39.1307 157.335 37.7227 157.634 35.76C157.89 34.0533 158.018 32.9653 158.018 32.496C158.018 32.1547 157.901 31.984 157.666 31.984C157.389 31.984 156.994 32.3467 156.482 33.072C155.991 33.776 155.479 34.7147 154.946 35.888C154.434 37.0613 154.018 38.2987 153.698 39.6C153.463 40.6027 153.186 41.2853 152.866 41.648C152.567 41.9893 152.087 42.16 151.426 42.16Z" fill="#001AFF"/>
<path d="M196.691 87.1664C196.878 88.2551 196.147 89.2889 195.058 89.4754L177.316 92.5146C176.228 92.7011 175.194 91.9697 175.007 90.881C174.821 89.7923 175.552 88.7585 176.641 88.572L192.411 85.8705L189.71 70.1002C189.523 69.0115 190.255 67.9778 191.343 67.7913C192.432 67.6048 193.466 68.3361 193.652 69.4249L196.691 87.1664ZM3.35357 80.8939C2.32508 81.2967 1.16475 80.7895 0.761907 79.761C0.35906 78.7326 0.866242 77.5722 1.89473 77.1694L3.35357 80.8939ZM193.565 89.1368C143.804 53.9306 68.9735 55.1913 3.35357 80.8939L1.89473 77.1694C68.1862 51.2038 144.587 49.5851 195.875 85.8714L193.565 89.1368Z" fill="#001AFF"/>
</svg>
