<svg width="272" height="162" viewBox="0 0 272 162" fill="none" xmlns="http://www.w3.org/2000/svg">
<path d="M65.664 52.864C65.9413 52.864 66.1547 52.992 66.304 53.248C66.4747 53.504 66.56 53.856 66.56 54.304C66.56 55.1573 66.3573 55.8187 65.952 56.288C65.0347 57.4187 64.032 58.3467 62.944 59.072C61.8773 59.7973 60.6613 60.16 59.296 60.16C57.4187 60.16 56.0213 59.3067 55.104 57.6C54.208 55.8933 53.76 53.6853 53.76 50.976C53.76 48.3733 54.0907 45.408 54.752 42.08C55.4347 38.752 56.4267 35.8933 57.728 33.504C59.0507 31.1147 60.6187 29.92 62.432 29.92C63.456 29.92 64.256 30.4 64.832 31.36C65.4293 32.2987 65.728 33.6533 65.728 35.424C65.728 37.9627 65.024 40.9067 63.616 44.256C62.208 47.6053 60.2987 50.9227 57.888 54.208C58.0373 55.0827 58.2827 55.712 58.624 56.096C58.9653 56.4587 59.4133 56.64 59.968 56.64C60.8427 56.64 61.6107 56.3947 62.272 55.904C62.9333 55.392 63.776 54.528 64.8 53.312C65.056 53.0133 65.344 52.864 65.664 52.864ZM61.728 33.088C61.2373 33.088 60.6827 33.9733 60.064 35.744C59.4453 37.5147 58.9013 39.712 58.432 42.336C57.9627 44.96 57.7067 47.4773 57.664 49.888C59.1787 47.392 60.384 44.896 61.28 42.4C62.176 39.8827 62.624 37.5893 62.624 35.52C62.624 33.8987 62.3253 33.088 61.728 33.088ZM67.597 60.16C66.2743 60.16 65.2183 59.68 64.429 58.72C63.6397 57.76 63.245 56.5013 63.245 54.944C63.245 53.2373 63.6397 51.6267 64.429 50.112C65.2183 48.576 66.2637 47.3493 67.565 46.432C68.8877 45.4933 70.285 45.024 71.757 45.024C72.2263 45.024 72.5357 45.12 72.685 45.312C72.8557 45.4827 72.9943 45.8027 73.101 46.272C73.549 46.1867 74.0183 46.144 74.509 46.144C75.5543 46.144 76.077 46.5173 76.077 47.264C76.077 47.712 75.917 48.7787 75.597 50.464C75.1063 52.9173 74.861 54.624 74.861 55.584C74.861 55.904 74.9357 56.16 75.085 56.352C75.2557 56.544 75.469 56.64 75.725 56.64C76.1303 56.64 76.621 56.384 77.197 55.872C77.773 55.3387 78.5517 54.4853 79.533 53.312C79.789 53.0133 80.077 52.864 80.397 52.864C80.6743 52.864 80.8877 52.992 81.037 53.248C81.2077 53.504 81.293 53.856 81.293 54.304C81.293 55.1573 81.0903 55.8187 80.685 56.288C79.8103 57.376 78.8823 58.2933 77.901 59.04C76.9197 59.7867 75.9703 60.16 75.053 60.16C74.349 60.16 73.6983 59.9253 73.101 59.456C72.525 58.9653 72.0877 58.304 71.789 57.472C70.6797 59.264 69.2823 60.16 67.597 60.16ZM68.749 56.928C69.2183 56.928 69.6663 56.6507 70.093 56.096C70.5197 55.5413 70.829 54.8053 71.021 53.888L72.205 48C71.309 48.0213 70.477 48.3627 69.709 49.024C68.9623 49.664 68.365 50.5173 67.917 51.584C67.469 52.6507 67.245 53.7813 67.245 54.976C67.245 55.6373 67.373 56.128 67.629 56.448C67.9063 56.768 68.2797 56.928 68.749 56.928ZM80.9643 60.16C80.1536 60.16 79.5776 59.7333 79.2363 58.88C78.9163 58.0267 78.7563 56.6613 78.7563 54.784C78.7563 52.0107 79.1509 49.376 79.9403 46.88C80.1323 46.2613 80.4416 45.8133 80.8683 45.536C81.3163 45.2373 81.9349 45.088 82.7243 45.088C83.1509 45.088 83.4496 45.1413 83.6203 45.248C83.7909 45.3547 83.8763 45.5573 83.8763 45.856C83.8763 46.1973 83.7163 46.9653 83.3963 48.16C83.1829 49.0133 83.0123 49.76 82.8843 50.4C82.7563 51.04 82.6496 51.8293 82.5643 52.768C83.2683 50.9333 84.0576 49.44 84.9323 48.288C85.8069 47.136 86.6603 46.3147 87.4923 45.824C88.3456 45.3333 89.1243 45.088 89.8283 45.088C91.2149 45.088 91.9083 45.7813 91.9083 47.168C91.9083 48 91.6736 49.504 91.2043 51.68C90.7989 53.536 90.5963 54.7627 90.5963 55.36C90.5963 56.2133 90.9056 56.64 91.5243 56.64C91.9509 56.64 92.4523 56.384 93.0283 55.872C93.6256 55.3387 94.4149 54.4853 95.3963 53.312C95.6523 53.0133 95.9403 52.864 96.2603 52.864C96.5376 52.864 96.7509 52.992 96.9003 53.248C97.0709 53.504 97.1562 53.856 97.1562 54.304C97.1562 55.1573 96.9536 55.8187 96.5483 56.288C95.6309 57.4187 94.6389 58.3467 93.5723 59.072C92.5269 59.7973 91.3323 60.16 89.9883 60.16C88.9003 60.16 88.0789 59.8507 87.5243 59.232C86.9696 58.592 86.6923 57.6747 86.6923 56.48C86.6923 55.8827 86.8416 54.816 87.1403 53.28C87.4176 51.936 87.5563 51.008 87.5563 50.496C87.5563 50.1547 87.4389 49.984 87.2043 49.984C86.9269 49.984 86.5323 50.3467 86.0203 51.072C85.5296 51.776 85.0176 52.7147 84.4843 53.888C83.9723 55.0613 83.5563 56.2987 83.2363 57.6C83.0016 58.6027 82.7243 59.2853 82.4043 59.648C82.1056 59.9893 81.6256 60.16 80.9643 60.16ZM100.679 60.16C98.5886 60.16 96.9566 59.5733 95.7833 58.4C94.6313 57.2053 94.0553 55.6373 94.0553 53.696C94.0553 51.968 94.3966 50.4533 95.0793 49.152C95.7619 47.8507 96.6473 46.848 97.7352 46.144C98.8233 45.44 99.9646 45.088 101.159 45.088C102.333 45.088 103.239 45.44 103.879 46.144C104.541 46.8267 104.871 47.712 104.871 48.8C104.871 49.696 104.669 50.4533 104.263 51.072C103.879 51.6907 103.367 52 102.727 52C102.322 52 101.991 51.904 101.735 51.712C101.501 51.52 101.383 51.2533 101.383 50.912C101.383 50.7627 101.405 50.592 101.447 50.4C101.49 50.208 101.522 50.0693 101.543 49.984C101.65 49.664 101.703 49.3653 101.703 49.088C101.703 48.8107 101.629 48.5973 101.479 48.448C101.351 48.2987 101.159 48.224 100.903 48.224C100.413 48.224 99.9539 48.448 99.5273 48.896C99.1006 49.3227 98.7593 49.9093 98.5033 50.656C98.2473 51.4027 98.1193 52.224 98.1193 53.12C98.1193 55.5947 99.1966 56.832 101.351 56.832C102.226 56.832 103.165 56.544 104.167 55.968C105.191 55.3707 106.194 54.4853 107.175 53.312C107.431 53.0133 107.719 52.864 108.039 52.864C108.317 52.864 108.53 52.992 108.679 53.248C108.85 53.504 108.935 53.856 108.935 54.304C108.935 55.1147 108.733 55.776 108.327 56.288C107.325 57.5253 106.119 58.4853 104.711 59.168C103.325 59.8293 101.981 60.16 100.679 60.16ZM120.621 52.864C120.898 52.864 121.111 52.992 121.26 53.248C121.431 53.504 121.517 53.856 121.517 54.304C121.517 55.1573 121.314 55.8187 120.909 56.288C120.119 57.248 118.999 58.1333 117.549 58.944C116.119 59.7547 114.583 60.16 112.941 60.16C110.701 60.16 108.962 59.552 107.725 58.336C106.487 57.12 105.868 55.456 105.868 53.344C105.868 51.872 106.178 50.5067 106.797 49.248C107.415 47.968 108.269 46.9547 109.357 46.208C110.466 45.4613 111.714 45.088 113.101 45.088C114.338 45.088 115.33 45.4613 116.077 46.208C116.823 46.9333 117.197 47.9253 117.197 49.184C117.197 50.656 116.663 51.9253 115.597 52.992C114.551 54.0373 112.77 54.8693 110.253 55.488C110.786 56.4693 111.799 56.96 113.293 56.96C114.253 56.96 115.341 56.6293 116.557 55.968C117.794 55.2853 118.861 54.4 119.757 53.312C120.013 53.0133 120.301 52.864 120.621 52.864ZM112.557 48.224C111.767 48.224 111.095 48.6827 110.541 49.6C110.007 50.5173 109.741 51.6267 109.741 52.928V52.992C110.999 52.6933 111.991 52.2453 112.717 51.648C113.442 51.0507 113.805 50.3573 113.805 49.568C113.805 49.1627 113.687 48.8427 113.453 48.608C113.239 48.352 112.941 48.224 112.557 48.224ZM129.855 56.512C130.324 56.4907 130.676 56.6613 130.911 57.024C131.167 57.3653 131.295 57.792 131.295 58.304C131.295 58.8373 131.167 59.3067 130.911 59.712C130.676 60.1173 130.346 60.32 129.919 60.32C129.151 60.32 128.426 60.3093 127.743 60.288C127.082 60.2667 126.495 60.2453 125.983 60.224C124.02 60.1387 122.634 60.096 121.823 60.096C121.546 60.096 121.14 60.192 120.607 60.384C119.924 60.5973 119.455 60.704 119.199 60.704C118.068 60.704 117.503 59.9787 117.503 58.528C117.503 57.5467 117.855 56.4373 118.559 55.2C119.263 53.9413 120.18 52.7253 121.311 51.552C122.442 50.3787 123.615 49.3973 124.831 48.608L120.319 48.736C119.85 48.7573 119.487 48.5973 119.231 48.256C118.996 47.8933 118.879 47.4667 118.879 46.976C118.879 46.464 118.996 46.016 119.231 45.632C119.487 45.2267 119.828 45.024 120.255 45.024C121.194 45.024 122.356 45.0987 123.743 45.248C123.978 45.2693 124.479 45.312 125.247 45.376C126.036 45.44 126.762 45.472 127.423 45.472C127.636 45.472 128.042 45.3867 128.639 45.216C128.746 45.1947 128.948 45.1413 129.247 45.056C129.567 44.9707 129.834 44.928 130.047 44.928C130.388 44.928 130.666 45.0773 130.879 45.376C131.114 45.6747 131.231 46.1333 131.231 46.752C131.231 47.4347 131.06 47.9787 130.719 48.384C130.399 48.7893 129.908 49.152 129.247 49.472C128.5 49.8133 127.626 50.4 126.623 51.232C125.62 52.064 124.671 52.992 123.775 54.016C122.879 55.0187 122.218 55.968 121.791 56.864L129.855 56.512ZM152.695 52.864C152.973 52.864 153.186 52.992 153.335 53.248C153.506 53.504 153.591 53.856 153.591 54.304C153.591 55.1573 153.389 55.8187 152.983 56.288C152.066 57.4187 151.063 58.3467 149.975 59.072C148.909 59.7973 147.693 60.16 146.327 60.16C144.45 60.16 143.053 59.3067 142.135 57.6C141.239 55.8933 140.791 53.6853 140.791 50.976C140.791 48.3733 141.122 45.408 141.783 42.08C142.466 38.752 143.458 35.8933 144.759 33.504C146.082 31.1147 147.65 29.92 149.463 29.92C150.487 29.92 151.287 30.4 151.863 31.36C152.461 32.2987 152.759 33.6533 152.759 35.424C152.759 37.9627 152.055 40.9067 150.647 44.256C149.239 47.6053 147.33 50.9227 144.919 54.208C145.069 55.0827 145.314 55.712 145.655 56.096C145.997 56.4587 146.445 56.64 146.999 56.64C147.874 56.64 148.642 56.3947 149.303 55.904C149.965 55.392 150.807 54.528 151.831 53.312C152.087 53.0133 152.375 52.864 152.695 52.864ZM148.759 33.088C148.269 33.088 147.714 33.9733 147.095 35.744C146.477 37.5147 145.933 39.712 145.463 42.336C144.994 44.96 144.738 47.4773 144.695 49.888C146.21 47.392 147.415 44.896 148.311 42.4C149.207 39.8827 149.655 37.5893 149.655 35.52C149.655 33.8987 149.357 33.088 148.759 33.088ZM154.372 60.16C153.156 60.16 152.164 59.68 151.396 58.72C150.65 57.76 150.276 56.5013 150.276 54.944C150.276 53.2373 150.671 51.6267 151.46 50.112C152.25 48.576 153.295 47.3493 154.596 46.432C155.919 45.4933 157.316 45.024 158.788 45.024C159.258 45.024 159.567 45.12 159.716 45.312C159.887 45.4827 160.026 45.8027 160.132 46.272C160.538 46.1867 160.986 46.144 161.476 46.144C161.988 46.144 162.383 46.272 162.66 46.528C162.938 46.784 163.076 47.1467 163.076 47.616C163.076 48.1067 162.97 48.96 162.756 50.176C162.522 51.4773 162.34 52.7253 162.212 53.92C162.084 55.0933 162.02 56.416 162.02 57.888C162.02 58.6987 161.85 59.2853 161.508 59.648C161.188 59.9893 160.655 60.16 159.908 60.16C159.183 60.16 158.639 59.9893 158.276 59.648C157.935 59.2853 157.764 58.7093 157.764 57.92L157.796 57.408C157.135 59.2427 155.994 60.16 154.372 60.16ZM155.62 56.928C156.218 56.928 156.762 56.512 157.252 55.68C157.743 54.848 158.18 53.3653 158.564 51.232L159.172 48C158.298 48.0213 157.487 48.3627 156.74 49.024C155.994 49.664 155.396 50.5173 154.948 51.584C154.5 52.6507 154.276 53.7813 154.276 54.976C154.276 55.616 154.394 56.1067 154.628 56.448C154.884 56.768 155.215 56.928 155.62 56.928ZM189.657 50.272C189.721 50.2507 189.828 50.24 189.977 50.24C190.297 50.24 190.543 50.3467 190.713 50.56C190.884 50.7733 190.969 51.0613 190.969 51.424C190.969 52.0853 190.841 52.608 190.585 52.992C190.329 53.3547 189.945 53.6213 189.433 53.792C188.452 54.112 187.407 54.272 186.297 54.272C185.359 54.272 184.473 54.144 183.641 53.888C183.023 54.8907 182.34 55.9253 181.593 56.992C180.74 58.208 180.004 59.04 179.385 59.488C178.767 59.936 178.063 60.16 177.273 60.16C176.399 60.16 175.705 59.8187 175.193 59.136C174.703 58.4533 174.393 57.376 174.265 55.904C174.009 52.9173 173.881 50.304 173.881 48.064V46.944C173.903 46.24 174.095 45.7493 174.457 45.472C174.82 45.1947 175.364 45.056 176.089 45.056C176.644 45.056 177.049 45.184 177.305 45.44C177.583 45.6747 177.721 46.08 177.721 46.656C177.721 49.1093 177.871 52.2987 178.169 56.224C179.449 54.3253 180.409 52.8107 181.049 51.68C180.729 51.0613 180.569 50.3253 180.569 49.472C180.569 48.7467 180.729 48.0427 181.049 47.36C181.369 46.6773 181.807 46.1227 182.361 45.696C182.916 45.2693 183.545 45.056 184.249 45.056C184.868 45.056 185.369 45.28 185.753 45.728C186.137 46.1547 186.329 46.784 186.329 47.616C186.329 48.576 186.073 49.6747 185.561 50.912C186.372 50.8693 187.449 50.7093 188.793 50.432L189.657 50.272ZM192.384 42.976C191.488 42.976 190.816 42.7733 190.368 42.368C189.92 41.9413 189.696 41.3547 189.696 40.608C189.696 39.8613 189.984 39.2427 190.56 38.752C191.158 38.24 191.894 37.984 192.768 37.984C193.558 37.984 194.198 38.176 194.688 38.56C195.179 38.944 195.424 39.488 195.424 40.192C195.424 41.0453 195.147 41.728 194.592 42.24C194.038 42.7307 193.302 42.976 192.384 42.976ZM192.128 60.16C190.742 60.16 189.728 59.6693 189.088 58.688C188.47 57.7067 188.16 56.4053 188.16 54.784C188.16 53.824 188.278 52.5973 188.512 51.104C188.768 49.5893 189.088 48.1813 189.472 46.88C189.664 46.1973 189.92 45.728 190.24 45.472C190.56 45.216 191.072 45.088 191.776 45.088C192.864 45.088 193.408 45.4507 193.408 46.176C193.408 46.7093 193.206 47.9467 192.8 49.888C192.288 52.2347 192.032 53.824 192.032 54.656C192.032 55.296 192.118 55.7867 192.288 56.128C192.459 56.4693 192.747 56.64 193.152 56.64C193.536 56.64 194.016 56.3733 194.592 55.84C195.168 55.3067 195.936 54.464 196.896 53.312C197.152 53.0133 197.44 52.864 197.76 52.864C198.038 52.864 198.251 52.992 198.4 53.248C198.571 53.504 198.656 53.856 198.656 54.304C198.656 55.1573 198.454 55.8187 198.048 56.288C195.936 58.8693 193.963 60.16 192.128 60.16ZM214.243 52.864C214.521 52.864 214.734 52.992 214.883 53.248C215.054 53.504 215.139 53.856 215.139 54.304C215.139 55.1573 214.937 55.8187 214.531 56.288C213.657 57.3547 212.697 58.272 211.651 59.04C210.606 59.7867 209.571 60.16 208.547 60.16C206.926 60.16 205.689 59.2107 204.835 57.312C203.939 58.4427 203.15 59.2 202.467 59.584C201.806 59.968 201.027 60.16 200.131 60.16C198.83 60.16 197.753 59.68 196.899 58.72C196.067 57.7387 195.651 56.4693 195.651 54.912C195.651 53.2053 196.014 51.6267 196.739 50.176C197.465 48.704 198.457 47.5093 199.715 46.592C200.995 45.6533 202.425 45.0987 204.003 44.928C204.409 40.7893 205.177 37.2587 206.307 34.336C207.459 31.392 208.963 29.92 210.819 29.92C211.737 29.92 212.494 30.336 213.091 31.168C213.71 32 214.019 33.2587 214.019 34.944C214.019 37.3333 213.433 40.128 212.259 43.328C211.086 46.528 209.518 49.8133 207.555 53.184C207.641 54.4213 207.822 55.3067 208.099 55.84C208.398 56.3733 208.771 56.64 209.219 56.64C209.795 56.64 210.382 56.384 210.979 55.872C211.577 55.36 212.377 54.5067 213.379 53.312C213.635 53.0133 213.923 52.864 214.243 52.864ZM210.467 33.056C210.062 33.056 209.657 33.7813 209.251 35.232C208.846 36.6613 208.494 38.5387 208.195 40.864C207.918 43.1893 207.715 45.6213 207.587 48.16C209.977 42.9547 211.171 38.7733 211.171 35.616C211.171 34.8053 211.097 34.176 210.947 33.728C210.819 33.28 210.659 33.056 210.467 33.056ZM201.251 56.928C201.657 56.928 202.062 56.768 202.467 56.448C202.873 56.1067 203.385 55.488 204.003 54.592C203.79 53.44 203.683 52.1493 203.683 50.72C203.683 50.208 203.705 49.376 203.747 48.224C202.574 48.5867 201.593 49.376 200.803 50.592C200.035 51.7867 199.651 53.12 199.651 54.592C199.651 56.1493 200.185 56.928 201.251 56.928ZM226.808 52.864C227.085 52.864 227.299 52.992 227.448 53.248C227.619 53.504 227.704 53.856 227.704 54.304C227.704 55.1573 227.501 55.8187 227.096 56.288C226.307 57.248 225.187 58.1333 223.736 58.944C222.307 59.7547 220.771 60.16 219.128 60.16C216.888 60.16 215.149 59.552 213.912 58.336C212.675 57.12 212.056 55.456 212.056 53.344C212.056 51.872 212.365 50.5067 212.984 49.248C213.603 47.968 214.456 46.9547 215.544 46.208C216.653 45.4613 217.901 45.088 219.288 45.088C220.525 45.088 221.517 45.4613 222.264 46.208C223.011 46.9333 223.384 47.9253 223.384 49.184C223.384 50.656 222.851 51.9253 221.784 52.992C220.739 54.0373 218.957 54.8693 216.44 55.488C216.973 56.4693 217.987 56.96 219.48 56.96C220.44 56.96 221.528 56.6293 222.744 55.968C223.981 55.2853 225.048 54.4 225.944 53.312C226.2 53.0133 226.488 52.864 226.808 52.864ZM218.744 48.224C217.955 48.224 217.283 48.6827 216.728 49.6C216.195 50.5173 215.928 51.6267 215.928 52.928V52.992C217.187 52.6933 218.179 52.2453 218.904 51.648C219.629 51.0507 219.992 50.3573 219.992 49.568C219.992 49.1627 219.875 48.8427 219.64 48.608C219.427 48.352 219.128 48.224 218.744 48.224ZM219.576 42.976C219.277 42.976 219.011 42.8693 218.776 42.656C218.563 42.4213 218.456 42.144 218.456 41.824C218.456 41.6747 218.509 41.472 218.616 41.216L221.592 34.56C221.784 34.1333 222.029 33.824 222.328 33.632C222.648 33.4187 223 33.312 223.384 33.312C223.917 33.312 224.387 33.504 224.792 33.888C225.219 34.272 225.432 34.752 225.432 35.328C225.432 35.9253 225.197 36.5227 224.728 37.12L220.6 42.432C220.323 42.7947 219.981 42.976 219.576 42.976ZM230.507 60.16C229.248 60.16 228.171 59.8507 227.275 59.232C226.4 58.592 225.739 57.76 225.291 56.736C224.843 55.712 224.618 54.6133 224.618 53.44C224.618 51.8187 224.917 50.3787 225.515 49.12C226.133 47.84 226.965 46.848 228.011 46.144C229.056 45.4187 230.229 45.056 231.531 45.056C232.789 45.056 233.867 45.376 234.763 46.016C235.659 46.6347 236.331 47.456 236.779 48.48C237.227 49.504 237.451 50.6027 237.451 51.776C237.451 53.3973 237.141 54.848 236.523 56.128C235.904 57.3867 235.061 58.3787 233.995 59.104C232.949 59.808 231.787 60.16 230.507 60.16ZM230.859 56.704C231.584 56.704 232.192 56.3093 232.683 55.52C233.195 54.7307 233.451 53.5787 233.451 52.064C233.451 50.8907 233.237 50.0053 232.811 49.408C232.384 48.8107 231.872 48.512 231.275 48.512C230.507 48.512 229.867 48.9067 229.355 49.696C228.864 50.464 228.619 51.616 228.619 53.152C228.619 54.368 228.832 55.264 229.259 55.84C229.685 56.416 230.219 56.704 230.859 56.704Z" fill="#001AFF"/>
<path d="M271.417 103.57C271.732 102.511 271.129 101.398 270.07 101.083L252.815 95.9554C251.757 95.6407 250.643 96.244 250.329 97.3028C250.014 98.3616 250.617 99.475 251.676 99.7897L267.013 104.347L262.455 119.685C262.141 120.743 262.744 121.857 263.803 122.171C264.862 122.486 265.975 121.883 266.29 120.824L271.417 103.57ZM16.5555 25.2238C16.1191 24.209 14.9427 23.7402 13.928 24.1766C12.9133 24.613 12.4445 25.7893 12.8809 26.804L16.5555 25.2238ZM268.547 101.242C234.707 119.577 180.779 121.792 130.573 108.644C80.3668 95.4957 34.5977 67.1775 16.5555 25.2238L12.8809 26.804C31.6205 70.3795 78.7944 99.2188 129.56 112.513C180.325 125.808 235.397 123.752 270.453 104.759L268.547 101.242Z" fill="#001AFF"/>
</svg>
