<svg width="361" height="98" viewBox="0 0 361 98" fill="none" xmlns="http://www.w3.org/2000/svg">
<path d="M3.808 64.16C2.99733 64.16 2.42133 63.7333 2.08 62.88C1.76 62.0267 1.6 60.6613 1.6 58.784C1.6 56.0107 1.99467 53.376 2.784 50.88C2.976 50.2613 3.28533 49.8133 3.712 49.536C4.16 49.2373 4.77867 49.088 5.568 49.088C5.99467 49.088 6.29333 49.1413 6.464 49.248C6.63467 49.3547 6.72 49.5573 6.72 49.856C6.72 50.1973 6.56 50.9653 6.24 52.16C6.02667 53.0133 5.856 53.76 5.728 54.4C5.6 55.0187 5.49333 55.7973 5.408 56.736C5.984 55.072 6.66667 53.664 7.456 52.512C8.26667 51.36 9.088 50.5067 9.92 49.952C10.7733 49.376 11.5733 49.088 12.32 49.088C13.0667 49.088 13.5893 49.2587 13.888 49.6C14.208 49.9413 14.368 50.464 14.368 51.168C14.368 51.8507 14.1653 53.088 13.76 54.88C13.5893 55.648 13.472 56.224 13.408 56.608C14.4747 53.984 15.6587 52.0747 16.96 50.88C18.2613 49.6853 19.4773 49.088 20.608 49.088C21.9947 49.088 22.688 49.7813 22.688 51.168C22.688 52 22.4533 53.504 21.984 55.68C21.5787 57.536 21.376 58.7627 21.376 59.36C21.376 60.2133 21.6853 60.64 22.304 60.64C22.7307 60.64 23.232 60.384 23.808 59.872C24.4053 59.3387 25.1947 58.4853 26.176 57.312C26.432 57.0133 26.72 56.864 27.04 56.864C27.3173 56.864 27.5307 56.992 27.68 57.248C27.8507 57.504 27.936 57.856 27.936 58.304C27.936 59.1573 27.7333 59.8187 27.328 60.288C26.4107 61.4187 25.4187 62.3467 24.352 63.072C23.3067 63.7973 22.112 64.16 20.768 64.16C19.68 64.16 18.8587 63.8507 18.304 63.232C17.7493 62.592 17.472 61.6747 17.472 60.48C17.472 59.8827 17.6213 58.816 17.92 57.28C18.1973 55.936 18.336 55.008 18.336 54.496C18.336 54.1547 18.2187 53.984 17.984 53.984C17.7067 53.984 17.312 54.3467 16.8 55.072C16.288 55.776 15.776 56.7147 15.264 57.888C14.752 59.0613 14.336 60.2987 14.016 61.6C13.7813 62.624 13.504 63.3067 13.184 63.648C12.8853 63.9893 12.3947 64.16 11.712 64.16C11.008 64.16 10.4747 63.8293 10.112 63.168C9.77067 62.4853 9.6 61.664 9.6 60.704C9.6 59.8933 9.70667 58.72 9.92 57.184C10.0907 55.8187 10.176 54.9227 10.176 54.496C10.176 54.1547 10.0587 53.984 9.824 53.984C9.504 53.984 9.09867 54.368 8.608 55.136C8.11733 55.904 7.63733 56.8853 7.168 58.08C6.72 59.2747 6.35733 60.448 6.08 61.6C5.84533 62.6027 5.568 63.2853 5.248 63.648C4.94933 63.9893 4.46933 64.16 3.808 64.16ZM39.6205 56.864C39.8978 56.864 40.1112 56.992 40.2605 57.248C40.4312 57.504 40.5165 57.856 40.5165 58.304C40.5165 59.1573 40.3138 59.8187 39.9085 60.288C39.1192 61.248 37.9992 62.1333 36.5485 62.944C35.1192 63.7547 33.5832 64.16 31.9405 64.16C29.7005 64.16 27.9618 63.552 26.7245 62.336C25.4872 61.12 24.8685 59.456 24.8685 57.344C24.8685 55.872 25.1778 54.5067 25.7965 53.248C26.4152 51.968 27.2685 50.9547 28.3565 50.208C29.4658 49.4613 30.7138 49.088 32.1005 49.088C33.3378 49.088 34.3298 49.4613 35.0765 50.208C35.8232 50.9333 36.1965 51.9253 36.1965 53.184C36.1965 54.656 35.6632 55.9253 34.5965 56.992C33.5512 58.0373 31.7698 58.8693 29.2525 59.488C29.7858 60.4693 30.7992 60.96 32.2925 60.96C33.2525 60.96 34.3405 60.6293 35.5565 59.968C36.7938 59.2853 37.8605 58.4 38.7565 57.312C39.0125 57.0133 39.3005 56.864 39.6205 56.864ZM31.5565 52.224C30.7672 52.224 30.0952 52.6827 29.5405 53.6C29.0072 54.5173 28.7405 55.6267 28.7405 56.928V56.992C29.9992 56.6933 30.9912 56.2453 31.7165 55.648C32.4418 55.0507 32.8045 54.3573 32.8045 53.568C32.8045 53.1627 32.6872 52.8427 32.4525 52.608C32.2392 52.352 31.9405 52.224 31.5565 52.224ZM43.863 64.864C42.7537 64.864 41.9003 64.608 41.303 64.096C40.727 63.584 40.439 63.008 40.439 62.368C40.439 61.8133 40.6417 61.3333 41.047 60.928C41.4523 60.5227 42.0497 60.32 42.839 60.32C43.1163 60.32 43.4363 60.352 43.799 60.416C44.183 60.4587 44.471 60.4907 44.663 60.512C44.6417 59.9573 44.5137 59.4347 44.279 58.944C44.0657 58.4533 43.7883 57.984 43.447 57.536C43.1057 57.0667 42.7857 56.6613 42.487 56.32C41.8257 57.5787 41.1643 58.624 40.503 59.456C39.863 60.288 39.159 61.0773 38.391 61.824C38.007 62.208 37.6017 62.4 37.175 62.4C36.8337 62.4 36.5563 62.2827 36.343 62.048C36.1297 61.792 36.023 61.4827 36.023 61.12C36.023 60.6933 36.1723 60.2987 36.471 59.936L36.887 59.424C38.0603 57.9733 38.9457 56.7787 39.543 55.84C39.927 55.2213 40.311 54.4853 40.695 53.632C41.1003 52.7787 41.623 51.616 42.263 50.144C42.6683 49.2053 43.511 48.736 44.791 48.736C45.3883 48.736 45.8043 48.7893 46.039 48.896C46.2737 49.0027 46.391 49.1733 46.391 49.408C46.391 49.536 46.3483 49.7387 46.263 50.016C46.1777 50.2933 46.0603 50.5707 45.911 50.848C45.527 51.616 45.335 52.2667 45.335 52.8C45.335 53.12 45.4417 53.472 45.655 53.856C45.8897 54.24 46.2417 54.72 46.711 55.296C47.3937 56.192 47.9057 56.96 48.247 57.6C48.6097 58.2187 48.791 58.9013 48.791 59.648C48.791 60.544 48.5777 61.3973 48.151 62.208C47.7457 62.9973 47.1697 63.6373 46.423 64.128C45.6763 64.6187 44.823 64.864 43.863 64.864ZM63.1655 46.976C62.2695 46.976 61.5975 46.7733 61.1495 46.368C60.7015 45.9413 60.4775 45.3547 60.4775 44.608C60.4775 43.8613 60.7655 43.2427 61.3415 42.752C61.9388 42.24 62.6748 41.984 63.5495 41.984C64.3388 41.984 64.9788 42.176 65.4695 42.56C65.9602 42.944 66.2055 43.488 66.2055 44.192C66.2055 45.0453 65.9282 45.728 65.3735 46.24C64.8188 46.7307 64.0828 46.976 63.1655 46.976ZM62.9095 64.16C61.5228 64.16 60.5095 63.6693 59.8695 62.688C59.2508 61.7067 58.9415 60.4053 58.9415 58.784C58.9415 57.824 59.0588 56.5973 59.2935 55.104C59.5495 53.5893 59.8695 52.1813 60.2535 50.88C60.4455 50.1973 60.7015 49.728 61.0215 49.472C61.3415 49.216 61.8535 49.088 62.5575 49.088C63.6455 49.088 64.1895 49.4507 64.1895 50.176C64.1895 50.7093 63.9868 51.9467 63.5815 53.888C63.0695 56.2347 62.8135 57.824 62.8135 58.656C62.8135 59.296 62.8988 59.7867 63.0695 60.128C63.2402 60.4693 63.5282 60.64 63.9335 60.64C64.3175 60.64 64.7975 60.3733 65.3735 59.84C65.9495 59.3067 66.7175 58.464 67.6775 57.312C67.9335 57.0133 68.2215 56.864 68.5415 56.864C68.8188 56.864 69.0322 56.992 69.1815 57.248C69.3522 57.504 69.4375 57.856 69.4375 58.304C69.4375 59.1573 69.2348 59.8187 68.8295 60.288C66.7175 62.8693 64.7442 64.16 62.9095 64.16ZM78.9765 56.864C79.2538 56.864 79.4672 56.992 79.6165 57.248C79.7872 57.504 79.8725 57.856 79.8725 58.304C79.8725 59.1573 79.6698 59.8187 79.2645 60.288C78.3472 61.4187 77.3445 62.3467 76.2565 63.072C75.1898 63.7973 73.9738 64.16 72.6085 64.16C70.7312 64.16 69.3338 63.3067 68.4165 61.6C67.5205 59.8933 67.0725 57.6853 67.0725 54.976C67.0725 52.3733 67.4032 49.408 68.0645 46.08C68.7472 42.752 69.7392 39.8933 71.0405 37.504C72.3632 35.1147 73.9312 33.92 75.7445 33.92C76.7685 33.92 77.5685 34.4 78.1445 35.36C78.7418 36.2987 79.0405 37.6533 79.0405 39.424C79.0405 41.9627 78.3365 44.9067 76.9285 48.256C75.5205 51.6053 73.6112 54.9227 71.2005 58.208C71.3498 59.0827 71.5952 59.712 71.9365 60.096C72.2778 60.4587 72.7258 60.64 73.2805 60.64C74.1552 60.64 74.9232 60.3947 75.5845 59.904C76.2458 59.392 77.0885 58.528 78.1125 57.312C78.3685 57.0133 78.6565 56.864 78.9765 56.864ZM75.0405 37.088C74.5498 37.088 73.9952 37.9733 73.3765 39.744C72.7578 41.5147 72.2138 43.712 71.7445 46.336C71.2752 48.96 71.0192 51.4773 70.9765 53.888C72.4912 51.392 73.6965 48.896 74.5925 46.4C75.4885 43.8827 75.9365 41.5893 75.9365 39.52C75.9365 37.8987 75.6378 37.088 75.0405 37.088ZM89.414 56.864C89.6913 56.864 89.9047 56.992 90.054 57.248C90.2247 57.504 90.31 57.856 90.31 58.304C90.31 59.1573 90.1073 59.8187 89.702 60.288C88.7847 61.4187 87.782 62.3467 86.694 63.072C85.6273 63.7973 84.4113 64.16 83.046 64.16C81.1687 64.16 79.7713 63.3067 78.854 61.6C77.958 59.8933 77.51 57.6853 77.51 54.976C77.51 52.3733 77.8407 49.408 78.502 46.08C79.1847 42.752 80.1767 39.8933 81.478 37.504C82.8007 35.1147 84.3687 33.92 86.182 33.92C87.206 33.92 88.006 34.4 88.582 35.36C89.1793 36.2987 89.478 37.6533 89.478 39.424C89.478 41.9627 88.774 44.9067 87.366 48.256C85.958 51.6053 84.0487 54.9227 81.638 58.208C81.7873 59.0827 82.0327 59.712 82.374 60.096C82.7153 60.4587 83.1633 60.64 83.718 60.64C84.5927 60.64 85.3607 60.3947 86.022 59.904C86.6833 59.392 87.526 58.528 88.55 57.312C88.806 57.0133 89.094 56.864 89.414 56.864ZM85.478 37.088C84.9873 37.088 84.4327 37.9733 83.814 39.744C83.1953 41.5147 82.6513 43.712 82.182 46.336C81.7127 48.96 81.4567 51.4773 81.414 53.888C82.9287 51.392 84.134 48.896 85.03 46.4C85.926 43.8827 86.374 41.5893 86.374 39.52C86.374 37.8987 86.0753 37.088 85.478 37.088ZM90.9875 64.16C90.0275 64.16 89.2382 63.7227 88.6195 62.848C88.0222 61.952 87.7235 60.8427 87.7235 59.52C87.7235 57.92 87.8302 56.4587 88.0435 55.136C88.2568 53.792 88.6088 52.3733 89.0995 50.88C89.3128 50.24 89.6115 49.7813 89.9955 49.504C90.3795 49.2267 90.9875 49.088 91.8195 49.088C92.2888 49.088 92.6088 49.1627 92.7795 49.312C92.9715 49.4613 93.0675 49.6853 93.0675 49.984C93.0675 50.1547 92.9502 50.7307 92.7155 51.712C92.5022 52.5013 92.3315 53.216 92.2035 53.856C91.7768 56.096 91.5635 57.5893 91.5635 58.336C91.5635 58.784 91.6168 59.104 91.7235 59.296C91.8302 59.4667 92.0008 59.552 92.2355 59.552C92.5555 59.552 92.9502 59.232 93.4195 58.592C93.9102 57.952 94.4222 56.9813 94.9555 55.68C95.5102 54.3787 96.0435 52.7787 96.5555 50.88C96.7262 50.24 96.9822 49.7813 97.3235 49.504C97.6862 49.2267 98.2195 49.088 98.9235 49.088C99.4142 49.088 99.7555 49.152 99.9475 49.28C100.14 49.3867 100.236 49.6 100.236 49.92C100.236 50.4533 99.9688 51.9147 99.4355 54.304C98.8382 57.0347 98.5395 58.72 98.5395 59.36C98.5395 59.7653 98.6248 60.0853 98.7955 60.32C98.9662 60.5333 99.1902 60.64 99.4675 60.64C99.8942 60.64 100.396 60.384 100.972 59.872C101.569 59.3387 102.358 58.4853 103.34 57.312C103.596 57.0133 103.884 56.864 104.204 56.864C104.481 56.864 104.694 56.992 104.844 57.248C105.014 57.504 105.1 57.856 105.1 58.304C105.1 59.1573 104.897 59.8187 104.492 60.288C103.574 61.4187 102.582 62.3467 101.516 63.072C100.47 63.7973 99.2755 64.16 97.9315 64.16C96.9075 64.16 96.1502 63.7653 95.6595 62.976C95.1902 62.1867 94.9555 61.0773 94.9555 59.648C94.5928 61.0987 94.0488 62.2187 93.3235 63.008C92.5982 63.776 91.8195 64.16 90.9875 64.16ZM108.457 64.864C107.347 64.864 106.494 64.608 105.897 64.096C105.321 63.584 105.033 63.008 105.033 62.368C105.033 61.8133 105.235 61.3333 105.641 60.928C106.046 60.5227 106.643 60.32 107.433 60.32C107.71 60.32 108.03 60.352 108.393 60.416C108.777 60.4587 109.065 60.4907 109.257 60.512C109.235 59.9573 109.107 59.4347 108.873 58.944C108.659 58.4533 108.382 57.984 108.041 57.536C107.699 57.0667 107.379 56.6613 107.081 56.32C106.419 57.5787 105.758 58.624 105.097 59.456C104.457 60.288 103.753 61.0773 102.985 61.824C102.601 62.208 102.195 62.4 101.769 62.4C101.427 62.4 101.15 62.2827 100.937 62.048C100.723 61.792 100.617 61.4827 100.617 61.12C100.617 60.6933 100.766 60.2987 101.065 59.936L101.481 59.424C102.654 57.9733 103.539 56.7787 104.137 55.84C104.499 55.2213 104.926 54.4 105.417 53.376C105.907 52.3307 106.387 51.2533 106.857 50.144C107.262 49.2053 108.105 48.736 109.385 48.736C109.982 48.736 110.398 48.7893 110.633 48.896C110.867 49.0027 110.985 49.1733 110.985 49.408C110.985 49.536 110.942 49.7387 110.857 50.016C110.771 50.2933 110.654 50.5707 110.505 50.848C110.121 51.616 109.929 52.2667 109.929 52.8C109.929 53.12 110.035 53.472 110.249 53.856C110.483 54.24 110.835 54.72 111.305 55.296C111.987 56.192 112.499 56.96 112.841 57.6C113.203 58.2187 113.385 58.9013 113.385 59.648C113.385 59.8613 113.363 60.16 113.321 60.544C114.366 60.1387 115.593 59.0613 117.001 57.312C117.257 57.0133 117.545 56.864 117.865 56.864C118.142 56.864 118.355 56.992 118.505 57.248C118.675 57.504 118.761 57.856 118.761 58.304C118.761 59.1147 118.558 59.776 118.153 60.288C117.086 61.6107 116.062 62.5173 115.081 63.008C114.121 63.4773 112.926 63.7333 111.497 63.776C110.643 64.5013 109.63 64.864 108.457 64.864ZM130.433 56.864C130.71 56.864 130.924 56.992 131.073 57.248C131.244 57.504 131.329 57.856 131.329 58.304C131.329 59.1573 131.126 59.8187 130.721 60.288C129.804 61.4187 128.801 62.3467 127.713 63.072C126.625 63.7973 125.377 64.16 123.969 64.16C119.617 64.16 117.441 61.0987 117.441 54.976C117.441 54.0373 117.473 53.088 117.537 52.128H116.289C115.649 52.128 115.212 52.0107 114.977 51.776C114.764 51.5413 114.657 51.168 114.657 50.656C114.657 49.4613 115.137 48.864 116.097 48.864H117.921C118.284 46.5173 118.838 44.3733 119.585 42.432C120.332 40.4907 121.228 38.944 122.273 37.792C123.34 36.64 124.481 36.064 125.697 36.064C126.593 36.064 127.297 36.4587 127.809 37.248C128.321 38.0373 128.577 39.0293 128.577 40.224C128.577 43.5307 127.19 46.4107 124.417 48.864H128.001C128.342 48.864 128.588 48.9387 128.737 49.088C128.886 49.2373 128.961 49.5147 128.961 49.92C128.961 51.392 127.756 52.128 125.345 52.128H121.441C121.398 53.1947 121.377 54.0267 121.377 54.624C121.377 56.8427 121.633 58.4 122.145 59.296C122.678 60.192 123.51 60.64 124.641 60.64C125.558 60.64 126.369 60.3627 127.073 59.808C127.777 59.2533 128.609 58.4213 129.569 57.312C129.825 57.0133 130.113 56.864 130.433 56.864ZM124.833 39.136C124.513 39.136 124.15 39.5413 123.745 40.352C123.361 41.1413 122.988 42.2507 122.625 43.68C122.284 45.088 121.996 46.656 121.761 48.384C123.02 47.296 123.958 46.08 124.577 44.736C125.217 43.3707 125.537 42.1333 125.537 41.024C125.537 39.7653 125.302 39.136 124.833 39.136ZM130.996 64.16C130.185 64.16 129.609 63.7333 129.268 62.88C128.948 62.0267 128.788 60.6613 128.788 58.784C128.788 56.0107 129.182 53.376 129.972 50.88C130.164 50.2613 130.473 49.8133 130.9 49.536C131.348 49.2373 131.966 49.088 132.756 49.088C133.182 49.088 133.481 49.1413 133.652 49.248C133.822 49.3547 133.908 49.5573 133.908 49.856C133.908 50.1973 133.748 50.9653 133.428 52.16C133.214 53.0133 133.044 53.76 132.916 54.4C132.788 55.04 132.681 55.8293 132.596 56.768C133.3 54.9333 134.089 53.44 134.964 52.288C135.838 51.136 136.692 50.3147 137.524 49.824C138.377 49.3333 139.156 49.088 139.86 49.088C141.246 49.088 141.94 49.7813 141.94 51.168C141.94 51.4453 141.844 52.1173 141.652 53.184C141.481 54.0373 141.396 54.5707 141.396 54.784C141.396 55.5307 141.662 55.904 142.196 55.904C142.793 55.904 143.561 55.4347 144.5 54.496C144.777 54.2187 145.065 54.08 145.364 54.08C145.641 54.08 145.854 54.208 146.003 54.464C146.174 54.6987 146.26 55.0187 146.26 55.424C146.26 56.2133 146.046 56.832 145.62 57.28C145.022 57.8987 144.318 58.432 143.508 58.88C142.718 59.3067 141.876 59.52 140.98 59.52C139.849 59.52 138.985 59.232 138.388 58.656C137.812 58.08 137.524 57.3013 137.524 56.32C137.524 56 137.556 55.68 137.62 55.36C137.662 54.9333 137.684 54.6453 137.684 54.496C137.684 54.1547 137.566 53.984 137.332 53.984C137.012 53.984 136.585 54.3467 136.052 55.072C135.54 55.776 135.028 56.7147 134.516 57.888C134.004 59.0613 133.588 60.2987 133.268 61.6C133.033 62.6027 132.756 63.2853 132.436 63.648C132.137 63.9893 131.657 64.16 130.996 64.16ZM147.222 64.16C145.899 64.16 144.843 63.68 144.054 62.72C143.265 61.76 142.87 60.5013 142.87 58.944C142.87 57.2373 143.265 55.6267 144.054 54.112C144.843 52.576 145.889 51.3493 147.19 50.432C148.513 49.4933 149.91 49.024 151.382 49.024C151.851 49.024 152.161 49.12 152.31 49.312C152.481 49.4827 152.619 49.8027 152.726 50.272C153.174 50.1867 153.643 50.144 154.134 50.144C155.179 50.144 155.702 50.5173 155.702 51.264C155.702 51.712 155.542 52.7787 155.222 54.464C154.731 56.9173 154.486 58.624 154.486 59.584C154.486 59.904 154.561 60.16 154.71 60.352C154.881 60.544 155.094 60.64 155.35 60.64C155.755 60.64 156.246 60.384 156.822 59.872C157.398 59.3387 158.177 58.4853 159.158 57.312C159.414 57.0133 159.702 56.864 160.022 56.864C160.299 56.864 160.513 56.992 160.662 57.248C160.833 57.504 160.918 57.856 160.918 58.304C160.918 59.1573 160.715 59.8187 160.31 60.288C159.435 61.376 158.507 62.2933 157.526 63.04C156.545 63.7867 155.595 64.16 154.678 64.16C153.974 64.16 153.323 63.9253 152.726 63.456C152.15 62.9653 151.713 62.304 151.414 61.472C150.305 63.264 148.907 64.16 147.222 64.16ZM148.374 60.928C148.843 60.928 149.291 60.6507 149.718 60.096C150.145 59.5413 150.454 58.8053 150.646 57.888L151.83 52C150.934 52.0213 150.102 52.3627 149.334 53.024C148.587 53.664 147.99 54.5173 147.542 55.584C147.094 56.6507 146.87 57.7813 146.87 58.976C146.87 59.6373 146.998 60.128 147.254 60.448C147.531 60.768 147.905 60.928 148.374 60.928ZM172.589 56.864C172.867 56.864 173.08 56.992 173.229 57.248C173.4 57.504 173.485 57.856 173.485 58.304C173.485 59.1573 173.283 59.8187 172.877 60.288C171.96 61.4187 170.957 62.3467 169.869 63.072C168.781 63.7973 167.533 64.16 166.125 64.16C161.773 64.16 159.597 61.0987 159.597 54.976C159.597 54.0373 159.629 53.088 159.693 52.128H158.445C157.805 52.128 157.368 52.0107 157.133 51.776C156.92 51.5413 156.813 51.168 156.813 50.656C156.813 49.4613 157.293 48.864 158.253 48.864H160.077C160.44 46.5173 160.995 44.3733 161.741 42.432C162.488 40.4907 163.384 38.944 164.429 37.792C165.496 36.64 166.637 36.064 167.853 36.064C168.749 36.064 169.453 36.4587 169.965 37.248C170.477 38.0373 170.733 39.0293 170.733 40.224C170.733 43.5307 169.347 46.4107 166.573 48.864H170.157C170.499 48.864 170.744 48.9387 170.893 49.088C171.043 49.2373 171.117 49.5147 171.117 49.92C171.117 51.392 169.912 52.128 167.501 52.128H163.597C163.555 53.1947 163.533 54.0267 163.533 54.624C163.533 56.8427 163.789 58.4 164.301 59.296C164.835 60.192 165.667 60.64 166.797 60.64C167.715 60.64 168.525 60.3627 169.229 59.808C169.933 59.2533 170.765 58.4213 171.725 57.312C171.981 57.0133 172.269 56.864 172.589 56.864ZM166.989 39.136C166.669 39.136 166.307 39.5413 165.901 40.352C165.517 41.1413 165.144 42.2507 164.781 43.68C164.44 45.088 164.152 46.656 163.917 48.384C165.176 47.296 166.115 46.08 166.733 44.736C167.373 43.3707 167.693 42.1333 167.693 41.024C167.693 39.7653 167.459 39.136 166.989 39.136ZM175.072 46.976C174.176 46.976 173.504 46.7733 173.056 46.368C172.608 45.9413 172.384 45.3547 172.384 44.608C172.384 43.8613 172.672 43.2427 173.248 42.752C173.845 42.24 174.581 41.984 175.456 41.984C176.245 41.984 176.885 42.176 177.376 42.56C177.866 42.944 178.112 43.488 178.112 44.192C178.112 45.0453 177.834 45.728 177.28 46.24C176.725 46.7307 175.989 46.976 175.072 46.976ZM174.816 64.16C173.429 64.16 172.416 63.6693 171.776 62.688C171.157 61.7067 170.848 60.4053 170.848 58.784C170.848 57.824 170.965 56.5973 171.2 55.104C171.456 53.5893 171.776 52.1813 172.16 50.88C172.352 50.1973 172.608 49.728 172.928 49.472C173.248 49.216 173.76 49.088 174.464 49.088C175.552 49.088 176.096 49.4507 176.096 50.176C176.096 50.7093 175.893 51.9467 175.488 53.888C174.976 56.2347 174.72 57.824 174.72 58.656C174.72 59.296 174.805 59.7867 174.976 60.128C175.146 60.4693 175.434 60.64 175.84 60.64C176.224 60.64 176.704 60.3733 177.28 59.84C177.856 59.3067 178.624 58.464 179.584 57.312C179.84 57.0133 180.128 56.864 180.448 56.864C180.725 56.864 180.938 56.992 181.088 57.248C181.258 57.504 181.344 57.856 181.344 58.304C181.344 59.1573 181.141 59.8187 180.736 60.288C178.624 62.8693 176.65 64.16 174.816 64.16ZM195.075 54.176C195.352 54.176 195.565 54.3147 195.715 54.592C195.864 54.8693 195.939 55.2213 195.939 55.648C195.939 56.672 195.629 57.28 195.011 57.472C193.731 57.92 192.323 58.176 190.787 58.24C190.381 60.032 189.581 61.472 188.387 62.56C187.192 63.6267 185.837 64.16 184.323 64.16C183.043 64.16 181.944 63.8507 181.027 63.232C180.131 62.6133 179.448 61.792 178.979 60.768C178.509 59.744 178.275 58.6347 178.275 57.44C178.275 55.8187 178.584 54.3787 179.203 53.12C179.821 51.84 180.675 50.848 181.763 50.144C182.851 49.4187 184.056 49.056 185.379 49.056C187 49.056 188.301 49.6213 189.283 50.752C190.285 51.8613 190.872 53.2373 191.043 54.88C192.045 54.816 193.24 54.6027 194.627 54.24C194.797 54.1973 194.947 54.176 195.075 54.176ZM184.579 60.768C185.261 60.768 185.848 60.4907 186.339 59.936C186.851 59.3813 187.192 58.5813 187.363 57.536C186.701 57.088 186.189 56.5013 185.827 55.776C185.485 55.0507 185.315 54.2827 185.315 53.472C185.315 53.1307 185.347 52.7893 185.411 52.448H185.251C184.397 52.448 183.683 52.864 183.107 53.696C182.552 54.5067 182.275 55.6587 182.275 57.152C182.275 58.3253 182.499 59.2213 182.947 59.84C183.416 60.4587 183.96 60.768 184.579 60.768ZM195.464 64.16C194.654 64.16 194.078 63.7333 193.736 62.88C193.416 62.0267 193.256 60.6613 193.256 58.784C193.256 56.0107 193.651 53.376 194.44 50.88C194.632 50.2613 194.942 49.8133 195.368 49.536C195.816 49.2373 196.435 49.088 197.224 49.088C197.651 49.088 197.95 49.1413 198.12 49.248C198.291 49.3547 198.376 49.5573 198.376 49.856C198.376 50.1973 198.216 50.9653 197.896 52.16C197.683 53.0133 197.512 53.76 197.384 54.4C197.256 55.04 197.15 55.8293 197.064 56.768C197.768 54.9333 198.558 53.44 199.432 52.288C200.307 51.136 201.16 50.3147 201.992 49.824C202.846 49.3333 203.624 49.088 204.328 49.088C205.715 49.088 206.408 49.7813 206.408 51.168C206.408 52 206.174 53.504 205.704 55.68C205.299 57.536 205.096 58.7627 205.096 59.36C205.096 60.2133 205.406 60.64 206.024 60.64C206.451 60.64 206.952 60.384 207.528 59.872C208.126 59.3387 208.915 58.4853 209.896 57.312C210.152 57.0133 210.44 56.864 210.76 56.864C211.038 56.864 211.251 56.992 211.4 57.248C211.571 57.504 211.656 57.856 211.656 58.304C211.656 59.1573 211.454 59.8187 211.048 60.288C210.131 61.4187 209.139 62.3467 208.072 63.072C207.027 63.7973 205.832 64.16 204.488 64.16C203.4 64.16 202.579 63.8507 202.024 63.232C201.47 62.592 201.192 61.6747 201.192 60.48C201.192 59.8827 201.342 58.816 201.64 57.28C201.918 55.936 202.056 55.008 202.056 54.496C202.056 54.1547 201.939 53.984 201.704 53.984C201.427 53.984 201.032 54.3467 200.52 55.072C200.03 55.776 199.518 56.7147 198.984 57.888C198.472 59.0613 198.056 60.2987 197.736 61.6C197.502 62.6027 197.224 63.2853 196.904 63.648C196.606 63.9893 196.126 64.16 195.464 64.16ZM215.019 64.864C213.91 64.864 213.057 64.608 212.459 64.096C211.883 63.584 211.595 63.008 211.595 62.368C211.595 61.8133 211.798 61.3333 212.203 60.928C212.609 60.5227 213.206 60.32 213.995 60.32C214.273 60.32 214.593 60.352 214.955 60.416C215.339 60.4587 215.627 60.4907 215.819 60.512C215.798 59.9573 215.67 59.4347 215.435 58.944C215.222 58.4533 214.945 57.984 214.603 57.536C214.262 57.0667 213.942 56.6613 213.643 56.32C212.982 57.5787 212.321 58.624 211.659 59.456C211.019 60.288 210.315 61.0773 209.547 61.824C209.163 62.208 208.758 62.4 208.331 62.4C207.99 62.4 207.713 62.2827 207.499 62.048C207.286 61.792 207.179 61.4827 207.179 61.12C207.179 60.6933 207.329 60.2987 207.627 59.936L208.043 59.424C209.217 57.9733 210.102 56.7787 210.699 55.84C211.083 55.2213 211.467 54.4853 211.851 53.632C212.257 52.7787 212.779 51.616 213.419 50.144C213.825 49.2053 214.667 48.736 215.947 48.736C216.545 48.736 216.961 48.7893 217.195 48.896C217.43 49.0027 217.547 49.1733 217.547 49.408C217.547 49.536 217.505 49.7387 217.419 50.016C217.334 50.2933 217.217 50.5707 217.067 50.848C216.683 51.616 216.491 52.2667 216.491 52.8C216.491 53.12 216.598 53.472 216.811 53.856C217.046 54.24 217.398 54.72 217.867 55.296C218.55 56.192 219.062 56.96 219.403 57.6C219.766 58.2187 219.947 58.9013 219.947 59.648C219.947 60.544 219.734 61.3973 219.307 62.208C218.902 62.9973 218.326 63.6373 217.579 64.128C216.833 64.6187 215.979 64.864 215.019 64.864Z" fill="#001AFF"/>
<path d="M176.149 0.393376C175.262 -0.26446 174.009 -0.0784311 173.351 0.808883C172.693 1.6962 172.879 2.94879 173.767 3.60662L176.149 0.393376ZM261.458 42.5L261.283 40.5077L261.458 42.5ZM243.458 56L241.87 57.2162L243.458 56ZM347.2 97.3331C348.212 97.7748 349.391 97.3123 349.833 96.2999L357.032 79.8022C357.474 78.7898 357.011 77.611 355.999 77.1692C354.987 76.7274 353.808 77.19 353.366 78.2024L346.967 92.867L332.302 86.4679C331.29 86.0262 330.111 86.4887 329.669 87.5011C329.227 88.5135 329.69 89.6923 330.702 90.1341L347.2 97.3331ZM173.767 3.60662C183.498 10.8209 199.51 21.505 215.979 30.146C224.213 34.4665 232.602 38.298 240.404 40.9266C248.168 43.5426 255.526 45.028 261.633 44.4923L261.283 40.5077C255.99 40.972 249.251 39.6866 241.681 37.1359C234.147 34.5978 225.961 30.8668 217.837 26.604C201.589 18.0783 185.751 7.51238 176.149 0.393376L173.767 3.60662ZM261.633 44.4923C263.502 44.3283 265.042 44.0389 266.24 43.6028C267.393 43.1835 268.533 42.5186 269.147 41.3912C269.835 40.128 269.586 38.8318 269.058 37.8458C268.558 36.9126 267.74 36.0887 266.853 35.3817C263.337 32.5774 256.465 29.8449 249.988 28.7171C246.723 28.1486 243.395 27.9569 240.515 28.4429C237.656 28.9253 234.921 30.139 233.381 32.6723C231.834 35.218 231.83 38.5418 233.172 42.4697C234.517 46.408 237.31 51.2624 241.87 57.2162L245.046 54.7838C240.606 48.9876 238.102 44.5295 236.957 41.1768C235.808 37.8136 236.12 35.8679 236.8 34.7496C237.487 33.6188 238.889 32.7739 241.18 32.3872C243.45 32.0041 246.286 32.1327 249.302 32.6579C255.388 33.7176 261.547 36.2664 264.359 38.5089C265.055 39.0636 265.399 39.4869 265.532 39.734C265.636 39.9285 265.488 39.746 265.634 39.478C265.706 39.3456 265.661 39.5572 264.873 39.8438C264.132 40.1135 262.976 40.3592 261.283 40.5077L261.633 44.4923ZM241.87 57.2162C247.934 65.1327 256.865 68.9742 266.739 71.0209C276.573 73.0592 287.688 73.3776 298.273 73.9966C308.976 74.6225 319.161 75.5544 327.608 78.6877C335.95 81.7817 342.512 86.9889 346.138 96.2306L349.862 94.7694C345.738 84.2611 338.182 78.3433 328.999 74.9373C319.922 71.5706 309.177 70.6275 298.507 70.0034C287.718 69.3724 277.016 69.0658 267.551 67.1041C258.127 65.1508 250.28 61.6173 245.046 54.7838L241.87 57.2162Z" fill="#001AFF"/>
</svg>
