<svg width="385" height="97" viewBox="0 0 385 97" fill="none" xmlns="http://www.w3.org/2000/svg">
<path d="M186.216 82.16C185 82.16 184.008 81.68 183.24 80.72C182.493 79.76 182.12 78.5013 182.12 76.944C182.12 75.2373 182.515 73.6267 183.304 72.112C184.093 70.576 185.139 69.3493 186.44 68.432C187.763 67.4933 189.16 67.024 190.632 67.024C191.101 67.024 191.411 67.12 191.56 67.312C191.731 67.4827 191.869 67.8027 191.976 68.272C192.381 68.1867 192.829 68.144 193.32 68.144C193.832 68.144 194.227 68.272 194.504 68.528C194.781 68.784 194.92 69.1467 194.92 69.616C194.92 70.1067 194.813 70.96 194.6 72.176C194.365 73.4773 194.184 74.7253 194.056 75.92C193.928 77.0933 193.864 78.416 193.864 79.888C193.864 80.6987 193.693 81.2853 193.352 81.648C193.032 81.9893 192.499 82.16 191.752 82.16C191.027 82.16 190.483 81.9893 190.12 81.648C189.779 81.2853 189.608 80.7093 189.608 79.92L189.64 79.408C188.979 81.2427 187.837 82.16 186.216 82.16ZM187.464 78.928C188.061 78.928 188.605 78.512 189.096 77.68C189.587 76.848 190.024 75.3653 190.408 73.232L191.016 70C190.141 70.0213 189.331 70.3627 188.584 71.024C187.837 71.664 187.24 72.5173 186.792 73.584C186.344 74.6507 186.12 75.7813 186.12 76.976C186.12 77.616 186.237 78.1067 186.472 78.448C186.728 78.768 187.059 78.928 187.464 78.928ZM190.92 64.976C190.536 64.976 190.205 64.7947 189.928 64.432L185.8 59.12C185.331 58.5227 185.096 57.9253 185.096 57.328C185.096 56.7307 185.299 56.24 185.704 55.856C186.131 55.472 186.611 55.28 187.144 55.28C187.507 55.28 187.848 55.3867 188.168 55.6C188.488 55.8133 188.744 56.1333 188.936 56.56L191.912 63.216C191.997 63.408 192.04 63.6107 192.04 63.824C192.04 64.144 191.923 64.4213 191.688 64.656C191.475 64.8693 191.219 64.976 190.92 64.976ZM222.749 74.864C223.026 74.864 223.24 74.992 223.389 75.248C223.56 75.504 223.645 75.856 223.645 76.304C223.645 77.1573 223.442 77.8187 223.037 78.288C222.12 79.4187 221.128 80.3467 220.061 81.072C219.016 81.7973 217.821 82.16 216.477 82.16C215.346 82.16 214.429 81.7547 213.725 80.944C212.509 81.7333 211.24 82.1387 209.917 82.16C209.64 86.2773 209.01 89.712 208.029 92.464C207.048 95.2373 205.608 96.624 203.709 96.624C202.557 96.624 201.704 96.208 201.149 95.376C200.594 94.544 200.317 93.392 200.317 91.92C200.317 89.8293 200.797 87.3867 201.757 84.592C202.717 81.8187 204.2 78.7573 206.205 75.408C206.205 72.2933 206.184 70.128 206.141 68.912C206.12 68.2933 206.365 67.8027 206.877 67.44C207.389 67.0773 208.029 66.896 208.797 66.896C209.245 66.896 209.565 66.992 209.757 67.184C209.97 67.3547 210.088 67.7067 210.109 68.24C210.109 68.7733 210.12 69.168 210.141 69.424C210.824 68.5707 211.496 67.9627 212.157 67.6C212.818 67.216 213.522 67.024 214.269 67.024C215.464 67.024 216.434 67.504 217.181 68.464C217.949 69.424 218.333 70.6827 218.333 72.24C218.333 73.3707 218.152 74.4693 217.789 75.536C217.426 76.6027 216.925 77.5733 216.285 78.448C216.733 78.576 217.106 78.64 217.405 78.64C218.109 78.64 218.781 78.384 219.421 77.872C220.061 77.36 220.882 76.5067 221.885 75.312C222.141 75.0133 222.429 74.864 222.749 74.864ZM210.077 79.088C210.845 78.9173 211.549 78.5013 212.189 77.84C212.85 77.1573 213.373 76.3253 213.757 75.344C214.141 74.3413 214.333 73.296 214.333 72.208C214.333 71.568 214.205 71.088 213.949 70.768C213.693 70.4267 213.352 70.256 212.925 70.256C212.157 70.256 211.229 71.0667 210.141 72.688C210.12 73.6267 210.109 75.0027 210.109 76.816C210.109 77.7973 210.098 78.5547 210.077 79.088ZM203.965 93.488C204.541 93.488 205.021 92.2293 205.405 89.712C205.789 87.216 206.034 84.1013 206.141 80.368C205.224 82.5013 204.498 84.5387 203.965 86.48C203.432 88.4213 203.165 90.0533 203.165 91.376C203.165 92.0587 203.25 92.5813 203.421 92.944C203.57 93.3067 203.752 93.488 203.965 93.488ZM223.339 82.16C222.529 82.16 221.953 81.7333 221.611 80.88C221.291 80.0267 221.131 78.6613 221.131 76.784C221.131 74.0107 221.526 71.376 222.315 68.88C222.507 68.2613 222.817 67.8133 223.243 67.536C223.691 67.2373 224.31 67.088 225.099 67.088C225.526 67.088 225.825 67.1413 225.995 67.248C226.166 67.3547 226.251 67.5573 226.251 67.856C226.251 68.1973 226.091 68.9653 225.771 70.16C225.558 71.0133 225.387 71.76 225.259 72.4C225.131 73.04 225.025 73.8293 224.939 74.768C225.643 72.9333 226.433 71.44 227.307 70.288C228.182 69.136 229.035 68.3147 229.867 67.824C230.721 67.3333 231.499 67.088 232.203 67.088C233.59 67.088 234.283 67.7813 234.283 69.168C234.283 69.4453 234.187 70.1173 233.995 71.184C233.825 72.0373 233.739 72.5707 233.739 72.784C233.739 73.5307 234.006 73.904 234.539 73.904C235.137 73.904 235.905 73.4347 236.843 72.496C237.121 72.2187 237.409 72.08 237.707 72.08C237.985 72.08 238.198 72.208 238.347 72.464C238.518 72.6987 238.603 73.0187 238.603 73.424C238.603 74.2133 238.39 74.832 237.963 75.28C237.366 75.8987 236.662 76.432 235.851 76.88C235.062 77.3067 234.219 77.52 233.323 77.52C232.193 77.52 231.329 77.232 230.731 76.656C230.155 76.08 229.867 75.3013 229.867 74.32C229.867 74 229.899 73.68 229.963 73.36C230.006 72.9333 230.027 72.6453 230.027 72.496C230.027 72.1547 229.91 71.984 229.675 71.984C229.355 71.984 228.929 72.3467 228.395 73.072C227.883 73.776 227.371 74.7147 226.859 75.888C226.347 77.0613 225.931 78.2987 225.611 79.6C225.377 80.6027 225.099 81.2853 224.779 81.648C224.481 81.9893 224.001 82.16 223.339 82.16ZM251.95 72.176C252.227 72.176 252.44 72.3147 252.59 72.592C252.739 72.8693 252.814 73.2213 252.814 73.648C252.814 74.672 252.504 75.28 251.886 75.472C250.606 75.92 249.198 76.176 247.662 76.24C247.256 78.032 246.456 79.472 245.262 80.56C244.067 81.6267 242.712 82.16 241.198 82.16C239.918 82.16 238.819 81.8507 237.902 81.232C237.006 80.6133 236.323 79.792 235.854 78.768C235.384 77.744 235.15 76.6347 235.15 75.44C235.15 73.8187 235.459 72.3787 236.078 71.12C236.696 69.84 237.55 68.848 238.638 68.144C239.726 67.4187 240.931 67.056 242.254 67.056C243.875 67.056 245.176 67.6213 246.158 68.752C247.16 69.8613 247.747 71.2373 247.918 72.88C248.92 72.816 250.115 72.6027 251.502 72.24C251.672 72.1973 251.822 72.176 251.95 72.176ZM241.454 78.768C242.136 78.768 242.723 78.4907 243.214 77.936C243.726 77.3813 244.067 76.5813 244.238 75.536C243.576 75.088 243.064 74.5013 242.702 73.776C242.36 73.0507 242.19 72.2827 242.19 71.472C242.19 71.1307 242.222 70.7893 242.286 70.448H242.126C241.272 70.448 240.558 70.864 239.982 71.696C239.427 72.5067 239.15 73.6587 239.15 75.152C239.15 76.3253 239.374 77.2213 239.822 77.84C240.291 78.4587 240.835 78.768 241.454 78.768ZM267.155 74.864C267.433 74.864 267.646 74.992 267.795 75.248C267.966 75.504 268.051 75.856 268.051 76.304C268.051 77.1573 267.849 77.8187 267.443 78.288C266.526 79.4187 265.534 80.3467 264.467 81.072C263.422 81.7973 262.227 82.16 260.883 82.16C259.753 82.16 258.835 81.7547 258.131 80.944C256.915 81.7333 255.646 82.1387 254.323 82.16C254.046 86.2773 253.417 89.712 252.435 92.464C251.454 95.2373 250.014 96.624 248.115 96.624C246.963 96.624 246.11 96.208 245.555 95.376C245.001 94.544 244.723 93.392 244.723 91.92C244.723 89.8293 245.203 87.3867 246.163 84.592C247.123 81.8187 248.606 78.7573 250.611 75.408C250.611 72.2933 250.59 70.128 250.547 68.912C250.526 68.2933 250.771 67.8027 251.283 67.44C251.795 67.0773 252.435 66.896 253.203 66.896C253.651 66.896 253.971 66.992 254.163 67.184C254.377 67.3547 254.494 67.7067 254.515 68.24C254.515 68.7733 254.526 69.168 254.547 69.424C255.23 68.5707 255.902 67.9627 256.563 67.6C257.225 67.216 257.929 67.024 258.675 67.024C259.87 67.024 260.841 67.504 261.587 68.464C262.355 69.424 262.739 70.6827 262.739 72.24C262.739 73.3707 262.558 74.4693 262.195 75.536C261.833 76.6027 261.331 77.5733 260.691 78.448C261.139 78.576 261.513 78.64 261.811 78.64C262.515 78.64 263.187 78.384 263.827 77.872C264.467 77.36 265.289 76.5067 266.291 75.312C266.547 75.0133 266.835 74.864 267.155 74.864ZM254.483 79.088C255.251 78.9173 255.955 78.5013 256.595 77.84C257.257 77.1573 257.779 76.3253 258.163 75.344C258.547 74.3413 258.739 73.296 258.739 72.208C258.739 71.568 258.611 71.088 258.355 70.768C258.099 70.4267 257.758 70.256 257.331 70.256C256.563 70.256 255.635 71.0667 254.547 72.688C254.526 73.6267 254.515 75.0027 254.515 76.816C254.515 77.7973 254.505 78.5547 254.483 79.088ZM248.371 93.488C248.947 93.488 249.427 92.2293 249.811 89.712C250.195 87.216 250.441 84.1013 250.547 80.368C249.63 82.5013 248.905 84.5387 248.371 86.48C247.838 88.4213 247.571 90.0533 247.571 91.376C247.571 92.0587 247.657 92.5813 247.827 92.944C247.977 93.3067 248.158 93.488 248.371 93.488ZM270.882 82.16C269.623 82.16 268.546 81.8507 267.65 81.232C266.775 80.592 266.114 79.76 265.666 78.736C265.218 77.712 264.993 76.6133 264.993 75.44C264.993 73.8187 265.292 72.3787 265.89 71.12C266.508 69.84 267.34 68.848 268.386 68.144C269.431 67.4187 270.604 67.056 271.906 67.056C273.164 67.056 274.242 67.376 275.138 68.016C276.034 68.6347 276.706 69.456 277.154 70.48C277.602 71.504 277.826 72.6027 277.826 73.776C277.826 75.3973 277.516 76.848 276.898 78.128C276.279 79.3867 275.436 80.3787 274.37 81.104C273.324 81.808 272.162 82.16 270.882 82.16ZM271.234 78.704C271.959 78.704 272.567 78.3093 273.058 77.52C273.57 76.7307 273.826 75.5787 273.826 74.064C273.826 72.8907 273.612 72.0053 273.186 71.408C272.759 70.8107 272.247 70.512 271.65 70.512C270.882 70.512 270.242 70.9067 269.73 71.696C269.239 72.464 268.994 73.616 268.994 75.152C268.994 76.368 269.207 77.264 269.634 77.84C270.06 78.416 270.594 78.704 271.234 78.704ZM285.769 82.864C284.66 82.864 283.807 82.608 283.209 82.096C282.633 81.584 282.345 81.008 282.345 80.368C282.345 79.8133 282.548 79.3333 282.953 78.928C283.359 78.5227 283.956 78.32 284.745 78.32C285.023 78.32 285.343 78.352 285.705 78.416C286.089 78.4587 286.377 78.4907 286.569 78.512C286.548 77.9573 286.42 77.4347 286.185 76.944C285.972 76.4533 285.695 75.984 285.353 75.536C285.012 75.0667 284.692 74.6613 284.393 74.32C283.732 75.5787 283.071 76.624 282.409 77.456C281.769 78.288 281.065 79.0773 280.297 79.824C279.913 80.208 279.508 80.4 279.081 80.4C278.74 80.4 278.463 80.2827 278.249 80.048C278.036 79.792 277.929 79.4827 277.929 79.12C277.929 78.6933 278.079 78.2987 278.377 77.936L278.793 77.424C279.967 75.9733 280.852 74.7787 281.449 73.84C281.833 73.2213 282.217 72.4853 282.601 71.632C283.007 70.7787 283.529 69.616 284.169 68.144C284.575 67.2053 285.417 66.736 286.697 66.736C287.295 66.736 287.711 66.7893 287.945 66.896C288.18 67.0027 288.297 67.1733 288.297 67.408C288.297 67.536 288.255 67.7387 288.169 68.016C288.084 68.2933 287.967 68.5707 287.817 68.848C287.433 69.616 287.241 70.2667 287.241 70.8C287.241 71.12 287.348 71.472 287.561 71.856C287.796 72.24 288.148 72.72 288.617 73.296C289.3 74.192 289.812 74.96 290.153 75.6C290.516 76.2187 290.697 76.9013 290.697 77.648C290.697 78.544 290.484 79.3973 290.057 80.208C289.652 80.9973 289.076 81.6373 288.329 82.128C287.583 82.6187 286.729 82.864 285.769 82.864ZM319.056 74.864C319.333 74.864 319.546 74.992 319.696 75.248C319.866 75.504 319.952 75.856 319.952 76.304C319.952 77.1573 319.749 77.8187 319.344 78.288C318.469 79.3547 317.509 80.272 316.464 81.04C315.418 81.7867 314.384 82.16 313.36 82.16C311.738 82.16 310.501 81.2107 309.648 79.312C308.752 80.4427 307.962 81.2 307.28 81.584C306.618 81.968 305.84 82.16 304.944 82.16C303.642 82.16 302.565 81.68 301.712 80.72C300.88 79.7387 300.464 78.4693 300.464 76.912C300.464 75.2053 300.826 73.6267 301.552 72.176C302.277 70.704 303.269 69.5093 304.528 68.592C305.808 67.6533 307.237 67.0987 308.816 66.928C309.221 62.7893 309.989 59.2587 311.12 56.336C312.272 53.392 313.776 51.92 315.632 51.92C316.549 51.92 317.306 52.336 317.904 53.168C318.522 54 318.832 55.2587 318.832 56.944C318.832 59.3333 318.245 62.128 317.072 65.328C315.898 68.528 314.33 71.8133 312.368 75.184C312.453 76.4213 312.634 77.3067 312.912 77.84C313.21 78.3733 313.584 78.64 314.032 78.64C314.608 78.64 315.194 78.384 315.792 77.872C316.389 77.36 317.189 76.5067 318.192 75.312C318.448 75.0133 318.736 74.864 319.056 74.864ZM315.28 55.056C314.874 55.056 314.469 55.7813 314.064 57.232C313.658 58.6613 313.306 60.5387 313.008 62.864C312.73 65.1893 312.528 67.6213 312.4 70.16C314.789 64.9547 315.984 60.7733 315.984 57.616C315.984 56.8053 315.909 56.176 315.76 55.728C315.632 55.28 315.472 55.056 315.28 55.056ZM306.064 78.928C306.469 78.928 306.874 78.768 307.28 78.448C307.685 78.1067 308.197 77.488 308.816 76.592C308.602 75.44 308.496 74.1493 308.496 72.72C308.496 72.208 308.517 71.376 308.56 70.224C307.386 70.5867 306.405 71.376 305.616 72.592C304.848 73.7867 304.464 75.12 304.464 76.592C304.464 78.1493 304.997 78.928 306.064 78.928ZM328.805 75.824C329.082 75.824 329.295 75.952 329.445 76.208C329.615 76.464 329.701 76.816 329.701 77.264C329.701 78.032 329.519 78.6933 329.157 79.248C328.559 80.1653 327.77 80.88 326.789 81.392C325.829 81.904 324.677 82.16 323.333 82.16C321.285 82.16 319.695 81.552 318.565 80.336C317.434 79.0987 316.868 77.4347 316.868 75.344C316.868 73.872 317.178 72.5067 317.797 71.248C318.415 69.968 319.269 68.9547 320.357 68.208C321.466 67.4613 322.714 67.088 324.101 67.088C325.338 67.088 326.33 67.4613 327.077 68.208C327.823 68.9333 328.197 69.9253 328.197 71.184C328.197 72.656 327.663 73.9253 326.597 74.992C325.551 76.0373 323.759 76.8693 321.221 77.488C321.733 78.4693 322.597 78.96 323.812 78.96C324.687 78.96 325.402 78.7573 325.957 78.352C326.533 77.9467 327.194 77.264 327.941 76.304C328.197 75.984 328.485 75.824 328.805 75.824ZM323.557 70.224C322.767 70.224 322.095 70.6827 321.541 71.6C321.007 72.5173 320.741 73.6267 320.741 74.928V74.992C321.999 74.6933 322.991 74.2453 323.717 73.648C324.442 73.0507 324.805 72.3573 324.805 71.568C324.805 71.1627 324.687 70.8427 324.453 70.608C324.239 70.352 323.941 70.224 323.557 70.224ZM341.246 82.16C340.435 82.16 339.859 81.7333 339.518 80.88C339.198 80.0267 339.038 78.6613 339.038 76.784C339.038 74.0107 339.432 71.376 340.222 68.88C340.414 68.2613 340.723 67.8133 341.15 67.536C341.598 67.2373 342.216 67.088 343.006 67.088C343.432 67.088 343.731 67.1413 343.902 67.248C344.072 67.3547 344.158 67.5573 344.158 67.856C344.158 68.1973 343.998 68.9653 343.678 70.16C343.464 71.0133 343.294 71.76 343.166 72.4C343.038 73.0187 342.931 73.7973 342.846 74.736C343.422 73.072 344.104 71.664 344.894 70.512C345.704 69.36 346.526 68.5067 347.358 67.952C348.211 67.376 349.011 67.088 349.758 67.088C350.504 67.088 351.027 67.2587 351.326 67.6C351.646 67.9413 351.806 68.464 351.806 69.168C351.806 69.8507 351.603 71.088 351.198 72.88C351.027 73.648 350.91 74.224 350.846 74.608C351.912 71.984 353.096 70.0747 354.398 68.88C355.699 67.6853 356.915 67.088 358.046 67.088C359.432 67.088 360.126 67.7813 360.126 69.168C360.126 70 359.891 71.504 359.422 73.68C359.016 75.536 358.814 76.7627 358.814 77.36C358.814 78.2133 359.123 78.64 359.742 78.64C360.168 78.64 360.67 78.384 361.246 77.872C361.843 77.3387 362.632 76.4853 363.614 75.312C363.87 75.0133 364.158 74.864 364.478 74.864C364.755 74.864 364.968 74.992 365.118 75.248C365.288 75.504 365.374 75.856 365.374 76.304C365.374 77.1573 365.171 77.8187 364.766 78.288C363.848 79.4187 362.856 80.3467 361.79 81.072C360.744 81.7973 359.55 82.16 358.206 82.16C357.118 82.16 356.296 81.8507 355.742 81.232C355.187 80.592 354.91 79.6747 354.91 78.48C354.91 77.8827 355.059 76.816 355.358 75.28C355.635 73.936 355.774 73.008 355.774 72.496C355.774 72.1547 355.656 71.984 355.422 71.984C355.144 71.984 354.75 72.3467 354.238 73.072C353.726 73.776 353.214 74.7147 352.702 75.888C352.19 77.0613 351.774 78.2987 351.454 79.6C351.219 80.624 350.942 81.3067 350.622 81.648C350.323 81.9893 349.832 82.16 349.15 82.16C348.446 82.16 347.912 81.8293 347.55 81.168C347.208 80.4853 347.038 79.664 347.038 78.704C347.038 77.8933 347.144 76.72 347.358 75.184C347.528 73.8187 347.614 72.9227 347.614 72.496C347.614 72.1547 347.496 71.984 347.262 71.984C346.942 71.984 346.536 72.368 346.046 73.136C345.555 73.904 345.075 74.8853 344.606 76.08C344.158 77.2747 343.795 78.448 343.518 79.6C343.283 80.6027 343.006 81.2853 342.686 81.648C342.387 81.9893 341.907 82.16 341.246 82.16ZM379.106 72.176C379.383 72.176 379.597 72.3147 379.746 72.592C379.895 72.8693 379.97 73.2213 379.97 73.648C379.97 74.672 379.661 75.28 379.042 75.472C377.762 75.92 376.354 76.176 374.818 76.24C374.413 78.032 373.613 79.472 372.418 80.56C371.223 81.6267 369.869 82.16 368.354 82.16C367.074 82.16 365.975 81.8507 365.058 81.232C364.162 80.6133 363.479 79.792 363.01 78.768C362.541 77.744 362.306 76.6347 362.306 75.44C362.306 73.8187 362.615 72.3787 363.234 71.12C363.853 69.84 364.706 68.848 365.794 68.144C366.882 67.4187 368.087 67.056 369.41 67.056C371.031 67.056 372.333 67.6213 373.314 68.752C374.317 69.8613 374.903 71.2373 375.074 72.88C376.077 72.816 377.271 72.6027 378.658 72.24C378.829 72.1973 378.978 72.176 379.106 72.176ZM368.61 78.768C369.293 78.768 369.879 78.4907 370.37 77.936C370.882 77.3813 371.223 76.5813 371.394 75.536C370.733 75.088 370.221 74.5013 369.858 73.776C369.517 73.0507 369.346 72.2827 369.346 71.472C369.346 71.1307 369.378 70.7893 369.442 70.448H369.282C368.429 70.448 367.714 70.864 367.138 71.696C366.583 72.5067 366.306 73.6587 366.306 75.152C366.306 76.3253 366.53 77.2213 366.978 77.84C367.447 78.4587 367.991 78.768 368.61 78.768ZM381.64 64.976C380.744 64.976 380.072 64.7733 379.624 64.368C379.176 63.9413 378.952 63.3547 378.952 62.608C378.952 61.8613 379.24 61.2427 379.816 60.752C380.413 60.24 381.149 59.984 382.024 59.984C382.813 59.984 383.453 60.176 383.944 60.56C384.434 60.944 384.68 61.488 384.68 62.192C384.68 63.0453 384.402 63.728 383.848 64.24C383.293 64.7307 382.557 64.976 381.64 64.976ZM378.568 82.16C377.885 82.16 377.416 82.0213 377.16 81.744C376.904 81.4667 376.776 81.0293 376.776 80.432C376.776 80.2613 376.797 79.9627 376.84 79.536C377.181 75.632 377.746 72.08 378.536 68.88C378.706 68.2187 378.984 67.76 379.368 67.504C379.773 67.2267 380.413 67.088 381.288 67.088C382.205 67.088 382.664 67.4613 382.664 68.208C382.664 68.3147 382.642 68.5173 382.6 68.816C381.64 73.3813 381.064 77.2107 380.872 80.304C380.829 80.9867 380.626 81.4667 380.264 81.744C379.901 82.0213 379.336 82.16 378.568 82.16Z" fill="#001AFF"/>
<path d="M69.5813 1.33782C69.2156 0.295553 68.0742 -0.252909 67.0319 0.1128C65.9897 0.478509 65.4412 1.6199 65.8069 2.66218L69.5813 1.33782ZM153.635 68.9507C154.712 68.707 155.388 67.6361 155.145 66.5588L151.173 49.0023C150.93 47.9249 149.859 47.2491 148.782 47.4928C147.704 47.7365 147.028 48.8074 147.272 49.8847L150.802 65.4905L135.196 69.0204C134.119 69.2641 133.443 70.335 133.687 71.4123C133.93 72.4897 135.001 73.1655 136.079 72.9218L153.635 68.9507ZM65.8069 2.66218C70.745 16.7357 74.5703 37.6805 70.3025 54.9579C68.1804 63.5488 64.0845 71.1334 57.2251 76.5824C50.3703 82.0277 40.5547 85.5 26.6941 85.5V89.5C41.2335 89.5 51.9929 85.8473 59.7131 79.7145C67.4288 73.5853 71.9079 65.1387 74.1858 55.9171C78.718 37.5695 74.6432 15.7643 69.5813 1.33782L65.8069 2.66218ZM26.6941 85.5C17.964 85.5 12.0677 84.1766 8.48598 82.2017C5.02105 80.2912 3.83899 77.8732 4.01743 75.2943C4.21147 72.49 6.04417 69.0062 9.77177 65.2917C13.4572 61.6193 18.8035 57.9185 25.5589 54.6783C52.5836 41.7162 101.227 36.5704 152.126 68.6914L154.261 65.3086C102.161 32.4296 52.0542 37.5338 23.8291 51.0717C16.772 54.4565 11.0246 58.3963 6.94833 62.4583C2.91424 66.4782 0.317284 70.8225 0.0269749 75.0182C-0.278932 79.4393 1.99996 83.1932 6.55458 85.7045C10.9924 88.1515 17.6742 89.5 26.6941 89.5V85.5Z" fill="#0019FF"/>
</svg>
