<svg width="826" height="260" viewBox="0 0 826 260" fill="none" xmlns="http://www.w3.org/2000/svg">
<path d="M491.168 235.067C489.122 235.067 487.454 234.26 486.162 232.645C484.906 231.03 484.278 228.912 484.278 226.293C484.278 223.422 484.941 220.712 486.269 218.164C487.597 215.581 489.356 213.517 491.545 211.974C493.77 210.395 496.12 209.606 498.596 209.606C499.386 209.606 499.906 209.767 500.157 210.09C500.444 210.377 500.678 210.915 500.857 211.705C501.539 211.561 502.293 211.49 503.118 211.49C503.979 211.49 504.643 211.705 505.11 212.136C505.576 212.566 505.81 213.176 505.81 213.966C505.81 214.791 505.63 216.227 505.271 218.272C504.876 220.461 504.571 222.561 504.356 224.57C504.141 226.544 504.033 228.769 504.033 231.245C504.033 232.609 503.746 233.596 503.172 234.206C502.634 234.78 501.736 235.067 500.48 235.067C499.26 235.067 498.345 234.78 497.735 234.206C497.161 233.596 496.874 232.627 496.874 231.299L496.928 230.438C495.815 233.524 493.895 235.067 491.168 235.067ZM493.267 229.63C494.272 229.63 495.187 228.93 496.012 227.531C496.838 226.131 497.574 223.637 498.22 220.049L499.242 214.612C497.771 214.648 496.407 215.222 495.151 216.334C493.895 217.411 492.89 218.846 492.137 220.641C491.383 222.435 491.006 224.337 491.006 226.347C491.006 227.423 491.204 228.249 491.598 228.823C492.029 229.361 492.585 229.63 493.267 229.63ZM499.081 206.16C498.435 206.16 497.879 205.855 497.412 205.245L490.468 196.31C489.679 195.305 489.284 194.3 489.284 193.295C489.284 192.29 489.625 191.465 490.307 190.819C491.024 190.173 491.832 189.85 492.729 189.85C493.339 189.85 493.913 190.029 494.451 190.388C494.99 190.747 495.42 191.285 495.743 192.003L500.75 203.2C500.893 203.523 500.965 203.864 500.965 204.223C500.965 204.761 500.767 205.227 500.373 205.622C500.014 205.981 499.583 206.16 499.081 206.16ZM552.623 222.794C553.089 222.794 553.448 223.009 553.7 223.44C553.987 223.87 554.13 224.463 554.13 225.216C554.13 226.652 553.789 227.764 553.107 228.554C551.564 230.456 549.896 232.017 548.101 233.237C546.343 234.457 544.333 235.067 542.072 235.067C540.17 235.067 538.627 234.385 537.443 233.021C535.397 234.349 533.262 235.031 531.037 235.067C530.571 241.993 529.512 247.771 527.861 252.4C526.21 257.065 523.788 259.398 520.594 259.398C518.656 259.398 517.221 258.698 516.288 257.299C515.355 255.899 514.888 253.961 514.888 251.485C514.888 247.968 515.696 243.859 517.311 239.158C518.925 234.493 521.42 229.343 524.793 223.709C524.793 218.469 524.757 214.827 524.685 212.781C524.649 211.741 525.062 210.915 525.923 210.305C526.785 209.695 527.861 209.39 529.153 209.39C529.907 209.39 530.445 209.552 530.768 209.875C531.127 210.162 531.324 210.754 531.36 211.651C531.36 212.548 531.378 213.212 531.414 213.643C532.562 212.207 533.693 211.185 534.805 210.574C535.918 209.929 537.102 209.606 538.358 209.606C540.368 209.606 542.001 210.413 543.257 212.028C544.548 213.643 545.194 215.76 545.194 218.38C545.194 220.282 544.889 222.13 544.279 223.924C543.669 225.719 542.826 227.351 541.749 228.823C542.503 229.038 543.131 229.146 543.633 229.146C544.818 229.146 545.948 228.715 547.025 227.854C548.101 226.993 549.483 225.557 551.17 223.547C551.6 223.045 552.085 222.794 552.623 222.794ZM531.306 229.899C532.598 229.612 533.782 228.912 534.859 227.8C535.972 226.652 536.851 225.252 537.497 223.601C538.143 221.915 538.466 220.156 538.466 218.326C538.466 217.249 538.25 216.442 537.82 215.904C537.389 215.329 536.815 215.042 536.097 215.042C534.805 215.042 533.244 216.406 531.414 219.133C531.378 220.712 531.36 223.027 531.36 226.077C531.36 227.728 531.342 229.002 531.306 229.899ZM521.025 254.123C521.994 254.123 522.801 252.005 523.447 247.771C524.093 243.572 524.506 238.333 524.685 232.053C523.142 235.641 521.922 239.068 521.025 242.334C520.128 245.6 519.679 248.345 519.679 250.57C519.679 251.718 519.823 252.598 520.11 253.208C520.361 253.818 520.666 254.123 521.025 254.123ZM553.616 235.067C552.252 235.067 551.283 234.349 550.709 232.914C550.171 231.478 549.902 229.182 549.902 226.024C549.902 221.358 550.565 216.926 551.893 212.728C552.216 211.687 552.737 210.933 553.454 210.467C554.208 209.964 555.249 209.713 556.576 209.713C557.294 209.713 557.797 209.803 558.084 209.982C558.371 210.162 558.514 210.503 558.514 211.005C558.514 211.579 558.245 212.871 557.707 214.881C557.348 216.316 557.061 217.572 556.846 218.649C556.63 219.726 556.451 221.053 556.307 222.632C557.492 219.546 558.819 217.034 560.291 215.096C561.762 213.158 563.198 211.777 564.597 210.951C566.033 210.126 567.342 209.713 568.527 209.713C570.859 209.713 572.026 210.879 572.026 213.212C572.026 213.679 571.864 214.809 571.541 216.603C571.254 218.039 571.111 218.936 571.111 219.295C571.111 220.551 571.559 221.179 572.456 221.179C573.461 221.179 574.753 220.389 576.332 218.81C576.799 218.344 577.283 218.111 577.785 218.111C578.252 218.111 578.611 218.326 578.862 218.757C579.149 219.151 579.293 219.69 579.293 220.371C579.293 221.699 578.934 222.74 578.216 223.494C577.211 224.534 576.027 225.431 574.663 226.185C573.335 226.903 571.918 227.262 570.411 227.262C568.509 227.262 567.055 226.777 566.051 225.808C565.082 224.839 564.597 223.529 564.597 221.879C564.597 221.34 564.651 220.802 564.759 220.264C564.83 219.546 564.866 219.062 564.866 218.81C564.866 218.236 564.669 217.949 564.274 217.949C563.736 217.949 563.018 218.559 562.121 219.779C561.26 220.964 560.398 222.543 559.537 224.516C558.676 226.49 557.976 228.572 557.438 230.761C557.043 232.447 556.576 233.596 556.038 234.206C555.536 234.78 554.728 235.067 553.616 235.067ZM601.744 218.272C602.21 218.272 602.569 218.505 602.82 218.972C603.072 219.438 603.197 220.031 603.197 220.748C603.197 222.471 602.677 223.494 601.636 223.817C599.483 224.57 597.115 225.001 594.531 225.109C593.849 228.123 592.503 230.545 590.493 232.376C588.484 234.17 586.205 235.067 583.657 235.067C581.504 235.067 579.656 234.547 578.113 233.506C576.605 232.465 575.457 231.084 574.667 229.361C573.878 227.639 573.483 225.772 573.483 223.763C573.483 221.035 574.004 218.613 575.044 216.496C576.085 214.343 577.52 212.674 579.351 211.49C581.181 210.269 583.208 209.659 585.433 209.659C588.161 209.659 590.35 210.61 592.001 212.512C593.687 214.378 594.674 216.693 594.961 219.456C596.648 219.349 598.658 218.99 600.99 218.38C601.277 218.308 601.529 218.272 601.744 218.272ZM584.088 229.361C585.236 229.361 586.223 228.895 587.048 227.961C587.91 227.028 588.484 225.683 588.771 223.924C587.658 223.171 586.797 222.184 586.187 220.964C585.613 219.743 585.326 218.452 585.326 217.088C585.326 216.514 585.38 215.939 585.487 215.365H585.218C583.783 215.365 582.58 216.065 581.612 217.465C580.678 218.828 580.212 220.766 580.212 223.278C580.212 225.252 580.589 226.759 581.342 227.8C582.132 228.841 583.047 229.361 584.088 229.361ZM627.322 222.794C627.789 222.794 628.148 223.009 628.399 223.44C628.686 223.87 628.83 224.463 628.83 225.216C628.83 226.652 628.489 227.764 627.807 228.554C626.264 230.456 624.595 232.017 622.801 233.237C621.042 234.457 619.032 235.067 616.772 235.067C614.87 235.067 613.327 234.385 612.142 233.021C610.097 234.349 607.961 235.031 605.737 235.067C605.27 241.993 604.211 247.771 602.561 252.4C600.91 257.065 598.487 259.398 595.294 259.398C593.356 259.398 591.92 258.698 590.987 257.299C590.054 255.899 589.588 253.961 589.588 251.485C589.588 247.968 590.395 243.859 592.01 239.158C593.625 234.493 596.119 229.343 599.492 223.709C599.492 218.469 599.456 214.827 599.385 212.781C599.349 211.741 599.761 210.915 600.623 210.305C601.484 209.695 602.561 209.39 603.852 209.39C604.606 209.39 605.144 209.552 605.467 209.875C605.826 210.162 606.024 210.754 606.06 211.651C606.06 212.548 606.077 213.212 606.113 213.643C607.262 212.207 608.392 211.185 609.505 210.574C610.617 209.929 611.801 209.606 613.057 209.606C615.067 209.606 616.7 210.413 617.956 212.028C619.248 213.643 619.894 215.76 619.894 218.38C619.894 220.282 619.589 222.13 618.979 223.924C618.369 225.719 617.525 227.351 616.449 228.823C617.202 229.038 617.83 229.146 618.333 229.146C619.517 229.146 620.647 228.715 621.724 227.854C622.801 226.993 624.182 225.557 625.869 223.547C626.3 223.045 626.784 222.794 627.322 222.794ZM606.006 229.899C607.298 229.612 608.482 228.912 609.558 227.8C610.671 226.652 611.55 225.252 612.196 223.601C612.842 221.915 613.165 220.156 613.165 218.326C613.165 217.249 612.95 216.442 612.519 215.904C612.088 215.329 611.514 215.042 610.797 215.042C609.505 215.042 607.944 216.406 606.113 219.133C606.077 220.712 606.06 223.027 606.06 226.077C606.06 227.728 606.042 229.002 606.006 229.899ZM595.724 254.123C596.693 254.123 597.501 252.005 598.147 247.771C598.792 243.572 599.205 238.333 599.385 232.053C597.841 235.641 596.621 239.068 595.724 242.334C594.827 245.6 594.378 248.345 594.378 250.57C594.378 251.718 594.522 252.598 594.809 253.208C595.06 253.818 595.365 254.123 595.724 254.123ZM633.59 235.067C631.473 235.067 629.661 234.547 628.154 233.506C626.682 232.429 625.57 231.03 624.816 229.307C624.063 227.585 623.686 225.737 623.686 223.763C623.686 221.035 624.188 218.613 625.193 216.496C626.234 214.343 627.633 212.674 629.392 211.49C631.15 210.269 633.124 209.659 635.313 209.659C637.43 209.659 639.243 210.198 640.75 211.274C642.257 212.315 643.388 213.697 644.141 215.419C644.895 217.142 645.272 218.99 645.272 220.964C645.272 223.691 644.751 226.131 643.71 228.284C642.67 230.402 641.252 232.07 639.458 233.291C637.699 234.475 635.744 235.067 633.59 235.067ZM634.183 229.253C635.403 229.253 636.426 228.589 637.251 227.262C638.112 225.934 638.543 223.996 638.543 221.448C638.543 219.474 638.184 217.985 637.466 216.98C636.749 215.975 635.887 215.473 634.882 215.473C633.59 215.473 632.514 216.137 631.653 217.465C630.827 218.757 630.415 220.694 630.415 223.278C630.415 225.324 630.773 226.831 631.491 227.8C632.209 228.769 633.106 229.253 634.183 229.253ZM658.634 236.251C656.768 236.251 655.333 235.821 654.328 234.959C653.359 234.098 652.875 233.129 652.875 232.053C652.875 231.119 653.216 230.312 653.897 229.63C654.579 228.948 655.584 228.607 656.912 228.607C657.378 228.607 657.917 228.661 658.527 228.769C659.173 228.841 659.657 228.895 659.98 228.93C659.944 227.997 659.729 227.118 659.334 226.293C658.975 225.467 658.509 224.678 657.935 223.924C657.36 223.135 656.822 222.453 656.32 221.879C655.207 223.996 654.095 225.754 652.982 227.154C651.906 228.554 650.721 229.881 649.429 231.137C648.784 231.783 648.102 232.106 647.384 232.106C646.81 232.106 646.343 231.909 645.984 231.514C645.626 231.084 645.446 230.563 645.446 229.953C645.446 229.235 645.697 228.572 646.2 227.961L646.899 227.1C648.873 224.66 650.363 222.65 651.367 221.071C652.013 220.031 652.659 218.792 653.305 217.357C653.987 215.922 654.866 213.966 655.943 211.49C656.625 209.911 658.042 209.121 660.195 209.121C661.2 209.121 661.9 209.211 662.295 209.39C662.69 209.57 662.887 209.857 662.887 210.251C662.887 210.467 662.815 210.808 662.672 211.274C662.528 211.741 662.331 212.207 662.079 212.674C661.434 213.966 661.111 215.06 661.111 215.957C661.111 216.496 661.29 217.088 661.649 217.734C662.044 218.38 662.636 219.187 663.425 220.156C664.574 221.663 665.435 222.955 666.009 224.032C666.619 225.073 666.924 226.221 666.924 227.477C666.924 228.984 666.565 230.42 665.848 231.783C665.166 233.111 664.197 234.188 662.941 235.013C661.685 235.839 660.249 236.251 658.634 236.251ZM714.628 222.794C715.095 222.794 715.454 223.009 715.705 223.44C715.992 223.87 716.136 224.463 716.136 225.216C716.136 226.652 715.795 227.764 715.113 228.554C713.641 230.348 712.027 231.891 710.268 233.183C708.51 234.439 706.769 235.067 705.047 235.067C702.319 235.067 700.238 233.47 698.802 230.276C697.295 232.178 695.967 233.452 694.819 234.098C693.706 234.744 692.397 235.067 690.889 235.067C688.7 235.067 686.888 234.26 685.453 232.645C684.053 230.994 683.353 228.859 683.353 226.239C683.353 223.368 683.963 220.712 685.183 218.272C686.404 215.796 688.072 213.786 690.19 212.243C692.343 210.664 694.747 209.731 697.403 209.444C698.085 202.482 699.377 196.543 701.279 191.626C703.216 186.674 705.746 184.198 708.869 184.198C710.412 184.198 711.686 184.898 712.69 186.297C713.731 187.697 714.251 189.814 714.251 192.649C714.251 196.668 713.265 201.37 711.291 206.753C709.317 212.136 706.679 217.662 703.378 223.332C703.521 225.414 703.826 226.903 704.293 227.8C704.795 228.697 705.423 229.146 706.177 229.146C707.146 229.146 708.133 228.715 709.138 227.854C710.142 226.993 711.488 225.557 713.175 223.547C713.606 223.045 714.09 222.794 714.628 222.794ZM708.276 189.473C707.595 189.473 706.913 190.693 706.231 193.134C705.549 195.538 704.957 198.696 704.454 202.608C703.988 206.519 703.647 210.61 703.432 214.881C707.451 206.125 709.461 199.091 709.461 193.78C709.461 192.416 709.335 191.357 709.084 190.604C708.869 189.85 708.599 189.473 708.276 189.473ZM692.773 229.63C693.455 229.63 694.137 229.361 694.819 228.823C695.501 228.249 696.362 227.208 697.403 225.701C697.044 223.763 696.864 221.592 696.864 219.187C696.864 218.326 696.9 216.926 696.972 214.989C694.998 215.599 693.348 216.926 692.02 218.972C690.728 220.982 690.082 223.224 690.082 225.701C690.082 228.32 690.979 229.63 692.773 229.63ZM731.027 224.409C731.494 224.409 731.853 224.624 732.104 225.055C732.391 225.485 732.535 226.077 732.535 226.831C732.535 228.123 732.23 229.235 731.62 230.169C730.615 231.712 729.287 232.914 727.636 233.775C726.021 234.636 724.083 235.067 721.823 235.067C718.377 235.067 715.704 234.044 713.802 231.999C711.9 229.917 710.949 227.118 710.949 223.601C710.949 221.125 711.469 218.828 712.51 216.711C713.551 214.558 714.986 212.853 716.816 211.597C718.682 210.341 720.782 209.713 723.114 209.713C725.196 209.713 726.865 210.341 728.121 211.597C729.377 212.817 730.005 214.486 730.005 216.603C730.005 219.08 729.108 221.215 727.313 223.009C725.555 224.768 722.54 226.167 718.27 227.208C719.131 228.859 720.584 229.684 722.63 229.684C724.101 229.684 725.304 229.343 726.237 228.661C727.206 227.979 728.318 226.831 729.574 225.216C730.005 224.678 730.489 224.409 731.027 224.409ZM722.199 214.989C720.872 214.989 719.741 215.76 718.808 217.303C717.911 218.846 717.462 220.712 717.462 222.901V223.009C719.58 222.507 721.248 221.753 722.469 220.748C723.689 219.743 724.299 218.577 724.299 217.249C724.299 216.568 724.101 216.029 723.707 215.634C723.348 215.204 722.845 214.989 722.199 214.989ZM751.955 235.067C750.592 235.067 749.623 234.349 749.049 232.914C748.51 231.478 748.241 229.182 748.241 226.024C748.241 221.358 748.905 216.926 750.233 212.728C750.556 211.687 751.076 210.933 751.794 210.467C752.548 209.964 753.588 209.713 754.916 209.713C755.634 209.713 756.136 209.803 756.423 209.982C756.71 210.162 756.854 210.503 756.854 211.005C756.854 211.579 756.585 212.871 756.047 214.881C755.688 216.316 755.401 217.572 755.185 218.649C754.97 219.69 754.791 220.999 754.647 222.579C755.616 219.779 756.764 217.411 758.092 215.473C759.456 213.535 760.837 212.1 762.237 211.167C763.672 210.198 765.018 209.713 766.274 209.713C767.53 209.713 768.409 210 768.912 210.574C769.45 211.149 769.719 212.028 769.719 213.212C769.719 214.36 769.378 216.442 768.697 219.456C768.409 220.748 768.212 221.717 768.104 222.363C769.899 217.949 771.89 214.737 774.08 212.728C776.269 210.718 778.314 209.713 780.216 209.713C782.549 209.713 783.715 210.879 783.715 213.212C783.715 214.612 783.32 217.142 782.531 220.802C781.849 223.924 781.508 225.988 781.508 226.993C781.508 228.428 782.028 229.146 783.069 229.146C783.787 229.146 784.63 228.715 785.599 227.854C786.604 226.957 787.932 225.521 789.583 223.547C790.013 223.045 790.498 222.794 791.036 222.794C791.502 222.794 791.861 223.009 792.113 223.44C792.4 223.87 792.543 224.463 792.543 225.216C792.543 226.652 792.202 227.764 791.52 228.554C789.977 230.456 788.309 232.017 786.514 233.237C784.756 234.457 782.746 235.067 780.485 235.067C778.655 235.067 777.273 234.547 776.34 233.506C775.407 232.429 774.941 230.886 774.941 228.877C774.941 227.872 775.192 226.077 775.694 223.494C776.161 221.233 776.394 219.672 776.394 218.81C776.394 218.236 776.197 217.949 775.802 217.949C775.336 217.949 774.672 218.559 773.81 219.779C772.949 220.964 772.088 222.543 771.227 224.516C770.365 226.49 769.665 228.572 769.127 230.761C768.732 232.483 768.266 233.632 767.728 234.206C767.225 234.78 766.4 235.067 765.251 235.067C764.067 235.067 763.17 234.511 762.56 233.398C761.986 232.25 761.699 230.868 761.699 229.253C761.699 227.89 761.878 225.916 762.237 223.332C762.524 221.035 762.668 219.528 762.668 218.81C762.668 218.236 762.47 217.949 762.075 217.949C761.537 217.949 760.855 218.595 760.03 219.887C759.205 221.179 758.397 222.83 757.608 224.839C756.854 226.849 756.244 228.823 755.777 230.761C755.383 232.447 754.916 233.596 754.378 234.206C753.875 234.78 753.068 235.067 751.955 235.067ZM815.644 218.272C816.11 218.272 816.469 218.505 816.72 218.972C816.971 219.438 817.097 220.031 817.097 220.748C817.097 222.471 816.577 223.494 815.536 223.817C813.383 224.57 811.014 225.001 808.43 225.109C807.749 228.123 806.403 230.545 804.393 232.376C802.384 234.17 800.105 235.067 797.557 235.067C795.404 235.067 793.556 234.547 792.012 233.506C790.505 232.465 789.357 231.084 788.567 229.361C787.778 227.639 787.383 225.772 787.383 223.763C787.383 221.035 787.903 218.613 788.944 216.496C789.985 214.343 791.42 212.674 793.25 211.49C795.081 210.269 797.108 209.659 799.333 209.659C802.061 209.659 804.25 210.61 805.9 212.512C807.587 214.378 808.574 216.693 808.861 219.456C810.548 219.349 812.557 218.99 814.89 218.38C815.177 218.308 815.428 218.272 815.644 218.272ZM797.988 229.361C799.136 229.361 800.123 228.895 800.948 227.961C801.809 227.028 802.384 225.683 802.671 223.924C801.558 223.171 800.697 222.184 800.087 220.964C799.513 219.743 799.226 218.452 799.226 217.088C799.226 216.514 799.279 215.939 799.387 215.365H799.118C797.682 215.365 796.48 216.065 795.511 217.465C794.578 218.828 794.112 220.766 794.112 223.278C794.112 225.252 794.489 226.759 795.242 227.8C796.032 228.841 796.947 229.361 797.988 229.361ZM819.905 206.16C818.398 206.16 817.268 205.819 816.514 205.138C815.761 204.42 815.384 203.433 815.384 202.177C815.384 200.921 815.868 199.88 816.837 199.055C817.842 198.194 819.08 197.763 820.551 197.763C821.879 197.763 822.956 198.086 823.781 198.732C824.607 199.378 825.019 200.293 825.019 201.477C825.019 202.913 824.553 204.061 823.62 204.922C822.687 205.748 821.449 206.16 819.905 206.16ZM814.738 235.067C813.589 235.067 812.8 234.834 812.369 234.367C811.939 233.901 811.723 233.165 811.723 232.16C811.723 231.873 811.759 231.371 811.831 230.653C812.405 224.086 813.356 218.111 814.684 212.728C814.971 211.615 815.438 210.844 816.084 210.413C816.765 209.946 817.842 209.713 819.313 209.713C820.856 209.713 821.628 210.341 821.628 211.597C821.628 211.777 821.592 212.118 821.52 212.62C819.905 220.3 818.937 226.741 818.614 231.945C818.542 233.093 818.201 233.901 817.591 234.367C816.981 234.834 816.03 235.067 814.738 235.067Z" fill="#001AFF"/>
<path d="M185.146 1.1481C182.467 -0.139509 179.251 0.988941 177.963 3.66857L156.98 47.3356C155.693 50.0153 156.821 53.2313 159.501 54.519C162.18 55.8066 165.396 54.6781 166.684 51.9985L185.336 13.1833L224.151 31.8348C226.83 33.1224 230.046 31.9939 231.334 29.3143C232.622 26.6347 231.493 23.4186 228.814 22.131L185.146 1.1481ZM410.064 185.499C412.578 187.086 415.902 186.334 417.489 183.82C419.076 181.305 418.324 177.981 415.809 176.395L410.064 185.499ZM177.736 7.78224C191.026 45.661 201.322 102.034 189.835 148.536C184.124 171.658 173.1 192.072 154.638 206.738C136.188 221.394 109.77 230.739 72.464 230.739V241.505C111.597 241.505 140.555 231.674 161.334 215.168C182.101 198.671 194.156 175.937 200.287 151.117C212.486 101.735 201.519 43.0465 187.894 4.21776L177.736 7.78224ZM72.464 230.739C48.9669 230.739 33.0971 227.178 23.457 221.862C14.1311 216.72 10.9496 210.212 11.4299 203.271C11.9522 195.723 16.8848 186.346 26.9176 176.349C36.8368 166.465 51.2264 156.504 69.4086 147.783C142.145 112.896 273.069 99.0459 410.064 185.499L415.809 176.395C275.581 87.9009 140.72 101.639 64.7527 138.076C45.7587 147.186 30.2897 157.79 19.3184 168.723C8.46068 179.542 1.47099 191.235 0.689624 202.528C-0.133723 214.427 5.9999 224.531 18.2586 231.29C30.203 237.876 48.1871 241.505 72.464 241.505V230.739Z" fill="#0019FF"/>
</svg>
