<svg width="1058" height="297" viewBox="0 0 1058 297" fill="none" xmlns="http://www.w3.org/2000/svg">
<path d="M82.5422 170.19H70.1222V225H24.7622V57.33H79.5722C98.8322 57.33 113.142 61.74 122.502 70.56C131.862 79.38 136.542 93.87 136.542 114.03C136.542 134.19 132.132 148.59 123.312 157.23C114.492 165.87 100.902 170.19 82.5422 170.19ZM87.6722 133.74C89.2922 130.68 90.1022 125.19 90.1022 117.27C90.1022 109.35 89.2022 103.77 87.4022 100.53C85.6022 97.29 82.0022 95.67 76.6022 95.67H70.1222V138.33H77.6822C82.7222 138.33 86.0522 136.8 87.6722 133.74ZM165.666 159.93C165.666 136.17 170.166 118.98 179.166 108.36C188.346 97.74 202.566 92.43 221.826 92.43C241.266 92.43 255.396 97.65 264.216 108.09C273.036 118.53 277.446 135.72 277.446 159.66C277.446 183.42 273.126 200.7 264.486 211.5C255.846 222.3 241.716 227.7 222.096 227.7C202.476 227.7 188.166 222.3 179.166 211.5C170.166 200.7 165.666 183.51 165.666 159.93ZM230.466 134.28C229.386 130.68 226.506 128.88 221.826 128.88C217.146 128.88 214.176 130.68 212.916 134.28C211.656 137.88 211.026 145.44 211.026 156.96V163.44C211.026 176.22 211.656 184.5 212.916 188.28C214.176 192.06 217.056 193.95 221.556 193.95C226.236 193.95 229.206 192.06 230.466 188.28C231.726 184.5 232.356 176.76 232.356 165.06V157.23C232.356 145.53 231.726 137.88 230.466 134.28ZM357.908 152.37V225H313.088V95.67H352.508L355.208 103.5H356.288C360.428 98.82 364.568 95.85 368.708 94.59C373.028 93.15 379.958 92.43 389.498 92.43L387.608 135.63H375.188C368.168 135.63 363.488 136.71 361.148 138.87C358.988 141.03 357.908 145.53 357.908 152.37ZM492.227 225.27C478.907 226.89 467.297 227.7 457.397 227.7C447.677 227.7 440.027 225.18 434.447 220.14C429.047 214.92 426.347 206.01 426.347 193.41V130.77H413.387V97.29H428.507L430.937 72.45H471.707V97.29H495.737L493.847 130.77H471.437V184.5C471.437 188.28 473.237 190.17 476.837 190.17C477.197 190.17 482.777 189.9 493.577 189.36L492.227 225.27ZM569.28 50.04C580.44 50.04 592.14 50.58 604.38 51.66L600.6 91.08C592.5 90.18 586.56 89.73 582.78 89.73C579.18 89.73 577.38 91.35 577.38 94.59V99.45H599.52L597.36 132.93H577.92V225H532.83V132.93H520.95V99.45H532.83V85.95C532.83 62.01 544.98 50.04 569.28 50.04ZM625.162 159.93C625.162 136.17 629.662 118.98 638.662 108.36C647.842 97.74 662.062 92.43 681.322 92.43C700.762 92.43 714.892 97.65 723.712 108.09C732.532 118.53 736.942 135.72 736.942 159.66C736.942 183.42 732.622 200.7 723.982 211.5C715.342 222.3 701.212 227.7 681.592 227.7C661.972 227.7 647.662 222.3 638.662 211.5C629.662 200.7 625.162 183.51 625.162 159.93ZM689.962 134.28C688.882 130.68 686.002 128.88 681.322 128.88C676.642 128.88 673.672 130.68 672.412 134.28C671.152 137.88 670.522 145.44 670.522 156.96V163.44C670.522 176.22 671.152 184.5 672.412 188.28C673.672 192.06 676.552 193.95 681.052 193.95C685.732 193.95 688.702 192.06 689.962 188.28C691.222 184.5 691.852 176.76 691.852 165.06V157.23C691.852 145.53 691.222 137.88 689.962 134.28ZM772.584 195.3V51.93H817.134V180.99C817.134 184.05 817.764 186.21 819.024 187.47C820.464 188.73 822.894 189.36 826.314 189.36L822.804 227.7H807.954C796.074 227.7 787.164 225.27 781.224 220.41C775.464 215.37 772.584 207 772.584 195.3ZM902.832 225H858.282V97.02H902.832V225ZM861.792 86.76C858.012 83.52 856.122 78.3 856.122 71.1C856.122 63.9 858.012 58.59 861.792 55.17C865.572 51.75 871.782 50.04 880.422 50.04C889.062 50.04 895.272 51.75 899.052 55.17C902.832 58.59 904.722 63.9 904.722 71.1C904.722 78.12 902.832 83.34 899.052 86.76C895.272 90 889.062 91.62 880.422 91.62C871.782 91.62 865.572 90 861.792 86.76ZM939.396 159.93C939.396 136.17 943.896 118.98 952.896 108.36C962.076 97.74 976.296 92.43 995.556 92.43C1015 92.43 1029.13 97.65 1037.95 108.09C1046.77 118.53 1051.18 135.72 1051.18 159.66C1051.18 183.42 1046.86 200.7 1038.22 211.5C1029.58 222.3 1015.45 227.7 995.826 227.7C976.206 227.7 961.896 222.3 952.896 211.5C943.896 200.7 939.396 183.51 939.396 159.93ZM1004.2 134.28C1003.12 130.68 1000.24 128.88 995.556 128.88C990.876 128.88 987.906 130.68 986.646 134.28C985.386 137.88 984.756 145.44 984.756 156.96V163.44C984.756 176.22 985.386 184.5 986.646 188.28C987.906 192.06 990.786 193.95 995.286 193.95C999.966 193.95 1002.94 192.06 1004.2 188.28C1005.46 184.5 1006.09 176.76 1006.09 165.06V157.23C1006.09 145.53 1005.46 137.88 1004.2 134.28Z" fill="white"/>
<path d="M5 63.4148V232C5 235.313 7.68629 238 11 238H84.5C87.8137 238 90.5 235.313 90.5 232V192.706C90.5 187.724 96.8959 184.112 101.869 184.4C122.89 185.617 155 163.027 155 115.5C155 37.1959 76.4876 28.9646 23.2806 39.7538C12.2296 41.9947 5 52.1389 5 63.4148Z" stroke="#001AFF" stroke-width="9"/>
<path d="M212.5 241H230.5C261.98 241 287.5 215.48 287.5 184V133C287.5 101.52 261.98 76 230.5 76H212.5C181.02 76 155.5 101.52 155.5 133V184C155.5 215.48 181.02 241 212.5 241Z" stroke="#001AFF" stroke-width="9"/>
<path d="M296.5 98V216.5C296.5 228.65 306.35 238.5 318.5 238.5H350.5C362.65 238.5 372.5 228.65 372.5 216.5V162.25C372.5 154.104 379.104 147.5 387.25 147.5C395.396 147.5 402 140.896 402 132.75V98C402 85.8497 392.15 76 380 76H318.5C306.35 76 296.5 85.8497 296.5 98Z" stroke="#001AFF" stroke-width="9"/>
<path d="M450 239H483.5C495.65 239 505.5 229.15 505.5 217V190.25C505.5 183.761 500.239 178.5 493.75 178.5C487.261 178.5 482 173.239 482 166.75V153.75C482 146.985 487.485 141.5 494.25 141.5C501.015 141.5 506.5 136.015 506.5 129.25V98.25C506.5 91.4845 501.015 86 494.25 86C487.485 86 482 80.5155 482 73.75V72.25C482 64.6561 475.844 58.5 468.25 58.5H431.75C424.156 58.5 418 64.6561 418 72.25V78.75C418 82.7541 414.754 86 410.75 86C406.746 86 403.5 89.2459 403.5 93.25V134.25C403.5 137.149 405.851 139.5 408.75 139.5C411.649 139.5 414 141.851 414 144.75V203C414 222.882 430.118 239 450 239Z" stroke="#001AFF" stroke-width="9"/>
<path d="M915.169 45.8485C912.936 42.9908 926.84 18.0955 933.798 23.6699C942.559 30.6882 918.372 47.6979 915.169 45.8485Z" stroke="#0019FF" stroke-width="3"/>
<path d="M906.784 44.0657C903.184 43.6243 895.412 16.189 904.274 15.2104C915.432 13.9784 910.357 43.1084 906.784 44.0657Z" stroke="#0019FF" stroke-width="3"/>
<path d="M915.169 59.2237C912.936 62.0814 926.84 86.9767 933.798 81.4023C942.559 74.3839 918.372 57.3742 915.169 59.2237Z" stroke="#0019FF" stroke-width="3"/>
<path d="M917.184 53.0608C917.626 49.4609 945.061 41.6889 946.04 50.5508C947.272 61.7084 918.142 56.6337 917.184 53.0608Z" stroke="#0019FF" stroke-width="3"/>
</svg>
