<svg width="1058" height="297" viewBox="0 0 1058 297" fill="none" xmlns="http://www.w3.org/2000/svg">
<path d="M82.2922 170.19H69.8722V225H24.5122V57.33H79.3222C98.5822 57.33 112.892 61.74 122.252 70.56C131.612 79.38 136.292 93.87 136.292 114.03C136.292 134.19 131.882 148.59 123.062 157.23C114.242 165.87 100.652 170.19 82.2922 170.19ZM87.4222 133.74C89.0422 130.68 89.8522 125.19 89.8522 117.27C89.8522 109.35 88.9522 103.77 87.1522 100.53C85.3522 97.29 81.7522 95.67 76.3522 95.67H69.8722V138.33H77.4322C82.4722 138.33 85.8022 136.8 87.4222 133.74ZM165.416 159.93C165.416 136.17 169.916 118.98 178.916 108.36C188.096 97.74 202.316 92.43 221.576 92.43C241.016 92.43 255.146 97.65 263.966 108.09C272.786 118.53 277.196 135.72 277.196 159.66C277.196 183.42 272.876 200.7 264.236 211.5C255.596 222.3 241.466 227.7 221.846 227.7C202.226 227.7 187.916 222.3 178.916 211.5C169.916 200.7 165.416 183.51 165.416 159.93ZM230.216 134.28C229.136 130.68 226.256 128.88 221.576 128.88C216.896 128.88 213.926 130.68 212.666 134.28C211.406 137.88 210.776 145.44 210.776 156.96V163.44C210.776 176.22 211.406 184.5 212.666 188.28C213.926 192.06 216.806 193.95 221.306 193.95C225.986 193.95 228.956 192.06 230.216 188.28C231.476 184.5 232.106 176.76 232.106 165.06V157.23C232.106 145.53 231.476 137.88 230.216 134.28ZM357.658 152.37V225H312.838V95.67H352.258L354.958 103.5H356.038C360.178 98.82 364.318 95.85 368.458 94.59C372.778 93.15 379.708 92.43 389.248 92.43L387.358 135.63H374.938C367.918 135.63 363.238 136.71 360.898 138.87C358.738 141.03 357.658 145.53 357.658 152.37ZM491.977 225.27C478.657 226.89 467.047 227.7 457.147 227.7C447.427 227.7 439.777 225.18 434.197 220.14C428.797 214.92 426.097 206.01 426.097 193.41V130.77H413.137V97.29H428.257L430.687 72.45H471.457V97.29H495.487L493.597 130.77H471.187V184.5C471.187 188.28 472.987 190.17 476.587 190.17C476.947 190.17 482.527 189.9 493.327 189.36L491.977 225.27ZM569.03 50.04C580.19 50.04 591.89 50.58 604.13 51.66L600.35 91.08C592.25 90.18 586.31 89.73 582.53 89.73C578.93 89.73 577.13 91.35 577.13 94.59V99.45H599.27L597.11 132.93H577.67V225H532.58V132.93H520.7V99.45H532.58V85.95C532.58 62.01 544.73 50.04 569.03 50.04ZM624.912 159.93C624.912 136.17 629.412 118.98 638.412 108.36C647.592 97.74 661.812 92.43 681.072 92.43C700.512 92.43 714.642 97.65 723.462 108.09C732.282 118.53 736.692 135.72 736.692 159.66C736.692 183.42 732.372 200.7 723.732 211.5C715.092 222.3 700.962 227.7 681.342 227.7C661.722 227.7 647.412 222.3 638.412 211.5C629.412 200.7 624.912 183.51 624.912 159.93ZM689.712 134.28C688.632 130.68 685.752 128.88 681.072 128.88C676.392 128.88 673.422 130.68 672.162 134.28C670.902 137.88 670.272 145.44 670.272 156.96V163.44C670.272 176.22 670.902 184.5 672.162 188.28C673.422 192.06 676.302 193.95 680.802 193.95C685.482 193.95 688.452 192.06 689.712 188.28C690.972 184.5 691.602 176.76 691.602 165.06V157.23C691.602 145.53 690.972 137.88 689.712 134.28ZM772.334 195.3V51.93H816.884V180.99C816.884 184.05 817.514 186.21 818.774 187.47C820.214 188.73 822.644 189.36 826.064 189.36L822.554 227.7H807.704C795.824 227.7 786.914 225.27 780.974 220.41C775.214 215.37 772.334 207 772.334 195.3ZM902.582 225H858.032V97.02H902.582V225ZM861.542 86.76C857.762 83.52 855.872 78.3 855.872 71.1C855.872 63.9 857.762 58.59 861.542 55.17C865.322 51.75 871.532 50.04 880.172 50.04C888.812 50.04 895.022 51.75 898.802 55.17C902.582 58.59 904.472 63.9 904.472 71.1C904.472 78.12 902.582 83.34 898.802 86.76C895.022 90 888.812 91.62 880.172 91.62C871.532 91.62 865.322 90 861.542 86.76ZM939.146 159.93C939.146 136.17 943.646 118.98 952.646 108.36C961.826 97.74 976.046 92.43 995.306 92.43C1014.75 92.43 1028.88 97.65 1037.7 108.09C1046.52 118.53 1050.93 135.72 1050.93 159.66C1050.93 183.42 1046.61 200.7 1037.97 211.5C1029.33 222.3 1015.2 227.7 995.576 227.7C975.956 227.7 961.646 222.3 952.646 211.5C943.646 200.7 939.146 183.51 939.146 159.93ZM1003.95 134.28C1002.87 130.68 999.986 128.88 995.306 128.88C990.626 128.88 987.656 130.68 986.396 134.28C985.136 137.88 984.506 145.44 984.506 156.96V163.44C984.506 176.22 985.136 184.5 986.396 188.28C987.656 192.06 990.536 193.95 995.036 193.95C999.716 193.95 1002.69 192.06 1003.95 188.28C1005.21 184.5 1005.84 176.76 1005.84 165.06V157.23C1005.84 145.53 1005.21 137.88 1003.95 134.28Z" fill="white"/>
<path d="M4.75 63.4149V232C4.75 235.313 7.43629 238 10.75 238H84.25C87.5637 238 90.25 235.313 90.25 232V192.706C90.25 187.724 96.6459 184.112 101.619 184.4C122.64 185.617 154.75 163.027 154.75 115.5C154.75 37.196 76.2376 28.9646 23.0306 39.7539C11.9796 41.9948 4.75 52.1389 4.75 63.4149Z" stroke="#001AFF" stroke-width="9"/>
<path d="M212.25 241H230.25C261.73 241 287.25 215.48 287.25 184V133C287.25 101.52 261.73 76 230.25 76H212.25C180.77 76 155.25 101.52 155.25 133V184C155.25 215.48 180.77 241 212.25 241Z" stroke="#001AFF" stroke-width="9"/>
<path d="M296.25 98V216.5C296.25 228.65 306.1 238.5 318.25 238.5H350.25C362.4 238.5 372.25 228.65 372.25 216.5V162.25C372.25 154.104 378.854 147.5 387 147.5C395.146 147.5 401.75 140.896 401.75 132.75V98C401.75 85.8497 391.9 76 379.75 76H318.25C306.1 76 296.25 85.8497 296.25 98Z" stroke="#001AFF" stroke-width="9"/>
<path d="M449.75 239H483.25C495.4 239 505.25 229.15 505.25 217V190.25C505.25 183.761 499.989 178.5 493.5 178.5C487.011 178.5 481.75 173.239 481.75 166.75V153.75C481.75 146.985 487.235 141.5 494 141.5C500.765 141.5 506.25 136.015 506.25 129.25V98.25C506.25 91.4845 500.765 86 494 86C487.235 86 481.75 80.5155 481.75 73.75V72.25C481.75 64.6561 475.594 58.5 468 58.5H431.5C423.906 58.5 417.75 64.6561 417.75 72.25V78.75C417.75 82.7541 414.504 86 410.5 86C406.496 86 403.25 89.2459 403.25 93.25V134.25C403.25 137.149 405.601 139.5 408.5 139.5C411.399 139.5 413.75 141.851 413.75 144.75V203C413.75 222.882 429.868 239 449.75 239Z" stroke="#001AFF" stroke-width="9"/>
</svg>
