<svg width="72" height="72" viewBox="0 0 72 72" fill="none" xmlns="http://www.w3.org/2000/svg">
<rect x="2.5" y="2.5" width="67" height="67" rx="33.5" stroke="white" stroke-width="5"/>
<path d="M54.6508 38C55.7554 38 56.6508 37.1046 56.6508 36C56.6508 34.8954 55.7554 34 54.6508 34V38ZM15.9354 34.5858C15.1543 35.3668 15.1543 36.6332 15.9354 37.4142L28.6633 50.1421C29.4444 50.9232 30.7107 50.9232 31.4917 50.1421C32.2728 49.3611 32.2728 48.0948 31.4917 47.3137L20.178 36L31.4917 24.6863C32.2728 23.9052 32.2728 22.6389 31.4917 21.8579C30.7107 21.0768 29.4444 21.0768 28.6633 21.8579L15.9354 34.5858ZM54.6508 34H17.3496V38H54.6508V34Z" fill="white"/>
</svg>
