<svg width="511" height="215" viewBox="0 0 511 215" fill="none" xmlns="http://www.w3.org/2000/svg">
<path d="M4.75 32.4149V201C4.75 204.313 7.43629 207 10.75 207H84.25C87.5637 207 90.25 204.313 90.25 201V161.706C90.25 156.724 96.6459 153.112 101.619 153.4C122.64 154.617 154.75 132.027 154.75 84.5C154.75 6.19598 76.2376 -2.03537 23.0306 8.75385C11.9796 10.9948 4.75 21.1389 4.75 32.4149Z" stroke="#001AFF" stroke-width="9"/>
<path d="M212.25 210H230.25C261.73 210 287.25 184.48 287.25 153V102C287.25 70.5198 261.73 45 230.25 45H212.25C180.77 45 155.25 70.5198 155.25 102V153C155.25 184.48 180.77 210 212.25 210Z" stroke="#001AFF" stroke-width="9"/>
<path d="M296.25 67V185.5C296.25 197.65 306.1 207.5 318.25 207.5H350.25C362.4 207.5 372.25 197.65 372.25 185.5V131.25C372.25 123.104 378.854 116.5 387 116.5C395.146 116.5 401.75 109.896 401.75 101.75V67C401.75 54.8497 391.9 45 379.75 45H318.25C306.1 45 296.25 54.8497 296.25 67Z" stroke="#001AFF" stroke-width="9"/>
<path d="M449.75 208H483.25C495.4 208 505.25 198.15 505.25 186V159.25C505.25 152.761 499.989 147.5 493.5 147.5C487.011 147.5 481.75 142.239 481.75 135.75V122.75C481.75 115.985 487.235 110.5 494 110.5C500.765 110.5 506.25 105.015 506.25 98.25V67.25C506.25 60.4845 500.765 55 494 55C487.235 55 481.75 49.5155 481.75 42.75V41.25C481.75 33.6561 475.594 27.5 468 27.5H431.5C423.906 27.5 417.75 33.6561 417.75 41.25V47.75C417.75 51.7541 414.504 55 410.5 55C406.496 55 403.25 58.2459 403.25 62.25V103.25C403.25 106.149 405.601 108.5 408.5 108.5C411.399 108.5 413.75 110.851 413.75 113.75V172C413.75 191.882 429.868 208 449.75 208Z" stroke="#001AFF" stroke-width="9"/>
</svg>
