<svg width="252" height="298" viewBox="0 0 252 298" fill="none" xmlns="http://www.w3.org/2000/svg">
<path d="M266.169 297.289C267.826 297.289 269.169 295.946 269.169 294.289C269.169 292.632 267.826 291.289 266.169 291.289L266.169 297.289ZM145.279 166.993L144.141 164.217L145.279 166.993ZM104.637 58.6388L102.452 60.6944L102.452 60.6944L104.637 58.6388ZM1.05184 20.1636C-0.121967 21.3329 -0.125594 23.2324 1.04374 24.4062L20.0991 43.5345C21.2685 44.7083 23.168 44.7119 24.3418 43.5426C25.5156 42.3733 25.5192 40.4738 24.3499 39.3L7.41174 22.297L24.4147 5.35892C25.5885 4.18958 25.5921 2.29009 24.4228 1.11628C23.2534 -0.0575237 21.354 -0.0611508 20.1801 1.10818L1.05184 20.1636ZM266.169 291.289C251.68 291.289 238.245 283.449 225.754 271.141C213.282 258.851 202.103 242.45 192.144 226.09C187.173 217.924 182.535 209.817 178.2 202.271C173.877 194.746 169.841 187.755 166.116 181.907C162.418 176.1 158.898 171.211 155.576 168.012C152.437 164.99 148.4 162.471 144.141 164.217L146.417 169.769C147.021 169.521 148.456 169.485 151.414 172.334C154.189 175.006 157.391 179.377 161.056 185.13C164.694 190.842 168.661 197.711 172.998 205.26C177.322 212.787 182.001 220.966 187.019 229.21C197.039 245.671 208.528 262.59 221.543 275.414C234.539 288.22 249.409 297.289 266.169 297.289L266.169 291.289ZM144.141 164.217C136.693 167.271 133.157 172.675 133.463 178.553C133.754 184.114 137.467 189.231 142.566 192.099C147.774 195.029 154.641 195.764 161.528 192.397C168.357 189.059 174.856 181.872 179.951 169.646L174.413 167.338C169.662 178.739 163.98 184.52 158.893 187.006C153.866 189.464 149.083 188.881 145.507 186.87C141.822 184.797 139.617 181.349 139.455 178.24C139.309 175.448 140.786 172.077 146.417 169.769L144.141 164.217ZM179.951 169.646C185.482 156.374 180.68 143.477 171.322 132.746C161.98 122.033 147.747 112.985 133.005 106.824C118.28 100.669 102.647 97.2271 90.368 98.0896C84.2295 98.5208 78.6477 100.048 74.4642 103.135C70.159 106.312 67.5741 110.973 67.2902 117.018L73.2836 117.299C73.4854 113.001 75.2206 110.034 78.0269 107.963C80.9549 105.802 85.2759 104.462 90.7885 104.075C101.812 103.3 116.473 106.417 130.691 112.359C144.892 118.295 158.249 126.883 166.8 136.689C175.335 146.477 178.729 156.981 174.413 167.338L179.951 169.646ZM67.2902 117.018C67.0434 122.273 68.0491 126.541 70.5372 129.461C73.1127 132.483 76.7802 133.493 80.5308 133.217C87.7625 132.683 96.3855 127.381 103.426 119.963C110.561 112.446 116.598 102.218 118.264 91.0131C119.948 79.679 117.12 67.5297 106.822 56.5833L102.452 60.6944C111.453 70.2628 113.752 80.5569 112.329 90.1308C110.886 99.8339 105.58 108.978 99.0741 115.833C92.4736 122.787 85.1575 126.859 80.089 127.233C77.6896 127.41 76.1168 126.758 75.104 125.569C74.0037 124.278 73.0729 121.786 73.2836 117.299L67.2902 117.018ZM106.822 56.5833C75.0297 22.788 30.9282 19.3419 3.17484 19.2889L3.16338 25.2889C30.6777 25.3415 72.4876 28.8424 102.452 60.6944L106.822 56.5833Z" fill="#001AFF"/>
</svg>
