<svg width="176" height="96" viewBox="0 0 176 96" fill="none" xmlns="http://www.w3.org/2000/svg">
<path d="M1.50463 75.6541C0.068232 74.8283 -0.426761 72.9944 0.39903 71.558C1.22482 70.1216 3.05869 69.6266 4.49508 70.4524L1.50463 75.6541ZM158.655 1.16269C160.125 0.398352 161.936 0.970422 162.7 2.44044L175.156 26.3958C175.92 27.8658 175.348 29.6771 173.878 30.4414C172.408 31.2058 170.597 30.6337 169.832 29.1637L158.761 7.87005L137.467 18.9417C135.997 19.706 134.186 19.1339 133.421 17.6639C132.657 16.1939 133.229 14.3826 134.699 13.6183L158.655 1.16269ZM4.49508 70.4524C40.5706 91.1924 72.1636 94.4845 97.7968 82.9273C123.514 71.3322 144.07 44.4221 157.178 2.92088L162.899 4.7279C149.522 47.084 128.149 75.8242 100.263 88.397C72.2931 101.008 38.6092 96.9857 1.50463 75.6541L4.49508 70.4524Z" fill="#001AFF"/>
</svg>
