<svg width="328" height="235" viewBox="0 0 328 235" fill="none" xmlns="http://www.w3.org/2000/svg">
<path d="M46.3049 217.864C46.5822 217.864 46.7955 217.992 46.9449 218.248C47.1155 218.504 47.2009 218.856 47.2009 219.304C47.2009 220.115 46.9982 220.776 46.5929 221.288C45.8675 222.184 45.0249 222.941 44.0649 223.56C43.1262 224.157 42.1449 224.595 41.1209 224.872C41.9529 225.576 42.3689 226.536 42.3689 227.752C42.3689 228.755 42.1235 229.651 41.6329 230.44C41.1635 231.251 40.4702 231.88 39.5529 232.328C38.6569 232.776 37.6009 233 36.3849 233C35.5742 233 34.9129 232.947 34.4009 232.84C33.5689 232.691 33.1529 232.221 33.1529 231.432C33.1529 230.472 33.5795 229.992 34.4329 229.992C34.6035 229.992 34.7422 230.003 34.8489 230.024C35.4249 230.109 35.9902 230.152 36.5449 230.152C37.3982 230.152 38.0595 229.971 38.5289 229.608C39.0195 229.267 39.2649 228.733 39.2649 228.008C39.2649 227.475 39.0302 227.048 38.5609 226.728C38.1129 226.429 37.4942 226.28 36.7049 226.28C36.1502 226.28 35.7235 226.205 35.4249 226.056C35.1262 225.907 34.9769 225.651 34.9769 225.288C34.9769 225.16 34.9875 225.064 35.0089 225C35.0729 224.68 35.1689 224.445 35.2969 224.296C34.3369 223.784 33.6009 223.037 33.0889 222.056C32.5769 221.075 32.3209 219.955 32.3209 218.696C32.3209 216.968 32.6622 215.453 33.3449 214.152C34.0275 212.851 34.9129 211.848 36.0009 211.144C37.0889 210.44 38.2302 210.088 39.4249 210.088C40.5982 210.088 41.5049 210.44 42.1449 211.144C42.8062 211.827 43.1369 212.712 43.1369 213.8C43.1369 214.696 42.9342 215.453 42.5289 216.072C42.1449 216.691 41.6329 217 40.9929 217C40.5875 217 40.2569 216.904 40.0009 216.712C39.7662 216.52 39.6489 216.253 39.6489 215.912C39.6489 215.763 39.6702 215.592 39.7129 215.4C39.7555 215.208 39.7875 215.069 39.8089 214.984C39.9155 214.664 39.9689 214.365 39.9689 214.088C39.9689 213.811 39.8942 213.597 39.7449 213.448C39.6169 213.299 39.4249 213.224 39.1689 213.224C38.6782 213.224 38.2195 213.448 37.7929 213.896C37.3662 214.323 37.0249 214.909 36.7689 215.656C36.5129 216.403 36.3849 217.224 36.3849 218.12C36.3849 220.595 37.4622 221.832 39.6169 221.832C40.4915 221.832 41.4302 221.544 42.4329 220.968C43.4569 220.371 44.4595 219.485 45.4409 218.312C45.6969 218.013 45.9849 217.864 46.3049 217.864ZM47.9816 225.16C46.7656 225.16 45.7736 224.68 45.0056 223.72C44.259 222.76 43.8856 221.501 43.8856 219.944C43.8856 218.237 44.2803 216.627 45.0696 215.112C45.859 213.576 46.9043 212.349 48.2056 211.432C49.5283 210.493 50.9256 210.024 52.3976 210.024C52.867 210.024 53.1763 210.12 53.3256 210.312C53.4963 210.483 53.635 210.803 53.7416 211.272C54.147 211.187 54.595 211.144 55.0856 211.144C55.5976 211.144 55.9923 211.272 56.2696 211.528C56.547 211.784 56.6856 212.147 56.6856 212.616C56.6856 213.107 56.579 213.96 56.3656 215.176C56.131 216.477 55.9496 217.725 55.8216 218.92C55.6936 220.093 55.6296 221.416 55.6296 222.888C55.6296 223.699 55.459 224.285 55.1176 224.648C54.7976 224.989 54.2643 225.16 53.5176 225.16C52.7923 225.16 52.2483 224.989 51.8856 224.648C51.5443 224.285 51.3736 223.709 51.3736 222.92L51.4056 222.408C50.7443 224.243 49.603 225.16 47.9816 225.16ZM49.2296 221.928C49.827 221.928 50.371 221.512 50.8616 220.68C51.3523 219.848 51.7896 218.365 52.1736 216.232L52.7816 213C51.907 213.021 51.0963 213.363 50.3496 214.024C49.603 214.664 49.0056 215.517 48.5576 216.584C48.1096 217.651 47.8856 218.781 47.8856 219.976C47.8856 220.616 48.003 221.107 48.2376 221.448C48.4936 221.768 48.8243 221.928 49.2296 221.928ZM83.2666 215.272C83.3306 215.251 83.4373 215.24 83.5866 215.24C83.9066 215.24 84.152 215.347 84.3226 215.56C84.4933 215.773 84.5786 216.061 84.5786 216.424C84.5786 217.085 84.4506 217.608 84.1946 217.992C83.9386 218.355 83.5546 218.621 83.0426 218.792C82.0613 219.112 81.016 219.272 79.9066 219.272C78.968 219.272 78.0826 219.144 77.2506 218.888C76.632 219.891 75.9493 220.925 75.2026 221.992C74.3493 223.208 73.6133 224.04 72.9946 224.488C72.376 224.936 71.672 225.16 70.8826 225.16C70.008 225.16 69.3146 224.819 68.8026 224.136C68.312 223.453 68.0026 222.376 67.8746 220.904C67.6186 217.917 67.4906 215.304 67.4906 213.064V211.944C67.512 211.24 67.704 210.749 68.0666 210.472C68.4293 210.195 68.9733 210.056 69.6986 210.056C70.2533 210.056 70.6586 210.184 70.9146 210.44C71.192 210.675 71.3306 211.08 71.3306 211.656C71.3306 214.109 71.48 217.299 71.7786 221.224C73.0586 219.325 74.0186 217.811 74.6586 216.68C74.3386 216.061 74.1786 215.325 74.1786 214.472C74.1786 213.747 74.3386 213.043 74.6586 212.36C74.9786 211.677 75.416 211.123 75.9706 210.696C76.5253 210.269 77.1546 210.056 77.8586 210.056C78.4773 210.056 78.9786 210.28 79.3626 210.728C79.7466 211.155 79.9386 211.784 79.9386 212.616C79.9386 213.576 79.6826 214.675 79.1706 215.912C79.9813 215.869 81.0586 215.709 82.4026 215.432L83.2666 215.272ZM98.1216 215.176C98.399 215.176 98.6123 215.315 98.7616 215.592C98.911 215.869 98.9856 216.221 98.9856 216.648C98.9856 217.672 98.6763 218.28 98.0576 218.472C96.7776 218.92 95.3696 219.176 93.8336 219.24C93.4283 221.032 92.6283 222.472 91.4336 223.56C90.239 224.627 88.8843 225.16 87.3696 225.16C86.0896 225.16 84.991 224.851 84.0736 224.232C83.1776 223.613 82.495 222.792 82.0256 221.768C81.5563 220.744 81.3216 219.635 81.3216 218.44C81.3216 216.819 81.631 215.379 82.2496 214.12C82.8683 212.84 83.7216 211.848 84.8096 211.144C85.8976 210.419 87.103 210.056 88.4256 210.056C90.047 210.056 91.3483 210.621 92.3296 211.752C93.3323 212.861 93.919 214.237 94.0896 215.88C95.0923 215.816 96.287 215.603 97.6736 215.24C97.8443 215.197 97.9936 215.176 98.1216 215.176ZM87.6256 221.768C88.3083 221.768 88.895 221.491 89.3856 220.936C89.8976 220.381 90.239 219.581 90.4096 218.536C89.7483 218.088 89.2363 217.501 88.8736 216.776C88.5323 216.051 88.3616 215.283 88.3616 214.472C88.3616 214.131 88.3936 213.789 88.4576 213.448H88.2976C87.4443 213.448 86.7296 213.864 86.1536 214.696C85.599 215.507 85.3216 216.659 85.3216 218.152C85.3216 219.325 85.5456 220.221 85.9936 220.84C86.463 221.459 87.007 221.768 87.6256 221.768ZM99.5031 225.16C98.5431 225.16 97.7538 224.723 97.1351 223.848C96.5378 222.952 96.2391 221.843 96.2391 220.52C96.2391 218.92 96.3458 217.459 96.5591 216.136C96.7725 214.792 97.1245 213.373 97.6151 211.88C97.8285 211.24 98.1271 210.781 98.5111 210.504C98.8951 210.227 99.5031 210.088 100.335 210.088C100.804 210.088 101.124 210.163 101.295 210.312C101.487 210.461 101.583 210.685 101.583 210.984C101.583 211.155 101.466 211.731 101.231 212.712C101.018 213.501 100.847 214.216 100.719 214.856C100.292 217.096 100.079 218.589 100.079 219.336C100.079 219.784 100.132 220.104 100.239 220.296C100.346 220.467 100.516 220.552 100.751 220.552C101.071 220.552 101.466 220.232 101.935 219.592C102.426 218.952 102.938 217.981 103.471 216.68C104.026 215.379 104.559 213.779 105.071 211.88C105.242 211.24 105.498 210.781 105.839 210.504C106.202 210.227 106.735 210.088 107.439 210.088C107.93 210.088 108.271 210.152 108.463 210.28C108.655 210.387 108.751 210.6 108.751 210.92C108.751 211.453 108.484 212.915 107.951 215.304C107.354 218.035 107.055 219.72 107.055 220.36C107.055 220.765 107.14 221.085 107.311 221.32C107.482 221.533 107.706 221.64 107.983 221.64C108.41 221.64 108.911 221.384 109.487 220.872C110.084 220.339 110.874 219.485 111.855 218.312C112.111 218.013 112.399 217.864 112.719 217.864C112.996 217.864 113.21 217.992 113.359 218.248C113.53 218.504 113.615 218.856 113.615 219.304C113.615 220.157 113.412 220.819 113.007 221.288C112.09 222.419 111.098 223.347 110.031 224.072C108.986 224.797 107.791 225.16 106.447 225.16C105.423 225.16 104.666 224.765 104.175 223.976C103.706 223.187 103.471 222.077 103.471 220.648C103.108 222.099 102.564 223.219 101.839 224.008C101.114 224.776 100.335 225.16 99.5031 225.16ZM116.972 225.864C115.863 225.864 115.01 225.608 114.412 225.096C113.836 224.584 113.548 224.008 113.548 223.368C113.548 222.813 113.751 222.333 114.156 221.928C114.562 221.523 115.159 221.32 115.948 221.32C116.226 221.32 116.546 221.352 116.908 221.416C117.292 221.459 117.58 221.491 117.772 221.512C117.751 220.957 117.623 220.435 117.388 219.944C117.175 219.453 116.898 218.984 116.556 218.536C116.215 218.067 115.895 217.661 115.596 217.32C114.935 218.579 114.274 219.624 113.612 220.456C112.972 221.288 112.268 222.077 111.5 222.824C111.116 223.208 110.711 223.4 110.284 223.4C109.943 223.4 109.666 223.283 109.452 223.048C109.239 222.792 109.132 222.483 109.132 222.12C109.132 221.693 109.282 221.299 109.58 220.936L109.996 220.424C111.17 218.973 112.055 217.779 112.652 216.84C113.036 216.221 113.42 215.485 113.804 214.632C114.21 213.779 114.732 212.616 115.372 211.144C115.778 210.205 116.62 209.736 117.9 209.736C118.498 209.736 118.914 209.789 119.148 209.896C119.383 210.003 119.5 210.173 119.5 210.408C119.5 210.536 119.458 210.739 119.372 211.016C119.287 211.293 119.17 211.571 119.02 211.848C118.636 212.616 118.444 213.267 118.444 213.8C118.444 214.12 118.551 214.472 118.764 214.856C118.999 215.24 119.351 215.72 119.82 216.296C120.503 217.192 121.015 217.96 121.356 218.6C121.719 219.219 121.9 219.901 121.9 220.648C121.9 221.544 121.687 222.397 121.26 223.208C120.855 223.997 120.279 224.637 119.532 225.128C118.786 225.619 117.932 225.864 116.972 225.864ZM136.275 207.976C135.379 207.976 134.707 207.773 134.259 207.368C133.811 206.941 133.587 206.355 133.587 205.608C133.587 204.861 133.875 204.243 134.451 203.752C135.048 203.24 135.784 202.984 136.659 202.984C137.448 202.984 138.088 203.176 138.579 203.56C139.07 203.944 139.315 204.488 139.315 205.192C139.315 206.045 139.038 206.728 138.483 207.24C137.928 207.731 137.192 207.976 136.275 207.976ZM136.019 225.16C134.632 225.16 133.619 224.669 132.979 223.688C132.36 222.707 132.051 221.405 132.051 219.784C132.051 218.824 132.168 217.597 132.403 216.104C132.659 214.589 132.979 213.181 133.363 211.88C133.555 211.197 133.811 210.728 134.131 210.472C134.451 210.216 134.963 210.088 135.667 210.088C136.755 210.088 137.299 210.451 137.299 211.176C137.299 211.709 137.096 212.947 136.691 214.888C136.179 217.235 135.923 218.824 135.923 219.656C135.923 220.296 136.008 220.787 136.179 221.128C136.35 221.469 136.638 221.64 137.043 221.64C137.427 221.64 137.907 221.373 138.483 220.84C139.059 220.307 139.827 219.464 140.787 218.312C141.043 218.013 141.331 217.864 141.651 217.864C141.928 217.864 142.142 217.992 142.291 218.248C142.462 218.504 142.547 218.856 142.547 219.304C142.547 220.157 142.344 220.819 141.939 221.288C139.827 223.869 137.854 225.16 136.019 225.16ZM142.23 225.16C141.419 225.16 140.843 224.733 140.502 223.88C140.182 223.027 140.022 221.661 140.022 219.784C140.022 217.011 140.417 214.376 141.206 211.88C141.398 211.261 141.707 210.813 142.134 210.536C142.582 210.237 143.201 210.088 143.99 210.088C144.417 210.088 144.715 210.141 144.886 210.248C145.057 210.355 145.142 210.557 145.142 210.856C145.142 211.197 144.982 211.965 144.662 213.16C144.449 214.013 144.278 214.76 144.15 215.4C144.022 216.04 143.915 216.829 143.83 217.768C144.534 215.933 145.323 214.44 146.198 213.288C147.073 212.136 147.926 211.315 148.758 210.824C149.611 210.333 150.39 210.088 151.094 210.088C152.481 210.088 153.174 210.781 153.174 212.168C153.174 213 152.939 214.504 152.47 216.68C152.065 218.536 151.862 219.763 151.862 220.36C151.862 221.213 152.171 221.64 152.79 221.64C153.217 221.64 153.718 221.384 154.294 220.872C154.891 220.339 155.681 219.485 156.662 218.312C156.918 218.013 157.206 217.864 157.526 217.864C157.803 217.864 158.017 217.992 158.166 218.248C158.337 218.504 158.422 218.856 158.422 219.304C158.422 220.157 158.219 220.819 157.814 221.288C156.897 222.419 155.905 223.347 154.838 224.072C153.793 224.797 152.598 225.16 151.254 225.16C150.166 225.16 149.345 224.851 148.79 224.232C148.235 223.592 147.958 222.675 147.958 221.48C147.958 220.883 148.107 219.816 148.406 218.28C148.683 216.936 148.822 216.008 148.822 215.496C148.822 215.155 148.705 214.984 148.47 214.984C148.193 214.984 147.798 215.347 147.286 216.072C146.795 216.776 146.283 217.715 145.75 218.888C145.238 220.061 144.822 221.299 144.502 222.6C144.267 223.603 143.99 224.285 143.67 224.648C143.371 224.989 142.891 225.16 142.23 225.16ZM170.105 217.864C170.382 217.864 170.596 217.992 170.745 218.248C170.916 218.504 171.001 218.856 171.001 219.304C171.001 220.157 170.798 220.819 170.393 221.288C169.476 222.419 168.473 223.347 167.385 224.072C166.297 224.797 165.049 225.16 163.641 225.16C159.289 225.16 157.113 222.099 157.113 215.976C157.113 215.037 157.145 214.088 157.209 213.128H155.961C155.321 213.128 154.884 213.011 154.649 212.776C154.436 212.541 154.329 212.168 154.329 211.656C154.329 210.461 154.809 209.864 155.769 209.864H157.593C157.956 207.517 158.51 205.373 159.257 203.432C160.004 201.491 160.9 199.944 161.945 198.792C163.012 197.64 164.153 197.064 165.369 197.064C166.265 197.064 166.969 197.459 167.481 198.248C167.993 199.037 168.249 200.029 168.249 201.224C168.249 204.531 166.862 207.411 164.089 209.864H167.673C168.014 209.864 168.26 209.939 168.409 210.088C168.558 210.237 168.633 210.515 168.633 210.92C168.633 212.392 167.428 213.128 165.017 213.128H161.113C161.07 214.195 161.049 215.027 161.049 215.624C161.049 217.843 161.305 219.4 161.817 220.296C162.35 221.192 163.182 221.64 164.313 221.64C165.23 221.64 166.041 221.363 166.745 220.808C167.449 220.253 168.281 219.421 169.241 218.312C169.497 218.013 169.785 217.864 170.105 217.864ZM164.505 200.136C164.185 200.136 163.822 200.541 163.417 201.352C163.033 202.141 162.66 203.251 162.297 204.68C161.956 206.088 161.668 207.656 161.433 209.384C162.692 208.296 163.63 207.08 164.249 205.736C164.889 204.371 165.209 203.133 165.209 202.024C165.209 200.765 164.974 200.136 164.505 200.136ZM182.667 217.864C182.945 217.864 183.158 217.992 183.307 218.248C183.478 218.504 183.563 218.856 183.563 219.304C183.563 220.157 183.361 220.819 182.955 221.288C182.166 222.248 181.046 223.133 179.595 223.944C178.166 224.755 176.63 225.16 174.987 225.16C172.747 225.16 171.009 224.552 169.771 223.336C168.534 222.12 167.915 220.456 167.915 218.344C167.915 216.872 168.225 215.507 168.843 214.248C169.462 212.968 170.315 211.955 171.403 211.208C172.513 210.461 173.761 210.088 175.147 210.088C176.385 210.088 177.377 210.461 178.123 211.208C178.87 211.933 179.243 212.925 179.243 214.184C179.243 215.656 178.71 216.925 177.643 217.992C176.598 219.037 174.817 219.869 172.299 220.488C172.833 221.469 173.846 221.96 175.339 221.96C176.299 221.96 177.387 221.629 178.603 220.968C179.841 220.285 180.907 219.4 181.803 218.312C182.059 218.013 182.347 217.864 182.667 217.864ZM174.603 213.224C173.814 213.224 173.142 213.683 172.587 214.6C172.054 215.517 171.787 216.627 171.787 217.928V217.992C173.046 217.693 174.038 217.245 174.763 216.648C175.489 216.051 175.851 215.357 175.851 214.568C175.851 214.163 175.734 213.843 175.499 213.608C175.286 213.352 174.987 213.224 174.603 213.224ZM175.435 207.976C175.137 207.976 174.87 207.869 174.635 207.656C174.422 207.421 174.315 207.144 174.315 206.824C174.315 206.675 174.369 206.472 174.475 206.216L177.451 199.56C177.643 199.133 177.889 198.824 178.187 198.632C178.507 198.419 178.859 198.312 179.243 198.312C179.777 198.312 180.246 198.504 180.651 198.888C181.078 199.272 181.291 199.752 181.291 200.328C181.291 200.925 181.057 201.523 180.587 202.12L176.459 207.432C176.182 207.795 175.841 207.976 175.435 207.976ZM183.23 225.16C182.419 225.16 181.843 224.733 181.502 223.88C181.182 223.027 181.022 221.661 181.022 219.784C181.022 217.011 181.417 214.376 182.206 211.88C182.398 211.261 182.707 210.813 183.134 210.536C183.582 210.237 184.201 210.088 184.99 210.088C185.417 210.088 185.715 210.141 185.886 210.248C186.057 210.355 186.142 210.557 186.142 210.856C186.142 211.197 185.982 211.965 185.662 213.16C185.449 214.013 185.278 214.76 185.15 215.4C185.022 216.04 184.915 216.829 184.83 217.768C185.534 215.933 186.323 214.44 187.198 213.288C188.073 212.136 188.926 211.315 189.758 210.824C190.611 210.333 191.39 210.088 192.094 210.088C193.481 210.088 194.174 210.781 194.174 212.168C194.174 212.445 194.078 213.117 193.886 214.184C193.715 215.037 193.63 215.571 193.63 215.784C193.63 216.531 193.897 216.904 194.43 216.904C195.027 216.904 195.795 216.435 196.734 215.496C197.011 215.219 197.299 215.08 197.598 215.08C197.875 215.08 198.089 215.208 198.238 215.464C198.409 215.699 198.494 216.019 198.494 216.424C198.494 217.213 198.281 217.832 197.854 218.28C197.257 218.899 196.553 219.432 195.742 219.88C194.953 220.307 194.11 220.52 193.214 220.52C192.083 220.52 191.219 220.232 190.622 219.656C190.046 219.08 189.758 218.301 189.758 217.32C189.758 217 189.79 216.68 189.854 216.36C189.897 215.933 189.918 215.645 189.918 215.496C189.918 215.155 189.801 214.984 189.566 214.984C189.246 214.984 188.819 215.347 188.286 216.072C187.774 216.776 187.262 217.715 186.75 218.888C186.238 220.061 185.822 221.299 185.502 222.6C185.267 223.603 184.99 224.285 184.67 224.648C184.371 224.989 183.891 225.16 183.23 225.16ZM209.792 217.864C210.07 217.864 210.283 217.992 210.432 218.248C210.603 218.504 210.688 218.856 210.688 219.304C210.688 220.157 210.486 220.819 210.08 221.288C209.291 222.248 208.171 223.133 206.72 223.944C205.291 224.755 203.755 225.16 202.112 225.16C199.872 225.16 198.134 224.552 196.896 223.336C195.659 222.12 195.04 220.456 195.04 218.344C195.04 216.872 195.35 215.507 195.968 214.248C196.587 212.968 197.44 211.955 198.528 211.208C199.638 210.461 200.886 210.088 202.272 210.088C203.51 210.088 204.502 210.461 205.248 211.208C205.995 211.933 206.368 212.925 206.368 214.184C206.368 215.656 205.835 216.925 204.768 217.992C203.723 219.037 201.942 219.869 199.424 220.488C199.958 221.469 200.971 221.96 202.464 221.96C203.424 221.96 204.512 221.629 205.728 220.968C206.966 220.285 208.032 219.4 208.928 218.312C209.184 218.013 209.472 217.864 209.792 217.864ZM201.728 213.224C200.939 213.224 200.267 213.683 199.712 214.6C199.179 215.517 198.912 216.627 198.912 217.928V217.992C200.171 217.693 201.163 217.245 201.888 216.648C202.614 216.051 202.976 215.357 202.976 214.568C202.976 214.163 202.859 213.843 202.624 213.608C202.411 213.352 202.112 213.224 201.728 213.224ZM214.035 225.864C212.926 225.864 212.072 225.608 211.475 225.096C210.899 224.584 210.611 224.008 210.611 223.368C210.611 222.813 210.814 222.333 211.219 221.928C211.624 221.523 212.222 221.32 213.011 221.32C213.288 221.32 213.608 221.352 213.971 221.416C214.355 221.459 214.643 221.491 214.835 221.512C214.814 220.957 214.686 220.435 214.451 219.944C214.238 219.453 213.96 218.984 213.619 218.536C213.278 218.067 212.958 217.661 212.659 217.32C211.998 218.579 211.336 219.624 210.675 220.456C210.035 221.288 209.331 222.077 208.563 222.824C208.179 223.208 207.774 223.4 207.347 223.4C207.006 223.4 206.728 223.283 206.515 223.048C206.302 222.792 206.195 222.483 206.195 222.12C206.195 221.693 206.344 221.299 206.643 220.936L207.059 220.424C208.232 218.973 209.118 217.779 209.715 216.84C210.078 216.221 210.504 215.4 210.995 214.376C211.486 213.331 211.966 212.253 212.435 211.144C212.84 210.205 213.683 209.736 214.963 209.736C215.56 209.736 215.976 209.789 216.211 209.896C216.446 210.003 216.563 210.173 216.563 210.408C216.563 210.536 216.52 210.739 216.435 211.016C216.35 211.293 216.232 211.571 216.083 211.848C215.699 212.616 215.507 213.267 215.507 213.8C215.507 214.12 215.614 214.472 215.827 214.856C216.062 215.24 216.414 215.72 216.883 216.296C217.566 217.192 218.078 217.96 218.419 218.6C218.782 219.219 218.963 219.901 218.963 220.648C218.963 220.861 218.942 221.16 218.899 221.544C219.944 221.139 221.171 220.061 222.579 218.312C222.835 218.013 223.123 217.864 223.443 217.864C223.72 217.864 223.934 217.992 224.083 218.248C224.254 218.504 224.339 218.856 224.339 219.304C224.339 220.115 224.136 220.776 223.731 221.288C222.664 222.611 221.64 223.517 220.659 224.008C219.699 224.477 218.504 224.733 217.075 224.776C216.222 225.501 215.208 225.864 214.035 225.864ZM227.691 225.864C226.582 225.864 225.728 225.608 225.131 225.096C224.555 224.584 224.267 224.008 224.267 223.368C224.267 222.813 224.47 222.333 224.875 221.928C225.28 221.523 225.878 221.32 226.667 221.32C226.944 221.32 227.264 221.352 227.627 221.416C228.011 221.459 228.299 221.491 228.491 221.512C228.47 220.957 228.342 220.435 228.107 219.944C227.894 219.453 227.616 218.984 227.275 218.536C226.934 218.067 226.614 217.661 226.315 217.32C225.654 218.579 224.992 219.624 224.331 220.456C223.691 221.288 222.987 222.077 222.219 222.824C221.835 223.208 221.43 223.4 221.003 223.4C220.662 223.4 220.384 223.283 220.171 223.048C219.958 222.792 219.851 222.483 219.851 222.12C219.851 221.693 220 221.299 220.299 220.936L220.715 220.424C221.888 218.973 222.774 217.779 223.371 216.84C223.734 216.221 224.16 215.4 224.651 214.376C225.142 213.331 225.622 212.253 226.091 211.144C226.496 210.205 227.339 209.736 228.619 209.736C229.216 209.736 229.632 209.789 229.867 209.896C230.102 210.003 230.219 210.173 230.219 210.408C230.219 210.536 230.176 210.739 230.091 211.016C230.006 211.293 229.888 211.571 229.739 211.848C229.355 212.616 229.163 213.267 229.163 213.8C229.163 214.12 229.27 214.472 229.483 214.856C229.718 215.24 230.07 215.72 230.539 216.296C231.222 217.192 231.734 217.96 232.075 218.6C232.438 219.219 232.619 219.901 232.619 220.648C232.619 220.861 232.598 221.16 232.555 221.544C233.6 221.139 234.827 220.061 236.235 218.312C236.491 218.013 236.779 217.864 237.099 217.864C237.376 217.864 237.59 217.992 237.739 218.248C237.91 218.504 237.995 218.856 237.995 219.304C237.995 220.115 237.792 220.776 237.387 221.288C236.32 222.611 235.296 223.517 234.315 224.008C233.355 224.477 232.16 224.733 230.731 224.776C229.878 225.501 228.864 225.864 227.691 225.864ZM246.851 218.824C247.129 218.824 247.342 218.952 247.491 219.208C247.662 219.464 247.747 219.816 247.747 220.264C247.747 221.032 247.566 221.693 247.203 222.248C246.606 223.165 245.817 223.88 244.835 224.392C243.875 224.904 242.723 225.16 241.379 225.16C239.331 225.16 237.742 224.552 236.611 223.336C235.481 222.099 234.915 220.435 234.915 218.344C234.915 216.872 235.225 215.507 235.843 214.248C236.462 212.968 237.315 211.955 238.403 211.208C239.513 210.461 240.761 210.088 242.147 210.088C243.385 210.088 244.377 210.461 245.123 211.208C245.87 211.933 246.243 212.925 246.243 214.184C246.243 215.656 245.71 216.925 244.643 217.992C243.598 219.037 241.806 219.869 239.267 220.488C239.779 221.469 240.643 221.96 241.859 221.96C242.734 221.96 243.449 221.757 244.003 221.352C244.579 220.947 245.241 220.264 245.987 219.304C246.243 218.984 246.531 218.824 246.851 218.824ZM241.603 213.224C240.814 213.224 240.142 213.683 239.587 214.6C239.054 215.517 238.787 216.627 238.787 217.928V217.992C240.046 217.693 241.038 217.245 241.763 216.648C242.489 216.051 242.851 215.357 242.851 214.568C242.851 214.163 242.734 213.843 242.499 213.608C242.286 213.352 241.987 213.224 241.603 213.224ZM261.596 217.512C261.212 217.512 260.903 217.405 260.668 217.192C260.434 216.957 260.327 216.584 260.348 216.072C260.434 214.728 260.754 213.533 261.308 212.488C261.863 211.443 262.791 210.269 264.092 208.968C265.308 207.773 266.183 206.76 266.716 205.928C267.25 205.096 267.516 204.232 267.516 203.336C267.516 201.864 266.695 201.128 265.052 201.128C264.071 201.128 263.324 201.352 262.812 201.8C262.3 202.227 262.044 202.771 262.044 203.432L262.076 204.744C262.076 205.107 261.938 205.427 261.66 205.704C261.404 205.96 260.988 206.088 260.412 206.088C259.751 206.088 259.239 205.896 258.876 205.512C258.535 205.107 258.364 204.541 258.364 203.816C258.364 202.749 258.62 201.779 259.132 200.904C259.666 200.008 260.466 199.293 261.532 198.76C262.599 198.227 263.911 197.96 265.468 197.96C267.58 197.96 269.212 198.419 270.364 199.336C271.538 200.232 272.124 201.533 272.124 203.24C272.124 204.584 271.783 205.8 271.1 206.888C270.418 207.976 269.394 209.107 268.028 210.28C266.876 211.261 266.002 212.061 265.404 212.68C264.807 213.299 264.37 213.843 264.092 214.312C263.836 214.76 263.623 215.283 263.452 215.88C263.303 216.435 263.058 216.851 262.716 217.128C262.396 217.384 262.023 217.512 261.596 217.512ZM260.38 225.16C259.442 225.16 258.727 224.904 258.236 224.392C257.767 223.88 257.532 223.208 257.532 222.376C257.532 221.416 257.799 220.648 258.332 220.072C258.887 219.496 259.655 219.208 260.636 219.208C261.575 219.208 262.279 219.443 262.748 219.912C263.239 220.36 263.484 221.032 263.484 221.928C263.484 222.909 263.207 223.699 262.652 224.296C262.098 224.872 261.34 225.16 260.38 225.16Z" fill="#001AFF"/>
<path d="M323.32 233.851C324.342 234.779 325.923 234.703 326.851 233.68C327.779 232.658 327.703 231.077 326.68 230.149L323.32 233.851ZM211.4 39.7737L209.152 38.6805L209.152 38.6805L211.4 39.7737ZM211.4 176.839L211.083 174.36L211.4 176.839ZM41.7911 0.628471C40.4813 0.191555 39.0654 0.899135 38.6285 2.20889L31.5085 23.5527C31.0716 24.8624 31.7792 26.2784 33.0889 26.7153C34.3987 27.1522 35.8147 26.4446 36.2516 25.1349L42.5804 6.16264L61.5527 12.4915C62.8624 12.9284 64.2784 12.2208 64.7153 10.9111C65.1522 9.6013 64.4446 8.18534 63.1349 7.74842L41.7911 0.628471ZM326.68 230.149C302.825 208.501 268.552 172.953 243.27 136.713C230.625 118.587 220.307 100.397 214.633 83.7636C208.942 67.0837 208.054 52.3723 213.648 40.8669L209.152 38.6805C202.717 51.9138 204.029 68.1675 209.901 85.378C215.788 102.635 226.394 121.261 239.17 139.574C264.73 176.213 299.285 212.04 323.32 233.851L326.68 230.149ZM213.648 40.8669C217.324 33.3081 220.884 30.4658 223.7 29.955C226.389 29.4673 229.615 30.9241 233.197 35.2768C240.308 43.9186 246.643 61.5015 249.648 81.7206C252.641 101.86 252.246 124.051 246.381 141.707C240.54 159.291 229.445 172.014 211.083 174.36L211.717 179.319C232.613 176.65 244.907 162.002 251.126 143.283C257.321 124.634 257.656 101.59 254.593 80.9855C251.543 60.4611 245.034 41.7926 237.058 32.0997C233.096 27.2851 228.218 24.0538 222.808 25.0353C217.525 25.9935 212.994 30.7777 209.152 38.6805L213.648 40.8669ZM211.083 174.36C196.235 176.256 180.265 170.578 163.979 159.607C147.72 148.655 131.426 132.612 116.044 114.304C85.2861 77.6949 58.491 32.409 43.2363 1.88247L38.7637 4.11753C54.1365 34.8805 81.1343 80.526 112.216 117.52C127.754 136.014 144.391 152.44 161.186 163.754C177.952 175.049 195.158 181.434 211.717 179.319L211.083 174.36Z" fill="#001AFF"/>
</svg>
