<svg width="46" height="82" viewBox="0 0 46 82" fill="none" xmlns="http://www.w3.org/2000/svg">
<path d="M25.1213 0.87868C23.9498 -0.292893 22.0503 -0.292893 20.8787 0.878679L1.7868 19.9706C0.615229 21.1421 0.615229 23.0416 1.7868 24.2132C2.95837 25.3848 4.85787 25.3848 6.02944 24.2132L23 7.24264L39.9706 24.2132C41.1421 25.3848 43.0416 25.3848 44.2132 24.2132C45.3848 23.0416 45.3848 21.1421 44.2132 19.9706L25.1213 0.87868ZM20 79C20 80.6569 21.3431 82 23 82C24.6569 82 26 80.6569 26 79L20 79ZM20 3L20 79L26 79L26 3L20 3Z" fill="#001AFF"/>
</svg>
