<svg width="135" height="114" viewBox="0 0 135 114" fill="none" xmlns="http://www.w3.org/2000/svg">
<path d="M134.287 4.94204C135.359 3.67919 135.205 1.78597 133.942 0.713409C132.679 -0.359147 130.786 -0.204885 129.713 1.05796L134.287 4.94204ZM52.5278 48.5L52.9057 51.4761L52.5278 48.5ZM20.9777 113.193C22.1886 114.323 24.087 114.259 25.2178 113.048L43.6468 93.3151C44.7777 92.1042 44.7128 90.2058 43.5019 89.0749C42.291 87.944 40.3927 88.0089 39.2618 89.2198L22.8805 106.76L5.34043 90.3786C4.12954 89.2477 2.23115 89.3125 1.10026 90.5234C-0.030632 91.7343 0.0342178 93.6327 1.24511 94.7636L20.9777 113.193ZM129.713 1.05796C114.408 19.0794 101.078 29.3715 88.6484 35.5654C76.2204 41.7584 64.4961 43.9561 52.1499 45.5239L52.9057 51.4761C65.4862 49.8786 77.998 47.5763 91.3244 40.9356C104.649 34.2959 118.592 23.4206 134.287 4.94204L129.713 1.05796ZM52.1499 45.5239C43.2417 46.655 36.7749 51.6705 32.1727 58.2301C27.6153 64.7259 24.7996 72.8365 23.0384 80.585C21.2698 88.3656 20.5203 95.9825 20.2098 101.632C20.0542 104.463 20.0081 106.815 20.001 108.466C19.9975 109.291 20.0037 109.942 20.011 110.391C20.0146 110.615 20.0185 110.789 20.0215 110.908C20.0231 110.968 20.0244 111.015 20.0253 111.047C20.0258 111.063 20.0262 111.076 20.0265 111.085C20.0267 111.09 20.0268 111.094 20.0269 111.097C20.0269 111.098 20.027 111.099 20.027 111.1C20.027 111.101 20.0271 111.102 23.0253 111C26.0236 110.898 26.0236 110.898 26.0236 110.898C26.0236 110.898 26.0236 110.898 26.0236 110.898C26.0236 110.897 26.0235 110.896 26.0234 110.893C26.0233 110.888 26.023 110.88 26.0227 110.868C26.022 110.844 26.0209 110.807 26.0196 110.756C26.017 110.654 26.0135 110.499 26.0102 110.294C26.0036 109.883 25.9976 109.273 26.001 108.491C26.0077 106.927 26.0515 104.677 26.2008 101.962C26.5 96.5175 27.2197 89.2594 28.8891 81.9149C30.5658 74.5385 33.1569 67.2741 37.0845 61.6761C40.9672 56.1419 46.0635 52.3449 52.9057 51.4761L52.1499 45.5239Z" fill="#001AFF"/>
</svg>
