<svg width="456" height="121" viewBox="0 0 456 121" fill="none" xmlns="http://www.w3.org/2000/svg">
<path d="M132.488 90.864C131.379 90.864 130.525 90.608 129.928 90.096C129.352 89.584 129.064 89.008 129.064 88.368C129.064 87.8133 129.267 87.3333 129.672 86.928C130.077 86.5227 130.675 86.32 131.464 86.32C131.741 86.32 132.061 86.352 132.424 86.416C132.808 86.4587 133.096 86.4907 133.288 86.512C133.267 85.9573 133.139 85.4347 132.904 84.944C132.691 84.4533 132.413 83.984 132.072 83.536C131.731 83.0667 131.411 82.6613 131.112 82.32C130.451 83.5787 129.789 84.624 129.128 85.456C128.488 86.288 127.784 87.0773 127.016 87.824C126.632 88.208 126.227 88.4 125.8 88.4C125.459 88.4 125.181 88.2827 124.968 88.048C124.755 87.792 124.648 87.4827 124.648 87.12C124.648 86.6933 124.797 86.2987 125.096 85.936L125.512 85.424C126.685 83.9733 127.571 82.7787 128.168 81.84C128.531 81.2213 128.957 80.4 129.448 79.376C129.939 78.3307 130.419 77.2533 130.888 76.144C131.293 75.2053 132.136 74.736 133.416 74.736C134.013 74.736 134.429 74.7893 134.664 74.896C134.899 75.0027 135.016 75.1733 135.016 75.408C135.016 75.536 134.973 75.7387 134.888 76.016C134.803 76.2933 134.685 76.5707 134.536 76.848C134.152 77.616 133.96 78.2667 133.96 78.8C133.96 79.12 134.067 79.472 134.28 79.856C134.515 80.24 134.867 80.72 135.336 81.296C136.019 82.192 136.531 82.96 136.872 83.6C137.235 84.2187 137.416 84.9013 137.416 85.648C137.416 85.8613 137.395 86.16 137.352 86.544C138.397 86.1387 139.624 85.0613 141.032 83.312C141.288 83.0133 141.576 82.864 141.896 82.864C142.173 82.864 142.387 82.992 142.536 83.248C142.707 83.504 142.792 83.856 142.792 84.304C142.792 85.1147 142.589 85.776 142.184 86.288C141.117 87.6107 140.093 88.5173 139.112 89.008C138.152 89.4773 136.957 89.7333 135.528 89.776C134.675 90.5013 133.661 90.864 132.488 90.864ZM154.464 82.864C154.742 82.864 154.955 82.992 155.104 83.248C155.275 83.504 155.36 83.856 155.36 84.304C155.36 85.1573 155.158 85.8187 154.752 86.288C153.963 87.248 152.843 88.1333 151.392 88.944C149.963 89.7547 148.427 90.16 146.784 90.16C144.544 90.16 142.806 89.552 141.568 88.336C140.331 87.12 139.712 85.456 139.712 83.344C139.712 81.872 140.022 80.5067 140.64 79.248C141.259 77.968 142.112 76.9547 143.2 76.208C144.31 75.4613 145.558 75.088 146.944 75.088C148.182 75.088 149.174 75.4613 149.92 76.208C150.667 76.9333 151.04 77.9253 151.04 79.184C151.04 80.656 150.507 81.9253 149.44 82.992C148.395 84.0373 146.614 84.8693 144.096 85.488C144.63 86.4693 145.643 86.96 147.136 86.96C148.096 86.96 149.184 86.6293 150.4 85.968C151.638 85.2853 152.704 84.4 153.6 83.312C153.856 83.0133 154.144 82.864 154.464 82.864ZM146.4 78.224C145.611 78.224 144.939 78.6827 144.384 79.6C143.851 80.5173 143.584 81.6267 143.584 82.928V82.992C144.843 82.6933 145.835 82.2453 146.56 81.648C147.286 81.0507 147.648 80.3573 147.648 79.568C147.648 79.1627 147.531 78.8427 147.296 78.608C147.083 78.352 146.784 78.224 146.4 78.224ZM158.867 90.16C156.776 90.16 155.144 89.5733 153.971 88.4C152.819 87.2053 152.243 85.6373 152.243 83.696C152.243 81.968 152.584 80.4533 153.267 79.152C153.949 77.8507 154.835 76.848 155.923 76.144C157.011 75.44 158.152 75.088 159.347 75.088C160.52 75.088 161.427 75.44 162.067 76.144C162.728 76.8267 163.059 77.712 163.059 78.8C163.059 79.696 162.856 80.4533 162.451 81.072C162.067 81.6907 161.555 82 160.915 82C160.509 82 160.179 81.904 159.923 81.712C159.688 81.52 159.571 81.2533 159.571 80.912C159.571 80.7627 159.592 80.592 159.635 80.4C159.677 80.208 159.709 80.0693 159.731 79.984C159.837 79.664 159.891 79.3653 159.891 79.088C159.891 78.8107 159.816 78.5973 159.667 78.448C159.539 78.2987 159.347 78.224 159.091 78.224C158.6 78.224 158.141 78.448 157.715 78.896C157.288 79.3227 156.947 79.9093 156.691 80.656C156.435 81.4027 156.307 82.224 156.307 83.12C156.307 85.5947 157.384 86.832 159.539 86.832C160.413 86.832 161.352 86.544 162.355 85.968C163.379 85.3707 164.381 84.4853 165.363 83.312C165.619 83.0133 165.907 82.864 166.227 82.864C166.504 82.864 166.717 82.992 166.867 83.248C167.037 83.504 167.123 83.856 167.123 84.304C167.123 85.1147 166.92 85.776 166.515 86.288C165.512 87.5253 164.307 88.4853 162.899 89.168C161.512 89.8293 160.168 90.16 158.867 90.16ZM178.964 82.864C179.242 82.864 179.455 82.992 179.604 83.248C179.775 83.504 179.86 83.856 179.86 84.304C179.86 85.1573 179.658 85.8187 179.252 86.288C178.335 87.4187 177.332 88.3467 176.244 89.072C175.156 89.7973 173.908 90.16 172.5 90.16C168.148 90.16 165.972 87.0987 165.972 80.976C165.972 80.0373 166.004 79.088 166.068 78.128H164.82C164.18 78.128 163.743 78.0107 163.508 77.776C163.295 77.5413 163.188 77.168 163.188 76.656C163.188 75.4613 163.668 74.864 164.628 74.864H166.452C166.815 72.5173 167.37 70.3733 168.116 68.432C168.863 66.4907 169.759 64.944 170.804 63.792C171.871 62.64 173.012 62.064 174.228 62.064C175.124 62.064 175.828 62.4587 176.34 63.248C176.852 64.0373 177.108 65.0293 177.108 66.224C177.108 69.5307 175.722 72.4107 172.948 74.864H176.532C176.874 74.864 177.119 74.9387 177.268 75.088C177.418 75.2373 177.492 75.5147 177.492 75.92C177.492 77.392 176.287 78.128 173.876 78.128H169.972C169.93 79.1947 169.908 80.0267 169.908 80.624C169.908 82.8427 170.164 84.4 170.676 85.296C171.21 86.192 172.042 86.64 173.172 86.64C174.09 86.64 174.9 86.3627 175.604 85.808C176.308 85.2533 177.14 84.4213 178.1 83.312C178.356 83.0133 178.644 82.864 178.964 82.864ZM173.364 65.136C173.044 65.136 172.682 65.5413 172.276 66.352C171.892 67.1413 171.519 68.2507 171.156 69.68C170.815 71.088 170.527 72.656 170.292 74.384C171.551 73.296 172.49 72.08 173.108 70.736C173.748 69.3707 174.068 68.1333 174.068 67.024C174.068 65.7653 173.834 65.136 173.364 65.136ZM181.447 72.976C180.551 72.976 179.879 72.7733 179.431 72.368C178.983 71.9413 178.759 71.3547 178.759 70.608C178.759 69.8613 179.047 69.2427 179.623 68.752C180.22 68.24 180.956 67.984 181.831 67.984C182.62 67.984 183.26 68.176 183.751 68.56C184.241 68.944 184.487 69.488 184.487 70.192C184.487 71.0453 184.209 71.728 183.655 72.24C183.1 72.7307 182.364 72.976 181.447 72.976ZM181.191 90.16C179.804 90.16 178.791 89.6693 178.151 88.688C177.532 87.7067 177.223 86.4053 177.223 84.784C177.223 83.824 177.34 82.5973 177.575 81.104C177.831 79.5893 178.151 78.1813 178.535 76.88C178.727 76.1973 178.983 75.728 179.303 75.472C179.623 75.216 180.135 75.088 180.839 75.088C181.927 75.088 182.471 75.4507 182.471 76.176C182.471 76.7093 182.268 77.9467 181.863 79.888C181.351 82.2347 181.095 83.824 181.095 84.656C181.095 85.296 181.18 85.7867 181.351 86.128C181.521 86.4693 181.809 86.64 182.215 86.64C182.599 86.64 183.079 86.3733 183.655 85.84C184.231 85.3067 184.999 84.464 185.959 83.312C186.215 83.0133 186.503 82.864 186.823 82.864C187.1 82.864 187.313 82.992 187.463 83.248C187.633 83.504 187.719 83.856 187.719 84.304C187.719 85.1573 187.516 85.8187 187.111 86.288C184.999 88.8693 183.025 90.16 181.191 90.16ZM201.45 80.176C201.727 80.176 201.94 80.3147 202.09 80.592C202.239 80.8693 202.314 81.2213 202.314 81.648C202.314 82.672 202.004 83.28 201.386 83.472C200.106 83.92 198.698 84.176 197.162 84.24C196.756 86.032 195.956 87.472 194.762 88.56C193.567 89.6267 192.212 90.16 190.698 90.16C189.418 90.16 188.319 89.8507 187.402 89.232C186.506 88.6133 185.823 87.792 185.354 86.768C184.884 85.744 184.65 84.6347 184.65 83.44C184.65 81.8187 184.959 80.3787 185.578 79.12C186.196 77.84 187.05 76.848 188.138 76.144C189.226 75.4187 190.431 75.056 191.754 75.056C193.375 75.056 194.676 75.6213 195.658 76.752C196.66 77.8613 197.247 79.2373 197.418 80.88C198.42 80.816 199.615 80.6027 201.002 80.24C201.172 80.1973 201.322 80.176 201.45 80.176ZM190.954 86.768C191.636 86.768 192.223 86.4907 192.714 85.936C193.226 85.3813 193.567 84.5813 193.738 83.536C193.076 83.088 192.564 82.5013 192.202 81.776C191.86 81.0507 191.69 80.2827 191.69 79.472C191.69 79.1307 191.722 78.7893 191.786 78.448H191.626C190.772 78.448 190.058 78.864 189.482 79.696C188.927 80.5067 188.65 81.6587 188.65 83.152C188.65 84.3253 188.874 85.2213 189.322 85.84C189.791 86.4587 190.335 86.768 190.954 86.768ZM201.839 90.16C201.029 90.16 200.453 89.7333 200.111 88.88C199.791 88.0267 199.631 86.6613 199.631 84.784C199.631 82.0107 200.026 79.376 200.815 76.88C201.007 76.2613 201.317 75.8133 201.743 75.536C202.191 75.2373 202.81 75.088 203.599 75.088C204.026 75.088 204.325 75.1413 204.495 75.248C204.666 75.3547 204.751 75.5573 204.751 75.856C204.751 76.1973 204.591 76.9653 204.271 78.16C204.058 79.0133 203.887 79.76 203.759 80.4C203.631 81.04 203.525 81.8293 203.439 82.768C204.143 80.9333 204.933 79.44 205.807 78.288C206.682 77.136 207.535 76.3147 208.367 75.824C209.221 75.3333 209.999 75.088 210.703 75.088C212.09 75.088 212.783 75.7813 212.783 77.168C212.783 78 212.549 79.504 212.079 81.68C211.674 83.536 211.471 84.7627 211.471 85.36C211.471 86.2133 211.781 86.64 212.399 86.64C212.826 86.64 213.327 86.384 213.903 85.872C214.501 85.3387 215.29 84.4853 216.271 83.312C216.527 83.0133 216.815 82.864 217.135 82.864C217.413 82.864 217.626 82.992 217.775 83.248C217.946 83.504 218.031 83.856 218.031 84.304C218.031 85.1573 217.829 85.8187 217.423 86.288C216.506 87.4187 215.514 88.3467 214.447 89.072C213.402 89.7973 212.207 90.16 210.863 90.16C209.775 90.16 208.954 89.8507 208.399 89.232C207.845 88.592 207.567 87.6747 207.567 86.48C207.567 85.8827 207.717 84.816 208.015 83.28C208.293 81.936 208.431 81.008 208.431 80.496C208.431 80.1547 208.314 79.984 208.079 79.984C207.802 79.984 207.407 80.3467 206.895 81.072C206.405 81.776 205.893 82.7147 205.359 83.888C204.847 85.0613 204.431 86.2987 204.111 87.6C203.877 88.6027 203.599 89.2853 203.279 89.648C202.981 89.9893 202.501 90.16 201.839 90.16ZM221.394 90.864C220.285 90.864 219.432 90.608 218.834 90.096C218.258 89.584 217.97 89.008 217.97 88.368C217.97 87.8133 218.173 87.3333 218.578 86.928C218.984 86.5227 219.581 86.32 220.37 86.32C220.648 86.32 220.968 86.352 221.33 86.416C221.714 86.4587 222.002 86.4907 222.194 86.512C222.173 85.9573 222.045 85.4347 221.81 84.944C221.597 84.4533 221.32 83.984 220.978 83.536C220.637 83.0667 220.317 82.6613 220.018 82.32C219.357 83.5787 218.696 84.624 218.034 85.456C217.394 86.288 216.69 87.0773 215.922 87.824C215.538 88.208 215.133 88.4 214.706 88.4C214.365 88.4 214.088 88.2827 213.874 88.048C213.661 87.792 213.554 87.4827 213.554 87.12C213.554 86.6933 213.704 86.2987 214.002 85.936L214.418 85.424C215.592 83.9733 216.477 82.7787 217.074 81.84C217.458 81.2213 217.842 80.4853 218.226 79.632C218.632 78.7787 219.154 77.616 219.794 76.144C220.2 75.2053 221.042 74.736 222.322 74.736C222.92 74.736 223.336 74.7893 223.57 74.896C223.805 75.0027 223.922 75.1733 223.922 75.408C223.922 75.536 223.88 75.7387 223.794 76.016C223.709 76.2933 223.592 76.5707 223.442 76.848C223.058 77.616 222.866 78.2667 222.866 78.8C222.866 79.12 222.973 79.472 223.186 79.856C223.421 80.24 223.773 80.72 224.242 81.296C224.925 82.192 225.437 82.96 225.778 83.6C226.141 84.2187 226.322 84.9013 226.322 85.648C226.322 86.544 226.109 87.3973 225.682 88.208C225.277 88.9973 224.701 89.6373 223.954 90.128C223.208 90.6187 222.354 90.864 221.394 90.864ZM254.681 82.864C254.958 82.864 255.171 82.992 255.321 83.248C255.491 83.504 255.577 83.856 255.577 84.304C255.577 85.1573 255.374 85.8187 254.969 86.288C254.094 87.3547 253.134 88.272 252.089 89.04C251.043 89.7867 250.009 90.16 248.985 90.16C247.363 90.16 246.126 89.2107 245.273 87.312C244.377 88.4427 243.587 89.2 242.905 89.584C242.243 89.968 241.465 90.16 240.569 90.16C239.267 90.16 238.19 89.68 237.337 88.72C236.505 87.7387 236.089 86.4693 236.089 84.912C236.089 83.2053 236.451 81.6267 237.177 80.176C237.902 78.704 238.894 77.5093 240.153 76.592C241.433 75.6533 242.862 75.0987 244.441 74.928C244.846 70.7893 245.614 67.2587 246.745 64.336C247.897 61.392 249.401 59.92 251.257 59.92C252.174 59.92 252.931 60.336 253.529 61.168C254.147 62 254.457 63.2587 254.457 64.944C254.457 67.3333 253.87 70.128 252.697 73.328C251.523 76.528 249.955 79.8133 247.993 83.184C248.078 84.4213 248.259 85.3067 248.537 85.84C248.835 86.3733 249.209 86.64 249.657 86.64C250.233 86.64 250.819 86.384 251.417 85.872C252.014 85.36 252.814 84.5067 253.817 83.312C254.073 83.0133 254.361 82.864 254.681 82.864ZM250.905 63.056C250.499 63.056 250.094 63.7813 249.689 65.232C249.283 66.6613 248.931 68.5387 248.633 70.864C248.355 73.1893 248.153 75.6213 248.025 78.16C250.414 72.9547 251.609 68.7733 251.609 65.616C251.609 64.8053 251.534 64.176 251.385 63.728C251.257 63.28 251.097 63.056 250.905 63.056ZM241.689 86.928C242.094 86.928 242.499 86.768 242.905 86.448C243.31 86.1067 243.822 85.488 244.441 84.592C244.227 83.44 244.121 82.1493 244.121 80.72C244.121 80.208 244.142 79.376 244.185 78.224C243.011 78.5867 242.03 79.376 241.241 80.592C240.473 81.7867 240.089 83.12 240.089 84.592C240.089 86.1493 240.622 86.928 241.689 86.928ZM256.302 90.16C255.299 90.16 254.488 89.7547 253.87 88.944C253.272 88.112 252.974 86.9707 252.974 85.52C252.974 83.92 253.08 82.4587 253.294 81.136C253.507 79.792 253.859 78.3733 254.35 76.88C254.563 76.24 254.862 75.7813 255.246 75.504C255.63 75.2267 256.238 75.088 257.07 75.088C257.539 75.088 257.859 75.1627 258.03 75.312C258.222 75.4613 258.318 75.6853 258.318 75.984C258.318 76.1547 258.2 76.7307 257.966 77.712C257.752 78.5013 257.582 79.216 257.454 79.856C257.027 82.096 256.814 83.5893 256.814 84.336C256.814 84.784 256.867 85.104 256.974 85.296C257.08 85.4667 257.251 85.552 257.486 85.552C257.806 85.552 258.211 85.232 258.702 84.592C259.192 83.9307 259.704 82.9493 260.238 81.648C260.792 80.3253 261.315 78.736 261.806 76.88C261.976 76.24 262.232 75.7813 262.574 75.504C262.936 75.2267 263.47 75.088 264.174 75.088C264.643 75.088 264.974 75.216 265.166 75.472C265.379 75.7067 265.486 76.0693 265.486 76.56C265.486 77.0933 265.443 77.6907 265.358 78.352C265.272 78.992 265.176 79.6533 265.07 80.336C264.856 81.7013 264.686 82.9493 264.558 84.08C264.43 85.1893 264.366 86.4587 264.366 87.888C264.366 88.6987 264.195 89.2853 263.854 89.648C263.534 89.9893 263 90.16 262.254 90.16C261.464 90.16 260.91 89.9573 260.59 89.552C260.291 89.1253 260.142 88.3147 260.142 87.12C260.142 86.8853 260.163 86.3627 260.206 85.552C259.843 87.0453 259.299 88.1867 258.574 88.976C257.87 89.7653 257.112 90.16 256.302 90.16ZM282.113 90.864C281.004 90.864 280.15 90.608 279.553 90.096C278.977 89.584 278.689 89.008 278.689 88.368C278.689 87.8133 278.892 87.3333 279.297 86.928C279.702 86.5227 280.3 86.32 281.089 86.32C281.366 86.32 281.686 86.352 282.049 86.416C282.433 86.4587 282.721 86.4907 282.913 86.512C282.892 85.9573 282.764 85.4347 282.529 84.944C282.316 84.4533 282.038 83.984 281.697 83.536C281.356 83.0667 281.036 82.6613 280.737 82.32C280.076 83.5787 279.414 84.624 278.753 85.456C278.113 86.288 277.409 87.0773 276.641 87.824C276.257 88.208 275.852 88.4 275.425 88.4C275.084 88.4 274.806 88.2827 274.593 88.048C274.38 87.792 274.273 87.4827 274.273 87.12C274.273 86.6933 274.422 86.2987 274.721 85.936L275.137 85.424C276.31 83.9733 277.196 82.7787 277.793 81.84C278.156 81.2213 278.582 80.4 279.073 79.376C279.564 78.3307 280.044 77.2533 280.513 76.144C280.918 75.2053 281.761 74.736 283.041 74.736C283.638 74.736 284.054 74.7893 284.289 74.896C284.524 75.0027 284.641 75.1733 284.641 75.408C284.641 75.536 284.598 75.7387 284.513 76.016C284.428 76.2933 284.31 76.5707 284.161 76.848C283.777 77.616 283.585 78.2667 283.585 78.8C283.585 79.12 283.692 79.472 283.905 79.856C284.14 80.24 284.492 80.72 284.961 81.296C285.644 82.192 286.156 82.96 286.497 83.6C286.86 84.2187 287.041 84.9013 287.041 85.648C287.041 85.8613 287.02 86.16 286.977 86.544C288.022 86.1387 289.249 85.0613 290.657 83.312C290.913 83.0133 291.201 82.864 291.521 82.864C291.798 82.864 292.012 82.992 292.161 83.248C292.332 83.504 292.417 83.856 292.417 84.304C292.417 85.1147 292.214 85.776 291.809 86.288C290.742 87.6107 289.718 88.5173 288.737 89.008C287.777 89.4773 286.582 89.7333 285.153 89.776C284.3 90.5013 283.286 90.864 282.113 90.864ZM294.009 72.976C293.113 72.976 292.441 72.7733 291.993 72.368C291.545 71.9413 291.321 71.3547 291.321 70.608C291.321 69.8613 291.609 69.2427 292.185 68.752C292.783 68.24 293.519 67.984 294.393 67.984C295.183 67.984 295.823 68.176 296.313 68.56C296.804 68.944 297.049 69.488 297.049 70.192C297.049 71.0453 296.772 71.728 296.217 72.24C295.663 72.7307 294.927 72.976 294.009 72.976ZM293.753 90.16C292.367 90.16 291.353 89.6693 290.713 88.688C290.095 87.7067 289.785 86.4053 289.785 84.784C289.785 83.824 289.903 82.5973 290.137 81.104C290.393 79.5893 290.713 78.1813 291.097 76.88C291.289 76.1973 291.545 75.728 291.865 75.472C292.185 75.216 292.697 75.088 293.401 75.088C294.489 75.088 295.033 75.4507 295.033 76.176C295.033 76.7093 294.831 77.9467 294.425 79.888C293.913 82.2347 293.657 83.824 293.657 84.656C293.657 85.296 293.743 85.7867 293.913 86.128C294.084 86.4693 294.372 86.64 294.777 86.64C295.161 86.64 295.641 86.3733 296.217 85.84C296.793 85.3067 297.561 84.464 298.521 83.312C298.777 83.0133 299.065 82.864 299.385 82.864C299.663 82.864 299.876 82.992 300.025 83.248C300.196 83.504 300.281 83.856 300.281 84.304C300.281 85.1573 300.079 85.8187 299.673 86.288C297.561 88.8693 295.588 90.16 293.753 90.16ZM311.964 82.864C312.242 82.864 312.455 82.992 312.604 83.248C312.775 83.504 312.86 83.856 312.86 84.304C312.86 85.1573 312.658 85.8187 312.252 86.288C311.335 87.4187 310.332 88.3467 309.244 89.072C308.156 89.7973 306.908 90.16 305.5 90.16C301.148 90.16 298.972 87.0987 298.972 80.976C298.972 80.0373 299.004 79.088 299.068 78.128H297.82C297.18 78.128 296.743 78.0107 296.508 77.776C296.295 77.5413 296.188 77.168 296.188 76.656C296.188 75.4613 296.668 74.864 297.628 74.864H299.452C299.815 72.5173 300.37 70.3733 301.116 68.432C301.863 66.4907 302.759 64.944 303.804 63.792C304.871 62.64 306.012 62.064 307.228 62.064C308.124 62.064 308.828 62.4587 309.34 63.248C309.852 64.0373 310.108 65.0293 310.108 66.224C310.108 69.5307 308.722 72.4107 305.948 74.864H309.532C309.874 74.864 310.119 74.9387 310.268 75.088C310.418 75.2373 310.492 75.5147 310.492 75.92C310.492 77.392 309.287 78.128 306.876 78.128H302.972C302.93 79.1947 302.908 80.0267 302.908 80.624C302.908 82.8427 303.164 84.4 303.676 85.296C304.21 86.192 305.042 86.64 306.172 86.64C307.09 86.64 307.9 86.3627 308.604 85.808C309.308 85.2533 310.14 84.4213 311.1 83.312C311.356 83.0133 311.644 82.864 311.964 82.864ZM306.364 65.136C306.044 65.136 305.682 65.5413 305.276 66.352C304.892 67.1413 304.519 68.2507 304.156 69.68C303.815 71.088 303.527 72.656 303.292 74.384C304.551 73.296 305.49 72.08 306.108 70.736C306.748 69.3707 307.068 68.1333 307.068 67.024C307.068 65.7653 306.834 65.136 306.364 65.136ZM321.711 83.824C321.988 83.824 322.201 83.952 322.351 84.208C322.521 84.464 322.607 84.816 322.607 85.264C322.607 86.032 322.425 86.6933 322.063 87.248C321.465 88.1653 320.676 88.88 319.695 89.392C318.735 89.904 317.583 90.16 316.239 90.16C314.191 90.16 312.601 89.552 311.471 88.336C310.34 87.0987 309.775 85.4347 309.775 83.344C309.775 81.872 310.084 80.5067 310.703 79.248C311.321 77.968 312.175 76.9547 313.263 76.208C314.372 75.4613 315.62 75.088 317.007 75.088C318.244 75.088 319.236 75.4613 319.983 76.208C320.729 76.9333 321.103 77.9253 321.103 79.184C321.103 80.656 320.569 81.9253 319.503 82.992C318.457 84.0373 316.665 84.8693 314.127 85.488C314.639 86.4693 315.503 86.96 316.719 86.96C317.593 86.96 318.308 86.7573 318.863 86.352C319.439 85.9467 320.1 85.264 320.847 84.304C321.103 83.984 321.391 83.824 321.711 83.824ZM316.463 78.224C315.673 78.224 315.001 78.6827 314.447 79.6C313.913 80.5173 313.647 81.6267 313.647 82.928V82.992C314.905 82.6933 315.897 82.2453 316.623 81.648C317.348 81.0507 317.711 80.3573 317.711 79.568C317.711 79.1627 317.593 78.8427 317.359 78.608C317.145 78.352 316.847 78.224 316.463 78.224ZM348.968 82.864C349.245 82.864 349.458 82.992 349.608 83.248C349.778 83.504 349.864 83.856 349.864 84.304C349.864 85.1573 349.661 85.8187 349.256 86.288C348.338 87.4187 347.346 88.3467 346.28 89.072C345.234 89.7973 344.04 90.16 342.696 90.16C341.565 90.16 340.648 89.7547 339.944 88.944C338.728 89.7333 337.458 90.1387 336.136 90.16C335.858 94.2773 335.229 97.712 334.248 100.464C333.266 103.237 331.826 104.624 329.928 104.624C328.776 104.624 327.922 104.208 327.368 103.376C326.813 102.544 326.536 101.392 326.536 99.92C326.536 97.8293 327.016 95.3867 327.976 92.592C328.936 89.8187 330.418 86.7573 332.424 83.408C332.424 80.2933 332.402 78.128 332.36 76.912C332.338 76.2933 332.584 75.8027 333.096 75.44C333.608 75.0773 334.248 74.896 335.016 74.896C335.464 74.896 335.784 74.992 335.976 75.184C336.189 75.3547 336.306 75.7067 336.328 76.24C336.328 76.7733 336.338 77.168 336.36 77.424C337.042 76.5707 337.714 75.9627 338.376 75.6C339.037 75.216 339.741 75.024 340.488 75.024C341.682 75.024 342.653 75.504 343.4 76.464C344.168 77.424 344.552 78.6827 344.552 80.24C344.552 81.3707 344.37 82.4693 344.008 83.536C343.645 84.6027 343.144 85.5733 342.504 86.448C342.952 86.576 343.325 86.64 343.624 86.64C344.328 86.64 345 86.384 345.64 85.872C346.28 85.36 347.101 84.5067 348.104 83.312C348.36 83.0133 348.648 82.864 348.968 82.864ZM336.296 87.088C337.064 86.9173 337.768 86.5013 338.408 85.84C339.069 85.1573 339.592 84.3253 339.976 83.344C340.36 82.3413 340.552 81.296 340.552 80.208C340.552 79.568 340.424 79.088 340.168 78.768C339.912 78.4267 339.57 78.256 339.144 78.256C338.376 78.256 337.448 79.0667 336.36 80.688C336.338 81.6267 336.328 83.0027 336.328 84.816C336.328 85.7973 336.317 86.5547 336.296 87.088ZM330.184 101.488C330.76 101.488 331.24 100.229 331.624 97.712C332.008 95.216 332.253 92.1013 332.36 88.368C331.442 90.5013 330.717 92.5387 330.184 94.48C329.65 96.4213 329.384 98.0533 329.384 99.376C329.384 100.059 329.469 100.581 329.64 100.944C329.789 101.307 329.97 101.488 330.184 101.488ZM349.558 90.16C348.747 90.16 348.171 89.7333 347.83 88.88C347.51 88.0267 347.35 86.6613 347.35 84.784C347.35 82.0107 347.745 79.376 348.534 76.88C348.726 76.2613 349.035 75.8133 349.462 75.536C349.91 75.2373 350.529 75.088 351.318 75.088C351.745 75.088 352.043 75.1413 352.214 75.248C352.385 75.3547 352.47 75.5573 352.47 75.856C352.47 76.1973 352.31 76.9653 351.99 78.16C351.777 79.0133 351.606 79.76 351.478 80.4C351.35 81.04 351.243 81.8293 351.158 82.768C351.862 80.9333 352.651 79.44 353.526 78.288C354.401 77.136 355.254 76.3147 356.086 75.824C356.939 75.3333 357.718 75.088 358.422 75.088C359.809 75.088 360.502 75.7813 360.502 77.168C360.502 77.4453 360.406 78.1173 360.214 79.184C360.043 80.0373 359.958 80.5707 359.958 80.784C359.958 81.5307 360.225 81.904 360.758 81.904C361.355 81.904 362.123 81.4347 363.062 80.496C363.339 80.2187 363.627 80.08 363.926 80.08C364.203 80.08 364.417 80.208 364.566 80.464C364.737 80.6987 364.822 81.0187 364.822 81.424C364.822 82.2133 364.609 82.832 364.182 83.28C363.585 83.8987 362.881 84.432 362.07 84.88C361.281 85.3067 360.438 85.52 359.542 85.52C358.411 85.52 357.547 85.232 356.95 84.656C356.374 84.08 356.086 83.3013 356.086 82.32C356.086 82 356.118 81.68 356.182 81.36C356.225 80.9333 356.246 80.6453 356.246 80.496C356.246 80.1547 356.129 79.984 355.894 79.984C355.574 79.984 355.147 80.3467 354.614 81.072C354.102 81.776 353.59 82.7147 353.078 83.888C352.566 85.0613 352.15 86.2987 351.83 87.6C351.595 88.6027 351.318 89.2853 350.998 89.648C350.699 89.9893 350.219 90.16 349.558 90.16ZM378.169 80.176C378.446 80.176 378.659 80.3147 378.809 80.592C378.958 80.8693 379.033 81.2213 379.033 81.648C379.033 82.672 378.723 83.28 378.105 83.472C376.825 83.92 375.417 84.176 373.881 84.24C373.475 86.032 372.675 87.472 371.481 88.56C370.286 89.6267 368.931 90.16 367.417 90.16C366.137 90.16 365.038 89.8507 364.121 89.232C363.225 88.6133 362.542 87.792 362.073 86.768C361.603 85.744 361.368 84.6347 361.368 83.44C361.368 81.8187 361.678 80.3787 362.297 79.12C362.915 77.84 363.769 76.848 364.857 76.144C365.945 75.4187 367.15 75.056 368.473 75.056C370.094 75.056 371.395 75.6213 372.377 76.752C373.379 77.8613 373.966 79.2373 374.137 80.88C375.139 80.816 376.334 80.6027 377.721 80.24C377.891 80.1973 378.041 80.176 378.169 80.176ZM367.673 86.768C368.355 86.768 368.942 86.4907 369.433 85.936C369.945 85.3813 370.286 84.5813 370.457 83.536C369.795 83.088 369.283 82.5013 368.921 81.776C368.579 81.0507 368.409 80.2827 368.409 79.472C368.409 79.1307 368.441 78.7893 368.505 78.448H368.345C367.491 78.448 366.777 78.864 366.201 79.696C365.646 80.5067 365.369 81.6587 365.369 83.152C365.369 84.3253 365.593 85.2213 366.041 85.84C366.51 86.4587 367.054 86.768 367.673 86.768ZM393.374 82.864C393.651 82.864 393.865 82.992 394.014 83.248C394.185 83.504 394.27 83.856 394.27 84.304C394.27 85.1573 394.067 85.8187 393.662 86.288C392.745 87.4187 391.753 88.3467 390.686 89.072C389.641 89.7973 388.446 90.16 387.102 90.16C385.971 90.16 385.054 89.7547 384.35 88.944C383.134 89.7333 381.865 90.1387 380.542 90.16C380.265 94.2773 379.635 97.712 378.654 100.464C377.673 103.237 376.233 104.624 374.334 104.624C373.182 104.624 372.329 104.208 371.774 103.376C371.219 102.544 370.942 101.392 370.942 99.92C370.942 97.8293 371.422 95.3867 372.382 92.592C373.342 89.8187 374.825 86.7573 376.83 83.408C376.83 80.2933 376.809 78.128 376.766 76.912C376.745 76.2933 376.99 75.8027 377.502 75.44C378.014 75.0773 378.654 74.896 379.422 74.896C379.87 74.896 380.19 74.992 380.382 75.184C380.595 75.3547 380.713 75.7067 380.734 76.24C380.734 76.7733 380.745 77.168 380.766 77.424C381.449 76.5707 382.121 75.9627 382.782 75.6C383.443 75.216 384.147 75.024 384.894 75.024C386.089 75.024 387.059 75.504 387.806 76.464C388.574 77.424 388.958 78.6827 388.958 80.24C388.958 81.3707 388.777 82.4693 388.414 83.536C388.051 84.6027 387.55 85.5733 386.91 86.448C387.358 86.576 387.731 86.64 388.03 86.64C388.734 86.64 389.406 86.384 390.046 85.872C390.686 85.36 391.507 84.5067 392.51 83.312C392.766 83.0133 393.054 82.864 393.374 82.864ZM380.702 87.088C381.47 86.9173 382.174 86.5013 382.814 85.84C383.475 85.1573 383.998 84.3253 384.382 83.344C384.766 82.3413 384.958 81.296 384.958 80.208C384.958 79.568 384.83 79.088 384.574 78.768C384.318 78.4267 383.977 78.256 383.55 78.256C382.782 78.256 381.854 79.0667 380.766 80.688C380.745 81.6267 380.734 83.0027 380.734 84.816C380.734 85.7973 380.723 86.5547 380.702 87.088ZM374.59 101.488C375.166 101.488 375.646 100.229 376.03 97.712C376.414 95.216 376.659 92.1013 376.766 88.368C375.849 90.5013 375.123 92.5387 374.59 94.48C374.057 96.4213 373.79 98.0533 373.79 99.376C373.79 100.059 373.875 100.581 374.046 100.944C374.195 101.307 374.377 101.488 374.59 101.488ZM397.1 90.16C395.842 90.16 394.764 89.8507 393.868 89.232C392.994 88.592 392.332 87.76 391.884 86.736C391.436 85.712 391.212 84.6133 391.212 83.44C391.212 81.8187 391.511 80.3787 392.108 79.12C392.727 77.84 393.559 76.848 394.604 76.144C395.65 75.4187 396.823 75.056 398.124 75.056C399.383 75.056 400.46 75.376 401.356 76.016C402.252 76.6347 402.924 77.456 403.372 78.48C403.82 79.504 404.044 80.6027 404.044 81.776C404.044 83.3973 403.735 84.848 403.116 86.128C402.498 87.3867 401.655 88.3787 400.588 89.104C399.543 89.808 398.38 90.16 397.1 90.16ZM397.452 86.704C398.178 86.704 398.786 86.3093 399.276 85.52C399.788 84.7307 400.044 83.5787 400.044 82.064C400.044 80.8907 399.831 80.0053 399.404 79.408C398.978 78.8107 398.466 78.512 397.868 78.512C397.1 78.512 396.46 78.9067 395.948 79.696C395.458 80.464 395.212 81.616 395.212 83.152C395.212 84.368 395.426 85.264 395.852 85.84C396.279 86.416 396.812 86.704 397.452 86.704ZM411.988 90.864C410.879 90.864 410.025 90.608 409.428 90.096C408.852 89.584 408.564 89.008 408.564 88.368C408.564 87.8133 408.767 87.3333 409.172 86.928C409.577 86.5227 410.175 86.32 410.964 86.32C411.241 86.32 411.561 86.352 411.924 86.416C412.308 86.4587 412.596 86.4907 412.788 86.512C412.767 85.9573 412.639 85.4347 412.404 84.944C412.191 84.4533 411.913 83.984 411.572 83.536C411.231 83.0667 410.911 82.6613 410.612 82.32C409.951 83.5787 409.289 84.624 408.628 85.456C407.988 86.288 407.284 87.0773 406.516 87.824C406.132 88.208 405.727 88.4 405.3 88.4C404.959 88.4 404.681 88.2827 404.468 88.048C404.255 87.792 404.148 87.4827 404.148 87.12C404.148 86.6933 404.297 86.2987 404.596 85.936L405.012 85.424C406.185 83.9733 407.071 82.7787 407.668 81.84C408.031 81.2213 408.457 80.4 408.948 79.376C409.439 78.3307 409.919 77.2533 410.388 76.144C410.793 75.2053 411.636 74.736 412.916 74.736C413.513 74.736 413.929 74.7893 414.164 74.896C414.399 75.0027 414.516 75.1733 414.516 75.408C414.516 75.536 414.473 75.7387 414.388 76.016C414.303 76.2933 414.185 76.5707 414.036 76.848C413.652 77.616 413.46 78.2667 413.46 78.8C413.46 79.12 413.567 79.472 413.78 79.856C414.015 80.24 414.367 80.72 414.836 81.296C415.519 82.192 416.031 82.96 416.372 83.6C416.735 84.2187 416.916 84.9013 416.916 85.648C416.916 85.8613 416.895 86.16 416.852 86.544C417.897 86.1387 419.124 85.0613 420.532 83.312C420.788 83.0133 421.076 82.864 421.396 82.864C421.673 82.864 421.887 82.992 422.036 83.248C422.207 83.504 422.292 83.856 422.292 84.304C422.292 85.1147 422.089 85.776 421.684 86.288C420.617 87.6107 419.593 88.5173 418.612 89.008C417.652 89.4773 416.457 89.7333 415.028 89.776C414.175 90.5013 413.161 90.864 411.988 90.864ZM433.964 82.864C434.242 82.864 434.455 82.992 434.604 83.248C434.775 83.504 434.86 83.856 434.86 84.304C434.86 85.1573 434.658 85.8187 434.252 86.288C433.463 87.248 432.343 88.1333 430.892 88.944C429.463 89.7547 427.927 90.16 426.284 90.16C424.044 90.16 422.306 89.552 421.068 88.336C419.831 87.12 419.212 85.456 419.212 83.344C419.212 81.872 419.522 80.5067 420.14 79.248C420.759 77.968 421.612 76.9547 422.7 76.208C423.81 75.4613 425.058 75.088 426.444 75.088C427.682 75.088 428.674 75.4613 429.42 76.208C430.167 76.9333 430.54 77.9253 430.54 79.184C430.54 80.656 430.007 81.9253 428.94 82.992C427.895 84.0373 426.114 84.8693 423.596 85.488C424.13 86.4693 425.143 86.96 426.636 86.96C427.596 86.96 428.684 86.6293 429.9 85.968C431.138 85.2853 432.204 84.4 433.1 83.312C433.356 83.0133 433.644 82.864 433.964 82.864ZM425.9 78.224C425.111 78.224 424.439 78.6827 423.884 79.6C423.351 80.5173 423.084 81.6267 423.084 82.928V82.992C424.343 82.6933 425.335 82.2453 426.06 81.648C426.786 81.0507 427.148 80.3573 427.148 79.568C427.148 79.1627 427.031 78.8427 426.796 78.608C426.583 78.352 426.284 78.224 425.9 78.224ZM426.732 72.976C426.434 72.976 426.167 72.8693 425.932 72.656C425.719 72.4213 425.612 72.144 425.612 71.824C425.612 71.6747 425.666 71.472 425.772 71.216L428.748 64.56C428.94 64.1333 429.186 63.824 429.484 63.632C429.804 63.4187 430.156 63.312 430.54 63.312C431.074 63.312 431.543 63.504 431.948 63.888C432.375 64.272 432.588 64.752 432.588 65.328C432.588 65.9253 432.354 66.5227 431.884 67.12L427.756 72.432C427.479 72.7947 427.138 72.976 426.732 72.976ZM446.527 82.864C446.804 82.864 447.017 82.992 447.167 83.248C447.337 83.504 447.423 83.856 447.423 84.304C447.423 85.1573 447.22 85.8187 446.815 86.288C446.025 87.248 444.905 88.1333 443.455 88.944C442.025 89.7547 440.489 90.16 438.847 90.16C436.607 90.16 434.868 89.552 433.631 88.336C432.393 87.12 431.775 85.456 431.775 83.344C431.775 81.872 432.084 80.5067 432.703 79.248C433.321 77.968 434.175 76.9547 435.263 76.208C436.372 75.4613 437.62 75.088 439.007 75.088C440.244 75.088 441.236 75.4613 441.983 76.208C442.729 76.9333 443.103 77.9253 443.103 79.184C443.103 80.656 442.569 81.9253 441.503 82.992C440.457 84.0373 438.676 84.8693 436.159 85.488C436.692 86.4693 437.705 86.96 439.199 86.96C440.159 86.96 441.247 86.6293 442.463 85.968C443.7 85.2853 444.767 84.4 445.663 83.312C445.919 83.0133 446.207 82.864 446.527 82.864ZM438.463 78.224C437.673 78.224 437.001 78.6827 436.447 79.6C435.913 80.5173 435.647 81.6267 435.647 82.928V82.992C436.905 82.6933 437.897 82.2453 438.623 81.648C439.348 81.0507 439.711 80.3573 439.711 79.568C439.711 79.1627 439.593 78.8427 439.359 78.608C439.145 78.352 438.847 78.224 438.463 78.224ZM450.769 90.864C449.66 90.864 448.807 90.608 448.209 90.096C447.633 89.584 447.345 89.008 447.345 88.368C447.345 87.8133 447.548 87.3333 447.953 86.928C448.359 86.5227 448.956 86.32 449.745 86.32C450.023 86.32 450.343 86.352 450.705 86.416C451.089 86.4587 451.377 86.4907 451.569 86.512C451.548 85.9573 451.42 85.4347 451.185 84.944C450.972 84.4533 450.695 83.984 450.353 83.536C450.012 83.0667 449.692 82.6613 449.393 82.32C448.732 83.5787 448.071 84.624 447.409 85.456C446.769 86.288 446.065 87.0773 445.297 87.824C444.913 88.208 444.508 88.4 444.081 88.4C443.74 88.4 443.463 88.2827 443.249 88.048C443.036 87.792 442.929 87.4827 442.929 87.12C442.929 86.6933 443.079 86.2987 443.377 85.936L443.793 85.424C444.967 83.9733 445.852 82.7787 446.449 81.84C446.833 81.2213 447.217 80.4853 447.601 79.632C448.007 78.7787 448.529 77.616 449.169 76.144C449.575 75.2053 450.417 74.736 451.697 74.736C452.295 74.736 452.711 74.7893 452.945 74.896C453.18 75.0027 453.297 75.1733 453.297 75.408C453.297 75.536 453.255 75.7387 453.169 76.016C453.084 76.2933 452.967 76.5707 452.817 76.848C452.433 77.616 452.241 78.2667 452.241 78.8C452.241 79.12 452.348 79.472 452.561 79.856C452.796 80.24 453.148 80.72 453.617 81.296C454.3 82.192 454.812 82.96 455.153 83.6C455.516 84.2187 455.697 84.9013 455.697 85.648C455.697 86.544 455.484 87.3973 455.057 88.208C454.652 88.9973 454.076 89.6373 453.329 90.128C452.583 90.6187 451.729 90.864 450.769 90.864Z" fill="#001AFF"/>
<path d="M3.3866 83.0587C2.5906 82.2929 1.32451 82.3174 0.558706 83.1134C-0.207094 83.9094 -0.182609 85.1755 0.613395 85.9413L3.3866 83.0587ZM108 107.267L109.727 106.258L108 107.267ZM243.918 8.33352C244.231 7.27422 243.626 6.16177 242.567 5.84879L225.304 0.748564C224.245 0.435588 223.133 1.04061 222.82 2.09991C222.507 3.15921 223.112 4.27166 224.171 4.58463L239.515 9.11817L234.982 24.4625C234.669 25.5218 235.274 26.6342 236.333 26.9472C237.392 27.2602 238.505 26.6551 238.818 25.5958L243.918 8.33352ZM0.613395 85.9413C17.6325 102.315 40.633 100.096 60.6412 98.0481C70.8193 97.0061 80.1891 95.9985 88.1411 97.0939C95.9614 98.1712 102.167 101.249 106.273 108.276L109.727 106.258C104.833 97.8842 97.3511 94.3249 88.687 93.1314C80.1546 91.956 70.2432 93.0442 60.2338 94.0689C39.867 96.1539 18.8675 97.9522 3.3866 83.0587L0.613395 85.9413ZM106.273 108.276C107.622 110.583 108.325 112.353 108.589 113.655C108.853 114.958 108.639 115.576 108.46 115.85C108.292 116.106 107.912 116.427 106.98 116.586C106.034 116.746 104.716 116.696 103.051 116.361C96.3244 115.008 86.0584 109.475 78.2578 102.009C70.3629 94.4538 65.7785 85.7192 68.5417 77.9106C69.9326 73.98 73.2757 69.9347 79.6515 66.1608C86.0354 62.3821 95.3423 58.9494 108.408 56.2247L107.592 52.3089C94.2827 55.0843 84.5115 58.6359 77.6141 62.7186C70.7087 66.806 66.5674 71.499 64.7708 76.5762C61.159 86.7832 67.3871 97.1424 75.4922 104.899C83.6916 112.746 94.6131 118.744 102.262 120.282C104.19 120.67 106.041 120.802 107.649 120.529C109.271 120.254 110.833 119.526 111.806 118.041C112.767 116.574 112.894 114.759 112.509 112.861C112.124 110.962 111.191 108.763 109.727 106.258L106.273 108.276ZM108.408 56.2247C134.859 50.7089 151.593 44.6213 161.502 38.5842C171.339 32.5909 175.076 26.2016 173.768 20.0978C172.527 14.3071 166.918 10.0035 161.163 7.56584C158.21 6.31521 155.05 5.47694 152.069 5.15168C149.115 4.82927 146.193 4.99583 143.798 5.89417L145.202 9.63949C146.807 9.03783 149.041 8.84501 151.636 9.12808C154.204 9.40828 156.985 10.1403 159.603 11.2491C164.988 13.5302 169.035 17.1016 169.857 20.9359C170.611 24.457 168.818 29.4428 159.42 35.1682C150.095 40.8498 133.891 46.8248 107.592 52.3089L108.408 56.2247ZM143.798 5.89417C141.341 6.81544 139.548 8.48352 138.717 10.6923C137.896 12.874 138.113 15.3151 139.128 17.6382C141.146 22.2533 146.399 26.7196 154.573 29.3577C171.002 34.6593 199.974 32.8996 242.956 9.5238L241.044 6.00986C198.526 29.1341 170.748 30.3744 155.802 25.551C148.289 23.1265 144.198 19.2491 142.794 16.0361C142.098 14.4452 142.084 13.1011 142.461 12.1011C142.827 11.1283 143.659 10.2182 145.202 9.63949L143.798 5.89417Z" fill="#001AFF"/>
</svg>
