<svg width="323" height="116" viewBox="0 0 323 116" fill="none" xmlns="http://www.w3.org/2000/svg">
<path d="M320.404 1.74028C320.261 0.645064 319.257 -0.126502 318.161 0.0169396L300.314 2.35445C299.219 2.49789 298.447 3.50203 298.59 4.59724C298.734 5.69246 299.738 6.46402 300.833 6.32058L316.698 4.24279L318.776 20.1073C318.919 21.2025 319.923 21.9741 321.018 21.8306C322.114 21.6872 322.885 20.6831 322.742 19.5879L320.404 1.74028ZM128.916 33.4707C127.921 32.9903 126.726 33.4072 126.245 34.4019C125.765 35.3965 126.182 36.5922 127.177 37.0726L128.916 33.4707ZM316.835 0.781418C271.032 60.3901 196.73 66.2218 128.916 33.4707L127.177 37.0726C196.128 70.3734 272.704 64.7792 320.007 3.21859L316.835 0.781418Z" fill="#001AFF"/>
<path d="M15.808 93.864C16.0853 93.864 16.2987 93.992 16.448 94.248C16.6187 94.504 16.704 94.856 16.704 95.304C16.704 96.1573 16.5013 96.8187 16.096 97.288C15.3067 98.248 14.1867 99.1333 12.736 99.944C11.3067 100.755 9.77067 101.16 8.128 101.16C5.888 101.16 4.14933 100.552 2.912 99.336C1.67467 98.12 1.056 96.456 1.056 94.344C1.056 92.872 1.36533 91.5067 1.984 90.248C2.60267 88.968 3.456 87.9547 4.544 87.208C5.65333 86.4613 6.90133 86.088 8.288 86.088C9.52533 86.088 10.5173 86.4613 11.264 87.208C12.0107 87.9333 12.384 88.9253 12.384 90.184C12.384 91.656 11.8507 92.9253 10.784 93.992C9.73867 95.0373 7.95733 95.8693 5.44 96.488C5.97333 97.4693 6.98667 97.96 8.48 97.96C9.44 97.96 10.528 97.6293 11.744 96.968C12.9813 96.2853 14.048 95.4 14.944 94.312C15.2 94.0133 15.488 93.864 15.808 93.864ZM7.744 89.224C6.95467 89.224 6.28267 89.6827 5.728 90.6C5.19467 91.5173 4.928 92.6267 4.928 93.928V93.992C6.18667 93.6933 7.17867 93.2453 7.904 92.648C8.62933 92.0507 8.992 91.3573 8.992 90.568C8.992 90.1627 8.87467 89.8427 8.64 89.608C8.42667 89.352 8.128 89.224 7.744 89.224ZM32.5663 93.864C32.8436 93.864 33.0569 93.992 33.2063 94.248C33.3769 94.504 33.4623 94.856 33.4623 95.304C33.4623 96.1573 33.2596 96.8187 32.8543 97.288C31.9156 98.3973 30.8809 99.3253 29.7503 100.072C28.6409 100.797 27.3823 101.16 25.9743 101.16C24.8863 101.16 23.9156 100.957 23.0623 100.552C22.2303 100.147 21.5689 99.5707 21.0783 98.824C19.8623 100.36 18.4223 101.128 16.7583 101.128C15.5849 101.128 14.6569 100.787 13.9743 100.104C13.2916 99.4213 12.9503 98.5147 12.9503 97.384C12.9503 96.3173 13.1956 95.4533 13.6863 94.792C14.1769 94.1307 14.8703 93.8 15.7663 93.8C16.5343 93.8 16.9183 94.088 16.9183 94.664C16.9183 94.8133 16.8969 95.08 16.8543 95.464C16.7903 96.232 16.7583 96.6693 16.7583 96.776C16.7583 97.416 17.0356 97.736 17.5903 97.736C17.9956 97.736 18.3796 97.5013 18.7423 97.032C19.1263 96.5413 19.4356 95.88 19.6703 95.048C19.9263 94.216 20.0543 93.2987 20.0543 92.296C20.0543 91.528 19.9583 90.888 19.7663 90.376C19.5743 89.8427 19.3396 89.576 19.0623 89.576C18.8276 89.576 18.6569 89.64 18.5503 89.768C18.4436 89.8747 18.3369 90.0667 18.2303 90.344C18.1023 90.6853 17.9316 90.9627 17.7183 91.176C17.5049 91.368 17.1316 91.464 16.5983 91.464C16.1289 91.464 15.7556 91.304 15.4783 90.984C15.2009 90.6427 15.0623 90.1307 15.0623 89.448C15.0623 88.36 15.3929 87.5067 16.0543 86.888C16.7156 86.2693 17.5689 85.96 18.6143 85.96C19.5103 85.96 20.3209 86.184 21.0463 86.632C21.7716 87.0587 22.3263 87.688 22.7103 88.52C23.3503 87.6667 24.0649 87.0267 24.8543 86.6C25.6649 86.1733 26.4543 85.96 27.2223 85.96C28.0543 85.96 28.6836 86.152 29.1103 86.536C29.5583 86.92 29.7823 87.5387 29.7823 88.392C29.7823 89.352 29.6009 90.1093 29.2383 90.664C28.8756 91.1973 28.4383 91.464 27.9263 91.464C27.4569 91.464 27.1369 91.368 26.9663 91.176C26.7956 90.984 26.6676 90.7067 26.5823 90.344C26.5396 90.088 26.4756 89.896 26.3903 89.768C26.3049 89.64 26.1556 89.576 25.9423 89.576C25.6863 89.576 25.4089 89.8213 25.1103 90.312C24.8329 90.7813 24.5876 91.4107 24.3743 92.2C24.1823 92.9893 24.0863 93.8107 24.0863 94.664C24.0863 95.6667 24.3209 96.4453 24.7903 97C25.2809 97.5333 25.9423 97.8 26.7743 97.8C27.6063 97.8 28.3849 97.5227 29.1103 96.968C29.8569 96.392 30.7209 95.5067 31.7023 94.312C31.9583 94.0133 32.2463 93.864 32.5663 93.864ZM45.1518 93.864C45.4291 93.864 45.6424 93.992 45.7917 94.248C45.9624 94.504 46.0478 94.856 46.0478 95.304C46.0478 96.1573 45.8451 96.8187 45.4398 97.288C44.6504 98.248 43.5304 99.1333 42.0798 99.944C40.6504 100.755 39.1144 101.16 37.4718 101.16C35.2318 101.16 33.4931 100.552 32.2558 99.336C31.0184 98.12 30.3997 96.456 30.3997 94.344C30.3997 92.872 30.7091 91.5067 31.3278 90.248C31.9464 88.968 32.7998 87.9547 33.8878 87.208C34.9971 86.4613 36.2451 86.088 37.6318 86.088C38.8691 86.088 39.8611 86.4613 40.6078 87.208C41.3544 87.9333 41.7278 88.9253 41.7278 90.184C41.7278 91.656 41.1944 92.9253 40.1278 93.992C39.0824 95.0373 37.3011 95.8693 34.7838 96.488C35.3171 97.4693 36.3304 97.96 37.8238 97.96C38.7838 97.96 39.8718 97.6293 41.0878 96.968C42.3251 96.2853 43.3918 95.4 44.2878 94.312C44.5438 94.0133 44.8318 93.864 45.1518 93.864ZM37.0878 89.224C36.2984 89.224 35.6264 89.6827 35.0718 90.6C34.5384 91.5173 34.2718 92.6267 34.2718 93.928V93.992C35.5304 93.6933 36.5224 93.2453 37.2478 92.648C37.9731 92.0507 38.3358 91.3573 38.3358 90.568C38.3358 90.1627 38.2184 89.8427 37.9838 89.608C37.7704 89.352 37.4718 89.224 37.0878 89.224ZM45.7143 101.16C44.9036 101.16 44.3276 100.733 43.9863 99.88C43.6663 99.0267 43.5063 97.6613 43.5063 95.784C43.5063 93.0107 43.9009 90.376 44.6903 87.88C44.8823 87.2613 45.1916 86.8133 45.6183 86.536C46.0663 86.2373 46.6849 86.088 47.4743 86.088C47.9009 86.088 48.1996 86.1413 48.3703 86.248C48.5409 86.3547 48.6263 86.5573 48.6263 86.856C48.6263 87.1973 48.4663 87.9653 48.1463 89.16C47.9329 90.0133 47.7623 90.76 47.6343 91.4C47.5063 92.0187 47.3996 92.7973 47.3143 93.736C47.8903 92.072 48.5729 90.664 49.3623 89.512C50.1729 88.36 50.9943 87.5067 51.8263 86.952C52.6796 86.376 53.4796 86.088 54.2263 86.088C54.9729 86.088 55.4956 86.2587 55.7943 86.6C56.1143 86.9413 56.2743 87.464 56.2743 88.168C56.2743 88.8507 56.0716 90.088 55.6663 91.88C55.4956 92.648 55.3783 93.224 55.3143 93.608C56.3809 90.984 57.5649 89.0747 58.8663 87.88C60.1676 86.6853 61.3836 86.088 62.5143 86.088C63.9009 86.088 64.5943 86.7813 64.5943 88.168C64.5943 89 64.3596 90.504 63.8903 92.68C63.4849 94.536 63.2823 95.7627 63.2823 96.36C63.2823 97.2133 63.5916 97.64 64.2103 97.64C64.6369 97.64 65.1383 97.384 65.7143 96.872C66.3116 96.3387 67.1009 95.4853 68.0823 94.312C68.3383 94.0133 68.6263 93.864 68.9463 93.864C69.2236 93.864 69.4369 93.992 69.5863 94.248C69.7569 94.504 69.8423 94.856 69.8423 95.304C69.8423 96.1573 69.6396 96.8187 69.2343 97.288C68.3169 98.4187 67.3249 99.3467 66.2583 100.072C65.2129 100.797 64.0183 101.16 62.6743 101.16C61.5863 101.16 60.7649 100.851 60.2103 100.232C59.6556 99.592 59.3783 98.6747 59.3783 97.48C59.3783 96.8827 59.5276 95.816 59.8263 94.28C60.1036 92.936 60.2423 92.008 60.2423 91.496C60.2423 91.1547 60.1249 90.984 59.8903 90.984C59.6129 90.984 59.2183 91.3467 58.7063 92.072C58.1943 92.776 57.6823 93.7147 57.1703 94.888C56.6583 96.0613 56.2423 97.2987 55.9223 98.6C55.6876 99.624 55.4103 100.307 55.0903 100.648C54.7916 100.989 54.3009 101.16 53.6183 101.16C52.9143 101.16 52.3809 100.829 52.0183 100.168C51.6769 99.4853 51.5063 98.664 51.5063 97.704C51.5063 96.8933 51.6129 95.72 51.8263 94.184C51.9969 92.8187 52.0823 91.9227 52.0823 91.496C52.0823 91.1547 51.9649 90.984 51.7303 90.984C51.4103 90.984 51.0049 91.368 50.5143 92.136C50.0236 92.904 49.5436 93.8853 49.0743 95.08C48.6263 96.2747 48.2636 97.448 47.9863 98.6C47.7516 99.6027 47.4743 100.285 47.1543 100.648C46.8556 100.989 46.3756 101.16 45.7143 101.16ZM84.3428 93.864C84.6201 93.864 84.8334 93.992 84.9828 94.248C85.1534 94.504 85.2388 94.856 85.2388 95.304C85.2388 96.1573 85.0361 96.8187 84.6308 97.288C83.7134 98.4187 82.7214 99.3467 81.6548 100.072C80.6094 100.797 79.4148 101.16 78.0708 101.16C76.9401 101.16 76.0228 100.755 75.3188 99.944C74.1028 100.733 72.8334 101.139 71.5108 101.16C71.2334 105.277 70.6041 108.712 69.6228 111.464C68.6414 114.237 67.2014 115.624 65.3027 115.624C64.1507 115.624 63.2974 115.208 62.7427 114.376C62.1881 113.544 61.9107 112.392 61.9107 110.92C61.9107 108.829 62.3907 106.387 63.3507 103.592C64.3107 100.819 65.7934 97.7573 67.7988 94.408C67.7988 91.2933 67.7774 89.128 67.7348 87.912C67.7134 87.2933 67.9588 86.8027 68.4708 86.44C68.9828 86.0773 69.6228 85.896 70.3908 85.896C70.8388 85.896 71.1588 85.992 71.3508 86.184C71.5641 86.3547 71.6814 86.7067 71.7028 87.24C71.7028 87.7733 71.7134 88.168 71.7348 88.424C72.4174 87.5707 73.0894 86.9627 73.7508 86.6C74.4121 86.216 75.1161 86.024 75.8628 86.024C77.0574 86.024 78.0281 86.504 78.7748 87.464C79.5428 88.424 79.9268 89.6827 79.9268 91.24C79.9268 92.3707 79.7454 93.4693 79.3828 94.536C79.0201 95.6027 78.5188 96.5733 77.8788 97.448C78.3268 97.576 78.7001 97.64 78.9988 97.64C79.7028 97.64 80.3748 97.384 81.0148 96.872C81.6548 96.36 82.4761 95.5067 83.4788 94.312C83.7348 94.0133 84.0228 93.864 84.3428 93.864ZM71.6708 98.088C72.4388 97.9173 73.1428 97.5013 73.7828 96.84C74.4441 96.1573 74.9668 95.3253 75.3508 94.344C75.7348 93.3413 75.9268 92.296 75.9268 91.208C75.9268 90.568 75.7988 90.088 75.5428 89.768C75.2868 89.4267 74.9454 89.256 74.5188 89.256C73.7508 89.256 72.8228 90.0667 71.7348 91.688C71.7134 92.6267 71.7028 94.0027 71.7028 95.816C71.7028 96.7973 71.6921 97.5547 71.6708 98.088ZM65.5587 112.488C66.1348 112.488 66.6148 111.229 66.9988 108.712C67.3828 106.216 67.6281 103.101 67.7348 99.368C66.8174 101.501 66.0921 103.539 65.5587 105.48C65.0254 107.421 64.7587 109.053 64.7587 110.376C64.7587 111.059 64.8441 111.581 65.0147 111.944C65.1641 112.307 65.3454 112.488 65.5587 112.488ZM94.789 93.864C95.0663 93.864 95.2797 93.992 95.429 94.248C95.5997 94.504 95.685 94.856 95.685 95.304C95.685 96.1573 95.4823 96.8187 95.077 97.288C94.1597 98.4187 93.157 99.3467 92.069 100.072C91.0023 100.797 89.7863 101.16 88.421 101.16C86.5437 101.16 85.1463 100.307 84.229 98.6C83.333 96.8933 82.885 94.6853 82.885 91.976C82.885 89.3733 83.2157 86.408 83.877 83.08C84.5597 79.752 85.5517 76.8933 86.853 74.504C88.1757 72.1147 89.7437 70.92 91.557 70.92C92.581 70.92 93.381 71.4 93.957 72.36C94.5543 73.2987 94.853 74.6533 94.853 76.424C94.853 78.9627 94.149 81.9067 92.741 85.256C91.333 88.6053 89.4237 91.9227 87.013 95.208C87.1623 96.0827 87.4077 96.712 87.749 97.096C88.0903 97.4587 88.5383 97.64 89.093 97.64C89.9677 97.64 90.7357 97.3947 91.397 96.904C92.0583 96.392 92.901 95.528 93.925 94.312C94.181 94.0133 94.469 93.864 94.789 93.864ZM90.853 74.088C90.3623 74.088 89.8077 74.9733 89.189 76.744C88.5703 78.5147 88.0263 80.712 87.557 83.336C87.0877 85.96 86.8317 88.4773 86.789 90.888C88.3037 88.392 89.509 85.896 90.405 83.4C91.301 80.8827 91.749 78.5893 91.749 76.52C91.749 74.8987 91.4503 74.088 90.853 74.088ZM104.555 94.824C104.832 94.824 105.045 94.952 105.195 95.208C105.365 95.464 105.451 95.816 105.451 96.264C105.451 97.032 105.269 97.6933 104.907 98.248C104.309 99.1653 103.52 99.88 102.539 100.392C101.579 100.904 100.427 101.16 99.0825 101.16C97.0345 101.16 95.4452 100.552 94.3145 99.336C93.1838 98.0987 92.6185 96.4347 92.6185 94.344C92.6185 92.872 92.9278 91.5067 93.5465 90.248C94.1652 88.968 95.0185 87.9547 96.1065 87.208C97.2158 86.4613 98.4638 86.088 99.8505 86.088C101.088 86.088 102.08 86.4613 102.827 87.208C103.573 87.9333 103.947 88.9253 103.947 90.184C103.947 91.656 103.413 92.9253 102.347 93.992C101.301 95.0373 99.5092 95.8693 96.9705 96.488C97.4825 97.4693 98.3465 97.96 99.5625 97.96C100.437 97.96 101.152 97.7573 101.707 97.352C102.283 96.9467 102.944 96.264 103.691 95.304C103.947 94.984 104.235 94.824 104.555 94.824ZM99.3065 89.224C98.5172 89.224 97.8452 89.6827 97.2905 90.6C96.7572 91.5173 96.4905 92.6267 96.4905 93.928V93.992C97.7492 93.6933 98.7412 93.2453 99.4665 92.648C100.192 92.0507 100.555 91.3573 100.555 90.568C100.555 90.1627 100.437 89.8427 100.203 89.608C99.9892 89.352 99.6905 89.224 99.3065 89.224ZM126.372 93.864C126.606 95.6133 126.948 97.3413 127.396 99.048C127.481 99.3253 127.524 99.6133 127.524 99.912C127.524 100.872 126.937 101.352 125.764 101.352C125.102 101.352 124.59 101.171 124.228 100.808C123.886 100.445 123.566 99.7627 123.268 98.76L123.236 98.632C122.425 99.6347 121.689 100.307 121.028 100.648C120.388 100.989 119.641 101.16 118.788 101.16C117.486 101.16 116.409 100.68 115.556 99.72C114.724 98.7387 114.308 97.4693 114.308 95.912C114.308 94.2053 114.67 92.6267 115.396 91.176C116.121 89.7253 117.113 88.5413 118.372 87.624C119.63 86.6853 121.038 86.12 122.595 85.928C123.001 81.896 123.769 78.3867 124.9 75.4C126.052 72.4133 127.577 70.92 129.476 70.92C130.393 70.92 131.15 71.336 131.748 72.168C132.366 73 132.676 74.2587 132.676 75.944C132.676 78.2907 132.1 81.032 130.948 84.168C129.796 87.304 128.27 90.536 126.372 93.864ZM129.124 74.056C128.505 74.056 127.918 75.6347 127.364 78.792C126.83 81.9493 126.468 85.384 126.276 89.096C128.644 83.976 129.828 79.816 129.828 76.616C129.828 75.8053 129.753 75.176 129.604 74.728C129.476 74.28 129.316 74.056 129.124 74.056ZM119.908 97.928C120.334 97.928 120.74 97.768 121.124 97.448C121.529 97.128 122.041 96.5093 122.66 95.592C122.446 94.0347 122.34 92.424 122.34 90.76C122.34 90.0987 122.35 89.5867 122.372 89.224C121.198 89.5653 120.228 90.344 119.46 91.56C118.692 92.776 118.308 94.12 118.308 95.592C118.308 97.1493 118.841 97.928 119.908 97.928ZM135.715 81.96C135.245 81.96 134.872 81.8533 134.595 81.64C134.317 81.4267 134.179 81.0853 134.179 80.616C134.179 80.424 134.211 80.2 134.275 79.944C134.509 78.9627 134.68 78.056 134.786 77.224C134.915 76.392 134.979 75.464 134.979 74.44C134.979 73.3733 135.224 72.552 135.715 71.976C136.227 71.4 136.877 71.112 137.667 71.112C138.435 71.112 139.011 71.3253 139.395 71.752C139.8 72.1573 140.003 72.712 140.003 73.416C140.003 74.1627 139.779 75.1547 139.331 76.392C138.883 77.6293 138.339 78.8347 137.699 80.008C137.272 80.7973 136.931 81.32 136.675 81.576C136.44 81.832 136.12 81.96 135.715 81.96ZM142.925 101.16C141.965 101.16 141.176 100.723 140.557 99.848C139.96 98.952 139.661 97.8427 139.661 96.52C139.661 94.92 139.768 93.4587 139.981 92.136C140.194 90.792 140.546 89.3733 141.037 87.88C141.25 87.24 141.549 86.7813 141.933 86.504C142.317 86.2267 142.925 86.088 143.757 86.088C144.226 86.088 144.546 86.1627 144.717 86.312C144.909 86.4613 145.005 86.6853 145.005 86.984C145.005 87.1547 144.888 87.7307 144.653 88.712C144.44 89.5013 144.269 90.216 144.141 90.856C143.714 93.096 143.501 94.5893 143.501 95.336C143.501 95.784 143.554 96.104 143.661 96.296C143.768 96.4667 143.938 96.552 144.173 96.552C144.493 96.552 144.888 96.232 145.357 95.592C145.848 94.952 146.36 93.9813 146.893 92.68C147.448 91.3787 147.981 89.7787 148.493 87.88C148.664 87.24 148.92 86.7813 149.261 86.504C149.624 86.2267 150.157 86.088 150.861 86.088C151.352 86.088 151.693 86.152 151.885 86.28C152.077 86.3867 152.173 86.6 152.173 86.92C152.173 87.4533 151.906 88.9147 151.373 91.304C150.776 94.0347 150.477 95.72 150.477 96.36C150.477 96.7653 150.562 97.0853 150.733 97.32C150.904 97.5333 151.128 97.64 151.405 97.64C151.832 97.64 152.333 97.384 152.909 96.872C153.506 96.3387 154.296 95.4853 155.277 94.312C155.533 94.0133 155.821 93.864 156.141 93.864C156.418 93.864 156.632 93.992 156.781 94.248C156.952 94.504 157.037 94.856 157.037 95.304C157.037 96.1573 156.834 96.8187 156.429 97.288C155.512 98.4187 154.52 99.3467 153.453 100.072C152.408 100.797 151.213 101.16 149.869 101.16C148.845 101.16 148.088 100.765 147.597 99.976C147.128 99.1867 146.893 98.0773 146.893 96.648C146.53 98.0987 145.986 99.2187 145.261 100.008C144.536 100.776 143.757 101.16 142.925 101.16ZM156.714 101.16C155.904 101.16 155.328 100.733 154.986 99.88C154.666 99.0267 154.506 97.6613 154.506 95.784C154.506 93.0107 154.901 90.376 155.69 87.88C155.882 87.2613 156.192 86.8133 156.618 86.536C157.066 86.2373 157.685 86.088 158.474 86.088C158.901 86.088 159.2 86.1413 159.37 86.248C159.541 86.3547 159.626 86.5573 159.626 86.856C159.626 87.1973 159.466 87.9653 159.146 89.16C158.933 90.0133 158.762 90.76 158.634 91.4C158.506 92.04 158.4 92.8293 158.314 93.768C159.018 91.9333 159.808 90.44 160.682 89.288C161.557 88.136 162.41 87.3147 163.242 86.824C164.096 86.3333 164.874 86.088 165.578 86.088C166.261 86.088 166.773 86.2693 167.114 86.632C167.477 86.9733 167.658 87.4853 167.658 88.168C167.658 88.7227 167.541 89.768 167.306 91.304C167.093 92.6053 166.922 93.8427 166.794 95.016C166.666 96.168 166.602 97.4587 166.602 98.888C166.602 99.6987 166.432 100.285 166.09 100.648C165.77 100.989 165.237 101.16 164.49 101.16C163.786 101.16 163.274 100.979 162.954 100.616C162.634 100.253 162.474 99.7093 162.474 98.984C162.474 98.1307 162.624 96.7227 162.922 94.76C163.178 93.0533 163.306 91.9653 163.306 91.496C163.306 91.1547 163.189 90.984 162.954 90.984C162.677 90.984 162.282 91.3467 161.77 92.072C161.28 92.776 160.768 93.7147 160.234 94.888C159.722 96.0613 159.306 97.2987 158.986 98.6C158.752 99.6027 158.474 100.285 158.154 100.648C157.856 100.989 157.376 101.16 156.714 101.16ZM195.499 93.864C195.776 93.864 195.99 93.992 196.139 94.248C196.31 94.504 196.395 94.856 196.395 95.304C196.395 96.1573 196.192 96.8187 195.787 97.288C194.87 98.4187 193.878 99.3467 192.811 100.072C191.766 100.797 190.571 101.16 189.227 101.16C188.096 101.16 187.179 100.755 186.475 99.944C185.259 100.733 183.99 101.139 182.667 101.16C182.39 105.277 181.76 108.712 180.779 111.464C179.798 114.237 178.358 115.624 176.459 115.624C175.307 115.624 174.454 115.208 173.899 114.376C173.344 113.544 173.067 112.392 173.067 110.92C173.067 108.829 173.547 106.387 174.507 103.592C175.467 100.819 176.95 97.7573 178.955 94.408C178.955 91.2933 178.934 89.128 178.891 87.912C178.87 87.2933 179.115 86.8027 179.627 86.44C180.139 86.0773 180.779 85.896 181.547 85.896C181.995 85.896 182.315 85.992 182.507 86.184C182.72 86.3547 182.838 86.7067 182.859 87.24C182.859 87.7733 182.87 88.168 182.891 88.424C183.574 87.5707 184.246 86.9627 184.907 86.6C185.568 86.216 186.272 86.024 187.019 86.024C188.214 86.024 189.184 86.504 189.931 87.464C190.699 88.424 191.083 89.6827 191.083 91.24C191.083 92.3707 190.902 93.4693 190.539 94.536C190.176 95.6027 189.675 96.5733 189.035 97.448C189.483 97.576 189.856 97.64 190.155 97.64C190.859 97.64 191.531 97.384 192.171 96.872C192.811 96.36 193.632 95.5067 194.635 94.312C194.891 94.0133 195.179 93.864 195.499 93.864ZM182.827 98.088C183.595 97.9173 184.299 97.5013 184.939 96.84C185.6 96.1573 186.123 95.3253 186.507 94.344C186.891 93.3413 187.083 92.296 187.083 91.208C187.083 90.568 186.955 90.088 186.699 89.768C186.443 89.4267 186.102 89.256 185.675 89.256C184.907 89.256 183.979 90.0667 182.891 91.688C182.87 92.6267 182.859 94.0027 182.859 95.816C182.859 96.7973 182.848 97.5547 182.827 98.088ZM176.715 112.488C177.291 112.488 177.771 111.229 178.155 108.712C178.539 106.216 178.784 103.101 178.891 99.368C177.974 101.501 177.248 103.539 176.715 105.48C176.182 107.421 175.915 109.053 175.915 110.376C175.915 111.059 176 111.581 176.171 111.944C176.32 112.307 176.502 112.488 176.715 112.488ZM196.089 101.16C195.279 101.16 194.703 100.733 194.361 99.88C194.041 99.0267 193.881 97.6613 193.881 95.784C193.881 93.0107 194.276 90.376 195.065 87.88C195.257 87.2613 195.567 86.8133 195.993 86.536C196.441 86.2373 197.06 86.088 197.849 86.088C198.276 86.088 198.575 86.1413 198.745 86.248C198.916 86.3547 199.001 86.5573 199.001 86.856C199.001 87.1973 198.841 87.9653 198.521 89.16C198.308 90.0133 198.137 90.76 198.009 91.4C197.881 92.04 197.775 92.8293 197.689 93.768C198.393 91.9333 199.183 90.44 200.057 89.288C200.932 88.136 201.785 87.3147 202.617 86.824C203.471 86.3333 204.249 86.088 204.953 86.088C206.34 86.088 207.033 86.7813 207.033 88.168C207.033 88.4453 206.937 89.1173 206.745 90.184C206.575 91.0373 206.489 91.5707 206.489 91.784C206.489 92.5307 206.756 92.904 207.289 92.904C207.887 92.904 208.655 92.4347 209.593 91.496C209.871 91.2187 210.159 91.08 210.457 91.08C210.735 91.08 210.948 91.208 211.097 91.464C211.268 91.6987 211.353 92.0187 211.353 92.424C211.353 93.2133 211.14 93.832 210.713 94.28C210.116 94.8987 209.412 95.432 208.601 95.88C207.812 96.3067 206.969 96.52 206.073 96.52C204.943 96.52 204.079 96.232 203.481 95.656C202.905 95.08 202.617 94.3013 202.617 93.32C202.617 93 202.649 92.68 202.713 92.36C202.756 91.9333 202.777 91.6453 202.777 91.496C202.777 91.1547 202.66 90.984 202.425 90.984C202.105 90.984 201.679 91.3467 201.145 92.072C200.633 92.776 200.121 93.7147 199.609 94.888C199.097 96.0613 198.681 97.2987 198.361 98.6C198.127 99.6027 197.849 100.285 197.529 100.648C197.231 100.989 196.751 101.16 196.089 101.16ZM224.7 91.176C224.977 91.176 225.19 91.3147 225.34 91.592C225.489 91.8693 225.564 92.2213 225.564 92.648C225.564 93.672 225.254 94.28 224.636 94.472C223.356 94.92 221.948 95.176 220.412 95.24C220.006 97.032 219.206 98.472 218.012 99.56C216.817 100.627 215.462 101.16 213.948 101.16C212.668 101.16 211.569 100.851 210.652 100.232C209.756 99.6133 209.073 98.792 208.604 97.768C208.134 96.744 207.9 95.6347 207.9 94.44C207.9 92.8187 208.209 91.3787 208.828 90.12C209.446 88.84 210.3 87.848 211.388 87.144C212.476 86.4187 213.681 86.056 215.004 86.056C216.625 86.056 217.926 86.6213 218.908 87.752C219.91 88.8613 220.497 90.2373 220.668 91.88C221.67 91.816 222.865 91.6027 224.252 91.24C224.422 91.1973 224.572 91.176 224.7 91.176ZM214.204 97.768C214.886 97.768 215.473 97.4907 215.964 96.936C216.476 96.3813 216.817 95.5813 216.988 94.536C216.326 94.088 215.814 93.5013 215.452 92.776C215.11 92.0507 214.94 91.2827 214.94 90.472C214.94 90.1307 214.972 89.7893 215.036 89.448H214.876C214.022 89.448 213.308 89.864 212.732 90.696C212.177 91.5067 211.9 92.6587 211.9 94.152C211.9 95.3253 212.124 96.2213 212.572 96.84C213.041 97.4587 213.585 97.768 214.204 97.768ZM244.769 93.864C245.047 93.864 245.26 93.992 245.409 94.248C245.58 94.504 245.665 94.856 245.665 95.304C245.665 96.1573 245.463 96.8187 245.057 97.288C244.183 98.3547 243.212 99.272 242.145 100.04C241.1 100.787 240.044 101.16 238.977 101.16C237.591 101.16 236.577 100.669 235.937 99.688C235.319 98.7067 235.009 97.4053 235.009 95.784C235.009 94.952 235.095 93.928 235.265 92.712C235.457 91.496 235.703 90.3013 236.001 89.128C233.868 89.128 231.34 89.224 228.417 89.416C227.948 92.4027 227.713 95.1867 227.713 97.768C227.713 99.752 227.82 101.821 228.033 103.976C228.268 106.152 228.609 107.24 229.057 107.24C229.271 107.24 229.495 106.867 229.729 106.12C229.964 105.373 230.156 104.349 230.305 103.048C230.455 101.747 230.529 100.307 230.529 98.728C230.529 97 230.433 95.1333 230.241 93.128C230.199 92.5307 230.295 92.0933 230.529 91.816C230.785 91.5173 231.159 91.368 231.649 91.368C232.097 91.368 232.428 91.4853 232.641 91.72C232.855 91.9547 232.983 92.3493 233.025 92.904C233.132 94.4613 233.185 96.3173 233.185 98.472C233.185 101.949 232.759 104.925 231.905 107.4C231.073 109.875 229.772 111.112 228.001 111.112C226.487 111.112 225.399 110.013 224.737 107.816C224.076 105.64 223.745 102.365 223.745 97.992C223.745 95.4107 223.948 92.648 224.353 89.704C224.204 89.7253 224.012 89.736 223.777 89.736C223.116 89.736 222.668 89.6187 222.433 89.384C222.22 89.1493 222.113 88.7867 222.113 88.296C222.113 87.7627 222.252 87.336 222.529 87.016C222.828 86.696 223.383 86.504 224.193 86.44C224.343 86.4187 224.577 86.408 224.897 86.408C225.473 83.528 226.209 80.9147 227.105 78.568C228.001 76.2213 229.025 74.3653 230.177 73C231.329 71.6133 232.545 70.92 233.825 70.92C234.828 70.92 235.596 71.3147 236.129 72.104C236.684 72.872 236.961 73.864 236.961 75.08C236.961 79.368 235.233 83.016 231.777 86.024C234.38 85.9173 236.481 85.864 238.081 85.864C238.679 85.864 239.169 85.9813 239.553 86.216C239.937 86.4293 240.129 86.856 240.129 87.496C240.129 87.9227 240.055 88.5733 239.905 89.448C239.777 90.3227 239.628 91.1973 239.457 92.072C239.073 93.8853 238.881 95.08 238.881 95.656C238.881 96.296 238.967 96.7867 239.137 97.128C239.308 97.4693 239.596 97.64 240.001 97.64C240.364 97.64 240.823 97.3947 241.377 96.904C241.953 96.392 242.796 95.528 243.905 94.312C244.161 94.0133 244.449 93.864 244.769 93.864ZM233.217 73.992C232.705 73.992 232.055 75.1013 231.265 77.32C230.476 79.5387 229.761 82.2267 229.121 85.384C230.188 84.6373 231.073 83.7093 231.777 82.6C232.503 81.4907 233.036 80.3493 233.377 79.176C233.74 77.9813 233.921 76.8827 233.921 75.88C233.921 74.6213 233.687 73.992 233.217 73.992ZM239.425 83.976C238.529 83.976 237.857 83.7733 237.409 83.368C236.961 82.9413 236.737 82.3547 236.737 81.608C236.737 80.8613 237.025 80.2427 237.601 79.752C238.199 79.24 238.935 78.984 239.809 78.984C240.599 78.984 241.239 79.176 241.729 79.56C242.22 79.944 242.465 80.488 242.465 81.192C242.465 82.0453 242.188 82.728 241.633 83.24C241.079 83.7307 240.343 83.976 239.425 83.976ZM252.315 96.488C252.55 96.2747 252.785 96.168 253.019 96.168C253.275 96.168 253.478 96.3173 253.627 96.616C253.798 96.8933 253.883 97.2347 253.883 97.64C253.883 98.536 253.563 99.2507 252.923 99.784C251.814 100.701 250.555 101.16 249.147 101.16C247.121 101.16 245.638 100.317 244.699 98.632C243.761 96.9253 243.291 94.7067 243.291 91.976C243.291 89.3733 243.622 86.408 244.283 83.08C244.966 79.752 245.958 76.8933 247.259 74.504C248.582 72.1147 250.15 70.92 251.963 70.92C252.987 70.92 253.787 71.4 254.363 72.36C254.961 73.2987 255.259 74.6533 255.259 76.424C255.259 78.9627 254.555 81.9067 253.147 85.256C251.761 88.6053 249.862 91.912 247.451 95.176C247.601 96.0507 247.867 96.68 248.251 97.064C248.635 97.448 249.158 97.64 249.819 97.64C250.182 97.64 250.587 97.5333 251.035 97.32C251.505 97.1067 251.931 96.8293 252.315 96.488ZM251.259 74.088C250.769 74.088 250.214 74.9733 249.595 76.744C248.977 78.5147 248.433 80.712 247.963 83.336C247.494 85.96 247.238 88.4773 247.195 90.888C248.71 88.392 249.915 85.896 250.811 83.4C251.707 80.8827 252.155 78.5893 252.155 76.52C252.155 74.8987 251.857 74.088 251.259 74.088Z" fill="#001AFF"/>
</svg>
