<svg width="476" height="92" viewBox="0 0 476 92" fill="none" xmlns="http://www.w3.org/2000/svg">
<path d="M189.066 34.16C187.743 34.16 186.687 33.68 185.898 32.72C185.108 31.76 184.714 30.5013 184.714 28.944C184.714 27.2373 185.108 25.6267 185.898 24.112C186.687 22.576 187.732 21.3493 189.034 20.432C190.356 19.4933 191.754 19.024 193.226 19.024C193.695 19.024 194.004 19.12 194.154 19.312C194.324 19.4827 194.463 19.8027 194.57 20.272C195.018 20.1867 195.487 20.144 195.978 20.144C197.023 20.144 197.546 20.5173 197.546 21.264C197.546 21.712 197.386 22.7787 197.066 24.464C196.575 26.9173 196.33 28.624 196.33 29.584C196.33 29.904 196.404 30.16 196.554 30.352C196.724 30.544 196.938 30.64 197.194 30.64C197.599 30.64 198.09 30.384 198.666 29.872C199.242 29.3387 200.02 28.4853 201.002 27.312C201.258 27.0133 201.546 26.864 201.866 26.864C202.143 26.864 202.356 26.992 202.506 27.248C202.676 27.504 202.762 27.856 202.762 28.304C202.762 29.1573 202.559 29.8187 202.154 30.288C201.279 31.376 200.351 32.2933 199.37 33.04C198.388 33.7867 197.439 34.16 196.522 34.16C195.818 34.16 195.167 33.9253 194.57 33.456C193.994 32.9653 193.556 32.304 193.258 31.472C192.148 33.264 190.751 34.16 189.066 34.16ZM190.218 30.928C190.687 30.928 191.135 30.6507 191.562 30.096C191.988 29.5413 192.298 28.8053 192.49 27.888L193.674 22C192.778 22.0213 191.946 22.3627 191.178 23.024C190.431 23.664 189.834 24.5173 189.386 25.584C188.938 26.6507 188.714 27.7813 188.714 28.976C188.714 29.6373 188.842 30.128 189.098 30.448C189.375 30.768 189.748 30.928 190.218 30.928ZM216.545 26.928C216.822 26.928 217.036 27.0667 217.185 27.344C217.356 27.6 217.441 27.9307 217.441 28.336C217.441 28.8267 217.366 29.2107 217.217 29.488C217.068 29.7653 216.833 30.0107 216.513 30.224C214.678 31.4613 213.334 32.3787 212.481 32.976L210.433 34.352C209.622 38.768 208.556 42.2347 207.233 44.752C205.932 47.2907 204.268 48.56 202.241 48.56C201.153 48.56 200.268 48.2187 199.585 47.536C198.902 46.8747 198.561 46 198.561 44.912C198.561 43.3973 199.158 41.7653 200.353 40.016C201.548 38.288 203.788 36.1547 207.073 33.616L207.265 32.368C206.902 32.944 206.422 33.392 205.825 33.712C205.249 34.0107 204.673 34.16 204.097 34.16C202.774 34.16 201.718 33.68 200.929 32.72C200.14 31.76 199.745 30.5013 199.745 28.944C199.745 27.2373 200.14 25.6267 200.929 24.112C201.718 22.576 202.764 21.3493 204.065 20.432C205.388 19.4933 206.785 19.024 208.257 19.024C208.726 19.024 209.036 19.12 209.185 19.312C209.356 19.4827 209.494 19.8027 209.601 20.272C210.006 20.1867 210.476 20.144 211.009 20.144C211.542 20.144 211.916 20.2293 212.129 20.4C212.364 20.5493 212.481 20.8587 212.481 21.328C212.481 21.584 212.47 21.7867 212.449 21.936C212.364 22.5973 212.097 24.272 211.649 26.96C211.564 27.472 211.468 28.0373 211.361 28.656C211.276 29.2533 211.18 29.8933 211.073 30.576C212.716 29.296 214.294 28.1653 215.809 27.184C216.086 27.0133 216.332 26.928 216.545 26.928ZM205.249 30.928C205.74 30.928 206.209 30.6293 206.657 30.032C207.105 29.4347 207.425 28.5813 207.617 27.472L208.641 22C207.766 22.0213 206.956 22.3627 206.209 23.024C205.462 23.664 204.865 24.5173 204.417 25.584C203.969 26.6507 203.745 27.7813 203.745 28.976C203.745 29.6373 203.873 30.128 204.129 30.448C204.406 30.768 204.78 30.928 205.249 30.928ZM202.593 45.456C203.126 45.456 203.724 44.816 204.385 43.536C205.068 42.256 205.718 40.2187 206.337 37.424C204.694 38.832 203.51 40.1013 202.785 41.232C202.06 42.3627 201.697 43.3547 201.697 44.208C201.697 44.5707 201.761 44.8693 201.889 45.104C202.038 45.3387 202.273 45.456 202.593 45.456ZM217.402 34.16C216.591 34.16 216.015 33.7333 215.674 32.88C215.354 32.0267 215.194 30.6613 215.194 28.784C215.194 26.0107 215.588 23.376 216.378 20.88C216.57 20.2613 216.879 19.8133 217.306 19.536C217.754 19.2373 218.372 19.088 219.162 19.088C219.588 19.088 219.887 19.1413 220.058 19.248C220.228 19.3547 220.314 19.5573 220.314 19.856C220.314 20.1973 220.154 20.9653 219.834 22.16C219.62 23.0133 219.45 23.76 219.322 24.4C219.194 25.04 219.087 25.8293 219.002 26.768C219.706 24.9333 220.495 23.44 221.37 22.288C222.244 21.136 223.098 20.3147 223.93 19.824C224.783 19.3333 225.562 19.088 226.266 19.088C227.652 19.088 228.346 19.7813 228.346 21.168C228.346 21.4453 228.25 22.1173 228.058 23.184C227.887 24.0373 227.802 24.5707 227.802 24.784C227.802 25.5307 228.068 25.904 228.602 25.904C229.199 25.904 229.967 25.4347 230.906 24.496C231.183 24.2187 231.471 24.08 231.77 24.08C232.047 24.08 232.26 24.208 232.41 24.464C232.58 24.6987 232.666 25.0187 232.666 25.424C232.666 26.2133 232.452 26.832 232.026 27.28C231.428 27.8987 230.724 28.432 229.914 28.88C229.124 29.3067 228.282 29.52 227.386 29.52C226.255 29.52 225.391 29.232 224.794 28.656C224.218 28.08 223.93 27.3013 223.93 26.32C223.93 26 223.962 25.68 224.026 25.36C224.068 24.9333 224.09 24.6453 224.09 24.496C224.09 24.1547 223.972 23.984 223.738 23.984C223.418 23.984 222.991 24.3467 222.458 25.072C221.946 25.776 221.434 26.7147 220.922 27.888C220.41 29.0613 219.994 30.2987 219.674 31.6C219.439 32.6027 219.162 33.2853 218.842 33.648C218.543 33.9893 218.063 34.16 217.402 34.16ZM233.628 34.16C232.306 34.16 231.25 33.68 230.46 32.72C229.671 31.76 229.276 30.5013 229.276 28.944C229.276 27.2373 229.671 25.6267 230.46 24.112C231.25 22.576 232.295 21.3493 233.596 20.432C234.919 19.4933 236.316 19.024 237.788 19.024C238.258 19.024 238.567 19.12 238.716 19.312C238.887 19.4827 239.026 19.8027 239.132 20.272C239.58 20.1867 240.05 20.144 240.54 20.144C241.586 20.144 242.108 20.5173 242.108 21.264C242.108 21.712 241.948 22.7787 241.628 24.464C241.138 26.9173 240.892 28.624 240.892 29.584C240.892 29.904 240.967 30.16 241.116 30.352C241.287 30.544 241.5 30.64 241.756 30.64C242.162 30.64 242.652 30.384 243.228 29.872C243.804 29.3387 244.583 28.4853 245.564 27.312C245.82 27.0133 246.108 26.864 246.428 26.864C246.706 26.864 246.919 26.992 247.068 27.248C247.239 27.504 247.324 27.856 247.324 28.304C247.324 29.1573 247.122 29.8187 246.716 30.288C245.842 31.376 244.914 32.2933 243.932 33.04C242.951 33.7867 242.002 34.16 241.084 34.16C240.38 34.16 239.73 33.9253 239.132 33.456C238.556 32.9653 238.119 32.304 237.82 31.472C236.711 33.264 235.314 34.16 233.628 34.16ZM234.78 30.928C235.25 30.928 235.698 30.6507 236.124 30.096C236.551 29.5413 236.86 28.8053 237.052 27.888L238.236 22C237.34 22.0213 236.508 22.3627 235.74 23.024C234.994 23.664 234.396 24.5173 233.948 25.584C233.5 26.6507 233.276 27.7813 233.276 28.976C233.276 29.6373 233.404 30.128 233.66 30.448C233.938 30.768 234.311 30.928 234.78 30.928ZM246.996 34.16C246.185 34.16 245.609 33.7333 245.268 32.88C244.948 32.0267 244.788 30.6613 244.788 28.784C244.788 26.0107 245.182 23.376 245.972 20.88C246.164 20.2613 246.473 19.8133 246.9 19.536C247.348 19.2373 247.966 19.088 248.756 19.088C249.182 19.088 249.481 19.1413 249.652 19.248C249.822 19.3547 249.908 19.5573 249.908 19.856C249.908 20.1973 249.748 20.9653 249.428 22.16C249.214 23.0133 249.044 23.76 248.916 24.4C248.788 25.04 248.681 25.8293 248.596 26.768C249.3 24.9333 250.089 23.44 250.964 22.288C251.838 21.136 252.692 20.3147 253.524 19.824C254.377 19.3333 255.156 19.088 255.86 19.088C257.246 19.088 257.94 19.7813 257.94 21.168C257.94 22 257.705 23.504 257.236 25.68C256.83 27.536 256.628 28.7627 256.628 29.36C256.628 30.2133 256.937 30.64 257.556 30.64C257.982 30.64 258.484 30.384 259.06 29.872C259.657 29.3387 260.446 28.4853 261.428 27.312C261.684 27.0133 261.972 26.864 262.292 26.864C262.569 26.864 262.782 26.992 262.932 27.248C263.102 27.504 263.188 27.856 263.188 28.304C263.188 29.1573 262.985 29.8187 262.58 30.288C261.662 31.4187 260.67 32.3467 259.604 33.072C258.558 33.7973 257.364 34.16 256.02 34.16C254.932 34.16 254.11 33.8507 253.556 33.232C253.001 32.592 252.724 31.6747 252.724 30.48C252.724 29.8827 252.873 28.816 253.172 27.28C253.449 25.936 253.588 25.008 253.588 24.496C253.588 24.1547 253.47 23.984 253.236 23.984C252.958 23.984 252.564 24.3467 252.052 25.072C251.561 25.776 251.049 26.7147 250.516 27.888C250.004 29.0613 249.588 30.2987 249.268 31.6C249.033 32.6027 248.756 33.2853 248.436 33.648C248.137 33.9893 247.657 34.16 246.996 34.16ZM278.775 26.864C279.052 26.864 279.265 26.992 279.415 27.248C279.585 27.504 279.671 27.856 279.671 28.304C279.671 29.1573 279.468 29.8187 279.062 30.288C278.188 31.3547 277.228 32.272 276.183 33.04C275.137 33.7867 274.103 34.16 273.079 34.16C271.457 34.16 270.22 33.2107 269.367 31.312C268.471 32.4427 267.681 33.2 266.999 33.584C266.337 33.968 265.559 34.16 264.663 34.16C263.361 34.16 262.284 33.68 261.431 32.72C260.599 31.7387 260.183 30.4693 260.183 28.912C260.183 27.2053 260.545 25.6267 261.271 24.176C261.996 22.704 262.988 21.5093 264.247 20.592C265.527 19.6533 266.956 19.0987 268.535 18.928C268.94 14.7893 269.708 11.2587 270.839 8.336C271.991 5.392 273.495 3.92 275.351 3.92C276.268 3.92 277.025 4.336 277.623 5.168C278.241 6 278.551 7.25867 278.551 8.944C278.551 11.3333 277.964 14.128 276.791 17.328C275.617 20.528 274.049 23.8133 272.087 27.184C272.172 28.4213 272.353 29.3067 272.631 29.84C272.929 30.3733 273.303 30.64 273.751 30.64C274.327 30.64 274.913 30.384 275.51 29.872C276.108 29.36 276.908 28.5067 277.911 27.312C278.167 27.0133 278.455 26.864 278.775 26.864ZM274.999 7.056C274.593 7.056 274.188 7.78133 273.783 9.232C273.377 10.6613 273.025 12.5387 272.727 14.864C272.449 17.1893 272.247 19.6213 272.119 22.16C274.508 16.9547 275.703 12.7733 275.703 9.616C275.703 8.80533 275.628 8.176 275.479 7.728C275.351 7.28 275.191 7.056 274.999 7.056ZM265.783 30.928C266.188 30.928 266.593 30.768 266.999 30.448C267.404 30.1067 267.916 29.488 268.535 28.592C268.321 27.44 268.215 26.1493 268.215 24.72C268.215 24.208 268.236 23.376 268.279 22.224C267.105 22.5867 266.124 23.376 265.335 24.592C264.567 25.7867 264.183 27.12 264.183 28.592C264.183 30.1493 264.716 30.928 265.783 30.928ZM281.259 16.976C280.363 16.976 279.691 16.7733 279.243 16.368C278.795 15.9413 278.571 15.3547 278.571 14.608C278.571 13.8613 278.859 13.2427 279.435 12.752C280.033 12.24 280.769 11.984 281.643 11.984C282.433 11.984 283.073 12.176 283.563 12.56C284.054 12.944 284.299 13.488 284.299 14.192C284.299 15.0453 284.022 15.728 283.467 16.24C282.913 16.7307 282.177 16.976 281.259 16.976ZM281.003 34.16C279.617 34.16 278.603 33.6693 277.963 32.688C277.345 31.7067 277.035 30.4053 277.035 28.784C277.035 27.824 277.153 26.5973 277.387 25.104C277.643 23.5893 277.963 22.1813 278.347 20.88C278.539 20.1973 278.795 19.728 279.115 19.472C279.435 19.216 279.947 19.088 280.651 19.088C281.739 19.088 282.283 19.4507 282.283 20.176C282.283 20.7093 282.081 21.9467 281.675 23.888C281.163 26.2347 280.907 27.824 280.907 28.656C280.907 29.296 280.993 29.7867 281.163 30.128C281.334 30.4693 281.622 30.64 282.027 30.64C282.411 30.64 282.891 30.3733 283.467 29.84C284.043 29.3067 284.811 28.464 285.771 27.312C286.027 27.0133 286.315 26.864 286.635 26.864C286.913 26.864 287.126 26.992 287.275 27.248C287.446 27.504 287.531 27.856 287.531 28.304C287.531 29.1573 287.329 29.8187 286.923 30.288C284.811 32.8693 282.838 34.16 281.003 34.16ZM290.894 34.864C289.785 34.864 288.932 34.608 288.334 34.096C287.758 33.584 287.47 33.008 287.47 32.368C287.47 31.8133 287.673 31.3333 288.078 30.928C288.484 30.5227 289.081 30.32 289.87 30.32C290.148 30.32 290.468 30.352 290.83 30.416C291.214 30.4587 291.502 30.4907 291.694 30.512C291.673 29.9573 291.545 29.4347 291.31 28.944C291.097 28.4533 290.82 27.984 290.478 27.536C290.137 27.0667 289.817 26.6613 289.518 26.32C288.857 27.5787 288.196 28.624 287.534 29.456C286.894 30.288 286.19 31.0773 285.422 31.824C285.038 32.208 284.633 32.4 284.206 32.4C283.865 32.4 283.588 32.2827 283.374 32.048C283.161 31.792 283.054 31.4827 283.054 31.12C283.054 30.6933 283.204 30.2987 283.502 29.936L283.918 29.424C285.092 27.9733 285.977 26.7787 286.574 25.84C286.937 25.2213 287.364 24.4 287.854 23.376C288.345 22.3307 288.825 21.2533 289.294 20.144C289.7 19.2053 290.542 18.736 291.822 18.736C292.42 18.736 292.836 18.7893 293.07 18.896C293.305 19.0027 293.422 19.1733 293.422 19.408C293.422 19.536 293.38 19.7387 293.294 20.016C293.209 20.2933 293.092 20.5707 292.942 20.848C292.558 21.616 292.366 22.2667 292.366 22.8C292.366 23.12 292.473 23.472 292.686 23.856C292.921 24.24 293.273 24.72 293.742 25.296C294.425 26.192 294.937 26.96 295.278 27.6C295.641 28.2187 295.822 28.9013 295.822 29.648C295.822 29.8613 295.801 30.16 295.758 30.544C296.804 30.1387 298.03 29.0613 299.438 27.312C299.694 27.0133 299.982 26.864 300.302 26.864C300.58 26.864 300.793 26.992 300.942 27.248C301.113 27.504 301.198 27.856 301.198 28.304C301.198 29.1147 300.996 29.776 300.59 30.288C299.524 31.6107 298.5 32.5173 297.518 33.008C296.558 33.4773 295.364 33.7333 293.934 33.776C293.081 34.5013 292.068 34.864 290.894 34.864ZM304.551 34.864C303.441 34.864 302.588 34.608 301.991 34.096C301.415 33.584 301.127 33.008 301.127 32.368C301.127 31.8133 301.329 31.3333 301.735 30.928C302.14 30.5227 302.737 30.32 303.527 30.32C303.804 30.32 304.124 30.352 304.487 30.416C304.871 30.4587 305.159 30.4907 305.351 30.512C305.329 29.9573 305.201 29.4347 304.967 28.944C304.753 28.4533 304.476 27.984 304.135 27.536C303.793 27.0667 303.473 26.6613 303.175 26.32C302.513 27.5787 301.852 28.624 301.191 29.456C300.551 30.288 299.847 31.0773 299.079 31.824C298.695 32.208 298.289 32.4 297.863 32.4C297.521 32.4 297.244 32.2827 297.03 32.048C296.817 31.792 296.71 31.4827 296.71 31.12C296.71 30.6933 296.86 30.2987 297.159 29.936L297.575 29.424C298.748 27.9733 299.633 26.7787 300.231 25.84C300.593 25.2213 301.02 24.4 301.511 23.376C302.001 22.3307 302.481 21.2533 302.951 20.144C303.356 19.2053 304.199 18.736 305.479 18.736C306.076 18.736 306.492 18.7893 306.727 18.896C306.961 19.0027 307.079 19.1733 307.079 19.408C307.079 19.536 307.036 19.7387 306.951 20.016C306.865 20.2933 306.748 20.5707 306.599 20.848C306.215 21.616 306.023 22.2667 306.023 22.8C306.023 23.12 306.129 23.472 306.343 23.856C306.577 24.24 306.929 24.72 307.399 25.296C308.081 26.192 308.593 26.96 308.935 27.6C309.297 28.2187 309.479 28.9013 309.479 29.648C309.479 29.8613 309.457 30.16 309.415 30.544C310.46 30.1387 311.687 29.0613 313.095 27.312C313.351 27.0133 313.639 26.864 313.958 26.864C314.236 26.864 314.449 26.992 314.599 27.248C314.769 27.504 314.855 27.856 314.855 28.304C314.855 29.1147 314.652 29.776 314.247 30.288C313.18 31.6107 312.156 32.5173 311.175 33.008C310.215 33.4773 309.02 33.7333 307.591 33.776C306.737 34.5013 305.724 34.864 304.551 34.864ZM326.527 26.864C326.804 26.864 327.017 26.992 327.167 27.248C327.337 27.504 327.423 27.856 327.423 28.304C327.423 29.1573 327.22 29.8187 326.815 30.288C326.025 31.248 324.905 32.1333 323.455 32.944C322.025 33.7547 320.489 34.16 318.847 34.16C316.607 34.16 314.868 33.552 313.631 32.336C312.393 31.12 311.775 29.456 311.775 27.344C311.775 25.872 312.084 24.5067 312.703 23.248C313.321 21.968 314.175 20.9547 315.263 20.208C316.372 19.4613 317.62 19.088 319.007 19.088C320.244 19.088 321.236 19.4613 321.983 20.208C322.729 20.9333 323.103 21.9253 323.103 23.184C323.103 24.656 322.569 25.9253 321.503 26.992C320.457 28.0373 318.676 28.8693 316.159 29.488C316.692 30.4693 317.705 30.96 319.199 30.96C320.159 30.96 321.247 30.6293 322.463 29.968C323.7 29.2853 324.767 28.4 325.663 27.312C325.919 27.0133 326.207 26.864 326.527 26.864ZM318.463 22.224C317.673 22.224 317.001 22.6827 316.447 23.6C315.913 24.5173 315.647 25.6267 315.647 26.928V26.992C316.905 26.6933 317.897 26.2453 318.623 25.648C319.348 25.0507 319.711 24.3573 319.711 23.568C319.711 23.1627 319.593 22.8427 319.359 22.608C319.145 22.352 318.847 22.224 318.463 22.224ZM335.761 30.512C336.231 30.4907 336.583 30.6613 336.817 31.024C337.073 31.3653 337.201 31.792 337.201 32.304C337.201 32.8373 337.073 33.3067 336.817 33.712C336.583 34.1173 336.252 34.32 335.825 34.32C335.057 34.32 334.332 34.3093 333.649 34.288C332.988 34.2667 332.401 34.2453 331.889 34.224C329.927 34.1387 328.54 34.096 327.729 34.096C327.452 34.096 327.047 34.192 326.513 34.384C325.831 34.5973 325.361 34.704 325.105 34.704C323.975 34.704 323.409 33.9787 323.409 32.528C323.409 31.5467 323.761 30.4373 324.465 29.2C325.169 27.9413 326.087 26.7253 327.217 25.552C328.348 24.3787 329.521 23.3973 330.737 22.608L326.225 22.736C325.756 22.7573 325.393 22.5973 325.137 22.256C324.903 21.8933 324.785 21.4667 324.785 20.976C324.785 20.464 324.903 20.016 325.137 19.632C325.393 19.2267 325.735 19.024 326.161 19.024C327.1 19.024 328.263 19.0987 329.649 19.248C329.884 19.2693 330.385 19.312 331.153 19.376C331.943 19.44 332.668 19.472 333.329 19.472C333.543 19.472 333.948 19.3867 334.545 19.216C334.652 19.1947 334.855 19.1413 335.153 19.056C335.473 18.9707 335.74 18.928 335.953 18.928C336.295 18.928 336.572 19.0773 336.785 19.376C337.02 19.6747 337.137 20.1333 337.137 20.752C337.137 21.4347 336.967 21.9787 336.625 22.384C336.305 22.7893 335.815 23.152 335.153 23.472C334.407 23.8133 333.532 24.4 332.529 25.232C331.527 26.064 330.577 26.992 329.681 28.016C328.785 29.0187 328.124 29.968 327.697 30.864L335.761 30.512ZM363.562 26.864C363.839 26.864 364.052 26.992 364.202 27.248C364.372 27.504 364.458 27.856 364.458 28.304C364.458 29.1573 364.255 29.8187 363.85 30.288C362.932 31.4187 361.94 32.3467 360.874 33.072C359.828 33.7973 358.634 34.16 357.29 34.16C356.159 34.16 355.242 33.7547 354.538 32.944C353.322 33.7333 352.052 34.1387 350.73 34.16C350.452 38.2773 349.823 41.712 348.842 44.464C347.86 47.2373 346.42 48.624 344.521 48.624C343.369 48.624 342.516 48.208 341.961 47.376C341.407 46.544 341.129 45.392 341.129 43.92C341.129 41.8293 341.609 39.3867 342.569 36.592C343.529 33.8187 345.012 30.7573 347.018 27.408C347.018 24.2933 346.996 22.128 346.954 20.912C346.932 20.2933 347.178 19.8027 347.69 19.44C348.202 19.0773 348.842 18.896 349.61 18.896C350.058 18.896 350.378 18.992 350.57 19.184C350.783 19.3547 350.9 19.7067 350.922 20.24C350.922 20.7733 350.932 21.168 350.954 21.424C351.636 20.5707 352.308 19.9627 352.97 19.6C353.631 19.216 354.335 19.024 355.082 19.024C356.276 19.024 357.247 19.504 357.994 20.464C358.762 21.424 359.146 22.6827 359.146 24.24C359.146 25.3707 358.964 26.4693 358.602 27.536C358.239 28.6027 357.738 29.5733 357.098 30.448C357.546 30.576 357.919 30.64 358.218 30.64C358.922 30.64 359.594 30.384 360.234 29.872C360.874 29.36 361.695 28.5067 362.698 27.312C362.954 27.0133 363.242 26.864 363.562 26.864ZM350.89 31.088C351.658 30.9173 352.362 30.5013 353.002 29.84C353.663 29.1573 354.186 28.3253 354.57 27.344C354.954 26.3413 355.146 25.296 355.146 24.208C355.146 23.568 355.018 23.088 354.762 22.768C354.506 22.4267 354.164 22.256 353.738 22.256C352.97 22.256 352.042 23.0667 350.954 24.688C350.932 25.6267 350.922 27.0027 350.922 28.816C350.922 29.7973 350.911 30.5547 350.89 31.088ZM344.777 45.488C345.354 45.488 345.834 44.2293 346.218 41.712C346.602 39.216 346.847 36.1013 346.954 32.368C346.036 34.5013 345.311 36.5387 344.777 38.48C344.244 40.4213 343.977 42.0533 343.977 43.376C343.977 44.0587 344.063 44.5813 344.233 44.944C344.383 45.3067 344.564 45.488 344.777 45.488ZM378.2 24.176C378.477 24.176 378.69 24.3147 378.84 24.592C378.989 24.8693 379.064 25.2213 379.064 25.648C379.064 26.672 378.754 27.28 378.136 27.472C376.856 27.92 375.448 28.176 373.912 28.24C373.506 30.032 372.706 31.472 371.512 32.56C370.317 33.6267 368.962 34.16 367.448 34.16C366.168 34.16 365.069 33.8507 364.152 33.232C363.256 32.6133 362.573 31.792 362.104 30.768C361.634 29.744 361.4 28.6347 361.4 27.44C361.4 25.8187 361.709 24.3787 362.328 23.12C362.946 21.84 363.8 20.848 364.888 20.144C365.976 19.4187 367.181 19.056 368.504 19.056C370.125 19.056 371.426 19.6213 372.408 20.752C373.41 21.8613 373.997 23.2373 374.168 24.88C375.17 24.816 376.365 24.6027 377.752 24.24C377.922 24.1973 378.072 24.176 378.2 24.176ZM367.704 30.768C368.386 30.768 368.973 30.4907 369.464 29.936C369.976 29.3813 370.317 28.5813 370.488 27.536C369.826 27.088 369.314 26.5013 368.952 25.776C368.61 25.0507 368.44 24.2827 368.44 23.472C368.44 23.1307 368.472 22.7893 368.536 22.448H368.376C367.522 22.448 366.808 22.864 366.232 23.696C365.677 24.5067 365.4 25.6587 365.4 27.152C365.4 28.3253 365.624 29.2213 366.072 29.84C366.541 30.4587 367.085 30.768 367.704 30.768ZM379.581 34.16C378.621 34.16 377.832 33.7227 377.213 32.848C376.616 31.952 376.317 30.8427 376.317 29.52C376.317 27.92 376.424 26.4587 376.637 25.136C376.851 23.792 377.203 22.3733 377.693 20.88C377.907 20.24 378.205 19.7813 378.589 19.504C378.973 19.2267 379.581 19.088 380.413 19.088C380.883 19.088 381.203 19.1627 381.373 19.312C381.565 19.4613 381.661 19.6853 381.661 19.984C381.661 20.1547 381.544 20.7307 381.309 21.712C381.096 22.5013 380.925 23.216 380.797 23.856C380.371 26.096 380.157 27.5893 380.157 28.336C380.157 28.784 380.211 29.104 380.317 29.296C380.424 29.4667 380.595 29.552 380.829 29.552C381.149 29.552 381.544 29.232 382.013 28.592C382.504 27.952 383.016 26.9813 383.549 25.68C384.104 24.3787 384.637 22.7787 385.149 20.88C385.32 20.24 385.576 19.7813 385.917 19.504C386.28 19.2267 386.813 19.088 387.517 19.088C388.008 19.088 388.349 19.152 388.541 19.28C388.733 19.3867 388.829 19.6 388.829 19.92C388.829 20.4533 388.563 21.9147 388.029 24.304C387.432 27.0347 387.133 28.72 387.133 29.36C387.133 29.7653 387.219 30.0853 387.389 30.32C387.56 30.5333 387.784 30.64 388.061 30.64C388.488 30.64 388.989 30.384 389.565 29.872C390.163 29.3387 390.952 28.4853 391.933 27.312C392.189 27.0133 392.477 26.864 392.797 26.864C393.075 26.864 393.288 26.992 393.437 27.248C393.608 27.504 393.693 27.856 393.693 28.304C393.693 29.1573 393.491 29.8187 393.085 30.288C392.168 31.4187 391.176 32.3467 390.109 33.072C389.064 33.7973 387.869 34.16 386.525 34.16C385.501 34.16 384.744 33.7653 384.253 32.976C383.784 32.1867 383.549 31.0773 383.549 29.648C383.187 31.0987 382.643 32.2187 381.917 33.008C381.192 33.776 380.413 34.16 379.581 34.16ZM404.027 23.472C404.496 23.472 404.891 23.6427 405.211 23.984C405.552 24.304 405.722 24.7093 405.722 25.2C405.722 25.4773 405.659 25.776 405.531 26.096C405.189 26.8853 404.709 27.5467 404.091 28.08C403.472 28.6133 402.789 28.88 402.043 28.88C401.445 28.88 400.933 28.6667 400.507 28.24C400.101 27.8133 399.899 27.2373 399.899 26.512C399.899 26.1067 399.92 25.6693 399.963 25.2C400.005 24.8587 400.027 24.624 400.027 24.496C400.027 24.3253 399.984 24.1973 399.899 24.112C399.835 24.0267 399.749 23.984 399.643 23.984C399.344 23.984 398.939 24.3467 398.427 25.072C397.915 25.776 397.403 26.7147 396.891 27.888C396.379 29.0613 395.963 30.2987 395.643 31.6C395.408 32.624 395.141 33.3067 394.843 33.648C394.544 33.9893 394.053 34.16 393.371 34.16C392.56 34.16 391.984 33.7333 391.643 32.88C391.323 32.0267 391.163 30.6613 391.163 28.784C391.163 26.0107 391.557 23.376 392.347 20.88C392.539 20.2613 392.848 19.8133 393.275 19.536C393.723 19.2373 394.341 19.088 395.131 19.088C395.557 19.088 395.856 19.1413 396.027 19.248C396.197 19.3547 396.283 19.5573 396.283 19.856C396.283 20.1973 396.123 20.9653 395.803 22.16C395.589 23.0133 395.419 23.76 395.291 24.4C395.163 25.04 395.056 25.8293 394.971 26.768C395.675 24.9333 396.464 23.44 397.339 22.288C398.213 21.136 399.067 20.3147 399.899 19.824C400.731 19.3333 401.488 19.088 402.171 19.088C402.789 19.088 403.259 19.2693 403.579 19.632C403.92 19.9733 404.091 20.4853 404.091 21.168C404.091 21.5733 403.973 22.3413 403.739 23.472H404.027ZM431.251 24.272C431.315 24.2507 431.422 24.24 431.571 24.24C431.891 24.24 432.136 24.3467 432.307 24.56C432.478 24.7733 432.563 25.0613 432.563 25.424C432.563 26.0853 432.435 26.608 432.179 26.992C431.923 27.3547 431.539 27.6213 431.027 27.792C430.046 28.112 429 28.272 427.891 28.272C426.952 28.272 426.067 28.144 425.235 27.888C424.616 28.8907 423.934 29.9253 423.187 30.992C422.334 32.208 421.598 33.04 420.979 33.488C420.36 33.936 419.656 34.16 418.867 34.16C417.992 34.16 417.299 33.8187 416.787 33.136C416.296 32.4533 415.987 31.376 415.859 29.904C415.603 26.9173 415.475 24.304 415.475 22.064V20.944C415.496 20.24 415.688 19.7493 416.051 19.472C416.414 19.1947 416.958 19.056 417.683 19.056C418.238 19.056 418.643 19.184 418.899 19.44C419.176 19.6747 419.315 20.08 419.315 20.656C419.315 23.1093 419.464 26.2987 419.763 30.224C421.043 28.3253 422.003 26.8107 422.643 25.68C422.323 25.0613 422.163 24.3253 422.163 23.472C422.163 22.7467 422.323 22.0427 422.643 21.36C422.963 20.6773 423.4 20.1227 423.955 19.696C424.51 19.2693 425.139 19.056 425.843 19.056C426.462 19.056 426.963 19.28 427.347 19.728C427.731 20.1547 427.923 20.784 427.923 21.616C427.923 22.576 427.667 23.6747 427.155 24.912C427.966 24.8693 429.043 24.7093 430.387 24.432L431.251 24.272ZM446.106 24.176C446.383 24.176 446.597 24.3147 446.746 24.592C446.895 24.8693 446.97 25.2213 446.97 25.648C446.97 26.672 446.661 27.28 446.042 27.472C444.762 27.92 443.354 28.176 441.818 28.24C441.413 30.032 440.613 31.472 439.418 32.56C438.223 33.6267 436.869 34.16 435.354 34.16C434.074 34.16 432.975 33.8507 432.058 33.232C431.162 32.6133 430.479 31.792 430.01 30.768C429.541 29.744 429.306 28.6347 429.306 27.44C429.306 25.8187 429.615 24.3787 430.234 23.12C430.853 21.84 431.706 20.848 432.794 20.144C433.882 19.4187 435.087 19.056 436.41 19.056C438.031 19.056 439.333 19.6213 440.314 20.752C441.317 21.8613 441.903 23.2373 442.074 24.88C443.077 24.816 444.271 24.6027 445.658 24.24C445.829 24.1973 445.978 24.176 446.106 24.176ZM435.61 30.768C436.293 30.768 436.879 30.4907 437.37 29.936C437.882 29.3813 438.223 28.5813 438.394 27.536C437.733 27.088 437.221 26.5013 436.858 25.776C436.517 25.0507 436.346 24.2827 436.346 23.472C436.346 23.1307 436.378 22.7893 436.442 22.448H436.282C435.429 22.448 434.714 22.864 434.138 23.696C433.583 24.5067 433.306 25.6587 433.306 27.152C433.306 28.3253 433.53 29.2213 433.978 29.84C434.447 30.4587 434.991 30.768 435.61 30.768ZM448.416 16.976C447.52 16.976 446.848 16.7733 446.4 16.368C445.952 15.9413 445.728 15.3547 445.728 14.608C445.728 13.8613 446.016 13.2427 446.592 12.752C447.189 12.24 447.925 11.984 448.8 11.984C449.589 11.984 450.229 12.176 450.72 12.56C451.21 12.944 451.456 13.488 451.456 14.192C451.456 15.0453 451.178 15.728 450.624 16.24C450.069 16.7307 449.333 16.976 448.416 16.976ZM448.16 34.16C446.773 34.16 445.76 33.6693 445.12 32.688C444.501 31.7067 444.192 30.4053 444.192 28.784C444.192 27.824 444.309 26.5973 444.544 25.104C444.8 23.5893 445.12 22.1813 445.504 20.88C445.696 20.1973 445.952 19.728 446.272 19.472C446.592 19.216 447.104 19.088 447.808 19.088C448.896 19.088 449.44 19.4507 449.44 20.176C449.44 20.7093 449.237 21.9467 448.832 23.888C448.32 26.2347 448.064 27.824 448.064 28.656C448.064 29.296 448.149 29.7867 448.32 30.128C448.49 30.4693 448.778 30.64 449.184 30.64C449.568 30.64 450.048 30.3733 450.624 29.84C451.2 29.3067 451.968 28.464 452.928 27.312C453.184 27.0133 453.472 26.864 453.792 26.864C454.069 26.864 454.282 26.992 454.432 27.248C454.602 27.504 454.688 27.856 454.688 28.304C454.688 29.1573 454.485 29.8187 454.08 30.288C451.968 32.8693 449.994 34.16 448.16 34.16ZM465.027 23.472C465.496 23.472 465.891 23.6427 466.211 23.984C466.552 24.304 466.722 24.7093 466.722 25.2C466.722 25.4773 466.659 25.776 466.531 26.096C466.189 26.8853 465.709 27.5467 465.091 28.08C464.472 28.6133 463.789 28.88 463.043 28.88C462.445 28.88 461.933 28.6667 461.507 28.24C461.101 27.8133 460.899 27.2373 460.899 26.512C460.899 26.1067 460.92 25.6693 460.963 25.2C461.005 24.8587 461.027 24.624 461.027 24.496C461.027 24.3253 460.984 24.1973 460.899 24.112C460.835 24.0267 460.749 23.984 460.643 23.984C460.344 23.984 459.939 24.3467 459.427 25.072C458.915 25.776 458.403 26.7147 457.891 27.888C457.379 29.0613 456.963 30.2987 456.643 31.6C456.408 32.624 456.141 33.3067 455.843 33.648C455.544 33.9893 455.053 34.16 454.371 34.16C453.56 34.16 452.984 33.7333 452.643 32.88C452.323 32.0267 452.163 30.6613 452.163 28.784C452.163 26.0107 452.557 23.376 453.347 20.88C453.539 20.2613 453.848 19.8133 454.275 19.536C454.723 19.2373 455.341 19.088 456.131 19.088C456.557 19.088 456.856 19.1413 457.027 19.248C457.197 19.3547 457.283 19.5573 457.283 19.856C457.283 20.1973 457.123 20.9653 456.803 22.16C456.589 23.0133 456.419 23.76 456.291 24.4C456.163 25.04 456.056 25.8293 455.971 26.768C456.675 24.9333 457.464 23.44 458.339 22.288C459.213 21.136 460.067 20.3147 460.899 19.824C461.731 19.3333 462.488 19.088 463.171 19.088C463.789 19.088 464.259 19.2693 464.579 19.632C464.92 19.9733 465.091 20.4853 465.091 21.168C465.091 21.5733 464.973 22.3413 464.739 23.472H465.027ZM245.742 67.864C246.019 67.864 246.233 67.992 246.382 68.248C246.553 68.504 246.638 68.856 246.638 69.304C246.638 70.1573 246.435 70.8187 246.03 71.288C245.113 72.4187 244.11 73.3467 243.022 74.072C241.955 74.7973 240.739 75.16 239.374 75.16C237.497 75.16 236.099 74.3067 235.182 72.6C234.286 70.8933 233.838 68.6853 233.838 65.976C233.838 63.3733 234.169 60.408 234.83 57.08C235.513 53.752 236.505 50.8933 237.806 48.504C239.129 46.1147 240.697 44.92 242.51 44.92C243.534 44.92 244.334 45.4 244.91 46.36C245.507 47.2987 245.806 48.6533 245.806 50.424C245.806 52.9627 245.102 55.9067 243.694 59.256C242.286 62.6053 240.377 65.9227 237.966 69.208C238.115 70.0827 238.361 70.712 238.702 71.096C239.043 71.4587 239.491 71.64 240.046 71.64C240.921 71.64 241.689 71.3947 242.35 70.904C243.011 70.392 243.854 69.528 244.878 68.312C245.134 68.0133 245.422 67.864 245.742 67.864ZM241.806 48.088C241.315 48.088 240.761 48.9733 240.142 50.744C239.523 52.5147 238.979 54.712 238.51 57.336C238.041 59.96 237.785 62.4773 237.742 64.888C239.257 62.392 240.462 59.896 241.358 57.4C242.254 54.8827 242.702 52.5893 242.702 50.52C242.702 48.8987 242.403 48.088 241.806 48.088ZM258.324 67.864C258.601 67.864 258.814 67.992 258.964 68.248C259.134 68.504 259.22 68.856 259.22 69.304C259.22 70.1573 259.017 70.8187 258.612 71.288C257.822 72.248 256.702 73.1333 255.252 73.944C253.822 74.7547 252.286 75.16 250.644 75.16C248.404 75.16 246.665 74.552 245.428 73.336C244.19 72.12 243.572 70.456 243.572 68.344C243.572 66.872 243.881 65.5067 244.5 64.248C245.118 62.968 245.972 61.9547 247.06 61.208C248.169 60.4613 249.417 60.088 250.804 60.088C252.041 60.088 253.033 60.4613 253.78 61.208C254.526 61.9333 254.9 62.9253 254.9 64.184C254.9 65.656 254.366 66.9253 253.3 67.992C252.254 69.0373 250.473 69.8693 247.956 70.488C248.489 71.4693 249.502 71.96 250.996 71.96C251.956 71.96 253.044 71.6293 254.26 70.968C255.497 70.2853 256.564 69.4 257.46 68.312C257.716 68.0133 258.004 67.864 258.324 67.864ZM250.26 63.224C249.47 63.224 248.798 63.6827 248.244 64.6C247.71 65.5173 247.444 66.6267 247.444 67.928V67.992C248.702 67.6933 249.694 67.2453 250.42 66.648C251.145 66.0507 251.508 65.3573 251.508 64.568C251.508 64.1627 251.39 63.8427 251.156 63.608C250.942 63.352 250.644 63.224 250.26 63.224ZM262.566 75.864C261.457 75.864 260.603 75.608 260.006 75.096C259.43 74.584 259.142 74.008 259.142 73.368C259.142 72.8133 259.345 72.3333 259.75 71.928C260.155 71.5227 260.753 71.32 261.542 71.32C261.819 71.32 262.139 71.352 262.502 71.416C262.886 71.4587 263.174 71.4907 263.366 71.512C263.345 70.9573 263.217 70.4347 262.982 69.944C262.769 69.4533 262.491 68.984 262.15 68.536C261.809 68.0667 261.489 67.6613 261.19 67.32C260.529 68.5787 259.867 69.624 259.206 70.456C258.566 71.288 257.862 72.0773 257.094 72.824C256.71 73.208 256.305 73.4 255.878 73.4C255.537 73.4 255.259 73.2827 255.046 73.048C254.833 72.792 254.726 72.4827 254.726 72.12C254.726 71.6933 254.875 71.2987 255.174 70.936L255.59 70.424C256.763 68.9733 257.649 67.7787 258.246 66.84C258.63 66.2213 259.014 65.4853 259.398 64.632C259.803 63.7787 260.326 62.616 260.966 61.144C261.371 60.2053 262.214 59.736 263.494 59.736C264.091 59.736 264.507 59.7893 264.742 59.896C264.977 60.0027 265.094 60.1733 265.094 60.408C265.094 60.536 265.051 60.7387 264.966 61.016C264.881 61.2933 264.763 61.5707 264.614 61.848C264.23 62.616 264.038 63.2667 264.038 63.8C264.038 64.12 264.145 64.472 264.358 64.856C264.593 65.24 264.945 65.72 265.414 66.296C266.097 67.192 266.609 67.96 266.95 68.6C267.313 69.2187 267.494 69.9013 267.494 70.648C267.494 71.544 267.281 72.3973 266.854 73.208C266.449 73.9973 265.873 74.6373 265.126 75.128C264.379 75.6187 263.526 75.864 262.566 75.864ZM294.765 67.864C295.042 67.864 295.255 67.992 295.405 68.248C295.575 68.504 295.661 68.856 295.661 69.304C295.661 70.1573 295.458 70.8187 295.053 71.288C294.135 72.4187 293.143 73.3467 292.077 74.072C291.031 74.7973 289.837 75.16 288.493 75.16C287.362 75.16 286.445 74.7547 285.741 73.944C284.525 74.7333 283.255 75.1387 281.933 75.16C281.655 79.2773 281.026 82.712 280.045 85.464C279.063 88.2373 277.623 89.624 275.725 89.624C274.573 89.624 273.719 89.208 273.165 88.376C272.61 87.544 272.333 86.392 272.333 84.92C272.333 82.8293 272.813 80.3867 273.773 77.592C274.733 74.8187 276.215 71.7573 278.221 68.408C278.221 65.2933 278.199 63.128 278.157 61.912C278.135 61.2933 278.381 60.8027 278.893 60.44C279.405 60.0773 280.045 59.896 280.813 59.896C281.261 59.896 281.581 59.992 281.773 60.184C281.986 60.3547 282.103 60.7067 282.125 61.24C282.125 61.7733 282.135 62.168 282.157 62.424C282.839 61.5707 283.511 60.9627 284.173 60.6C284.834 60.216 285.538 60.024 286.285 60.024C287.479 60.024 288.45 60.504 289.197 61.464C289.965 62.424 290.349 63.6827 290.349 65.24C290.349 66.3707 290.167 67.4693 289.805 68.536C289.442 69.6027 288.941 70.5733 288.301 71.448C288.749 71.576 289.122 71.64 289.421 71.64C290.125 71.64 290.797 71.384 291.437 70.872C292.077 70.36 292.898 69.5067 293.901 68.312C294.157 68.0133 294.445 67.864 294.765 67.864ZM282.093 72.088C282.861 71.9173 283.565 71.5013 284.205 70.84C284.866 70.1573 285.389 69.3253 285.773 68.344C286.157 67.3413 286.349 66.296 286.349 65.208C286.349 64.568 286.221 64.088 285.965 63.768C285.709 63.4267 285.367 63.256 284.941 63.256C284.173 63.256 283.245 64.0667 282.157 65.688C282.135 66.6267 282.125 68.0027 282.125 69.816C282.125 70.7973 282.114 71.5547 282.093 72.088ZM275.981 86.488C276.557 86.488 277.037 85.2293 277.421 82.712C277.805 80.216 278.05 77.1013 278.157 73.368C277.239 75.5013 276.514 77.5387 275.981 79.48C275.447 81.4213 275.181 83.0533 275.181 84.376C275.181 85.0587 275.266 85.5813 275.437 85.944C275.586 86.3067 275.767 86.488 275.981 86.488ZM295.355 75.16C294.544 75.16 293.968 74.7333 293.627 73.88C293.307 73.0267 293.147 71.6613 293.147 69.784C293.147 67.0107 293.542 64.376 294.331 61.88C294.523 61.2613 294.832 60.8133 295.259 60.536C295.707 60.2373 296.326 60.088 297.115 60.088C297.542 60.088 297.84 60.1413 298.011 60.248C298.182 60.3547 298.267 60.5573 298.267 60.856C298.267 61.1973 298.107 61.9653 297.787 63.16C297.574 64.0133 297.403 64.76 297.275 65.4C297.147 66.04 297.04 66.8293 296.955 67.768C297.659 65.9333 298.448 64.44 299.323 63.288C300.198 62.136 301.051 61.3147 301.883 60.824C302.736 60.3333 303.515 60.088 304.219 60.088C305.606 60.088 306.299 60.7813 306.299 62.168C306.299 62.4453 306.203 63.1173 306.011 64.184C305.84 65.0373 305.755 65.5707 305.755 65.784C305.755 66.5307 306.022 66.904 306.555 66.904C307.152 66.904 307.92 66.4347 308.859 65.496C309.136 65.2187 309.424 65.08 309.723 65.08C310 65.08 310.214 65.208 310.363 65.464C310.534 65.6987 310.619 66.0187 310.619 66.424C310.619 67.2133 310.406 67.832 309.979 68.28C309.382 68.8987 308.678 69.432 307.867 69.88C307.078 70.3067 306.235 70.52 305.339 70.52C304.208 70.52 303.344 70.232 302.747 69.656C302.171 69.08 301.883 68.3013 301.883 67.32C301.883 67 301.915 66.68 301.979 66.36C302.022 65.9333 302.043 65.6453 302.043 65.496C302.043 65.1547 301.926 64.984 301.691 64.984C301.371 64.984 300.944 65.3467 300.411 66.072C299.899 66.776 299.387 67.7147 298.875 68.888C298.363 70.0613 297.947 71.2987 297.627 72.6C297.392 73.6027 297.115 74.2853 296.795 74.648C296.496 74.9893 296.016 75.16 295.355 75.16ZM323.965 65.176C324.243 65.176 324.456 65.3147 324.605 65.592C324.755 65.8693 324.829 66.2213 324.829 66.648C324.829 67.672 324.52 68.28 323.901 68.472C322.621 68.92 321.213 69.176 319.677 69.24C319.272 71.032 318.472 72.472 317.277 73.56C316.083 74.6267 314.728 75.16 313.213 75.16C311.933 75.16 310.835 74.8507 309.917 74.232C309.021 73.6133 308.339 72.792 307.869 71.768C307.4 70.744 307.165 69.6347 307.165 68.44C307.165 66.8187 307.475 65.3787 308.093 64.12C308.712 62.84 309.565 61.848 310.653 61.144C311.741 60.4187 312.947 60.056 314.269 60.056C315.891 60.056 317.192 60.6213 318.173 61.752C319.176 62.8613 319.763 64.2373 319.933 65.88C320.936 65.816 322.131 65.6027 323.517 65.24C323.688 65.1973 323.837 65.176 323.965 65.176ZM313.469 71.768C314.152 71.768 314.739 71.4907 315.229 70.936C315.741 70.3813 316.083 69.5813 316.253 68.536C315.592 68.088 315.08 67.5013 314.717 66.776C314.376 66.0507 314.205 65.2827 314.205 64.472C314.205 64.1307 314.237 63.7893 314.301 63.448H314.141C313.288 63.448 312.573 63.864 311.997 64.696C311.443 65.5067 311.165 66.6587 311.165 68.152C311.165 69.3253 311.389 70.2213 311.837 70.84C312.307 71.4587 312.851 71.768 313.469 71.768ZM337.167 67.864C337.445 67.864 337.658 67.992 337.807 68.248C337.978 68.504 338.063 68.856 338.063 69.304C338.063 70.1573 337.861 70.8187 337.455 71.288C336.538 72.4187 335.535 73.3467 334.447 74.072C333.359 74.7973 332.111 75.16 330.703 75.16C326.351 75.16 324.175 72.0987 324.175 65.976C324.175 65.0373 324.207 64.088 324.271 63.128H323.023C322.383 63.128 321.946 63.0107 321.711 62.776C321.498 62.5413 321.391 62.168 321.391 61.656C321.391 60.4613 321.871 59.864 322.831 59.864H324.655C325.018 57.5173 325.573 55.3733 326.319 53.432C327.066 51.4907 327.962 49.944 329.007 48.792C330.074 47.64 331.215 47.064 332.431 47.064C333.327 47.064 334.031 47.4587 334.543 48.248C335.055 49.0373 335.311 50.0293 335.311 51.224C335.311 54.5307 333.925 57.4107 331.151 59.864H334.735C335.077 59.864 335.322 59.9387 335.471 60.088C335.621 60.2373 335.695 60.5147 335.695 60.92C335.695 62.392 334.49 63.128 332.079 63.128H328.175C328.133 64.1947 328.111 65.0267 328.111 65.624C328.111 67.8427 328.367 69.4 328.879 70.296C329.413 71.192 330.245 71.64 331.375 71.64C332.293 71.64 333.103 71.3627 333.807 70.808C334.511 70.2533 335.343 69.4213 336.303 68.312C336.559 68.0133 336.847 67.864 337.167 67.864ZM331.567 50.136C331.247 50.136 330.885 50.5413 330.479 51.352C330.095 52.1413 329.722 53.2507 329.359 54.68C329.018 56.088 328.73 57.656 328.495 59.384C329.754 58.296 330.693 57.08 331.311 55.736C331.951 54.3707 332.271 53.1333 332.271 52.024C332.271 50.7653 332.037 50.136 331.567 50.136ZM351.778 65.176C352.055 65.176 352.269 65.3147 352.418 65.592C352.567 65.8693 352.642 66.2213 352.642 66.648C352.642 67.672 352.333 68.28 351.714 68.472C350.434 68.92 349.026 69.176 347.49 69.24C347.085 71.032 346.285 72.472 345.09 73.56C343.895 74.6267 342.541 75.16 341.026 75.16C339.746 75.16 338.647 74.8507 337.73 74.232C336.834 73.6133 336.151 72.792 335.682 71.768C335.213 70.744 334.978 69.6347 334.978 68.44C334.978 66.8187 335.287 65.3787 335.906 64.12C336.525 62.84 337.378 61.848 338.466 61.144C339.554 60.4187 340.759 60.056 342.082 60.056C343.703 60.056 345.005 60.6213 345.986 61.752C346.989 62.8613 347.575 64.2373 347.746 65.88C348.749 65.816 349.943 65.6027 351.33 65.24C351.501 65.1973 351.65 65.176 351.778 65.176ZM341.282 71.768C341.965 71.768 342.551 71.4907 343.042 70.936C343.554 70.3813 343.895 69.5813 344.066 68.536C343.405 68.088 342.893 67.5013 342.53 66.776C342.189 66.0507 342.018 65.2827 342.018 64.472C342.018 64.1307 342.05 63.7893 342.114 63.448H341.954C341.101 63.448 340.386 63.864 339.81 64.696C339.255 65.5067 338.978 66.6587 338.978 68.152C338.978 69.3253 339.202 70.2213 339.65 70.84C340.119 71.4587 340.663 71.768 341.282 71.768ZM364.98 67.864C365.257 67.864 365.471 67.992 365.62 68.248C365.791 68.504 365.876 68.856 365.876 69.304C365.876 70.1573 365.673 70.8187 365.268 71.288C364.351 72.4187 363.348 73.3467 362.26 74.072C361.172 74.7973 359.924 75.16 358.516 75.16C354.164 75.16 351.988 72.0987 351.988 65.976C351.988 65.0373 352.02 64.088 352.084 63.128H350.836C350.196 63.128 349.759 63.0107 349.524 62.776C349.311 62.5413 349.204 62.168 349.204 61.656C349.204 60.4613 349.684 59.864 350.644 59.864H352.468C352.831 57.5173 353.385 55.3733 354.132 53.432C354.879 51.4907 355.775 49.944 356.82 48.792C357.887 47.64 359.028 47.064 360.244 47.064C361.14 47.064 361.844 47.4587 362.356 48.248C362.868 49.0373 363.124 50.0293 363.124 51.224C363.124 54.5307 361.737 57.4107 358.964 59.864H362.548C362.889 59.864 363.135 59.9387 363.284 60.088C363.433 60.2373 363.508 60.5147 363.508 60.92C363.508 62.392 362.303 63.128 359.892 63.128H355.988C355.945 64.1947 355.924 65.0267 355.924 65.624C355.924 67.8427 356.18 69.4 356.692 70.296C357.225 71.192 358.057 71.64 359.188 71.64C360.105 71.64 360.916 71.3627 361.62 70.808C362.324 70.2533 363.156 69.4213 364.116 68.312C364.372 68.0133 364.66 67.864 364.98 67.864ZM359.38 50.136C359.06 50.136 358.697 50.5413 358.292 51.352C357.908 52.1413 357.535 53.2507 357.172 54.68C356.831 56.088 356.543 57.656 356.308 59.384C357.567 58.296 358.505 57.08 359.124 55.736C359.764 54.3707 360.084 53.1333 360.084 52.024C360.084 50.7653 359.849 50.136 359.38 50.136ZM379.654 67.928C379.932 67.928 380.145 68.0667 380.294 68.344C380.465 68.6 380.55 68.9307 380.55 69.336C380.55 69.8267 380.476 70.2107 380.326 70.488C380.177 70.7653 379.942 71.0107 379.622 71.224L373.478 75.352C372.668 79.768 371.601 83.2347 370.278 85.752C368.977 88.2907 367.313 89.56 365.286 89.56C364.198 89.56 363.313 89.2187 362.63 88.536C361.948 87.8747 361.606 87 361.606 85.912C361.606 84.9093 361.83 83.8853 362.278 82.84C362.748 81.7947 363.601 80.5893 364.838 79.224C366.097 77.88 367.868 76.3333 370.15 74.584L370.246 73.848C370.396 73.0587 370.566 71.928 370.758 70.456C370.332 71.992 369.734 73.1653 368.966 73.976C368.198 74.7653 367.388 75.16 366.534 75.16C365.574 75.16 364.785 74.7227 364.166 73.848C363.569 72.952 363.27 71.8427 363.27 70.52C363.27 68.92 363.377 67.4587 363.59 66.136C363.804 64.792 364.156 63.3733 364.646 61.88C364.86 61.24 365.158 60.7813 365.542 60.504C365.926 60.2267 366.534 60.088 367.366 60.088C367.836 60.088 368.156 60.1627 368.326 60.312C368.518 60.4613 368.614 60.6853 368.614 60.984C368.614 61.1547 368.497 61.7307 368.262 62.712C368.049 63.5013 367.878 64.216 367.75 64.856C367.58 65.7307 367.43 66.5733 367.302 67.384C367.174 68.1733 367.11 68.824 367.11 69.336C367.11 70.1467 367.334 70.552 367.782 70.552C368.102 70.552 368.497 70.232 368.966 69.592C369.457 68.952 369.969 67.9813 370.502 66.68C371.057 65.3787 371.59 63.7787 372.102 61.88C372.273 61.24 372.529 60.7813 372.87 60.504C373.233 60.2267 373.766 60.088 374.47 60.088C374.961 60.088 375.302 60.152 375.494 60.28C375.686 60.408 375.782 60.6213 375.782 60.92C375.782 61.4533 375.505 63.288 374.95 66.424L374.118 71.576C375.761 70.3387 377.361 69.208 378.918 68.184C379.196 68.0133 379.441 67.928 379.654 67.928ZM365.638 86.456C366.172 86.456 366.769 85.8373 367.43 84.6C368.092 83.3627 368.753 81.304 369.414 78.424C367.772 79.8107 366.577 81.0693 365.83 82.2C365.105 83.352 364.742 84.3547 364.742 85.208C364.742 85.5707 364.806 85.8693 364.934 86.104C365.084 86.3387 365.318 86.456 365.638 86.456ZM395.983 67.864C396.261 67.864 396.474 67.992 396.623 68.248C396.794 68.504 396.879 68.856 396.879 69.304C396.879 70.1573 396.677 70.8187 396.271 71.288C395.354 72.4187 394.362 73.3467 393.295 74.072C392.25 74.7973 391.055 75.16 389.711 75.16C388.581 75.16 387.663 74.7547 386.959 73.944C385.743 74.7333 384.474 75.1387 383.151 75.16C382.874 79.2773 382.245 82.712 381.263 85.464C380.282 88.2373 378.842 89.624 376.943 89.624C375.791 89.624 374.938 89.208 374.383 88.376C373.829 87.544 373.551 86.392 373.551 84.92C373.551 82.8293 374.031 80.3867 374.991 77.592C375.951 74.8187 377.434 71.7573 379.439 68.408C379.439 65.2933 379.418 63.128 379.375 61.912C379.354 61.2933 379.599 60.8027 380.111 60.44C380.623 60.0773 381.263 59.896 382.031 59.896C382.479 59.896 382.799 59.992 382.991 60.184C383.205 60.3547 383.322 60.7067 383.343 61.24C383.343 61.7733 383.354 62.168 383.375 62.424C384.058 61.5707 384.73 60.9627 385.391 60.6C386.053 60.216 386.757 60.024 387.503 60.024C388.698 60.024 389.669 60.504 390.415 61.464C391.183 62.424 391.567 63.6827 391.567 65.24C391.567 66.3707 391.386 67.4693 391.023 68.536C390.661 69.6027 390.159 70.5733 389.519 71.448C389.967 71.576 390.341 71.64 390.639 71.64C391.343 71.64 392.015 71.384 392.655 70.872C393.295 70.36 394.117 69.5067 395.119 68.312C395.375 68.0133 395.663 67.864 395.983 67.864ZM383.311 72.088C384.079 71.9173 384.783 71.5013 385.423 70.84C386.085 70.1573 386.607 69.3253 386.991 68.344C387.375 67.3413 387.567 66.296 387.567 65.208C387.567 64.568 387.439 64.088 387.183 63.768C386.927 63.4267 386.586 63.256 386.159 63.256C385.391 63.256 384.463 64.0667 383.375 65.688C383.354 66.6267 383.343 68.0027 383.343 69.816C383.343 70.7973 383.333 71.5547 383.311 72.088ZM377.199 86.488C377.775 86.488 378.255 85.2293 378.639 82.712C379.023 80.216 379.269 77.1013 379.375 73.368C378.458 75.5013 377.733 77.5387 377.199 79.48C376.666 81.4213 376.399 83.0533 376.399 84.376C376.399 85.0587 376.485 85.5813 376.655 85.944C376.805 86.3067 376.986 86.488 377.199 86.488ZM408.574 67.864C408.851 67.864 409.064 67.992 409.214 68.248C409.384 68.504 409.47 68.856 409.47 69.304C409.47 70.1573 409.267 70.8187 408.862 71.288C408.072 72.248 406.952 73.1333 405.502 73.944C404.072 74.7547 402.536 75.16 400.894 75.16C398.654 75.16 396.915 74.552 395.678 73.336C394.44 72.12 393.822 70.456 393.822 68.344C393.822 66.872 394.131 65.5067 394.75 64.248C395.368 62.968 396.222 61.9547 397.31 61.208C398.419 60.4613 399.667 60.088 401.054 60.088C402.291 60.088 403.283 60.4613 404.03 61.208C404.776 61.9333 405.15 62.9253 405.15 64.184C405.15 65.656 404.616 66.9253 403.55 67.992C402.504 69.0373 400.723 69.8693 398.206 70.488C398.739 71.4693 399.752 71.96 401.246 71.96C402.206 71.96 403.294 71.6293 404.51 70.968C405.747 70.2853 406.814 69.4 407.71 68.312C407.966 68.0133 408.254 67.864 408.574 67.864ZM400.51 63.224C399.72 63.224 399.048 63.6827 398.494 64.6C397.96 65.5173 397.694 66.6267 397.694 67.928V67.992C398.952 67.6933 399.944 67.2453 400.67 66.648C401.395 66.0507 401.758 65.3573 401.758 64.568C401.758 64.1627 401.64 63.8427 401.406 63.608C401.192 63.352 400.894 63.224 400.51 63.224ZM412.816 75.864C411.707 75.864 410.853 75.608 410.256 75.096C409.68 74.584 409.392 74.008 409.392 73.368C409.392 72.8133 409.595 72.3333 410 71.928C410.405 71.5227 411.003 71.32 411.792 71.32C412.069 71.32 412.389 71.352 412.752 71.416C413.136 71.4587 413.424 71.4907 413.616 71.512C413.595 70.9573 413.467 70.4347 413.232 69.944C413.019 69.4533 412.741 68.984 412.4 68.536C412.059 68.0667 411.739 67.6613 411.44 67.32C410.779 68.5787 410.117 69.624 409.456 70.456C408.816 71.288 408.112 72.0773 407.344 72.824C406.96 73.208 406.555 73.4 406.128 73.4C405.787 73.4 405.509 73.2827 405.296 73.048C405.083 72.792 404.976 72.4827 404.976 72.12C404.976 71.6933 405.125 71.2987 405.424 70.936L405.84 70.424C407.013 68.9733 407.899 67.7787 408.496 66.84C408.88 66.2213 409.264 65.4853 409.648 64.632C410.053 63.7787 410.576 62.616 411.216 61.144C411.621 60.2053 412.464 59.736 413.744 59.736C414.341 59.736 414.757 59.7893 414.992 59.896C415.227 60.0027 415.344 60.1733 415.344 60.408C415.344 60.536 415.301 60.7387 415.216 61.016C415.131 61.2933 415.013 61.5707 414.864 61.848C414.48 62.616 414.288 63.2667 414.288 63.8C414.288 64.12 414.395 64.472 414.608 64.856C414.843 65.24 415.195 65.72 415.664 66.296C416.347 67.192 416.859 67.96 417.2 68.6C417.563 69.2187 417.744 69.9013 417.744 70.648C417.744 71.544 417.531 72.3973 417.104 73.208C416.699 73.9973 416.123 74.6373 415.376 75.128C414.629 75.6187 413.776 75.864 412.816 75.864Z" fill="#001AFF"/>
<path d="M0.00060909 83.2156C-0.0261042 84.3199 0.847409 85.2367 1.95166 85.2634L19.9464 85.6987C21.0506 85.7255 21.9675 84.8519 21.9942 83.7477C22.0209 82.6434 21.1474 81.7266 20.0431 81.6999L4.04781 81.313L4.43476 65.3176C4.46147 64.2134 3.58796 63.2966 2.48371 63.2699C1.37947 63.2431 0.462641 64.1167 0.435928 65.2209L0.00060909 83.2156ZM193.413 70.9811C194.395 71.4859 195.601 71.0985 196.105 70.116C196.61 69.1335 196.223 67.9279 195.24 67.4231L193.413 70.9811ZM3.37962 84.712C53.6121 36.8525 128.247 37.505 193.413 70.9811L195.24 67.4231C129.144 33.4688 52.501 32.3862 0.620426 81.816L3.37962 84.712Z" fill="#001AFF"/>
</svg>
