<svg width="346" height="106" viewBox="0 0 346 106" fill="none" xmlns="http://www.w3.org/2000/svg">
<path d="M15.808 34.864C16.0853 34.864 16.2987 34.992 16.448 35.248C16.6187 35.504 16.704 35.856 16.704 36.304C16.704 37.1573 16.5013 37.8187 16.096 38.288C15.3067 39.248 14.1867 40.1333 12.736 40.944C11.3067 41.7547 9.77067 42.16 8.128 42.16C5.888 42.16 4.14933 41.552 2.912 40.336C1.67467 39.12 1.056 37.456 1.056 35.344C1.056 33.872 1.36533 32.5067 1.984 31.248C2.60267 29.968 3.456 28.9547 4.544 28.208C5.65333 27.4613 6.90133 27.088 8.288 27.088C9.52533 27.088 10.5173 27.4613 11.264 28.208C12.0107 28.9333 12.384 29.9253 12.384 31.184C12.384 32.656 11.8507 33.9253 10.784 34.992C9.73867 36.0373 7.95733 36.8693 5.44 37.488C5.97333 38.4693 6.98667 38.96 8.48 38.96C9.44 38.96 10.528 38.6293 11.744 37.968C12.9813 37.2853 14.048 36.4 14.944 35.312C15.2 35.0133 15.488 34.864 15.808 34.864ZM7.744 30.224C6.95467 30.224 6.28267 30.6827 5.728 31.6C5.19467 32.5173 4.928 33.6267 4.928 34.928V34.992C6.18667 34.6933 7.17867 34.2453 7.904 33.648C8.62933 33.0507 8.992 32.3573 8.992 31.568C8.992 31.1627 8.87467 30.8427 8.64 30.608C8.42667 30.352 8.128 30.224 7.744 30.224ZM32.5663 34.864C32.8436 34.864 33.0569 34.992 33.2063 35.248C33.3769 35.504 33.4623 35.856 33.4623 36.304C33.4623 37.1573 33.2596 37.8187 32.8543 38.288C31.9156 39.3973 30.8809 40.3253 29.7503 41.072C28.6409 41.7973 27.3823 42.16 25.9743 42.16C24.8863 42.16 23.9156 41.9573 23.0623 41.552C22.2303 41.1467 21.5689 40.5707 21.0783 39.824C19.8623 41.36 18.4223 42.128 16.7583 42.128C15.5849 42.128 14.6569 41.7867 13.9743 41.104C13.2916 40.4213 12.9503 39.5147 12.9503 38.384C12.9503 37.3173 13.1956 36.4533 13.6863 35.792C14.1769 35.1307 14.8703 34.8 15.7663 34.8C16.5343 34.8 16.9183 35.088 16.9183 35.664C16.9183 35.8133 16.8969 36.08 16.8543 36.464C16.7903 37.232 16.7583 37.6693 16.7583 37.776C16.7583 38.416 17.0356 38.736 17.5903 38.736C17.9956 38.736 18.3796 38.5013 18.7423 38.032C19.1263 37.5413 19.4356 36.88 19.6703 36.048C19.9263 35.216 20.0543 34.2987 20.0543 33.296C20.0543 32.528 19.9583 31.888 19.7663 31.376C19.5743 30.8427 19.3396 30.576 19.0623 30.576C18.8276 30.576 18.6569 30.64 18.5503 30.768C18.4436 30.8747 18.3369 31.0667 18.2303 31.344C18.1023 31.6853 17.9316 31.9627 17.7183 32.176C17.5049 32.368 17.1316 32.464 16.5983 32.464C16.1289 32.464 15.7556 32.304 15.4783 31.984C15.2009 31.6427 15.0623 31.1307 15.0623 30.448C15.0623 29.36 15.3929 28.5067 16.0543 27.888C16.7156 27.2693 17.5689 26.96 18.6143 26.96C19.5103 26.96 20.3209 27.184 21.0463 27.632C21.7716 28.0587 22.3263 28.688 22.7103 29.52C23.3503 28.6667 24.0649 28.0267 24.8543 27.6C25.6649 27.1733 26.4543 26.96 27.2223 26.96C28.0543 26.96 28.6836 27.152 29.1103 27.536C29.5583 27.92 29.7823 28.5387 29.7823 29.392C29.7823 30.352 29.6009 31.1093 29.2383 31.664C28.8756 32.1973 28.4383 32.464 27.9263 32.464C27.4569 32.464 27.1369 32.368 26.9663 32.176C26.7956 31.984 26.6676 31.7067 26.5823 31.344C26.5396 31.088 26.4756 30.896 26.3903 30.768C26.3049 30.64 26.1556 30.576 25.9423 30.576C25.6863 30.576 25.4089 30.8213 25.1103 31.312C24.8329 31.7813 24.5876 32.4107 24.3743 33.2C24.1823 33.9893 24.0863 34.8107 24.0863 35.664C24.0863 36.6667 24.3209 37.4453 24.7903 38C25.2809 38.5333 25.9423 38.8 26.7743 38.8C27.6063 38.8 28.3849 38.5227 29.1103 37.968C29.8569 37.392 30.7209 36.5067 31.7023 35.312C31.9583 35.0133 32.2463 34.864 32.5663 34.864ZM45.308 34.864C45.5853 34.864 45.7987 34.992 45.948 35.248C46.1187 35.504 46.204 35.856 46.204 36.304C46.204 37.1573 46.0013 37.8187 45.596 38.288C44.6787 39.4187 43.676 40.3467 42.588 41.072C41.5 41.7973 40.252 42.16 38.844 42.16C34.492 42.16 32.316 39.0987 32.316 32.976C32.316 32.0373 32.348 31.088 32.412 30.128H31.164C30.524 30.128 30.0867 30.0107 29.852 29.776C29.6387 29.5413 29.532 29.168 29.532 28.656C29.532 27.4613 30.012 26.864 30.972 26.864H32.796C33.1587 24.5173 33.7133 22.3733 34.46 20.432C35.2067 18.4907 36.1027 16.944 37.148 15.792C38.2147 14.64 39.356 14.064 40.572 14.064C41.468 14.064 42.172 14.4587 42.684 15.248C43.196 16.0373 43.452 17.0293 43.452 18.224C43.452 21.5307 42.0653 24.4107 39.292 26.864H42.876C43.2173 26.864 43.4627 26.9387 43.612 27.088C43.7613 27.2373 43.836 27.5147 43.836 27.92C43.836 29.392 42.6307 30.128 40.22 30.128H36.316C36.2733 31.1947 36.252 32.0267 36.252 32.624C36.252 34.8427 36.508 36.4 37.02 37.296C37.5533 38.192 38.3853 38.64 39.516 38.64C40.4333 38.64 41.244 38.3627 41.948 37.808C42.652 37.2533 43.484 36.4213 44.444 35.312C44.7 35.0133 44.988 34.864 45.308 34.864ZM39.708 17.136C39.388 17.136 39.0253 17.5413 38.62 18.352C38.236 19.1413 37.8627 20.2507 37.5 21.68C37.1587 23.088 36.8707 24.656 36.636 26.384C37.8947 25.296 38.8333 24.08 39.452 22.736C40.092 21.3707 40.412 20.1333 40.412 19.024C40.412 17.7653 40.1773 17.136 39.708 17.136ZM45.8705 42.16C45.0598 42.16 44.4838 41.7333 44.1425 40.88C43.8225 40.0267 43.6625 38.6613 43.6625 36.784C43.6625 34.0107 44.0572 31.376 44.8465 28.88C45.0385 28.2613 45.3478 27.8133 45.7745 27.536C46.2225 27.2373 46.8412 27.088 47.6305 27.088C48.0572 27.088 48.3558 27.1413 48.5265 27.248C48.6972 27.3547 48.7825 27.5573 48.7825 27.856C48.7825 28.1973 48.6225 28.9653 48.3025 30.16C48.0892 31.0133 47.9185 31.76 47.7905 32.4C47.6625 33.04 47.5558 33.8293 47.4705 34.768C48.1745 32.9333 48.9638 31.44 49.8385 30.288C50.7132 29.136 51.5665 28.3147 52.3985 27.824C53.2518 27.3333 54.0305 27.088 54.7345 27.088C56.1212 27.088 56.8145 27.7813 56.8145 29.168C56.8145 29.4453 56.7185 30.1173 56.5265 31.184C56.3558 32.0373 56.2705 32.5707 56.2705 32.784C56.2705 33.5307 56.5372 33.904 57.0705 33.904C57.6678 33.904 58.4358 33.4347 59.3745 32.496C59.6518 32.2187 59.9398 32.08 60.2385 32.08C60.5158 32.08 60.7292 32.208 60.8785 32.464C61.0492 32.6987 61.1345 33.0187 61.1345 33.424C61.1345 34.2133 60.9212 34.832 60.4945 35.28C59.8972 35.8987 59.1932 36.432 58.3825 36.88C57.5932 37.3067 56.7505 37.52 55.8545 37.52C54.7238 37.52 53.8598 37.232 53.2625 36.656C52.6865 36.08 52.3985 35.3013 52.3985 34.32C52.3985 34 52.4305 33.68 52.4945 33.36C52.5372 32.9333 52.5585 32.6453 52.5585 32.496C52.5585 32.1547 52.4412 31.984 52.2065 31.984C51.8865 31.984 51.4598 32.3467 50.9265 33.072C50.4145 33.776 49.9025 34.7147 49.3905 35.888C48.8785 37.0613 48.4625 38.2987 48.1425 39.6C47.9078 40.6027 47.6305 41.2853 47.3105 41.648C47.0118 41.9893 46.5318 42.16 45.8705 42.16ZM62.097 42.16C60.7743 42.16 59.7183 41.68 58.929 40.72C58.1397 39.76 57.745 38.5013 57.745 36.944C57.745 35.2373 58.1397 33.6267 58.929 32.112C59.7183 30.576 60.7637 29.3493 62.065 28.432C63.3877 27.4933 64.785 27.024 66.257 27.024C66.7263 27.024 67.0357 27.12 67.185 27.312C67.3557 27.4827 67.4943 27.8027 67.601 28.272C68.049 28.1867 68.5183 28.144 69.009 28.144C70.0543 28.144 70.577 28.5173 70.577 29.264C70.577 29.712 70.417 30.7787 70.097 32.464C69.6063 34.9173 69.361 36.624 69.361 37.584C69.361 37.904 69.4357 38.16 69.585 38.352C69.7557 38.544 69.969 38.64 70.225 38.64C70.6303 38.64 71.121 38.384 71.697 37.872C72.273 37.3387 73.0517 36.4853 74.033 35.312C74.289 35.0133 74.577 34.864 74.897 34.864C75.1743 34.864 75.3877 34.992 75.537 35.248C75.7077 35.504 75.793 35.856 75.793 36.304C75.793 37.1573 75.5903 37.8187 75.185 38.288C74.3103 39.376 73.3823 40.2933 72.401 41.04C71.4197 41.7867 70.4703 42.16 69.553 42.16C68.849 42.16 68.1983 41.9253 67.601 41.456C67.025 40.9653 66.5877 40.304 66.289 39.472C65.1797 41.264 63.7823 42.16 62.097 42.16ZM63.249 38.928C63.7183 38.928 64.1663 38.6507 64.593 38.096C65.0197 37.5413 65.329 36.8053 65.521 35.888L66.705 30C65.809 30.0213 64.977 30.3627 64.209 31.024C63.4623 31.664 62.865 32.5173 62.417 33.584C61.969 34.6507 61.745 35.7813 61.745 36.976C61.745 37.6373 61.873 38.128 62.129 38.448C62.4063 38.768 62.7797 38.928 63.249 38.928ZM77.3843 24.976C76.4883 24.976 75.8163 24.7733 75.3683 24.368C74.9203 23.9413 74.6963 23.3547 74.6963 22.608C74.6963 21.8613 74.9843 21.2427 75.5603 20.752C76.1576 20.24 76.8936 19.984 77.7683 19.984C78.5576 19.984 79.1976 20.176 79.6883 20.56C80.1789 20.944 80.4243 21.488 80.4243 22.192C80.4243 23.0453 80.1469 23.728 79.5923 24.24C79.0376 24.7307 78.3016 24.976 77.3843 24.976ZM77.1283 42.16C75.7416 42.16 74.7283 41.6693 74.0883 40.688C73.4696 39.7067 73.1603 38.4053 73.1603 36.784C73.1603 35.824 73.2776 34.5973 73.5123 33.104C73.7683 31.5893 74.0883 30.1813 74.4723 28.88C74.6643 28.1973 74.9203 27.728 75.2403 27.472C75.5603 27.216 76.0723 27.088 76.7763 27.088C77.8643 27.088 78.4083 27.4507 78.4083 28.176C78.4083 28.7093 78.2056 29.9467 77.8003 31.888C77.2883 34.2347 77.0323 35.824 77.0323 36.656C77.0323 37.296 77.1176 37.7867 77.2883 38.128C77.4589 38.4693 77.7469 38.64 78.1523 38.64C78.5363 38.64 79.0163 38.3733 79.5923 37.84C80.1683 37.3067 80.9363 36.464 81.8963 35.312C82.1523 35.0133 82.4403 34.864 82.7603 34.864C83.0376 34.864 83.2509 34.992 83.4003 35.248C83.5709 35.504 83.6563 35.856 83.6563 36.304C83.6563 37.1573 83.4536 37.8187 83.0483 38.288C80.9363 40.8693 78.9629 42.16 77.1283 42.16ZM95.3393 34.864C95.6166 34.864 95.8299 34.992 95.9792 35.248C96.1499 35.504 96.2353 35.856 96.2353 36.304C96.2353 37.1573 96.0326 37.8187 95.6273 38.288C94.7099 39.4187 93.7073 40.3467 92.6193 41.072C91.5313 41.7973 90.2833 42.16 88.8753 42.16C84.5233 42.16 82.3473 39.0987 82.3473 32.976C82.3473 32.0373 82.3793 31.088 82.4433 30.128H81.1953C80.5553 30.128 80.1179 30.0107 79.8833 29.776C79.6699 29.5413 79.5633 29.168 79.5633 28.656C79.5633 27.4613 80.0433 26.864 81.0033 26.864H82.8273C83.1899 24.5173 83.7446 22.3733 84.4913 20.432C85.2379 18.4907 86.1339 16.944 87.1793 15.792C88.2459 14.64 89.3873 14.064 90.6033 14.064C91.4993 14.064 92.2033 14.4587 92.7153 15.248C93.2273 16.0373 93.4833 17.0293 93.4833 18.224C93.4833 21.5307 92.0966 24.4107 89.3233 26.864H92.9073C93.2486 26.864 93.4939 26.9387 93.6433 27.088C93.7926 27.2373 93.8673 27.5147 93.8673 27.92C93.8673 29.392 92.6619 30.128 90.2513 30.128H86.3473C86.3046 31.1947 86.2833 32.0267 86.2833 32.624C86.2833 34.8427 86.5393 36.4 87.0513 37.296C87.5846 38.192 88.4166 38.64 89.5473 38.64C90.4646 38.64 91.2753 38.3627 91.9793 37.808C92.6833 37.2533 93.5153 36.4213 94.4753 35.312C94.7313 35.0133 95.0193 34.864 95.3393 34.864ZM89.7393 17.136C89.4193 17.136 89.0566 17.5413 88.6513 18.352C88.2673 19.1413 87.8939 20.2507 87.5312 21.68C87.1899 23.088 86.9019 24.656 86.6673 26.384C87.9259 25.296 88.8646 24.08 89.4833 22.736C90.1233 21.3707 90.4433 20.1333 90.4433 19.024C90.4433 17.7653 90.2086 17.136 89.7393 17.136ZM99.5818 42.864C98.4724 42.864 97.6191 42.608 97.0218 42.096C96.4458 41.584 96.1578 41.008 96.1578 40.368C96.1578 39.8133 96.3604 39.3333 96.7658 38.928C97.1711 38.5227 97.7684 38.32 98.5578 38.32C98.8351 38.32 99.1551 38.352 99.5178 38.416C99.9018 38.4587 100.19 38.4907 100.382 38.512C100.36 37.9573 100.232 37.4347 99.9978 36.944C99.7844 36.4533 99.5071 35.984 99.1658 35.536C98.8244 35.0667 98.5044 34.6613 98.2058 34.32C97.5444 35.5787 96.8831 36.624 96.2218 37.456C95.5818 38.288 94.8778 39.0773 94.1098 39.824C93.7258 40.208 93.3204 40.4 92.8938 40.4C92.5524 40.4 92.2751 40.2827 92.0617 40.048C91.8484 39.792 91.7417 39.4827 91.7417 39.12C91.7417 38.6933 91.8911 38.2987 92.1898 37.936L92.6058 37.424C93.7791 35.9733 94.6644 34.7787 95.2618 33.84C95.6458 33.2213 96.0298 32.4853 96.4138 31.632C96.8191 30.7787 97.3418 29.616 97.9818 28.144C98.3871 27.2053 99.2298 26.736 100.51 26.736C101.107 26.736 101.523 26.7893 101.758 26.896C101.992 27.0027 102.11 27.1733 102.11 27.408C102.11 27.536 102.067 27.7387 101.982 28.016C101.896 28.2933 101.779 28.5707 101.63 28.848C101.246 29.616 101.054 30.2667 101.054 30.8C101.054 31.12 101.16 31.472 101.374 31.856C101.608 32.24 101.96 32.72 102.43 33.296C103.112 34.192 103.624 34.96 103.966 35.6C104.328 36.2187 104.51 36.9013 104.51 37.648C104.51 38.544 104.296 39.3973 103.87 40.208C103.464 40.9973 102.888 41.6373 102.142 42.128C101.395 42.6187 100.542 42.864 99.5818 42.864ZM132.868 34.864C133.146 34.864 133.359 34.992 133.508 35.248C133.679 35.504 133.764 35.856 133.764 36.304C133.764 37.1573 133.562 37.8187 133.156 38.288C132.282 39.3547 131.322 40.272 130.276 41.04C129.231 41.7867 128.196 42.16 127.172 42.16C125.551 42.16 124.314 41.2107 123.46 39.312C122.564 40.4427 121.775 41.2 121.092 41.584C120.431 41.968 119.652 42.16 118.756 42.16C117.455 42.16 116.378 41.68 115.524 40.72C114.692 39.7387 114.276 38.4693 114.276 36.912C114.276 35.2053 114.639 33.6267 115.364 32.176C116.09 30.704 117.082 29.5093 118.34 28.592C119.62 27.6533 121.05 27.0987 122.628 26.928C123.034 22.7893 123.802 19.2587 124.932 16.336C126.084 13.392 127.588 11.92 129.444 11.92C130.362 11.92 131.119 12.336 131.716 13.168C132.335 14 132.644 15.2587 132.644 16.944C132.644 19.3333 132.058 22.128 130.884 25.328C129.711 28.528 128.143 31.8133 126.18 35.184C126.266 36.4213 126.447 37.3067 126.724 37.84C127.023 38.3733 127.396 38.64 127.844 38.64C128.42 38.64 129.007 38.384 129.604 37.872C130.202 37.36 131.002 36.5067 132.004 35.312C132.26 35.0133 132.548 34.864 132.868 34.864ZM129.092 15.056C128.687 15.056 128.282 15.7813 127.876 17.232C127.471 18.6613 127.119 20.5387 126.82 22.864C126.543 25.1893 126.34 27.6213 126.212 30.16C128.602 24.9547 129.796 20.7733 129.796 17.616C129.796 16.8053 129.722 16.176 129.572 15.728C129.444 15.28 129.284 15.056 129.092 15.056ZM119.876 38.928C120.282 38.928 120.687 38.768 121.092 38.448C121.498 38.1067 122.01 37.488 122.628 36.592C122.415 35.44 122.308 34.1493 122.308 32.72C122.308 32.208 122.33 31.376 122.372 30.224C121.199 30.5867 120.218 31.376 119.428 32.592C118.66 33.7867 118.276 35.12 118.276 36.592C118.276 38.1493 118.81 38.928 119.876 38.928ZM134.489 42.16C133.486 42.16 132.676 41.7547 132.057 40.944C131.46 40.112 131.161 38.9707 131.161 37.52C131.161 35.92 131.268 34.4587 131.481 33.136C131.694 31.792 132.046 30.3733 132.537 28.88C132.75 28.24 133.049 27.7813 133.433 27.504C133.817 27.2267 134.425 27.088 135.257 27.088C135.726 27.088 136.046 27.1627 136.217 27.312C136.409 27.4613 136.505 27.6853 136.505 27.984C136.505 28.1547 136.388 28.7307 136.153 29.712C135.94 30.5013 135.769 31.216 135.641 31.856C135.214 34.096 135.001 35.5893 135.001 36.336C135.001 36.784 135.054 37.104 135.161 37.296C135.268 37.4667 135.438 37.552 135.673 37.552C135.993 37.552 136.398 37.232 136.889 36.592C137.38 35.9307 137.892 34.9493 138.425 33.648C138.98 32.3253 139.502 30.736 139.993 28.88C140.164 28.24 140.42 27.7813 140.761 27.504C141.124 27.2267 141.657 27.088 142.361 27.088C142.83 27.088 143.161 27.216 143.353 27.472C143.566 27.7067 143.673 28.0693 143.673 28.56C143.673 29.0933 143.63 29.6907 143.545 30.352C143.46 30.992 143.364 31.6533 143.257 32.336C143.044 33.7013 142.873 34.9493 142.745 36.08C142.617 37.1893 142.553 38.4587 142.553 39.888C142.553 40.6987 142.382 41.2853 142.041 41.648C141.721 41.9893 141.188 42.16 140.441 42.16C139.652 42.16 139.097 41.9573 138.777 41.552C138.478 41.1253 138.329 40.3147 138.329 39.12C138.329 38.8853 138.35 38.3627 138.393 37.552C138.03 39.0453 137.486 40.1867 136.761 40.976C136.057 41.7653 135.3 42.16 134.489 42.16ZM178.221 32.272C178.285 32.2507 178.391 32.24 178.541 32.24C178.861 32.24 179.106 32.3467 179.277 32.56C179.447 32.7733 179.533 33.0613 179.533 33.424C179.533 34.0853 179.405 34.608 179.149 34.992C178.893 35.3547 178.509 35.6213 177.997 35.792C177.015 36.112 175.97 36.272 174.861 36.272C173.922 36.272 173.037 36.144 172.205 35.888C171.586 36.8907 170.903 37.9253 170.157 38.992C169.303 40.208 168.567 41.04 167.949 41.488C167.351 41.936 166.669 42.16 165.901 42.16C165.047 42.16 164.397 41.8293 163.949 41.168C163.522 40.5067 163.255 39.4187 163.149 37.904L162.989 35.568C162.327 37.36 161.73 38.7253 161.197 39.664C160.685 40.6027 160.162 41.2533 159.629 41.616C159.117 41.9787 158.509 42.16 157.805 42.16C156.93 42.16 156.237 41.8187 155.725 41.136C155.234 40.4533 154.925 39.376 154.797 37.904C154.541 34.9173 154.413 32.304 154.413 30.064V28.944C154.434 28.24 154.626 27.7493 154.989 27.472C155.351 27.1947 155.895 27.056 156.621 27.056C157.175 27.056 157.581 27.184 157.837 27.44C158.114 27.6747 158.253 28.08 158.253 28.656C158.253 31.1093 158.402 34.2987 158.701 38.224C160.151 35.1733 161.485 31.9947 162.701 28.688C162.935 28.048 163.213 27.6213 163.533 27.408C163.874 27.1733 164.279 27.056 164.749 27.056C165.325 27.056 165.719 27.1733 165.933 27.408C166.167 27.6427 166.285 28.0587 166.285 28.656C166.285 31.1093 166.434 34.2987 166.733 38.224C168.013 36.3253 168.973 34.8107 169.613 33.68C169.293 33.0613 169.133 32.3253 169.133 31.472C169.133 30.7467 169.293 30.0427 169.613 29.36C169.933 28.6773 170.37 28.1227 170.925 27.696C171.479 27.2693 172.109 27.056 172.812 27.056C173.431 27.056 173.933 27.28 174.317 27.728C174.701 28.1547 174.893 28.784 174.893 29.616C174.893 30.576 174.637 31.6747 174.125 32.912C174.935 32.8693 176.013 32.7093 177.357 32.432L178.221 32.272ZM180.947 24.976C180.051 24.976 179.379 24.7733 178.931 24.368C178.483 23.9413 178.259 23.3547 178.259 22.608C178.259 21.8613 178.547 21.2427 179.123 20.752C179.72 20.24 180.456 19.984 181.331 19.984C182.12 19.984 182.76 20.176 183.251 20.56C183.741 20.944 183.987 21.488 183.987 22.192C183.987 23.0453 183.709 23.728 183.155 24.24C182.6 24.7307 181.864 24.976 180.947 24.976ZM180.691 42.16C179.304 42.16 178.291 41.6693 177.651 40.688C177.032 39.7067 176.723 38.4053 176.723 36.784C176.723 35.824 176.84 34.5973 177.075 33.104C177.331 31.5893 177.651 30.1813 178.035 28.88C178.227 28.1973 178.483 27.728 178.803 27.472C179.123 27.216 179.635 27.088 180.339 27.088C181.427 27.088 181.971 27.4507 181.971 28.176C181.971 28.7093 181.768 29.9467 181.363 31.888C180.851 34.2347 180.595 35.824 180.595 36.656C180.595 37.296 180.68 37.7867 180.851 38.128C181.021 38.4693 181.309 38.64 181.715 38.64C182.099 38.64 182.579 38.3733 183.155 37.84C183.731 37.3067 184.499 36.464 185.459 35.312C185.715 35.0133 186.003 34.864 186.323 34.864C186.6 34.864 186.813 34.992 186.963 35.248C187.133 35.504 187.219 35.856 187.219 36.304C187.219 37.1573 187.016 37.8187 186.611 38.288C184.499 40.8693 182.525 42.16 180.691 42.16ZM186.902 42.16C186.091 42.16 185.515 41.7333 185.174 40.88C184.854 40.0267 184.694 38.6613 184.694 36.784C184.694 34.0107 185.088 31.376 185.878 28.88C186.07 28.2613 186.379 27.8133 186.806 27.536C187.254 27.2373 187.872 27.088 188.662 27.088C189.088 27.088 189.387 27.1413 189.558 27.248C189.728 27.3547 189.814 27.5573 189.814 27.856C189.814 28.1973 189.654 28.9653 189.334 30.16C189.12 31.0133 188.95 31.76 188.822 32.4C188.694 33.04 188.587 33.8293 188.502 34.768C189.206 32.9333 189.995 31.44 190.87 30.288C191.744 29.136 192.598 28.3147 193.43 27.824C194.283 27.3333 195.062 27.088 195.766 27.088C197.152 27.088 197.846 27.7813 197.846 29.168C197.846 29.4453 197.75 30.1173 197.558 31.184C197.387 32.0373 197.302 32.5707 197.302 32.784C197.302 33.5307 197.568 33.904 198.102 33.904C198.699 33.904 199.467 33.4347 200.406 32.496C200.683 32.2187 200.971 32.08 201.27 32.08C201.547 32.08 201.76 32.208 201.91 32.464C202.08 32.6987 202.166 33.0187 202.166 33.424C202.166 34.2133 201.952 34.832 201.526 35.28C200.928 35.8987 200.224 36.432 199.414 36.88C198.624 37.3067 197.782 37.52 196.886 37.52C195.755 37.52 194.891 37.232 194.294 36.656C193.718 36.08 193.43 35.3013 193.43 34.32C193.43 34 193.462 33.68 193.526 33.36C193.568 32.9333 193.59 32.6453 193.59 32.496C193.59 32.1547 193.472 31.984 193.238 31.984C192.918 31.984 192.491 32.3467 191.958 33.072C191.446 33.776 190.934 34.7147 190.422 35.888C189.91 37.0613 189.494 38.2987 189.174 39.6C188.939 40.6027 188.662 41.2853 188.342 41.648C188.043 41.9893 187.563 42.16 186.902 42.16ZM213.464 34.864C213.742 34.864 213.955 34.992 214.104 35.248C214.275 35.504 214.36 35.856 214.36 36.304C214.36 37.1573 214.158 37.8187 213.752 38.288C212.963 39.248 211.843 40.1333 210.392 40.944C208.963 41.7547 207.427 42.16 205.784 42.16C203.544 42.16 201.806 41.552 200.568 40.336C199.331 39.12 198.712 37.456 198.712 35.344C198.712 33.872 199.022 32.5067 199.64 31.248C200.259 29.968 201.112 28.9547 202.2 28.208C203.31 27.4613 204.558 27.088 205.944 27.088C207.182 27.088 208.174 27.4613 208.92 28.208C209.667 28.9333 210.04 29.9253 210.04 31.184C210.04 32.656 209.507 33.9253 208.44 34.992C207.395 36.0373 205.614 36.8693 203.096 37.488C203.63 38.4693 204.643 38.96 206.136 38.96C207.096 38.96 208.184 38.6293 209.4 37.968C210.638 37.2853 211.704 36.4 212.6 35.312C212.856 35.0133 213.144 34.864 213.464 34.864ZM205.4 30.224C204.611 30.224 203.939 30.6827 203.384 31.6C202.851 32.5173 202.584 33.6267 202.584 34.928V34.992C203.843 34.6933 204.835 34.2453 205.56 33.648C206.286 33.0507 206.648 32.3573 206.648 31.568C206.648 31.1627 206.531 30.8427 206.296 30.608C206.083 30.352 205.784 30.224 205.4 30.224ZM224.21 33.04C224.808 33.04 225.106 33.488 225.106 34.384C225.106 36.0693 223.784 36.912 221.138 36.912C220.626 36.912 219.89 36.816 218.93 36.624C219.208 37.9467 219.432 39.4187 219.602 41.04C219.794 42.64 219.89 43.9627 219.89 45.008C219.89 47.312 219.517 49.072 218.77 50.288C218.024 51.504 217.042 52.112 215.826 52.112C214.29 52.112 213.192 51.024 212.53 48.848C211.89 46.672 211.57 43.3867 211.57 38.992C211.57 34.896 212.008 30.7467 212.882 26.544C213.778 22.32 214.994 18.832 216.53 16.08C218.088 13.3067 219.794 11.92 221.65 11.92C222.653 11.92 223.432 12.368 223.986 13.264C224.562 14.16 224.85 15.3653 224.85 16.88C224.85 21.8933 221.853 27.3547 215.858 33.264C215.645 35.3547 215.538 37.1893 215.538 38.768C215.538 40.9653 215.613 43.216 215.762 45.52C215.912 47.8453 216.157 49.008 216.498 49.008C217.138 49.008 217.458 47.8987 217.458 45.68C217.458 44.016 217.341 42.4053 217.106 40.848C216.893 39.2907 216.594 37.648 216.21 35.92C216.189 35.6427 216.274 35.2907 216.466 34.864C216.68 34.4373 216.936 34.064 217.234 33.744C217.533 33.424 217.8 33.264 218.034 33.264C218.461 33.264 218.973 33.2853 219.57 33.328C219.762 33.3493 219.986 33.36 220.242 33.36C221.096 33.36 222.045 33.2853 223.09 33.136C223.261 33.1147 223.442 33.0933 223.634 33.072C223.826 33.0507 224.018 33.04 224.21 33.04ZM220.978 15.088C220.594 15.088 220.114 15.7387 219.538 17.04C218.984 18.3413 218.429 20.0693 217.874 22.224C217.32 24.3573 216.84 26.6187 216.434 29.008C218.141 27.0667 219.453 25.0507 220.37 22.96C221.288 20.848 221.757 18.8747 221.778 17.04C221.778 15.7387 221.512 15.088 220.978 15.088ZM224.964 42.16C224.154 42.16 223.578 41.7333 223.236 40.88C222.916 40.0267 222.756 38.6613 222.756 36.784C222.756 34.0107 223.151 31.376 223.94 28.88C224.132 28.2613 224.442 27.8133 224.868 27.536C225.316 27.2373 225.935 27.088 226.724 27.088C227.151 27.088 227.45 27.1413 227.62 27.248C227.791 27.3547 227.876 27.5573 227.876 27.856C227.876 28.1973 227.716 28.9653 227.396 30.16C227.183 31.0133 227.012 31.76 226.884 32.4C226.756 33.04 226.65 33.8293 226.564 34.768C227.268 32.9333 228.058 31.44 228.932 30.288C229.807 29.136 230.66 28.3147 231.492 27.824C232.346 27.3333 233.124 27.088 233.828 27.088C235.215 27.088 235.908 27.7813 235.908 29.168C235.908 29.4453 235.812 30.1173 235.62 31.184C235.45 32.0373 235.364 32.5707 235.364 32.784C235.364 33.5307 235.631 33.904 236.164 33.904C236.762 33.904 237.53 33.4347 238.468 32.496C238.746 32.2187 239.034 32.08 239.332 32.08C239.61 32.08 239.823 32.208 239.972 32.464C240.143 32.6987 240.228 33.0187 240.228 33.424C240.228 34.2133 240.015 34.832 239.588 35.28C238.991 35.8987 238.287 36.432 237.476 36.88C236.687 37.3067 235.844 37.52 234.948 37.52C233.818 37.52 232.954 37.232 232.356 36.656C231.78 36.08 231.492 35.3013 231.492 34.32C231.492 34 231.524 33.68 231.588 33.36C231.631 32.9333 231.652 32.6453 231.652 32.496C231.652 32.1547 231.535 31.984 231.3 31.984C230.98 31.984 230.554 32.3467 230.02 33.072C229.508 33.776 228.996 34.7147 228.484 35.888C227.972 37.0613 227.556 38.2987 227.236 39.6C227.002 40.6027 226.724 41.2853 226.404 41.648C226.106 41.9893 225.626 42.16 224.964 42.16ZM241.191 42.16C239.868 42.16 238.812 41.68 238.023 40.72C237.233 39.76 236.839 38.5013 236.839 36.944C236.839 35.2373 237.233 33.6267 238.023 32.112C238.812 30.576 239.857 29.3493 241.159 28.432C242.481 27.4933 243.879 27.024 245.351 27.024C245.82 27.024 246.129 27.12 246.279 27.312C246.449 27.4827 246.588 27.8027 246.695 28.272C247.143 28.1867 247.612 28.144 248.103 28.144C249.148 28.144 249.671 28.5173 249.671 29.264C249.671 29.712 249.511 30.7787 249.191 32.464C248.7 34.9173 248.455 36.624 248.455 37.584C248.455 37.904 248.529 38.16 248.679 38.352C248.849 38.544 249.063 38.64 249.319 38.64C249.724 38.64 250.215 38.384 250.791 37.872C251.367 37.3387 252.145 36.4853 253.127 35.312C253.383 35.0133 253.671 34.864 253.991 34.864C254.268 34.864 254.481 34.992 254.631 35.248C254.801 35.504 254.887 35.856 254.887 36.304C254.887 37.1573 254.684 37.8187 254.279 38.288C253.404 39.376 252.476 40.2933 251.495 41.04C250.513 41.7867 249.564 42.16 248.647 42.16C247.943 42.16 247.292 41.9253 246.695 41.456C246.119 40.9653 245.681 40.304 245.383 39.472C244.273 41.264 242.876 42.16 241.191 42.16ZM242.343 38.928C242.812 38.928 243.26 38.6507 243.687 38.096C244.113 37.5413 244.423 36.8053 244.615 35.888L245.799 30C244.903 30.0213 244.071 30.3627 243.303 31.024C242.556 31.664 241.959 32.5173 241.511 33.584C241.063 34.6507 240.839 35.7813 240.839 36.976C240.839 37.6373 240.967 38.128 241.223 38.448C241.5 38.768 241.873 38.928 242.343 38.928ZM254.558 42.16C253.747 42.16 253.171 41.7333 252.83 40.88C252.51 40.0267 252.35 38.6613 252.35 36.784C252.35 34.0107 252.745 31.376 253.534 28.88C253.726 28.2613 254.035 27.8133 254.462 27.536C254.91 27.2373 255.529 27.088 256.318 27.088C256.745 27.088 257.043 27.1413 257.214 27.248C257.385 27.3547 257.47 27.5573 257.47 27.856C257.47 28.1973 257.31 28.9653 256.99 30.16C256.777 31.0133 256.606 31.76 256.478 32.4C256.35 33.0187 256.243 33.7973 256.158 34.736C256.734 33.072 257.417 31.664 258.206 30.512C259.017 29.36 259.838 28.5067 260.67 27.952C261.523 27.376 262.323 27.088 263.07 27.088C263.817 27.088 264.339 27.2587 264.638 27.6C264.958 27.9413 265.118 28.464 265.118 29.168C265.118 29.8507 264.915 31.088 264.51 32.88C264.339 33.648 264.222 34.224 264.158 34.608C265.225 31.984 266.409 30.0747 267.71 28.88C269.011 27.6853 270.227 27.088 271.358 27.088C272.745 27.088 273.438 27.7813 273.438 29.168C273.438 30 273.203 31.504 272.734 33.68C272.329 35.536 272.126 36.7627 272.126 37.36C272.126 38.2133 272.435 38.64 273.054 38.64C273.481 38.64 273.982 38.384 274.558 37.872C275.155 37.3387 275.945 36.4853 276.926 35.312C277.182 35.0133 277.47 34.864 277.79 34.864C278.067 34.864 278.281 34.992 278.43 35.248C278.601 35.504 278.686 35.856 278.686 36.304C278.686 37.1573 278.483 37.8187 278.078 38.288C277.161 39.4187 276.169 40.3467 275.102 41.072C274.057 41.7973 272.862 42.16 271.518 42.16C270.43 42.16 269.609 41.8507 269.054 41.232C268.499 40.592 268.222 39.6747 268.222 38.48C268.222 37.8827 268.371 36.816 268.67 35.28C268.947 33.936 269.086 33.008 269.086 32.496C269.086 32.1547 268.969 31.984 268.734 31.984C268.457 31.984 268.062 32.3467 267.55 33.072C267.038 33.776 266.526 34.7147 266.014 35.888C265.502 37.0613 265.086 38.2987 264.766 39.6C264.531 40.624 264.254 41.3067 263.934 41.648C263.635 41.9893 263.145 42.16 262.462 42.16C261.758 42.16 261.225 41.8293 260.862 41.168C260.521 40.4853 260.35 39.664 260.35 38.704C260.35 37.8933 260.457 36.72 260.67 35.184C260.841 33.8187 260.926 32.9227 260.926 32.496C260.926 32.1547 260.809 31.984 260.574 31.984C260.254 31.984 259.849 32.368 259.358 33.136C258.867 33.904 258.387 34.8853 257.918 36.08C257.47 37.2747 257.107 38.448 256.83 39.6C256.595 40.6027 256.318 41.2853 255.998 41.648C255.699 41.9893 255.219 42.16 254.558 42.16ZM287.555 35.824C287.832 35.824 288.045 35.952 288.195 36.208C288.365 36.464 288.451 36.816 288.451 37.264C288.451 38.032 288.269 38.6933 287.907 39.248C287.309 40.1653 286.52 40.88 285.539 41.392C284.579 41.904 283.427 42.16 282.083 42.16C280.035 42.16 278.445 41.552 277.315 40.336C276.184 39.0987 275.618 37.4347 275.618 35.344C275.618 33.872 275.928 32.5067 276.547 31.248C277.165 29.968 278.019 28.9547 279.107 28.208C280.216 27.4613 281.464 27.088 282.851 27.088C284.088 27.088 285.08 27.4613 285.827 28.208C286.573 28.9333 286.947 29.9253 286.947 31.184C286.947 32.656 286.413 33.9253 285.347 34.992C284.301 36.0373 282.509 36.8693 279.971 37.488C280.483 38.4693 281.347 38.96 282.562 38.96C283.437 38.96 284.152 38.7573 284.707 38.352C285.283 37.9467 285.944 37.264 286.691 36.304C286.947 35.984 287.235 35.824 287.555 35.824ZM282.307 30.224C281.517 30.224 280.845 30.6827 280.291 31.6C279.757 32.5173 279.491 33.6267 279.491 34.928V34.992C280.749 34.6933 281.741 34.2453 282.467 33.648C283.192 33.0507 283.555 32.3573 283.555 31.568C283.555 31.1627 283.437 30.8427 283.203 30.608C282.989 30.352 282.691 30.224 282.307 30.224Z" fill="#001AFF"/>
<path d="M345.421 97.9517C345.447 99.0559 344.574 99.9727 343.469 99.9994L325.475 100.435C324.371 100.461 323.454 99.588 323.427 98.4837C323.4 97.3795 324.274 96.4626 325.378 96.4359L341.373 96.049L340.986 80.0537C340.96 78.9494 341.833 78.0326 342.937 78.0059C344.042 77.9792 344.959 78.8527 344.985 79.9569L345.421 97.9517ZM152.009 85.7172C151.026 86.2219 149.82 85.8346 149.316 84.852C148.811 83.8695 149.198 82.6639 150.181 82.1592L152.009 85.7172ZM342.042 99.448C291.809 51.5885 217.174 52.241 152.009 85.7172L150.181 82.1592C216.277 48.2048 292.92 47.1223 344.801 96.552L342.042 99.448Z" fill="#001AFF"/>
</svg>
