<svg width="366" height="51" viewBox="0 0 366 51" fill="none" xmlns="http://www.w3.org/2000/svg">
<path d="M4.2455 38.16C3.43483 38.16 2.85883 37.7333 2.5175 36.88C2.1975 36.0267 2.0375 34.6613 2.0375 32.784C2.0375 30.0107 2.43217 27.376 3.2215 24.88C3.4135 24.2613 3.72283 23.8133 4.1495 23.536C4.5975 23.2373 5.21617 23.088 6.0055 23.088C6.43217 23.088 6.73083 23.1413 6.9015 23.248C7.07217 23.3547 7.1575 23.5573 7.1575 23.856C7.1575 24.1973 6.9975 24.9653 6.6775 26.16C6.46417 27.0133 6.2935 27.76 6.1655 28.4C6.0375 29.04 5.93083 29.8293 5.8455 30.768C6.5495 28.9333 7.33883 27.44 8.2135 26.288C9.08817 25.136 9.9415 24.3147 10.7735 23.824C11.6268 23.3333 12.4055 23.088 13.1095 23.088C14.4962 23.088 15.1895 23.7813 15.1895 25.168C15.1895 26 14.9548 27.504 14.4855 29.68C14.0802 31.536 13.8775 32.7627 13.8775 33.36C13.8775 34.2133 14.1868 34.64 14.8055 34.64C15.2322 34.64 15.7335 34.384 16.3095 33.872C16.9068 33.3387 17.6962 32.4853 18.6775 31.312C18.9335 31.0133 19.2215 30.864 19.5415 30.864C19.8188 30.864 20.0322 30.992 20.1815 31.248C20.3522 31.504 20.4375 31.856 20.4375 32.304C20.4375 33.1573 20.2348 33.8187 19.8295 34.288C18.9122 35.4187 17.9202 36.3467 16.8535 37.072C15.8082 37.7973 14.6135 38.16 13.2695 38.16C12.1815 38.16 11.3602 37.8507 10.8055 37.232C10.2508 36.592 9.9735 35.6747 9.9735 34.48C9.9735 33.8827 10.1228 32.816 10.4215 31.28C10.6988 29.936 10.8375 29.008 10.8375 28.496C10.8375 28.1547 10.7202 27.984 10.4855 27.984C10.2082 27.984 9.8135 28.3467 9.3015 29.072C8.81083 29.776 8.29883 30.7147 7.7655 31.888C7.2535 33.0613 6.8375 34.2987 6.5175 35.6C6.28283 36.6027 6.0055 37.2853 5.6855 37.648C5.38683 37.9893 4.90683 38.16 4.2455 38.16ZM23.2565 38.16C21.9978 38.16 20.9205 37.8507 20.0245 37.232C19.1498 36.592 18.4885 35.76 18.0405 34.736C17.5925 33.712 17.3685 32.6133 17.3685 31.44C17.3685 29.8187 17.6672 28.3787 18.2645 27.12C18.8832 25.84 19.7152 24.848 20.7605 24.144C21.8058 23.4187 22.9792 23.056 24.2805 23.056C25.5392 23.056 26.6165 23.376 27.5125 24.016C28.4085 24.6347 29.0805 25.456 29.5285 26.48C29.9765 27.504 30.2005 28.6027 30.2005 29.776C30.2005 31.3973 29.8912 32.848 29.2725 34.128C28.6538 35.3867 27.8112 36.3787 26.7445 37.104C25.6992 37.808 24.5365 38.16 23.2565 38.16ZM23.6085 34.704C24.3338 34.704 24.9418 34.3093 25.4325 33.52C25.9445 32.7307 26.2005 31.5787 26.2005 30.064C26.2005 28.8907 25.9872 28.0053 25.5605 27.408C25.1338 26.8107 24.6218 26.512 24.0245 26.512C23.2565 26.512 22.6165 26.9067 22.1045 27.696C21.6138 28.464 21.3685 29.616 21.3685 31.152C21.3685 32.368 21.5818 33.264 22.0085 33.84C22.4352 34.416 22.9685 34.704 23.6085 34.704ZM38.1443 38.864C37.0349 38.864 36.1816 38.608 35.5843 38.096C35.0083 37.584 34.7203 37.008 34.7203 36.368C34.7203 35.8133 34.9229 35.3333 35.3283 34.928C35.7336 34.5227 36.3309 34.32 37.1203 34.32C37.3976 34.32 37.7176 34.352 38.0803 34.416C38.4643 34.4587 38.7523 34.4907 38.9443 34.512C38.9229 33.9573 38.7949 33.4347 38.5603 32.944C38.3469 32.4533 38.0696 31.984 37.7283 31.536C37.3869 31.0667 37.0669 30.6613 36.7683 30.32C36.1069 31.5787 35.4456 32.624 34.7843 33.456C34.1443 34.288 33.4403 35.0773 32.6723 35.824C32.2883 36.208 31.8829 36.4 31.4563 36.4C31.1149 36.4 30.8376 36.2827 30.6242 36.048C30.4109 35.792 30.3042 35.4827 30.3042 35.12C30.3042 34.6933 30.4536 34.2987 30.7523 33.936L31.1683 33.424C32.3416 31.9733 33.2269 30.7787 33.8243 29.84C34.2083 29.2213 34.5923 28.4853 34.9763 27.632C35.3816 26.7787 35.9043 25.616 36.5443 24.144C36.9496 23.2053 37.7923 22.736 39.0723 22.736C39.6696 22.736 40.0856 22.7893 40.3203 22.896C40.5549 23.0027 40.6723 23.1733 40.6723 23.408C40.6723 23.536 40.6296 23.7387 40.5443 24.016C40.4589 24.2933 40.3416 24.5707 40.1923 24.848C39.8083 25.616 39.6163 26.2667 39.6163 26.8C39.6163 27.12 39.7229 27.472 39.9363 27.856C40.1709 28.24 40.5229 28.72 40.9923 29.296C41.6749 30.192 42.1869 30.96 42.5283 31.6C42.8909 32.2187 43.0723 32.9013 43.0723 33.648C43.0723 34.544 42.8589 35.3973 42.4323 36.208C42.0269 36.9973 41.4509 37.6373 40.7043 38.128C39.9576 38.6187 39.1043 38.864 38.1443 38.864ZM57.1908 38.16C55.8681 38.16 54.8121 37.68 54.0228 36.72C53.2334 35.76 52.8388 34.5013 52.8388 32.944C52.8388 31.2373 53.2334 29.6267 54.0228 28.112C54.8121 26.576 55.8574 25.3493 57.1588 24.432C58.4814 23.4933 59.8788 23.024 61.3508 23.024C61.8201 23.024 62.1294 23.12 62.2788 23.312C62.4494 23.4827 62.5881 23.8027 62.6948 24.272C63.1428 24.1867 63.6121 24.144 64.1028 24.144C65.1481 24.144 65.6708 24.5173 65.6708 25.264C65.6708 25.712 65.5108 26.7787 65.1908 28.464C64.7001 30.9173 64.4548 32.624 64.4548 33.584C64.4548 33.904 64.5294 34.16 64.6788 34.352C64.8494 34.544 65.0628 34.64 65.3188 34.64C65.7241 34.64 66.2148 34.384 66.7908 33.872C67.3668 33.3387 68.1454 32.4853 69.1268 31.312C69.3828 31.0133 69.6708 30.864 69.9908 30.864C70.2681 30.864 70.4814 30.992 70.6308 31.248C70.8014 31.504 70.8868 31.856 70.8868 32.304C70.8868 33.1573 70.6841 33.8187 70.2788 34.288C69.4041 35.376 68.4761 36.2933 67.4948 37.04C66.5134 37.7867 65.5641 38.16 64.6468 38.16C63.9428 38.16 63.2921 37.9253 62.6948 37.456C62.1188 36.9653 61.6814 36.304 61.3828 35.472C60.2734 37.264 58.8761 38.16 57.1908 38.16ZM58.3428 34.928C58.8121 34.928 59.2601 34.6507 59.6868 34.096C60.1134 33.5413 60.4228 32.8053 60.6148 31.888L61.7988 26C60.9028 26.0213 60.0708 26.3627 59.3028 27.024C58.5561 27.664 57.9588 28.5173 57.5108 29.584C57.0628 30.6507 56.8388 31.7813 56.8388 32.976C56.8388 33.6373 56.9668 34.128 57.2228 34.448C57.5001 34.768 57.8734 34.928 58.3428 34.928ZM90.7575 29.04C91.3548 29.04 91.6535 29.488 91.6535 30.384C91.6535 32.0907 90.2882 32.944 87.5575 32.944C87.4508 32.944 86.8535 32.912 85.7655 32.848C86.0002 33.9787 86.1815 35.2693 86.3095 36.72C86.4588 38.1493 86.5335 39.5787 86.5335 41.008C86.5335 43.312 86.1388 45.072 85.3495 46.288C84.5815 47.504 83.5895 48.112 82.3735 48.112C80.8375 48.112 79.7388 47.024 79.0775 44.848C78.4375 42.672 78.1175 39.3867 78.1175 34.992C78.1175 33.8613 78.1495 32.72 78.2135 31.568C78.0215 31.5893 77.7122 31.6 77.2855 31.6C76.7095 31.6 76.2402 31.6107 75.8775 31.632C76.0908 33.2107 76.2508 34.7253 76.3575 36.176C76.4855 37.6267 76.5495 39.2373 76.5495 41.008C76.5495 43.312 76.1548 45.072 75.3655 46.288C74.5975 47.504 73.6055 48.112 72.3895 48.112C70.8535 48.112 69.7548 47.024 69.0935 44.848C68.4535 42.672 68.1335 39.3867 68.1335 34.992C68.1335 30.8747 68.5388 26.7147 69.3495 22.512C70.1815 18.288 71.3335 14.8 72.8055 12.048C74.2775 9.296 75.9415 7.92 77.7975 7.92C78.7575 7.92 79.5042 8.32533 80.0375 9.136C80.5922 9.92533 80.8695 11.0667 80.8695 12.56C80.8695 14.8853 80.2402 17.4773 78.9815 20.336C77.7442 23.1733 75.5468 26.16 72.3895 29.296C72.1975 31.1733 72.1015 32.9973 72.1015 34.768C72.1015 36.9653 72.1762 39.216 72.3255 41.52C72.4748 43.8453 72.7202 45.008 73.0615 45.008C73.3815 45.008 73.6375 44.7413 73.8295 44.208C74.0215 43.6747 74.1175 42.832 74.1175 41.68C74.1175 39.5893 74.0322 37.744 73.8615 36.144C73.7122 34.5227 73.5308 33.2213 73.3175 32.24C73.2748 32.0907 73.2535 31.8667 73.2535 31.568C73.2535 30.6507 73.6162 29.8933 74.3415 29.296C75.0882 28.6987 76.0695 28.3893 77.2855 28.368H78.0535H78.5015C78.9068 24.8267 79.5682 21.4987 80.4855 18.384C81.4242 15.248 82.5548 12.72 83.8775 10.8C85.2215 8.88 86.6615 7.92 88.1975 7.92C89.2002 7.92 89.9788 8.368 90.5335 9.264C91.1095 10.16 91.3975 11.3653 91.3975 12.88C91.3975 14.7573 91.0455 16.8587 90.3415 19.184C89.6375 21.5093 88.5922 23.696 87.2055 25.744C85.8402 27.7707 84.2082 29.296 82.3095 30.32C82.1602 31.7493 82.0855 33.232 82.0855 34.768C82.0855 36.9653 82.1602 39.216 82.3095 41.52C82.4588 43.8453 82.7042 45.008 83.0455 45.008C83.3655 45.008 83.6215 44.7413 83.8135 44.208C84.0055 43.6747 84.1015 42.832 84.1015 41.68C84.1015 40.016 84.0162 38.4267 83.8455 36.912C83.6748 35.3973 83.4935 34.16 83.3015 33.2C83.2588 33.0293 83.2375 32.7947 83.2375 32.496C83.2375 31.6213 83.5362 30.8853 84.1335 30.288C84.7308 29.6693 85.4135 29.36 86.1815 29.36C86.9068 29.36 87.5682 29.3387 88.1655 29.296C88.7842 29.232 89.1788 29.1893 89.3495 29.168C90.0748 29.0827 90.5442 29.04 90.7575 29.04ZM77.1255 11.088C76.7415 11.088 76.2828 11.7387 75.7495 13.04C75.2375 14.3413 74.7255 16.0693 74.2135 18.224C73.7015 20.3787 73.2642 22.672 72.9015 25.104C74.5228 23.184 75.7388 21.104 76.5495 18.864C77.3815 16.6027 77.7975 14.5547 77.7975 12.72C77.7975 12.1867 77.7335 11.7813 77.6055 11.504C77.4775 11.2267 77.3175 11.088 77.1255 11.088ZM87.5255 11.088C87.0988 11.088 86.5762 11.8347 85.9575 13.328C85.3602 14.8213 84.7628 16.7733 84.1655 19.184C83.5895 21.5947 83.1095 24.0907 82.7255 26.672C83.9415 25.712 84.9655 24.432 85.7975 22.832C86.6508 21.232 87.2802 19.5573 87.6855 17.808C88.1122 16.0587 88.3255 14.4693 88.3255 13.04C88.3255 11.7387 88.0588 11.088 87.5255 11.088ZM93.4155 20.976C92.5195 20.976 91.8475 20.7733 91.3995 20.368C90.9515 19.9413 90.7275 19.3547 90.7275 18.608C90.7275 17.8613 91.0155 17.2427 91.5915 16.752C92.1888 16.24 92.9248 15.984 93.7995 15.984C94.5888 15.984 95.2288 16.176 95.7195 16.56C96.2102 16.944 96.4555 17.488 96.4555 18.192C96.4555 19.0453 96.1782 19.728 95.6235 20.24C95.0688 20.7307 94.3328 20.976 93.4155 20.976ZM93.1595 38.16C91.7728 38.16 90.7595 37.6693 90.1195 36.688C89.5008 35.7067 89.1915 34.4053 89.1915 32.784C89.1915 31.824 89.3088 30.5973 89.5435 29.104C89.7995 27.5893 90.1195 26.1813 90.5035 24.88C90.6955 24.1973 90.9515 23.728 91.2715 23.472C91.5915 23.216 92.1035 23.088 92.8075 23.088C93.8955 23.088 94.4395 23.4507 94.4395 24.176C94.4395 24.7093 94.2368 25.9467 93.8315 27.888C93.3195 30.2347 93.0635 31.824 93.0635 32.656C93.0635 33.296 93.1488 33.7867 93.3195 34.128C93.4902 34.4693 93.7782 34.64 94.1835 34.64C94.5675 34.64 95.0475 34.3733 95.6235 33.84C96.1995 33.3067 96.9675 32.464 97.9275 31.312C98.1835 31.0133 98.4715 30.864 98.7915 30.864C99.0688 30.864 99.2822 30.992 99.4315 31.248C99.6022 31.504 99.6875 31.856 99.6875 32.304C99.6875 33.1573 99.4848 33.8187 99.0795 34.288C96.9675 36.8693 94.9942 38.16 93.1595 38.16ZM103.211 38.16C101.12 38.16 99.4878 37.5733 98.3145 36.4C97.1625 35.2053 96.5865 33.6373 96.5865 31.696C96.5865 29.968 96.9278 28.4533 97.6105 27.152C98.2932 25.8507 99.1785 24.848 100.266 24.144C101.355 23.44 102.496 23.088 103.691 23.088C104.864 23.088 105.771 23.44 106.411 24.144C107.072 24.8267 107.403 25.712 107.403 26.8C107.403 27.696 107.2 28.4533 106.795 29.072C106.411 29.6907 105.899 30 105.259 30C104.853 30 104.523 29.904 104.267 29.712C104.032 29.52 103.915 29.2533 103.915 28.912C103.915 28.7627 103.936 28.592 103.979 28.4C104.021 28.208 104.053 28.0693 104.075 27.984C104.181 27.664 104.235 27.3653 104.235 27.088C104.235 26.8107 104.16 26.5973 104.01 26.448C103.883 26.2987 103.691 26.224 103.435 26.224C102.944 26.224 102.485 26.448 102.059 26.896C101.632 27.3227 101.291 27.9093 101.035 28.656C100.779 29.4027 100.651 30.224 100.651 31.12C100.651 33.5947 101.728 34.832 103.883 34.832C104.757 34.832 105.696 34.544 106.699 33.968C107.723 33.3707 108.725 32.4853 109.707 31.312C109.963 31.0133 110.251 30.864 110.571 30.864C110.848 30.864 111.061 30.992 111.211 31.248C111.381 31.504 111.467 31.856 111.467 32.304C111.467 33.1147 111.264 33.776 110.859 34.288C109.856 35.5253 108.651 36.4853 107.243 37.168C105.856 37.8293 104.512 38.16 103.211 38.16ZM126.64 30.864C126.917 30.864 127.13 30.992 127.28 31.248C127.45 31.504 127.536 31.856 127.536 32.304C127.536 33.1573 127.333 33.8187 126.928 34.288C125.946 35.4187 124.933 36.3467 123.888 37.072C122.864 37.7973 121.69 38.16 120.368 38.16C119.28 38.16 118.458 37.8507 117.904 37.232C117.349 36.592 117.072 35.6747 117.072 34.48C117.072 33.8827 117.221 32.816 117.52 31.28C117.797 29.936 117.936 29.008 117.936 28.496C117.936 28.1547 117.818 27.984 117.584 27.984C117.306 27.984 116.912 28.3467 116.4 29.072C115.888 29.776 115.376 30.7147 114.864 31.888C114.352 33.0613 113.936 34.2987 113.616 35.6C113.21 37.3067 112.208 38.16 110.608 38.16C109.968 38.16 109.541 37.936 109.328 37.488C109.136 37.0187 109.04 36.1867 109.04 34.992C109.04 34.3093 109.05 33.7653 109.072 33.36L109.104 30.8C109.104 27.5147 109.434 24.0907 110.096 20.528C110.778 16.9653 111.77 13.9787 113.072 11.568C114.394 9.136 115.973 7.92 117.808 7.92C118.789 7.92 119.578 8.34667 120.176 9.2C120.794 10.032 121.104 11.12 121.104 12.464C121.104 14.6187 120.474 16.8587 119.216 19.184C117.957 21.488 115.909 24.1867 113.072 27.28C113.008 28.3893 112.976 29.5307 112.976 30.704C113.68 28.8907 114.458 27.4187 115.312 26.288C116.186 25.136 117.04 24.3147 117.872 23.824C118.725 23.3333 119.504 23.088 120.208 23.088C121.594 23.088 122.288 23.7813 122.288 25.168C122.288 26 122.053 27.504 121.584 29.68C121.178 31.536 120.976 32.7627 120.976 33.36C120.976 34.2133 121.285 34.64 121.904 34.64C122.33 34.64 122.832 34.384 123.408 33.872C124.005 33.3387 124.794 32.4853 125.776 31.312C126.032 31.0133 126.32 30.864 126.64 30.864ZM117.136 11.088C116.752 11.088 116.325 11.6427 115.856 12.752C115.386 13.84 114.928 15.3227 114.48 17.2C114.053 19.056 113.701 21.0827 113.424 23.28C114.746 21.7227 115.834 20.0267 116.688 18.192C117.562 16.3573 118 14.6933 118 13.2C118 12.5173 117.925 11.9947 117.776 11.632C117.626 11.2693 117.413 11.088 117.136 11.088ZM139.214 30.864C139.492 30.864 139.705 30.992 139.854 31.248C140.025 31.504 140.11 31.856 140.11 32.304C140.11 33.1573 139.908 33.8187 139.502 34.288C138.713 35.248 137.593 36.1333 136.142 36.944C134.713 37.7547 133.177 38.16 131.534 38.16C129.294 38.16 127.556 37.552 126.318 36.336C125.081 35.12 124.462 33.456 124.462 31.344C124.462 29.872 124.772 28.5067 125.39 27.248C126.009 25.968 126.862 24.9547 127.95 24.208C129.06 23.4613 130.308 23.088 131.694 23.088C132.932 23.088 133.924 23.4613 134.67 24.208C135.417 24.9333 135.79 25.9253 135.79 27.184C135.79 28.656 135.257 29.9253 134.19 30.992C133.145 32.0373 131.364 32.8693 128.846 33.488C129.38 34.4693 130.393 34.96 131.886 34.96C132.846 34.96 133.934 34.6293 135.15 33.968C136.388 33.2853 137.454 32.4 138.35 31.312C138.606 31.0133 138.894 30.864 139.214 30.864ZM131.15 26.224C130.361 26.224 129.689 26.6827 129.134 27.6C128.601 28.5173 128.334 29.6267 128.334 30.928V30.992C129.593 30.6933 130.585 30.2453 131.31 29.648C132.036 29.0507 132.398 28.3573 132.398 27.568C132.398 27.1627 132.281 26.8427 132.046 26.608C131.833 26.352 131.534 26.224 131.15 26.224ZM143.457 38.864C142.347 38.864 141.494 38.608 140.897 38.096C140.321 37.584 140.033 37.008 140.033 36.368C140.033 35.8133 140.235 35.3333 140.641 34.928C141.046 34.5227 141.643 34.32 142.433 34.32C142.71 34.32 143.03 34.352 143.393 34.416C143.777 34.4587 144.065 34.4907 144.257 34.512C144.235 33.9573 144.107 33.4347 143.873 32.944C143.659 32.4533 143.382 31.984 143.041 31.536C142.699 31.0667 142.379 30.6613 142.081 30.32C141.419 31.5787 140.758 32.624 140.097 33.456C139.457 34.288 138.753 35.0773 137.985 35.824C137.601 36.208 137.195 36.4 136.769 36.4C136.427 36.4 136.15 36.2827 135.937 36.048C135.723 35.792 135.617 35.4827 135.617 35.12C135.617 34.6933 135.766 34.2987 136.065 33.936L136.481 33.424C137.654 31.9733 138.539 30.7787 139.137 29.84C139.521 29.2213 139.905 28.4853 140.289 27.632C140.694 26.7787 141.217 25.616 141.857 24.144C142.262 23.2053 143.105 22.736 144.385 22.736C144.982 22.736 145.398 22.7893 145.633 22.896C145.867 23.0027 145.985 23.1733 145.985 23.408C145.985 23.536 145.942 23.7387 145.857 24.016C145.771 24.2933 145.654 24.5707 145.505 24.848C145.121 25.616 144.929 26.2667 144.929 26.8C144.929 27.12 145.035 27.472 145.249 27.856C145.483 28.24 145.835 28.72 146.305 29.296C146.987 30.192 147.499 30.96 147.841 31.6C148.203 32.2187 148.385 32.9013 148.385 33.648C148.385 34.544 148.171 35.3973 147.745 36.208C147.339 36.9973 146.763 37.6373 146.017 38.128C145.27 38.6187 144.417 38.864 143.457 38.864Z" fill="#001AFF"/>
<path d="M365.163 42.2156C365.19 43.3199 364.317 44.2367 363.212 44.2634L345.218 44.6987C344.113 44.7255 343.196 43.8519 343.17 42.7477C343.143 41.6434 344.017 40.7266 345.121 40.6999L361.116 40.313L360.729 24.3176C360.702 23.2134 361.576 22.2966 362.68 22.2699C363.784 22.2431 364.701 23.1167 364.728 24.2209L365.163 42.2156ZM171.751 29.9811C170.769 30.4859 169.563 30.0985 169.058 29.116C168.554 28.1335 168.941 26.9279 169.924 26.4231L171.751 29.9811ZM361.784 43.712C311.552 -4.14748 236.917 -3.49502 171.751 29.9811L169.924 26.4231C236.02 -7.53117 312.663 -8.61376 364.544 40.816L361.784 43.712Z" fill="#001AFF"/>
</svg>
