<svg width="158" height="163" viewBox="0 0 158 163" fill="none" xmlns="http://www.w3.org/2000/svg">
<path d="M26.308 147.66C25.4973 147.66 24.9213 147.233 24.58 146.38C24.26 145.527 24.1 144.161 24.1 142.284C24.1 139.511 24.4947 136.876 25.284 134.38C25.476 133.761 25.7853 133.313 26.212 133.036C26.66 132.737 27.2787 132.588 28.068 132.588C28.4947 132.588 28.7933 132.641 28.964 132.748C29.1347 132.855 29.22 133.057 29.22 133.356C29.22 133.697 29.06 134.465 28.74 135.66C28.5267 136.513 28.356 137.26 28.228 137.9C28.1 138.54 27.9933 139.329 27.908 140.268C28.612 138.433 29.4013 136.94 30.276 135.788C31.1507 134.636 32.004 133.815 32.836 133.324C33.6893 132.833 34.468 132.588 35.172 132.588C36.5587 132.588 37.252 133.281 37.252 134.668C37.252 135.5 37.0173 137.004 36.548 139.18C36.1427 141.036 35.94 142.263 35.94 142.86C35.94 143.713 36.2493 144.14 36.868 144.14C37.2947 144.14 37.796 143.884 38.372 143.372C38.9693 142.839 39.7587 141.985 40.74 140.812C40.996 140.513 41.284 140.364 41.604 140.364C41.8813 140.364 42.0947 140.492 42.244 140.748C42.4147 141.004 42.5 141.356 42.5 141.804C42.5 142.657 42.2973 143.319 41.892 143.788C40.9747 144.919 39.9827 145.847 38.916 146.572C37.8707 147.297 36.676 147.66 35.332 147.66C34.244 147.66 33.4227 147.351 32.868 146.732C32.3133 146.092 32.036 145.175 32.036 143.98C32.036 143.383 32.1853 142.316 32.484 140.78C32.7613 139.436 32.9 138.508 32.9 137.996C32.9 137.655 32.7827 137.484 32.548 137.484C32.2707 137.484 31.876 137.847 31.364 138.572C30.8733 139.276 30.3613 140.215 29.828 141.388C29.316 142.561 28.9 143.799 28.58 145.1C28.3453 146.103 28.068 146.785 27.748 147.148C27.4493 147.489 26.9693 147.66 26.308 147.66ZM56.231 137.676C56.5083 137.676 56.7217 137.815 56.871 138.092C57.0203 138.369 57.095 138.721 57.095 139.148C57.095 140.172 56.7857 140.78 56.167 140.972C54.887 141.42 53.479 141.676 51.943 141.74C51.5377 143.532 50.7377 144.972 49.543 146.06C48.3483 147.127 46.9937 147.66 45.479 147.66C44.199 147.66 43.1003 147.351 42.183 146.732C41.287 146.113 40.6043 145.292 40.135 144.268C39.6657 143.244 39.431 142.135 39.431 140.94C39.431 139.319 39.7403 137.879 40.359 136.62C40.9777 135.34 41.831 134.348 42.919 133.644C44.007 132.919 45.2123 132.556 46.535 132.556C48.1563 132.556 49.4577 133.121 50.439 134.252C51.4417 135.361 52.0283 136.737 52.199 138.38C53.2017 138.316 54.3963 138.103 55.783 137.74C55.9537 137.697 56.103 137.676 56.231 137.676ZM45.735 144.268C46.4177 144.268 47.0043 143.991 47.495 143.436C48.007 142.881 48.3483 142.081 48.519 141.036C47.8577 140.588 47.3457 140.001 46.983 139.276C46.6417 138.551 46.471 137.783 46.471 136.972C46.471 136.631 46.503 136.289 46.567 135.948H46.407C45.5537 135.948 44.839 136.364 44.263 137.196C43.7083 138.007 43.431 139.159 43.431 140.652C43.431 141.825 43.655 142.721 44.103 143.34C44.5723 143.959 45.1163 144.268 45.735 144.268ZM69.433 140.364C69.7103 140.364 69.9237 140.492 70.073 140.748C70.2437 141.004 70.329 141.356 70.329 141.804C70.329 142.657 70.1263 143.319 69.721 143.788C68.8037 144.919 67.801 145.847 66.713 146.572C65.625 147.297 64.377 147.66 62.969 147.66C58.617 147.66 56.441 144.599 56.441 138.476C56.441 137.537 56.473 136.588 56.537 135.628H55.289C54.649 135.628 54.2117 135.511 53.977 135.276C53.7637 135.041 53.657 134.668 53.657 134.156C53.657 132.961 54.137 132.364 55.097 132.364H56.921C57.2837 130.017 57.8383 127.873 58.585 125.932C59.3317 123.991 60.2277 122.444 61.273 121.292C62.3397 120.14 63.481 119.564 64.697 119.564C65.593 119.564 66.297 119.959 66.809 120.748C67.321 121.537 67.577 122.529 67.577 123.724C67.577 127.031 66.1903 129.911 63.417 132.364H67.001C67.3423 132.364 67.5877 132.439 67.737 132.588C67.8863 132.737 67.961 133.015 67.961 133.42C67.961 134.892 66.7557 135.628 64.345 135.628H60.441C60.3983 136.695 60.377 137.527 60.377 138.124C60.377 140.343 60.633 141.9 61.145 142.796C61.6783 143.692 62.5103 144.14 63.641 144.14C64.5583 144.14 65.369 143.863 66.073 143.308C66.777 142.753 67.609 141.921 68.569 140.812C68.825 140.513 69.113 140.364 69.433 140.364ZM63.833 122.636C63.513 122.636 63.1503 123.041 62.745 123.852C62.361 124.641 61.9877 125.751 61.625 127.18C61.2837 128.588 60.9957 130.156 60.761 131.884C62.0197 130.796 62.9583 129.58 63.577 128.236C64.217 126.871 64.537 125.633 64.537 124.524C64.537 123.265 64.3023 122.636 63.833 122.636ZM69.9955 147.66C69.1848 147.66 68.6088 147.233 68.2675 146.38C67.9475 145.527 67.7875 144.161 67.7875 142.284C67.7875 139.511 68.1822 136.876 68.9715 134.38C69.1635 133.761 69.4728 133.313 69.8995 133.036C70.3475 132.737 70.9662 132.588 71.7555 132.588C72.1822 132.588 72.4808 132.641 72.6515 132.748C72.8222 132.855 72.9075 133.057 72.9075 133.356C72.9075 133.697 72.7475 134.465 72.4275 135.66C72.2142 136.513 72.0435 137.26 71.9155 137.9C71.7875 138.54 71.6808 139.329 71.5955 140.268C72.2995 138.433 73.0888 136.94 73.9635 135.788C74.8382 134.636 75.6915 133.815 76.5235 133.324C77.3768 132.833 78.1555 132.588 78.8595 132.588C80.2462 132.588 80.9395 133.281 80.9395 134.668C80.9395 134.945 80.8435 135.617 80.6515 136.684C80.4808 137.537 80.3955 138.071 80.3955 138.284C80.3955 139.031 80.6622 139.404 81.1955 139.404C81.7928 139.404 82.5608 138.935 83.4995 137.996C83.7768 137.719 84.0648 137.58 84.3635 137.58C84.6408 137.58 84.8542 137.708 85.0035 137.964C85.1742 138.199 85.2595 138.519 85.2595 138.924C85.2595 139.713 85.0462 140.332 84.6195 140.78C84.0222 141.399 83.3182 141.932 82.5075 142.38C81.7182 142.807 80.8755 143.02 79.9795 143.02C78.8488 143.02 77.9848 142.732 77.3875 142.156C76.8115 141.58 76.5235 140.801 76.5235 139.82C76.5235 139.5 76.5555 139.18 76.6195 138.86C76.6622 138.433 76.6835 138.145 76.6835 137.996C76.6835 137.655 76.5662 137.484 76.3315 137.484C76.0115 137.484 75.5848 137.847 75.0515 138.572C74.5395 139.276 74.0275 140.215 73.5155 141.388C73.0035 142.561 72.5875 143.799 72.2675 145.1C72.0328 146.103 71.7555 146.785 71.4355 147.148C71.1368 147.489 70.6568 147.66 69.9955 147.66ZM93.742 141.324C94.0193 141.324 94.2327 141.452 94.382 141.708C94.5527 141.964 94.638 142.316 94.638 142.764C94.638 143.532 94.4567 144.193 94.094 144.748C93.4967 145.665 92.7073 146.38 91.726 146.892C90.766 147.404 89.614 147.66 88.27 147.66C86.222 147.66 84.6327 147.052 83.502 145.836C82.3713 144.599 81.806 142.935 81.806 140.844C81.806 139.372 82.1153 138.007 82.734 136.748C83.3527 135.468 84.206 134.455 85.294 133.708C86.4033 132.961 87.6513 132.588 89.038 132.588C90.2753 132.588 91.2673 132.961 92.014 133.708C92.7607 134.433 93.134 135.425 93.134 136.684C93.134 138.156 92.6007 139.425 91.534 140.492C90.4887 141.537 88.6967 142.369 86.158 142.988C86.67 143.969 87.534 144.46 88.75 144.46C89.6247 144.46 90.3393 144.257 90.894 143.852C91.47 143.447 92.1313 142.764 92.878 141.804C93.134 141.484 93.422 141.324 93.742 141.324ZM88.494 135.724C87.7047 135.724 87.0327 136.183 86.478 137.1C85.9447 138.017 85.678 139.127 85.678 140.428V140.492C86.9367 140.193 87.9287 139.745 88.654 139.148C89.3793 138.551 89.742 137.857 89.742 137.068C89.742 136.663 89.6247 136.343 89.39 136.108C89.1767 135.852 88.878 135.724 88.494 135.724ZM116.039 140.364C116.316 140.364 116.53 140.492 116.679 140.748C116.85 141.004 116.935 141.356 116.935 141.804C116.935 142.657 116.732 143.319 116.327 143.788C115.41 144.919 114.407 145.847 113.319 146.572C112.252 147.297 111.036 147.66 109.671 147.66C107.794 147.66 106.396 146.807 105.479 145.1C104.583 143.393 104.135 141.185 104.135 138.476C104.135 135.873 104.466 132.908 105.127 129.58C105.81 126.252 106.802 123.393 108.103 121.004C109.426 118.615 110.994 117.42 112.807 117.42C113.831 117.42 114.631 117.9 115.207 118.86C115.804 119.799 116.103 121.153 116.103 122.924C116.103 125.463 115.399 128.407 113.991 131.756C112.583 135.105 110.674 138.423 108.263 141.708C108.412 142.583 108.658 143.212 108.999 143.596C109.34 143.959 109.788 144.14 110.343 144.14C111.218 144.14 111.986 143.895 112.647 143.404C113.308 142.892 114.151 142.028 115.175 140.812C115.431 140.513 115.719 140.364 116.039 140.364ZM112.103 120.588C111.612 120.588 111.058 121.473 110.439 123.244C109.82 125.015 109.276 127.212 108.807 129.836C108.338 132.46 108.082 134.977 108.039 137.388C109.554 134.892 110.759 132.396 111.655 129.9C112.551 127.383 112.999 125.089 112.999 123.02C112.999 121.399 112.7 120.588 112.103 120.588ZM130.669 137.676C130.946 137.676 131.159 137.815 131.309 138.092C131.458 138.369 131.533 138.721 131.533 139.148C131.533 140.172 131.223 140.78 130.605 140.972C129.325 141.42 127.917 141.676 126.381 141.74C125.975 143.532 125.175 144.972 123.981 146.06C122.786 147.127 121.431 147.66 119.917 147.66C118.637 147.66 117.538 147.351 116.621 146.732C115.725 146.113 115.042 145.292 114.573 144.268C114.103 143.244 113.868 142.135 113.868 140.94C113.868 139.319 114.178 137.879 114.797 136.62C115.415 135.34 116.269 134.348 117.357 133.644C118.445 132.919 119.65 132.556 120.973 132.556C122.594 132.556 123.895 133.121 124.877 134.252C125.879 135.361 126.466 136.737 126.637 138.38C127.639 138.316 128.834 138.103 130.221 137.74C130.391 137.697 130.541 137.676 130.669 137.676ZM120.173 144.268C120.855 144.268 121.442 143.991 121.933 143.436C122.445 142.881 122.786 142.081 122.957 141.036C122.295 140.588 121.783 140.001 121.421 139.276C121.079 138.551 120.909 137.783 120.909 136.972C120.909 136.631 120.941 136.289 121.005 135.948H120.845C119.991 135.948 119.277 136.364 118.701 137.196C118.146 138.007 117.869 139.159 117.869 140.652C117.869 141.825 118.093 142.721 118.541 143.34C119.01 143.959 119.554 144.268 120.173 144.268ZM145.17 140.428C145.447 140.428 145.661 140.567 145.81 140.844C145.981 141.1 146.066 141.431 146.066 141.836C146.066 142.327 145.991 142.711 145.842 142.988C145.693 143.265 145.458 143.511 145.138 143.724C143.303 144.961 141.959 145.879 141.106 146.476L139.058 147.852C138.247 152.268 137.181 155.735 135.858 158.252C134.557 160.791 132.893 162.06 130.866 162.06C129.778 162.06 128.893 161.719 128.21 161.036C127.527 160.375 127.186 159.5 127.186 158.412C127.186 156.897 127.783 155.265 128.978 153.516C130.173 151.788 132.413 149.655 135.698 147.116L135.89 145.868C135.527 146.444 135.047 146.892 134.45 147.212C133.874 147.511 133.298 147.66 132.722 147.66C131.399 147.66 130.343 147.18 129.554 146.22C128.765 145.26 128.37 144.001 128.37 142.444C128.37 140.737 128.765 139.127 129.554 137.612C130.343 136.076 131.389 134.849 132.69 133.932C134.013 132.993 135.41 132.524 136.882 132.524C137.351 132.524 137.661 132.62 137.81 132.812C137.981 132.983 138.119 133.303 138.226 133.772C138.631 133.687 139.101 133.644 139.634 133.644C140.167 133.644 140.541 133.729 140.754 133.9C140.989 134.049 141.106 134.359 141.106 134.828C141.106 135.084 141.095 135.287 141.074 135.436C140.989 136.097 140.722 137.772 140.274 140.46C140.189 140.972 140.093 141.537 139.986 142.156C139.901 142.753 139.805 143.393 139.698 144.076C141.341 142.796 142.919 141.665 144.434 140.684C144.711 140.513 144.957 140.428 145.17 140.428ZM133.874 144.428C134.365 144.428 134.834 144.129 135.282 143.532C135.73 142.935 136.05 142.081 136.242 140.972L137.266 135.5C136.391 135.521 135.581 135.863 134.834 136.524C134.087 137.164 133.49 138.017 133.042 139.084C132.594 140.151 132.37 141.281 132.37 142.476C132.37 143.137 132.498 143.628 132.754 143.948C133.031 144.268 133.405 144.428 133.874 144.428ZM131.218 158.956C131.751 158.956 132.349 158.316 133.01 157.036C133.693 155.756 134.343 153.719 134.962 150.924C133.319 152.332 132.135 153.601 131.41 154.732C130.685 155.863 130.322 156.855 130.322 157.708C130.322 158.071 130.386 158.369 130.514 158.604C130.663 158.839 130.898 158.956 131.218 158.956ZM149.507 147.66C148.248 147.66 147.171 147.351 146.275 146.732C145.4 146.092 144.739 145.26 144.291 144.236C143.843 143.212 143.618 142.113 143.618 140.94C143.618 139.319 143.917 137.879 144.515 136.62C145.133 135.34 145.965 134.348 147.011 133.644C148.056 132.919 149.229 132.556 150.531 132.556C151.789 132.556 152.867 132.876 153.763 133.516C154.659 134.135 155.331 134.956 155.779 135.98C156.227 137.004 156.451 138.103 156.451 139.276C156.451 140.897 156.141 142.348 155.523 143.628C154.904 144.887 154.061 145.879 152.995 146.604C151.949 147.308 150.787 147.66 149.507 147.66ZM149.859 144.204C150.584 144.204 151.192 143.809 151.683 143.02C152.195 142.231 152.451 141.079 152.451 139.564C152.451 138.391 152.237 137.505 151.811 136.908C151.384 136.311 150.872 136.012 150.275 136.012C149.507 136.012 148.867 136.407 148.355 137.196C147.864 137.964 147.619 139.116 147.619 140.652C147.619 141.868 147.832 142.764 148.259 143.34C148.685 143.916 149.219 144.204 149.859 144.204Z" fill="#001AFF"/>
<path d="M1.33394 113.614C0.292424 113.982 -0.253687 115.125 0.114168 116.166C0.482022 117.208 1.62454 117.754 2.66606 117.386L1.33394 113.614ZM71.5 37L70.279 38.584L71.5 37ZM117.5 102.5L117.358 100.505L117.5 102.5ZM150.983 10.7587C151.126 9.66339 150.354 8.65966 149.259 8.5168L131.41 6.18869C130.315 6.04583 129.311 6.81792 129.168 7.91322C129.025 9.00851 129.797 10.0122 130.893 10.1551L146.758 12.2245L144.689 28.0901C144.546 29.1854 145.318 30.1891 146.413 30.332C147.509 30.4749 148.512 29.7028 148.655 28.6075L150.983 10.7587ZM2.66606 117.386C22.3277 110.442 49.5605 98.1234 67.1071 83.7079C75.8425 76.5313 82.5009 68.5757 84.3034 60.23C85.2174 55.998 84.8711 51.7087 82.9688 47.4831C81.0791 43.2853 77.703 39.2563 72.721 35.416L70.279 38.584C74.897 42.1437 77.773 45.6855 79.3214 49.1251C80.8573 52.5369 81.1352 55.9515 80.3935 59.3856C78.8845 66.3722 73.1117 73.5979 64.5679 80.6171C47.5562 94.5933 20.839 106.725 1.33394 113.614L2.66606 117.386ZM72.721 35.416C66.6298 30.7206 61.5525 28.1115 57.4508 27.405C55.3707 27.0467 53.4544 27.1633 51.7789 27.8341C50.0829 28.513 48.7808 29.7019 47.8639 31.2276C46.0863 34.1853 45.7653 38.3676 46.3669 42.9137C46.9782 47.5336 48.585 52.8585 51.0487 58.3777C60.8202 80.2684 84.9076 106.833 117.642 104.495L117.358 100.505C87.0924 102.667 64.1798 77.9816 54.7013 56.7473C52.3525 51.4853 50.8812 46.5367 50.3323 42.389C49.7737 38.1676 50.2106 35.0881 51.2924 33.288C51.8052 32.4348 52.4581 31.8708 53.2655 31.5475C54.0934 31.2161 55.2289 31.0812 56.7719 31.347C59.9162 31.8885 64.3702 34.0294 70.279 38.584L72.721 35.416ZM117.642 104.495C124.148 104.03 129.197 102.589 133.034 100.245C136.906 97.8797 139.429 94.6627 140.967 90.8741C143.971 83.4732 143.18 73.9048 141.946 64.271C140.684 54.4145 138.926 44.3046 139.451 35.0287C139.971 25.858 142.714 17.8587 150.219 12.0852L147.781 8.91475C139.036 15.6413 136.016 24.942 135.458 34.8025C134.905 44.5579 136.753 55.2105 137.979 64.779C139.233 74.5702 139.81 83.0893 137.261 89.3697C136.022 92.4216 134.039 94.9437 130.948 96.832C127.822 98.7418 123.452 100.07 117.358 100.505L117.642 104.495Z" fill="#001AFF"/>
</svg>
