<svg width="372" height="120" viewBox="0 0 372 120" fill="none" xmlns="http://www.w3.org/2000/svg">
<path d="M3.3866 37.6148C2.5906 38.3806 1.32451 38.3561 0.558706 37.5601C-0.207094 36.7641 -0.182609 35.498 0.613395 34.7322L3.3866 37.6148ZM108 13.4067L109.727 14.4158L108 13.4067ZM243.918 112.34C244.231 113.399 243.626 114.512 242.567 114.825L225.304 119.925C224.245 120.238 223.133 119.633 222.82 118.574C222.507 117.514 223.112 116.402 224.171 116.089L239.515 111.555L234.982 96.2111C234.669 95.1518 235.274 94.0393 236.333 93.7263C237.392 93.4134 238.505 94.0184 238.818 95.0777L243.918 112.34ZM0.613395 34.7322C17.6325 18.3589 40.633 20.5772 60.6412 22.6255C70.8193 23.6674 80.1891 24.675 88.1411 23.5796C95.9614 22.5023 102.167 19.4241 106.273 12.3976L109.727 14.4158C104.833 22.7893 97.3511 26.3486 88.687 27.5422C80.1546 28.7176 70.2432 27.6293 60.2338 26.6047C39.867 24.5197 18.8675 22.7214 3.3866 37.6148L0.613395 34.7322ZM106.273 12.3976C107.622 10.0905 108.325 8.32036 108.589 7.01853C108.853 5.71598 108.639 5.09754 108.46 4.82394C108.292 4.56715 107.912 4.24603 106.98 4.08789C106.034 3.92735 104.716 3.97787 103.051 4.31277C96.3244 5.66531 86.0584 11.1988 78.2578 18.6641C70.3629 26.2198 65.7785 34.9543 68.5417 42.763C69.9326 46.6935 73.2757 50.7388 79.6515 54.5127C86.0354 58.2914 95.3423 61.7241 108.408 64.4488L107.592 68.3646C94.2827 65.5892 84.5115 62.0376 77.6141 57.9549C70.7087 53.8676 66.5674 49.1746 64.7708 44.0973C61.159 33.8904 67.3871 23.5311 75.4922 15.7743C83.6916 7.92715 94.6131 1.92935 102.262 0.391267C104.19 0.00350536 106.041 -0.128591 107.649 0.144225C109.271 0.419435 110.833 1.14763 111.806 2.63206C112.767 4.09966 112.894 5.91433 112.509 7.81271C112.124 9.7118 111.191 11.9104 109.727 14.4158L106.273 12.3976ZM108.408 64.4488C134.859 69.9646 151.593 76.0522 161.502 82.0893C171.339 88.0826 175.076 94.4719 173.768 100.576C172.527 106.366 166.918 110.67 161.163 113.108C158.21 114.358 155.05 115.197 152.069 115.522C149.115 115.844 146.193 115.678 143.798 114.779L145.202 111.034C146.807 111.636 149.041 111.829 151.636 111.545C154.204 111.265 156.985 110.533 159.603 109.424C164.988 107.143 169.035 103.572 169.857 99.7376C170.611 96.2165 168.818 91.2307 159.42 85.5053C150.095 79.8237 133.891 73.8488 107.592 68.3646L108.408 64.4488ZM143.798 114.779C141.341 113.858 139.548 112.19 138.717 109.981C137.896 107.8 138.113 105.358 139.128 103.035C141.146 98.4202 146.399 93.9539 154.573 91.3158C171.002 86.0142 199.974 87.7739 242.956 111.15L241.044 114.664C198.526 91.5394 170.748 90.2992 155.802 95.1225C148.289 97.547 144.198 101.424 142.794 104.637C142.098 106.228 142.084 107.572 142.461 108.572C142.827 109.545 143.659 110.455 145.202 111.034L143.798 114.779Z" fill="#001AFF"/>
<path d="M164.488 37.856C164.979 37.856 165.224 38.1867 165.224 38.848C165.224 39.68 165.032 40.3307 164.648 40.8C164.285 41.2693 163.784 41.504 163.144 41.504L161.96 41.472C161.747 41.4507 161.437 41.44 161.032 41.44C161.117 42.656 161.16 43.872 161.16 45.088C161.16 48.3093 160.733 51.1147 159.88 53.504C159.048 55.8933 157.736 57.088 155.944 57.088C154.728 57.088 153.8 56.384 153.16 54.976C152.541 53.5893 152.232 51.8933 152.232 49.888C152.232 47.392 152.509 44.928 153.064 42.496C152.339 43.6053 151.389 44.16 150.216 44.16C149.043 44.16 148.061 43.6693 147.272 42.688C146.504 41.7067 146.12 40.4373 146.12 38.88C146.12 37.1947 146.515 35.5947 147.304 34.08C148.115 32.5653 149.181 31.3493 150.504 30.432C151.848 29.4933 153.277 29.024 154.792 29.024C155.304 29.024 155.699 29.1947 155.976 29.536C156.168 28.8533 156.456 28.3947 156.84 28.16C157.224 27.9253 157.757 27.808 158.44 27.808C159.165 27.808 159.645 27.9147 159.88 28.128C160.136 28.3413 160.253 28.6507 160.232 29.056C160.232 29.312 160.093 29.9093 159.816 30.848C159.56 31.7653 159.389 32.3733 159.304 32.672C158.963 33.8667 158.589 35.1893 158.184 36.64C157.8 38.0907 157.491 39.4133 157.256 40.608C156.573 44.0213 156.232 47.04 156.232 49.664C156.232 50.6453 156.307 51.4773 156.456 52.16C156.627 52.864 156.84 53.216 157.096 53.216C157.309 53.216 157.533 52.8533 157.768 52.128C158.024 51.4027 158.237 50.432 158.408 49.216C158.579 48 158.664 46.7093 158.664 45.344C158.664 43.7227 158.589 42.2827 158.44 41.024C158.419 40.9173 158.408 40.7467 158.408 40.512C158.408 39.808 158.579 39.2213 158.92 38.752C159.283 38.2827 159.784 38.048 160.424 38.048C160.509 38.048 161.32 38.016 162.856 37.952C163.496 37.888 164.04 37.856 164.488 37.856ZM151.496 40.928C151.987 40.928 152.456 40.6293 152.904 40.032C153.352 39.4133 153.672 38.6773 153.864 37.824L155.24 32C154.301 32.0213 153.437 32.352 152.648 32.992C151.88 33.632 151.261 34.4853 150.792 35.552C150.344 36.5973 150.12 37.7067 150.12 38.88C150.12 39.5413 150.237 40.0533 150.472 40.416C150.728 40.7573 151.069 40.928 151.496 40.928ZM165.8 44.16C164.84 44.16 164.051 43.7227 163.432 42.848C162.835 41.952 162.536 40.8427 162.536 39.52C162.536 37.92 162.643 36.4587 162.856 35.136C163.069 33.792 163.421 32.3733 163.912 30.88C164.125 30.24 164.424 29.7813 164.808 29.504C165.192 29.2267 165.8 29.088 166.632 29.088C167.101 29.088 167.421 29.1627 167.592 29.312C167.784 29.4613 167.88 29.6853 167.88 29.984C167.88 30.1547 167.763 30.7307 167.528 31.712C167.315 32.5013 167.144 33.216 167.016 33.856C166.589 36.096 166.376 37.5893 166.376 38.336C166.376 38.784 166.429 39.104 166.536 39.296C166.643 39.4667 166.813 39.552 167.048 39.552C167.368 39.552 167.763 39.232 168.232 38.592C168.723 37.952 169.235 36.9813 169.768 35.68C170.323 34.3787 170.856 32.7787 171.368 30.88C171.539 30.24 171.795 29.7813 172.136 29.504C172.499 29.2267 173.032 29.088 173.736 29.088C174.227 29.088 174.568 29.152 174.76 29.28C174.952 29.3867 175.048 29.6 175.048 29.92C175.048 30.4533 174.781 31.9147 174.248 34.304C173.651 37.0347 173.352 38.72 173.352 39.36C173.352 39.7653 173.437 40.0853 173.608 40.32C173.779 40.5333 174.003 40.64 174.28 40.64C174.707 40.64 175.208 40.384 175.784 39.872C176.381 39.3387 177.171 38.4853 178.152 37.312C178.408 37.0133 178.696 36.864 179.016 36.864C179.293 36.864 179.507 36.992 179.656 37.248C179.827 37.504 179.912 37.856 179.912 38.304C179.912 39.1573 179.709 39.8187 179.304 40.288C178.387 41.4187 177.395 42.3467 176.328 43.072C175.283 43.7973 174.088 44.16 172.744 44.16C171.72 44.16 170.963 43.7653 170.472 42.976C170.003 42.1867 169.768 41.0773 169.768 39.648C169.405 41.0987 168.861 42.2187 168.136 43.008C167.411 43.776 166.632 44.16 165.8 44.16ZM191.589 36.864C191.867 36.864 192.08 36.992 192.229 37.248C192.4 37.504 192.485 37.856 192.485 38.304C192.485 39.1573 192.283 39.8187 191.877 40.288C191.088 41.248 189.968 42.1333 188.517 42.944C187.088 43.7547 185.552 44.16 183.909 44.16C181.669 44.16 179.931 43.552 178.693 42.336C177.456 41.12 176.837 39.456 176.837 37.344C176.837 35.872 177.147 34.5067 177.765 33.248C178.384 31.968 179.237 30.9547 180.325 30.208C181.435 29.4613 182.683 29.088 184.069 29.088C185.307 29.088 186.299 29.4613 187.045 30.208C187.792 30.9333 188.165 31.9253 188.165 33.184C188.165 34.656 187.632 35.9253 186.565 36.992C185.52 38.0373 183.739 38.8693 181.221 39.488C181.755 40.4693 182.768 40.96 184.261 40.96C185.221 40.96 186.309 40.6293 187.525 39.968C188.763 39.2853 189.829 38.4 190.725 37.312C190.981 37.0133 191.269 36.864 191.589 36.864ZM183.525 32.224C182.736 32.224 182.064 32.6827 181.509 33.6C180.976 34.5173 180.709 35.6267 180.709 36.928V36.992C181.968 36.6933 182.96 36.2453 183.685 35.648C184.411 35.0507 184.773 34.3573 184.773 33.568C184.773 33.1627 184.656 32.8427 184.421 32.608C184.208 32.352 183.909 32.224 183.525 32.224ZM202.008 36.864C202.285 36.864 202.498 36.992 202.648 37.248C202.818 37.504 202.904 37.856 202.904 38.304C202.904 39.1573 202.701 39.8187 202.296 40.288C201.378 41.4187 200.376 42.3467 199.288 43.072C198.221 43.7973 197.005 44.16 195.64 44.16C193.762 44.16 192.365 43.3067 191.448 41.6C190.552 39.8933 190.104 37.6853 190.104 34.976C190.104 32.3733 190.434 29.408 191.096 26.08C191.778 22.752 192.77 19.8933 194.072 17.504C195.394 15.1147 196.962 13.92 198.776 13.92C199.8 13.92 200.6 14.4 201.176 15.36C201.773 16.2987 202.072 17.6533 202.072 19.424C202.072 21.9627 201.368 24.9067 199.96 28.256C198.552 31.6053 196.642 34.9227 194.232 38.208C194.381 39.0827 194.626 39.712 194.968 40.096C195.309 40.4587 195.757 40.64 196.312 40.64C197.186 40.64 197.954 40.3947 198.616 39.904C199.277 39.392 200.12 38.528 201.144 37.312C201.4 37.0133 201.688 36.864 202.008 36.864ZM198.072 17.088C197.581 17.088 197.026 17.9733 196.408 19.744C195.789 21.5147 195.245 23.712 194.776 26.336C194.306 28.96 194.05 31.4773 194.008 33.888C195.522 31.392 196.728 28.896 197.624 26.4C198.52 23.8827 198.968 21.5893 198.968 19.52C198.968 17.8987 198.669 17.088 198.072 17.088ZM217.957 37.856C218.447 37.856 218.693 38.1867 218.693 38.848C218.693 39.68 218.501 40.3307 218.117 40.8C217.754 41.2693 217.253 41.504 216.613 41.504L215.429 41.472C215.215 41.4507 214.906 41.44 214.501 41.44C214.586 42.656 214.629 43.872 214.629 45.088C214.629 48.3093 214.202 51.1147 213.349 53.504C212.517 55.8933 211.205 57.088 209.413 57.088C208.197 57.088 207.269 56.384 206.629 54.976C206.01 53.5893 205.701 51.8933 205.701 49.888C205.701 47.392 205.978 44.928 206.533 42.496C205.807 43.6053 204.858 44.16 203.685 44.16C202.511 44.16 201.53 43.6693 200.741 42.688C199.973 41.7067 199.589 40.4373 199.589 38.88C199.589 37.1947 199.983 35.5947 200.773 34.08C201.583 32.5653 202.65 31.3493 203.973 30.432C205.317 29.4933 206.746 29.024 208.261 29.024C208.773 29.024 209.167 29.1947 209.445 29.536C209.637 28.8533 209.925 28.3947 210.309 28.16C210.693 27.9253 211.226 27.808 211.909 27.808C212.634 27.808 213.114 27.9147 213.349 28.128C213.605 28.3413 213.722 28.6507 213.701 29.056C213.701 29.312 213.562 29.9093 213.285 30.848C213.029 31.7653 212.858 32.3733 212.773 32.672C212.431 33.8667 212.058 35.1893 211.653 36.64C211.269 38.0907 210.959 39.4133 210.725 40.608C210.042 44.0213 209.701 47.04 209.701 49.664C209.701 50.6453 209.775 51.4773 209.925 52.16C210.095 52.864 210.309 53.216 210.565 53.216C210.778 53.216 211.002 52.8533 211.237 52.128C211.493 51.4027 211.706 50.432 211.877 49.216C212.047 48 212.133 46.7093 212.133 45.344C212.133 43.7227 212.058 42.2827 211.909 41.024C211.887 40.9173 211.877 40.7467 211.877 40.512C211.877 39.808 212.047 39.2213 212.389 38.752C212.751 38.2827 213.253 38.048 213.893 38.048C213.978 38.048 214.789 38.016 216.325 37.952C216.965 37.888 217.509 37.856 217.957 37.856ZM204.965 40.928C205.455 40.928 205.925 40.6293 206.373 40.032C206.821 39.4133 207.141 38.6773 207.333 37.824L208.709 32C207.77 32.0213 206.906 32.352 206.117 32.992C205.349 33.632 204.73 34.4853 204.261 35.552C203.813 36.5973 203.589 37.7067 203.589 38.88C203.589 39.5413 203.706 40.0533 203.941 40.416C204.197 40.7573 204.538 40.928 204.965 40.928ZM219.269 44.16C218.309 44.16 217.519 43.7227 216.901 42.848C216.303 41.952 216.005 40.8427 216.005 39.52C216.005 37.92 216.111 36.4587 216.325 35.136C216.538 33.792 216.89 32.3733 217.381 30.88C217.594 30.24 217.893 29.7813 218.277 29.504C218.661 29.2267 219.269 29.088 220.101 29.088C220.57 29.088 220.89 29.1627 221.061 29.312C221.253 29.4613 221.349 29.6853 221.349 29.984C221.349 30.1547 221.231 30.7307 220.997 31.712C220.783 32.5013 220.613 33.216 220.485 33.856C220.058 36.096 219.845 37.5893 219.845 38.336C219.845 38.784 219.898 39.104 220.005 39.296C220.111 39.4667 220.282 39.552 220.517 39.552C220.837 39.552 221.231 39.232 221.701 38.592C222.191 37.952 222.703 36.9813 223.237 35.68C223.791 34.3787 224.325 32.7787 224.837 30.88C225.007 30.24 225.263 29.7813 225.605 29.504C225.967 29.2267 226.501 29.088 227.205 29.088C227.695 29.088 228.037 29.152 228.229 29.28C228.421 29.3867 228.517 29.6 228.517 29.92C228.517 30.4533 228.25 31.9147 227.717 34.304C227.119 37.0347 226.821 38.72 226.821 39.36C226.821 39.7653 226.906 40.0853 227.077 40.32C227.247 40.5333 227.471 40.64 227.749 40.64C228.175 40.64 228.677 40.384 229.253 39.872C229.85 39.3387 230.639 38.4853 231.621 37.312C231.877 37.0133 232.165 36.864 232.485 36.864C232.762 36.864 232.975 36.992 233.125 37.248C233.295 37.504 233.381 37.856 233.381 38.304C233.381 39.1573 233.178 39.8187 232.773 40.288C231.855 41.4187 230.863 42.3467 229.797 43.072C228.751 43.7973 227.557 44.16 226.213 44.16C225.189 44.16 224.431 43.7653 223.941 42.976C223.471 42.1867 223.237 41.0773 223.237 39.648C222.874 41.0987 222.33 42.2187 221.605 43.008C220.879 43.776 220.101 44.16 219.269 44.16ZM245.058 36.864C245.335 36.864 245.549 36.992 245.698 37.248C245.869 37.504 245.954 37.856 245.954 38.304C245.954 39.1573 245.751 39.8187 245.346 40.288C244.557 41.248 243.437 42.1333 241.986 42.944C240.557 43.7547 239.021 44.16 237.378 44.16C235.138 44.16 233.399 43.552 232.162 42.336C230.925 41.12 230.306 39.456 230.306 37.344C230.306 35.872 230.615 34.5067 231.234 33.248C231.853 31.968 232.706 30.9547 233.794 30.208C234.903 29.4613 236.151 29.088 237.538 29.088C238.775 29.088 239.767 29.4613 240.514 30.208C241.261 30.9333 241.634 31.9253 241.634 33.184C241.634 34.656 241.101 35.9253 240.034 36.992C238.989 38.0373 237.207 38.8693 234.69 39.488C235.223 40.4693 236.237 40.96 237.73 40.96C238.69 40.96 239.778 40.6293 240.994 39.968C242.231 39.2853 243.298 38.4 244.194 37.312C244.45 37.0133 244.738 36.864 245.058 36.864ZM236.994 32.224C236.205 32.224 235.533 32.6827 234.978 33.6C234.445 34.5173 234.178 35.6267 234.178 36.928V36.992C235.437 36.6933 236.429 36.2453 237.154 35.648C237.879 35.0507 238.242 34.3573 238.242 33.568C238.242 33.1627 238.125 32.8427 237.89 32.608C237.677 32.352 237.378 32.224 236.994 32.224ZM249.301 44.864C248.191 44.864 247.338 44.608 246.741 44.096C246.165 43.584 245.877 43.008 245.877 42.368C245.877 41.8133 246.079 41.3333 246.485 40.928C246.89 40.5227 247.487 40.32 248.277 40.32C248.554 40.32 248.874 40.352 249.237 40.416C249.621 40.4587 249.909 40.4907 250.101 40.512C250.079 39.9573 249.951 39.4347 249.717 38.944C249.503 38.4533 249.226 37.984 248.885 37.536C248.543 37.0667 248.223 36.6613 247.925 36.32C247.263 37.5787 246.602 38.624 245.941 39.456C245.301 40.288 244.597 41.0773 243.829 41.824C243.445 42.208 243.039 42.4 242.613 42.4C242.271 42.4 241.994 42.2827 241.78 42.048C241.567 41.792 241.46 41.4827 241.46 41.12C241.46 40.6933 241.61 40.2987 241.909 39.936L242.325 39.424C243.498 37.9733 244.383 36.7787 244.981 35.84C245.365 35.2213 245.749 34.4853 246.133 33.632C246.538 32.7787 247.061 31.616 247.701 30.144C248.106 29.2053 248.949 28.736 250.229 28.736C250.826 28.736 251.242 28.7893 251.477 28.896C251.711 29.0027 251.829 29.1733 251.829 29.408C251.829 29.536 251.786 29.7387 251.701 30.016C251.615 30.2933 251.498 30.5707 251.349 30.848C250.965 31.616 250.773 32.2667 250.773 32.8C250.773 33.12 250.879 33.472 251.093 33.856C251.327 34.24 251.679 34.72 252.149 35.296C252.831 36.192 253.343 36.96 253.685 37.6C254.047 38.2187 254.229 38.9013 254.229 39.648C254.229 40.544 254.015 41.3973 253.589 42.208C253.183 42.9973 252.607 43.6373 251.861 44.128C251.114 44.6187 250.261 44.864 249.301 44.864ZM266.683 44.16C265.872 44.16 265.296 43.7333 264.955 42.88C264.635 42.0267 264.475 40.6613 264.475 38.784C264.475 36.0107 264.87 33.376 265.659 30.88C265.851 30.2613 266.16 29.8133 266.587 29.536C267.035 29.2373 267.654 29.088 268.443 29.088C268.87 29.088 269.168 29.1413 269.339 29.248C269.51 29.3547 269.595 29.5573 269.595 29.856C269.595 30.1973 269.435 30.9653 269.115 32.16C268.902 33.0133 268.731 33.76 268.603 34.4C268.475 35.0187 268.368 35.7973 268.283 36.736C268.859 35.072 269.542 33.664 270.331 32.512C271.142 31.36 271.963 30.5067 272.795 29.952C273.648 29.376 274.448 29.088 275.195 29.088C275.942 29.088 276.464 29.2587 276.763 29.6C277.083 29.9413 277.243 30.464 277.243 31.168C277.243 31.8507 277.04 33.088 276.635 34.88C276.464 35.648 276.347 36.224 276.283 36.608C277.35 33.984 278.534 32.0747 279.835 30.88C281.136 29.6853 282.352 29.088 283.483 29.088C284.87 29.088 285.563 29.7813 285.563 31.168C285.563 32 285.328 33.504 284.859 35.68C284.454 37.536 284.251 38.7627 284.251 39.36C284.251 40.2133 284.56 40.64 285.179 40.64C285.606 40.64 286.107 40.384 286.683 39.872C287.28 39.3387 288.07 38.4853 289.051 37.312C289.307 37.0133 289.595 36.864 289.915 36.864C290.192 36.864 290.406 36.992 290.555 37.248C290.726 37.504 290.811 37.856 290.811 38.304C290.811 39.1573 290.608 39.8187 290.203 40.288C289.286 41.4187 288.294 42.3467 287.227 43.072C286.182 43.7973 284.987 44.16 283.643 44.16C282.555 44.16 281.734 43.8507 281.179 43.232C280.624 42.592 280.347 41.6747 280.347 40.48C280.347 39.8827 280.496 38.816 280.795 37.28C281.072 35.936 281.211 35.008 281.211 34.496C281.211 34.1547 281.094 33.984 280.859 33.984C280.582 33.984 280.187 34.3467 279.675 35.072C279.163 35.776 278.651 36.7147 278.139 37.888C277.627 39.0613 277.211 40.2987 276.891 41.6C276.656 42.624 276.379 43.3067 276.059 43.648C275.76 43.9893 275.27 44.16 274.587 44.16C273.883 44.16 273.35 43.8293 272.987 43.168C272.646 42.4853 272.475 41.664 272.475 40.704C272.475 39.8933 272.582 38.72 272.795 37.184C272.966 35.8187 273.051 34.9227 273.051 34.496C273.051 34.1547 272.934 33.984 272.699 33.984C272.379 33.984 271.974 34.368 271.483 35.136C270.992 35.904 270.512 36.8853 270.043 38.08C269.595 39.2747 269.232 40.448 268.955 41.6C268.72 42.6027 268.443 43.2853 268.123 43.648C267.824 43.9893 267.344 44.16 266.683 44.16ZM304.544 34.176C304.821 34.176 305.034 34.3147 305.184 34.592C305.333 34.8693 305.408 35.2213 305.408 35.648C305.408 36.672 305.098 37.28 304.48 37.472C303.2 37.92 301.792 38.176 300.256 38.24C299.85 40.032 299.05 41.472 297.856 42.56C296.661 43.6267 295.306 44.16 293.792 44.16C292.512 44.16 291.413 43.8507 290.496 43.232C289.6 42.6133 288.917 41.792 288.448 40.768C287.978 39.744 287.743 38.6347 287.743 37.44C287.743 35.8187 288.053 34.3787 288.672 33.12C289.29 31.84 290.144 30.848 291.232 30.144C292.32 29.4187 293.525 29.056 294.848 29.056C296.469 29.056 297.77 29.6213 298.752 30.752C299.754 31.8613 300.341 33.2373 300.512 34.88C301.514 34.816 302.709 34.6027 304.096 34.24C304.266 34.1973 304.416 34.176 304.544 34.176ZM294.048 40.768C294.73 40.768 295.317 40.4907 295.808 39.936C296.32 39.3813 296.661 38.5813 296.832 37.536C296.17 37.088 295.658 36.5013 295.296 35.776C294.954 35.0507 294.784 34.2827 294.784 33.472C294.784 33.1307 294.816 32.7893 294.88 32.448H294.72C293.866 32.448 293.152 32.864 292.576 33.696C292.021 34.5067 291.744 35.6587 291.744 37.152C291.744 38.3253 291.968 39.2213 292.416 39.84C292.885 40.4587 293.429 40.768 294.048 40.768ZM308.773 44.16C306.682 44.16 305.05 43.5733 303.877 42.4C302.725 41.2053 302.149 39.6373 302.149 37.696C302.149 35.968 302.49 34.4533 303.173 33.152C303.856 31.8507 304.741 30.848 305.829 30.144C306.917 29.44 308.058 29.088 309.253 29.088C310.426 29.088 311.333 29.44 311.973 30.144C312.634 30.8267 312.965 31.712 312.965 32.8C312.965 33.696 312.762 34.4533 312.357 35.072C311.973 35.6907 311.461 36 310.821 36C310.416 36 310.085 35.904 309.829 35.712C309.594 35.52 309.477 35.2533 309.477 34.912C309.477 34.7627 309.498 34.592 309.541 34.4C309.584 34.208 309.616 34.0693 309.637 33.984C309.744 33.664 309.797 33.3653 309.797 33.088C309.797 32.8107 309.722 32.5973 309.573 32.448C309.445 32.2987 309.253 32.224 308.997 32.224C308.506 32.224 308.048 32.448 307.621 32.896C307.194 33.3227 306.853 33.9093 306.597 34.656C306.341 35.4027 306.213 36.224 306.213 37.12C306.213 39.5947 307.29 40.832 309.445 40.832C310.32 40.832 311.258 40.544 312.261 39.968C313.285 39.3707 314.288 38.4853 315.269 37.312C315.525 37.0133 315.813 36.864 316.133 36.864C316.41 36.864 316.624 36.992 316.773 37.248C316.944 37.504 317.029 37.856 317.029 38.304C317.029 39.1147 316.826 39.776 316.421 40.288C315.418 41.5253 314.213 42.4853 312.805 43.168C311.418 43.8293 310.074 44.16 308.773 44.16ZM332.938 36.864C333.216 36.864 333.429 36.992 333.578 37.248C333.749 37.504 333.834 37.856 333.834 38.304C333.834 39.1573 333.632 39.8187 333.226 40.288C332.266 41.4613 331.296 42.4 330.314 43.104C329.333 43.808 328.17 44.16 326.826 44.16C325.184 44.16 323.861 43.6907 322.858 42.752C321.856 41.8133 321.354 40.5653 321.354 39.008C321.354 38.176 321.781 37.5787 322.634 37.216C323.573 36.8107 324.245 36.384 324.65 35.936C325.056 35.4667 325.258 34.9013 325.258 34.24C325.258 33.856 325.173 33.568 325.002 33.376C324.853 33.184 324.661 33.088 324.426 33.088C323.85 33.088 323.21 33.504 322.506 34.336C321.824 35.168 321.184 36.2453 320.586 37.568C319.989 38.8693 319.52 40.2133 319.178 41.6C318.944 42.6027 318.666 43.2853 318.346 43.648C318.048 43.9893 317.568 44.16 316.906 44.16C316.245 44.16 315.754 43.9253 315.434 43.456C315.136 42.9653 314.933 42.2187 314.826 41.216C314.72 40.2133 314.666 38.7413 314.666 36.8C314.666 33.5147 314.997 30.0907 315.658 26.528C316.341 22.9653 317.333 19.9787 318.634 17.568C319.957 15.136 321.536 13.92 323.37 13.92C324.352 13.92 325.141 14.3467 325.738 15.2C326.357 16.032 326.666 17.12 326.666 18.464C326.666 20.6187 326.037 22.8587 324.778 25.184C323.52 27.488 321.472 30.1867 318.634 33.28C318.57 34.3893 318.538 35.5307 318.538 36.704C319.562 34.0373 320.736 32.1067 322.058 30.912C323.381 29.696 324.618 29.088 325.77 29.088C326.837 29.088 327.69 29.4507 328.33 30.176C328.992 30.9013 329.322 31.7973 329.322 32.864C329.322 34.0373 329.024 35.1147 328.426 36.096C327.829 37.0773 326.805 37.952 325.354 38.72C325.44 39.296 325.696 39.7653 326.122 40.128C326.57 40.4693 327.104 40.64 327.722 40.64C328.384 40.64 329.024 40.384 329.642 39.872C330.261 39.36 331.072 38.5067 332.074 37.312C332.33 37.0133 332.618 36.864 332.938 36.864ZM322.698 17.088C322.314 17.088 321.888 17.6427 321.418 18.752C320.949 19.84 320.49 21.3227 320.042 23.2C319.616 25.056 319.264 27.0827 318.986 29.28C320.309 27.7227 321.397 26.0267 322.25 24.192C323.125 22.3573 323.562 20.6933 323.562 19.2C323.562 18.5173 323.488 17.9947 323.338 17.632C323.189 17.2693 322.976 17.088 322.698 17.088ZM334.519 44.16C333.559 44.16 332.769 43.7227 332.151 42.848C331.553 41.952 331.255 40.8427 331.255 39.52C331.255 37.92 331.361 36.4587 331.575 35.136C331.788 33.792 332.14 32.3733 332.631 30.88C332.844 30.24 333.143 29.7813 333.527 29.504C333.911 29.2267 334.519 29.088 335.351 29.088C335.82 29.088 336.14 29.1627 336.311 29.312C336.503 29.4613 336.599 29.6853 336.599 29.984C336.599 30.1547 336.481 30.7307 336.247 31.712C336.033 32.5013 335.863 33.216 335.735 33.856C335.308 36.096 335.095 37.5893 335.095 38.336C335.095 38.784 335.148 39.104 335.255 39.296C335.361 39.4667 335.532 39.552 335.767 39.552C336.087 39.552 336.481 39.232 336.951 38.592C337.441 37.952 337.953 36.9813 338.487 35.68C339.041 34.3787 339.575 32.7787 340.087 30.88C340.257 30.24 340.513 29.7813 340.855 29.504C341.217 29.2267 341.751 29.088 342.455 29.088C342.945 29.088 343.287 29.152 343.479 29.28C343.671 29.3867 343.767 29.6 343.767 29.92C343.767 30.4533 343.5 31.9147 342.967 34.304C342.369 37.0347 342.071 38.72 342.071 39.36C342.071 39.7653 342.156 40.0853 342.327 40.32C342.497 40.5333 342.721 40.64 342.999 40.64C343.425 40.64 343.927 40.384 344.503 39.872C345.1 39.3387 345.889 38.4853 346.871 37.312C347.127 37.0133 347.415 36.864 347.735 36.864C348.012 36.864 348.225 36.992 348.375 37.248C348.545 37.504 348.631 37.856 348.631 38.304C348.631 39.1573 348.428 39.8187 348.023 40.288C347.105 41.4187 346.113 42.3467 345.047 43.072C344.001 43.7973 342.807 44.16 341.463 44.16C340.439 44.16 339.681 43.7653 339.191 42.976C338.721 42.1867 338.487 41.0773 338.487 39.648C338.124 41.0987 337.58 42.2187 336.855 43.008C336.129 43.776 335.351 44.16 334.519 44.16ZM358.708 34.24C358.708 35.9253 358.313 37.5253 357.524 39.04C356.756 40.5333 355.721 41.7493 354.42 42.688C353.14 43.6267 351.764 44.1173 350.292 44.16C350.015 48.2773 349.385 51.712 348.404 54.464C347.423 57.2373 345.983 58.624 344.084 58.624C342.932 58.624 342.079 58.208 341.524 57.376C340.969 56.544 340.692 55.392 340.692 53.92C340.692 51.8293 341.172 49.3867 342.132 46.592C343.092 43.8187 344.575 40.7573 346.58 37.408C346.58 34.2933 346.559 32.128 346.516 30.912C346.495 30.2933 346.74 29.8027 347.252 29.44C347.764 29.0773 348.404 28.896 349.172 28.896C349.62 28.896 349.94 28.992 350.132 29.184C350.345 29.3547 350.463 29.7067 350.484 30.24C350.484 30.7733 350.495 31.168 350.516 31.424C351.199 30.5707 351.871 29.9627 352.532 29.6C353.193 29.216 353.897 29.024 354.644 29.024C355.839 29.024 356.809 29.504 357.556 30.464C358.324 31.424 358.708 32.6827 358.708 34.24ZM350.452 41.088C351.22 40.9173 351.924 40.5013 352.564 39.84C353.225 39.1573 353.748 38.3253 354.132 37.344C354.516 36.3413 354.708 35.296 354.708 34.208C354.708 33.568 354.58 33.088 354.324 32.768C354.068 32.4267 353.727 32.256 353.3 32.256C352.532 32.256 351.604 33.0667 350.516 34.688C350.495 35.6267 350.484 37.0027 350.484 38.816C350.484 39.7973 350.473 40.5547 350.452 41.088ZM344.34 55.488C344.916 55.488 345.396 54.2293 345.78 51.712C346.164 49.216 346.409 46.1013 346.516 42.368C345.599 44.5013 344.873 46.5387 344.34 48.48C343.807 50.4213 343.54 52.0533 343.54 53.376C343.54 54.0587 343.625 54.5813 343.796 54.944C343.945 55.3067 344.127 55.488 344.34 55.488ZM366.457 44.864C365.347 44.864 364.494 44.608 363.897 44.096C363.321 43.584 363.033 43.008 363.033 42.368C363.033 41.8133 363.235 41.3333 363.641 40.928C364.046 40.5227 364.643 40.32 365.433 40.32C365.71 40.32 366.03 40.352 366.393 40.416C366.777 40.4587 367.065 40.4907 367.257 40.512C367.235 39.9573 367.107 39.4347 366.873 38.944C366.659 38.4533 366.382 37.984 366.041 37.536C365.699 37.0667 365.379 36.6613 365.081 36.32C364.419 37.5787 363.758 38.624 363.097 39.456C362.457 40.288 361.753 41.0773 360.985 41.824C360.601 42.208 360.195 42.4 359.769 42.4C359.427 42.4 359.15 42.2827 358.937 42.048C358.723 41.792 358.617 41.4827 358.617 41.12C358.617 40.6933 358.766 40.2987 359.065 39.936L359.481 39.424C360.654 37.9733 361.539 36.7787 362.137 35.84C362.521 35.2213 362.905 34.4853 363.289 33.632C363.694 32.7787 364.217 31.616 364.857 30.144C365.262 29.2053 366.105 28.736 367.385 28.736C367.982 28.736 368.398 28.7893 368.633 28.896C368.867 29.0027 368.985 29.1733 368.985 29.408C368.985 29.536 368.942 29.7387 368.857 30.016C368.771 30.2933 368.654 30.5707 368.505 30.848C368.121 31.616 367.929 32.2667 367.929 32.8C367.929 33.12 368.035 33.472 368.249 33.856C368.483 34.24 368.835 34.72 369.305 35.296C369.987 36.192 370.499 36.96 370.841 37.6C371.203 38.2187 371.385 38.9013 371.385 39.648C371.385 40.544 371.171 41.3973 370.745 42.208C370.339 42.9973 369.763 43.6373 369.017 44.128C368.27 44.6187 367.417 44.864 366.457 44.864Z" fill="#001AFF"/>
</svg>
