<svg width="254" height="271" viewBox="0 0 254 271" fill="none" xmlns="http://www.w3.org/2000/svg">
<path d="M46.124 34.864C46.4013 34.864 46.6147 34.992 46.764 35.248C46.9347 35.504 47.02 35.856 47.02 36.304C47.02 37.1573 46.8173 37.8187 46.412 38.288C45.4947 39.4187 44.5027 40.3467 43.436 41.072C42.3907 41.7973 41.196 42.16 39.852 42.16C38.7213 42.16 37.804 41.7547 37.1 40.944C35.884 41.7333 34.6147 42.1387 33.292 42.16C33.0147 46.2773 32.3853 49.712 31.404 52.464C30.4227 55.2373 28.9827 56.624 27.084 56.624C25.932 56.624 25.0787 56.208 24.524 55.376C23.9693 54.544 23.692 53.392 23.692 51.92C23.692 49.8293 24.172 47.3867 25.132 44.592C26.092 41.8187 27.5747 38.7573 29.58 35.408C29.58 32.2933 29.5587 30.128 29.516 28.912C29.4947 28.2933 29.74 27.8027 30.252 27.44C30.764 27.0773 31.404 26.896 32.172 26.896C32.62 26.896 32.94 26.992 33.132 27.184C33.3453 27.3547 33.4627 27.7067 33.484 28.24C33.484 28.7733 33.4947 29.168 33.516 29.424C34.1987 28.5707 34.8707 27.9627 35.532 27.6C36.1933 27.216 36.8973 27.024 37.644 27.024C38.8387 27.024 39.8093 27.504 40.556 28.464C41.324 29.424 41.708 30.6827 41.708 32.24C41.708 33.3707 41.5267 34.4693 41.164 35.536C40.8013 36.6027 40.3 37.5733 39.66 38.448C40.108 38.576 40.4813 38.64 40.78 38.64C41.484 38.64 42.156 38.384 42.796 37.872C43.436 37.36 44.2573 36.5067 45.26 35.312C45.516 35.0133 45.804 34.864 46.124 34.864ZM33.452 39.088C34.22 38.9173 34.924 38.5013 35.564 37.84C36.2253 37.1573 36.748 36.3253 37.132 35.344C37.516 34.3413 37.708 33.296 37.708 32.208C37.708 31.568 37.58 31.088 37.324 30.768C37.068 30.4267 36.7267 30.256 36.3 30.256C35.532 30.256 34.604 31.0667 33.516 32.688C33.4947 33.6267 33.484 35.0027 33.484 36.816C33.484 37.7973 33.4733 38.5547 33.452 39.088ZM27.34 53.488C27.916 53.488 28.396 52.2293 28.78 49.712C29.164 47.216 29.4093 44.1013 29.516 40.368C28.5987 42.5013 27.8733 44.5387 27.34 46.48C26.8067 48.4213 26.54 50.0533 26.54 51.376C26.54 52.0587 26.6253 52.5813 26.796 52.944C26.9453 53.3067 27.1267 53.488 27.34 53.488ZM46.7143 42.16C45.9036 42.16 45.3276 41.7333 44.9863 40.88C44.6663 40.0267 44.5063 38.6613 44.5063 36.784C44.5063 34.0107 44.9009 31.376 45.6903 28.88C45.8823 28.2613 46.1916 27.8133 46.6183 27.536C47.0663 27.2373 47.6849 27.088 48.4743 27.088C48.9009 27.088 49.1996 27.1413 49.3703 27.248C49.5409 27.3547 49.6263 27.5573 49.6263 27.856C49.6263 28.1973 49.4663 28.9653 49.1463 30.16C48.9329 31.0133 48.7623 31.76 48.6343 32.4C48.5063 33.04 48.3996 33.8293 48.3143 34.768C49.0183 32.9333 49.8076 31.44 50.6823 30.288C51.5569 29.136 52.4103 28.3147 53.2423 27.824C54.0956 27.3333 54.8743 27.088 55.5783 27.088C56.9649 27.088 57.6583 27.7813 57.6583 29.168C57.6583 29.4453 57.5623 30.1173 57.3703 31.184C57.1996 32.0373 57.1143 32.5707 57.1143 32.784C57.1143 33.5307 57.3809 33.904 57.9143 33.904C58.5116 33.904 59.2796 33.4347 60.2183 32.496C60.4956 32.2187 60.7836 32.08 61.0823 32.08C61.3596 32.08 61.5729 32.208 61.7222 32.464C61.8929 32.6987 61.9783 33.0187 61.9783 33.424C61.9783 34.2133 61.7649 34.832 61.3383 35.28C60.7409 35.8987 60.0369 36.432 59.2263 36.88C58.4369 37.3067 57.5943 37.52 56.6983 37.52C55.5676 37.52 54.7036 37.232 54.1063 36.656C53.5303 36.08 53.2423 35.3013 53.2423 34.32C53.2423 34 53.2743 33.68 53.3383 33.36C53.3809 32.9333 53.4023 32.6453 53.4023 32.496C53.4023 32.1547 53.2849 31.984 53.0503 31.984C52.7303 31.984 52.3036 32.3467 51.7703 33.072C51.2583 33.776 50.7463 34.7147 50.2343 35.888C49.7223 37.0613 49.3063 38.2987 48.9863 39.6C48.7516 40.6027 48.4743 41.2853 48.1543 41.648C47.8556 41.9893 47.3756 42.16 46.7143 42.16ZM75.3248 32.176C75.6021 32.176 75.8154 32.3147 75.9648 32.592C76.1141 32.8693 76.1888 33.2213 76.1888 33.648C76.1888 34.672 75.8794 35.28 75.2608 35.472C73.9808 35.92 72.5728 36.176 71.0368 36.24C70.6314 38.032 69.8314 39.472 68.6368 40.56C67.4421 41.6267 66.0874 42.16 64.5728 42.16C63.2928 42.16 62.1941 41.8507 61.2768 41.232C60.3808 40.6133 59.6981 39.792 59.2288 38.768C58.7594 37.744 58.5247 36.6347 58.5247 35.44C58.5247 33.8187 58.8341 32.3787 59.4528 31.12C60.0714 29.84 60.9248 28.848 62.0128 28.144C63.1008 27.4187 64.3061 27.056 65.6288 27.056C67.2501 27.056 68.5514 27.6213 69.5328 28.752C70.5354 29.8613 71.1221 31.2373 71.2928 32.88C72.2954 32.816 73.4901 32.6027 74.8768 32.24C75.0474 32.1973 75.1968 32.176 75.3248 32.176ZM64.8288 38.768C65.5114 38.768 66.0981 38.4907 66.5888 37.936C67.1008 37.3813 67.4421 36.5813 67.6128 35.536C66.9514 35.088 66.4394 34.5013 66.0768 33.776C65.7354 33.0507 65.5648 32.2827 65.5648 31.472C65.5648 31.1307 65.5968 30.7893 65.6608 30.448H65.5008C64.6474 30.448 63.9328 30.864 63.3568 31.696C62.8021 32.5067 62.5248 33.6587 62.5248 35.152C62.5248 36.3253 62.7488 37.2213 63.1968 37.84C63.6661 38.4587 64.2101 38.768 64.8288 38.768ZM88.5268 34.864C88.8041 34.864 89.0174 34.992 89.1667 35.248C89.3374 35.504 89.4228 35.856 89.4228 36.304C89.4228 37.1573 89.2201 37.8187 88.8148 38.288C87.8974 39.4187 86.8948 40.3467 85.8068 41.072C84.7188 41.7973 83.4708 42.16 82.0628 42.16C77.7108 42.16 75.5348 39.0987 75.5348 32.976C75.5348 32.0373 75.5668 31.088 75.6308 30.128H74.3828C73.7428 30.128 73.3054 30.0107 73.0708 29.776C72.8574 29.5413 72.7508 29.168 72.7508 28.656C72.7508 27.4613 73.2308 26.864 74.1908 26.864H76.0148C76.3774 24.5173 76.9321 22.3733 77.6788 20.432C78.4254 18.4907 79.3214 16.944 80.3668 15.792C81.4334 14.64 82.5748 14.064 83.7908 14.064C84.6868 14.064 85.3908 14.4587 85.9028 15.248C86.4148 16.0373 86.6708 17.0293 86.6708 18.224C86.6708 21.5307 85.2841 24.4107 82.5108 26.864H86.0948C86.4361 26.864 86.6814 26.9387 86.8308 27.088C86.9801 27.2373 87.0548 27.5147 87.0548 27.92C87.0548 29.392 85.8494 30.128 83.4388 30.128H79.5348C79.4921 31.1947 79.4708 32.0267 79.4708 32.624C79.4708 34.8427 79.7268 36.4 80.2388 37.296C80.7721 38.192 81.6041 38.64 82.7348 38.64C83.6521 38.64 84.4628 38.3627 85.1668 37.808C85.8708 37.2533 86.7028 36.4213 87.6628 35.312C87.9188 35.0133 88.2068 34.864 88.5268 34.864ZM82.9268 17.136C82.6068 17.136 82.2441 17.5413 81.8388 18.352C81.4548 19.1413 81.0814 20.2507 80.7188 21.68C80.3774 23.088 80.0894 24.656 79.8548 26.384C81.1134 25.296 82.0521 24.08 82.6708 22.736C83.3108 21.3707 83.6308 20.1333 83.6308 19.024C83.6308 17.7653 83.3961 17.136 82.9268 17.136ZM103.137 32.176C103.415 32.176 103.628 32.3147 103.777 32.592C103.927 32.8693 104.001 33.2213 104.001 33.648C104.001 34.672 103.692 35.28 103.073 35.472C101.793 35.92 100.385 36.176 98.8493 36.24C98.4439 38.032 97.6439 39.472 96.4493 40.56C95.2546 41.6267 93.8999 42.16 92.3853 42.16C91.1053 42.16 90.0066 41.8507 89.0893 41.232C88.1933 40.6133 87.5106 39.792 87.0413 38.768C86.5719 37.744 86.3372 36.6347 86.3372 35.44C86.3372 33.8187 86.6466 32.3787 87.2653 31.12C87.8839 29.84 88.7373 28.848 89.8253 28.144C90.9133 27.4187 92.1186 27.056 93.4413 27.056C95.0626 27.056 96.3639 27.6213 97.3453 28.752C98.3479 29.8613 98.9346 31.2373 99.1053 32.88C100.108 32.816 101.303 32.6027 102.689 32.24C102.86 32.1973 103.009 32.176 103.137 32.176ZM92.6413 38.768C93.3239 38.768 93.9106 38.4907 94.4013 37.936C94.9133 37.3813 95.2546 36.5813 95.4253 35.536C94.7639 35.088 94.2519 34.5013 93.8893 33.776C93.5479 33.0507 93.3773 32.2827 93.3773 31.472C93.3773 31.1307 93.4093 30.7893 93.4733 30.448H93.3133C92.4599 30.448 91.7453 30.864 91.1693 31.696C90.6146 32.5067 90.3373 33.6587 90.3373 35.152C90.3373 36.3253 90.5613 37.2213 91.0093 37.84C91.4786 38.4587 92.0226 38.768 92.6413 38.768ZM116.339 34.864C116.617 34.864 116.83 34.992 116.979 35.248C117.15 35.504 117.235 35.856 117.235 36.304C117.235 37.1573 117.033 37.8187 116.627 38.288C115.71 39.4187 114.707 40.3467 113.619 41.072C112.531 41.7973 111.283 42.16 109.875 42.16C105.523 42.16 103.347 39.0987 103.347 32.976C103.347 32.0373 103.379 31.088 103.443 30.128H102.195C101.555 30.128 101.118 30.0107 100.883 29.776C100.67 29.5413 100.563 29.168 100.563 28.656C100.563 27.4613 101.043 26.864 102.003 26.864H103.827C104.19 24.5173 104.745 22.3733 105.491 20.432C106.238 18.4907 107.134 16.944 108.179 15.792C109.246 14.64 110.387 14.064 111.603 14.064C112.499 14.064 113.203 14.4587 113.715 15.248C114.227 16.0373 114.483 17.0293 114.483 18.224C114.483 21.5307 113.097 24.4107 110.323 26.864H113.907C114.249 26.864 114.494 26.9387 114.643 27.088C114.793 27.2373 114.867 27.5147 114.867 27.92C114.867 29.392 113.662 30.128 111.251 30.128H107.347C107.305 31.1947 107.283 32.0267 107.283 32.624C107.283 34.8427 107.539 36.4 108.051 37.296C108.585 38.192 109.417 38.64 110.547 38.64C111.465 38.64 112.275 38.3627 112.979 37.808C113.683 37.2533 114.515 36.4213 115.475 35.312C115.731 35.0133 116.019 34.864 116.339 34.864ZM110.739 17.136C110.419 17.136 110.057 17.5413 109.651 18.352C109.267 19.1413 108.894 20.2507 108.531 21.68C108.19 23.088 107.902 24.656 107.667 26.384C108.926 25.296 109.865 24.08 110.483 22.736C111.123 21.3707 111.443 20.1333 111.443 19.024C111.443 17.7653 111.209 17.136 110.739 17.136ZM131.014 34.928C131.291 34.928 131.504 35.0667 131.654 35.344C131.824 35.6 131.91 35.9307 131.91 36.336C131.91 36.8267 131.835 37.2107 131.686 37.488C131.536 37.7653 131.302 38.0107 130.982 38.224L124.838 42.352C124.027 46.768 122.96 50.2347 121.638 52.752C120.336 55.2907 118.672 56.56 116.646 56.56C115.558 56.56 114.672 56.2187 113.99 55.536C113.307 54.8747 112.966 54 112.966 52.912C112.966 51.9093 113.19 50.8853 113.638 49.84C114.107 48.7947 114.96 47.5893 116.198 46.224C117.456 44.88 119.227 43.3333 121.51 41.584L121.606 40.848C121.755 40.0587 121.926 38.928 122.118 37.456C121.691 38.992 121.094 40.1653 120.326 40.976C119.558 41.7653 118.747 42.16 117.894 42.16C116.934 42.16 116.144 41.7227 115.526 40.848C114.928 39.952 114.63 38.8427 114.63 37.52C114.63 35.92 114.736 34.4587 114.95 33.136C115.163 31.792 115.515 30.3733 116.006 28.88C116.219 28.24 116.518 27.7813 116.902 27.504C117.286 27.2267 117.894 27.088 118.726 27.088C119.195 27.088 119.515 27.1627 119.686 27.312C119.878 27.4613 119.974 27.6853 119.974 27.984C119.974 28.1547 119.856 28.7307 119.622 29.712C119.408 30.5013 119.238 31.216 119.11 31.856C118.939 32.7307 118.79 33.5733 118.662 34.384C118.534 35.1733 118.47 35.824 118.47 36.336C118.47 37.1467 118.694 37.552 119.142 37.552C119.462 37.552 119.856 37.232 120.326 36.592C120.816 35.952 121.328 34.9813 121.862 33.68C122.416 32.3787 122.95 30.7787 123.462 28.88C123.632 28.24 123.888 27.7813 124.23 27.504C124.592 27.2267 125.126 27.088 125.83 27.088C126.32 27.088 126.662 27.152 126.854 27.28C127.046 27.408 127.142 27.6213 127.142 27.92C127.142 28.4533 126.864 30.288 126.31 33.424L125.478 38.576C127.12 37.3387 128.72 36.208 130.278 35.184C130.555 35.0133 130.8 34.928 131.014 34.928ZM116.998 53.456C117.531 53.456 118.128 52.8373 118.79 51.6C119.451 50.3627 120.112 48.304 120.774 45.424C119.131 46.8107 117.936 48.0693 117.19 49.2C116.464 50.352 116.102 51.3547 116.102 52.208C116.102 52.5707 116.166 52.8693 116.294 53.104C116.443 53.3387 116.678 53.456 116.998 53.456ZM147.343 34.864C147.62 34.864 147.833 34.992 147.983 35.248C148.153 35.504 148.239 35.856 148.239 36.304C148.239 37.1573 148.036 37.8187 147.631 38.288C146.713 39.4187 145.721 40.3467 144.655 41.072C143.609 41.7973 142.415 42.16 141.071 42.16C139.94 42.16 139.023 41.7547 138.319 40.944C137.103 41.7333 135.833 42.1387 134.511 42.16C134.233 46.2773 133.604 49.712 132.623 52.464C131.641 55.2373 130.201 56.624 128.303 56.624C127.151 56.624 126.297 56.208 125.743 55.376C125.188 54.544 124.911 53.392 124.911 51.92C124.911 49.8293 125.391 47.3867 126.351 44.592C127.311 41.8187 128.793 38.7573 130.799 35.408C130.799 32.2933 130.777 30.128 130.735 28.912C130.713 28.2933 130.959 27.8027 131.471 27.44C131.983 27.0773 132.623 26.896 133.391 26.896C133.839 26.896 134.159 26.992 134.351 27.184C134.564 27.3547 134.681 27.7067 134.703 28.24C134.703 28.7733 134.713 29.168 134.735 29.424C135.417 28.5707 136.089 27.9627 136.751 27.6C137.412 27.216 138.116 27.024 138.863 27.024C140.057 27.024 141.028 27.504 141.775 28.464C142.543 29.424 142.927 30.6827 142.927 32.24C142.927 33.3707 142.745 34.4693 142.383 35.536C142.02 36.6027 141.519 37.5733 140.879 38.448C141.327 38.576 141.7 38.64 141.999 38.64C142.703 38.64 143.375 38.384 144.015 37.872C144.655 37.36 145.476 36.5067 146.479 35.312C146.735 35.0133 147.023 34.864 147.343 34.864ZM134.671 39.088C135.439 38.9173 136.143 38.5013 136.783 37.84C137.444 37.1573 137.967 36.3253 138.351 35.344C138.735 34.3413 138.927 33.296 138.927 32.208C138.927 31.568 138.799 31.088 138.543 30.768C138.287 30.4267 137.945 30.256 137.519 30.256C136.751 30.256 135.823 31.0667 134.735 32.688C134.713 33.6267 134.703 35.0027 134.703 36.816C134.703 37.7973 134.692 38.5547 134.671 39.088ZM128.559 53.488C129.135 53.488 129.615 52.2293 129.999 49.712C130.383 47.216 130.628 44.1013 130.735 40.368C129.817 42.5013 129.092 44.5387 128.559 46.48C128.025 48.4213 127.759 50.0533 127.759 51.376C127.759 52.0587 127.844 52.5813 128.015 52.944C128.164 53.3067 128.345 53.488 128.559 53.488ZM157.117 35.824C157.394 35.824 157.608 35.952 157.757 36.208C157.928 36.464 158.013 36.816 158.013 37.264C158.013 38.032 157.832 38.6933 157.469 39.248C156.872 40.1653 156.082 40.88 155.101 41.392C154.141 41.904 152.989 42.16 151.645 42.16C149.597 42.16 148.008 41.552 146.877 40.336C145.746 39.0987 145.181 37.4347 145.181 35.344C145.181 33.872 145.49 32.5067 146.109 31.248C146.728 29.968 147.581 28.9547 148.669 28.208C149.778 27.4613 151.026 27.088 152.413 27.088C153.65 27.088 154.642 27.4613 155.389 28.208C156.136 28.9333 156.509 29.9253 156.509 31.184C156.509 32.656 155.976 33.9253 154.909 34.992C153.864 36.0373 152.072 36.8693 149.533 37.488C150.045 38.4693 150.909 38.96 152.125 38.96C153 38.96 153.714 38.7573 154.269 38.352C154.845 37.9467 155.506 37.264 156.253 36.304C156.509 35.984 156.797 35.824 157.117 35.824ZM151.869 30.224C151.08 30.224 150.408 30.6827 149.853 31.6C149.32 32.5173 149.053 33.6267 149.053 34.928V34.992C150.312 34.6933 151.304 34.2453 152.029 33.648C152.754 33.0507 153.117 32.3573 153.117 31.568C153.117 31.1627 153 30.8427 152.765 30.608C152.552 30.352 152.253 30.224 151.869 30.224ZM185.462 34.864C185.739 34.864 185.953 34.992 186.102 35.248C186.273 35.504 186.358 35.856 186.358 36.304C186.358 37.1573 186.155 37.8187 185.75 38.288C184.875 39.3547 183.915 40.272 182.87 41.04C181.825 41.7867 180.79 42.16 179.766 42.16C178.145 42.16 176.907 41.2107 176.054 39.312C175.158 40.4427 174.369 41.2 173.686 41.584C173.025 41.968 172.246 42.16 171.35 42.16C170.049 42.16 168.971 41.68 168.118 40.72C167.286 39.7387 166.87 38.4693 166.87 36.912C166.87 35.2053 167.233 33.6267 167.958 32.176C168.683 30.704 169.675 29.5093 170.934 28.592C172.214 27.6533 173.643 27.0987 175.222 26.928C175.627 22.7893 176.395 19.2587 177.526 16.336C178.678 13.392 180.182 11.92 182.038 11.92C182.955 11.92 183.713 12.336 184.31 13.168C184.929 14 185.238 15.2587 185.238 16.944C185.238 19.3333 184.651 22.128 183.478 25.328C182.305 28.528 180.737 31.8133 178.774 35.184C178.859 36.4213 179.041 37.3067 179.318 37.84C179.617 38.3733 179.99 38.64 180.438 38.64C181.014 38.64 181.601 38.384 182.198 37.872C182.795 37.36 183.595 36.5067 184.598 35.312C184.854 35.0133 185.142 34.864 185.462 34.864ZM181.686 15.056C181.281 15.056 180.875 15.7813 180.47 17.232C180.065 18.6613 179.713 20.5387 179.414 22.864C179.137 25.1893 178.934 27.6213 178.806 30.16C181.195 24.9547 182.39 20.7733 182.39 17.616C182.39 16.8053 182.315 16.176 182.166 15.728C182.038 15.28 181.878 15.056 181.686 15.056ZM172.47 38.928C172.875 38.928 173.281 38.768 173.686 38.448C174.091 38.1067 174.603 37.488 175.222 36.592C175.009 35.44 174.902 34.1493 174.902 32.72C174.902 32.208 174.923 31.376 174.966 30.224C173.793 30.5867 172.811 31.376 172.022 32.592C171.254 33.7867 170.87 35.12 170.87 36.592C170.87 38.1493 171.403 38.928 172.47 38.928ZM187.083 42.16C186.08 42.16 185.269 41.7547 184.651 40.944C184.053 40.112 183.755 38.9707 183.755 37.52C183.755 35.92 183.861 34.4587 184.075 33.136C184.288 31.792 184.64 30.3733 185.131 28.88C185.344 28.24 185.643 27.7813 186.027 27.504C186.411 27.2267 187.019 27.088 187.851 27.088C188.32 27.088 188.64 27.1627 188.811 27.312C189.003 27.4613 189.099 27.6853 189.099 27.984C189.099 28.1547 188.981 28.7307 188.747 29.712C188.533 30.5013 188.363 31.216 188.235 31.856C187.808 34.096 187.595 35.5893 187.595 36.336C187.595 36.784 187.648 37.104 187.755 37.296C187.861 37.4667 188.032 37.552 188.267 37.552C188.587 37.552 188.992 37.232 189.483 36.592C189.973 35.9307 190.485 34.9493 191.019 33.648C191.573 32.3253 192.096 30.736 192.587 28.88C192.757 28.24 193.013 27.7813 193.355 27.504C193.717 27.2267 194.251 27.088 194.955 27.088C195.424 27.088 195.755 27.216 195.947 27.472C196.16 27.7067 196.267 28.0693 196.267 28.56C196.267 29.0933 196.224 29.6907 196.139 30.352C196.053 30.992 195.957 31.6533 195.851 32.336C195.637 33.7013 195.467 34.9493 195.339 36.08C195.211 37.1893 195.147 38.4587 195.147 39.888C195.147 40.6987 194.976 41.2853 194.635 41.648C194.315 41.9893 193.781 42.16 193.035 42.16C192.245 42.16 191.691 41.9573 191.371 41.552C191.072 41.1253 190.923 40.3147 190.923 39.12C190.923 38.8853 190.944 38.3627 190.987 37.552C190.624 39.0453 190.08 40.1867 189.355 40.976C188.651 41.7653 187.893 42.16 187.083 42.16ZM212.894 42.864C211.785 42.864 210.932 42.608 210.334 42.096C209.758 41.584 209.47 41.008 209.47 40.368C209.47 39.8133 209.673 39.3333 210.078 38.928C210.484 38.5227 211.081 38.32 211.87 38.32C212.148 38.32 212.468 38.352 212.83 38.416C213.214 38.4587 213.502 38.4907 213.694 38.512C213.673 37.9573 213.545 37.4347 213.31 36.944C213.097 36.4533 212.82 35.984 212.478 35.536C212.137 35.0667 211.817 34.6613 211.518 34.32C210.857 35.5787 210.196 36.624 209.534 37.456C208.894 38.288 208.19 39.0773 207.422 39.824C207.038 40.208 206.633 40.4 206.206 40.4C205.865 40.4 205.588 40.2827 205.374 40.048C205.161 39.792 205.054 39.4827 205.054 39.12C205.054 38.6933 205.204 38.2987 205.502 37.936L205.918 37.424C207.092 35.9733 207.977 34.7787 208.574 33.84C208.937 33.2213 209.364 32.4 209.854 31.376C210.345 30.3307 210.825 29.2533 211.294 28.144C211.7 27.2053 212.542 26.736 213.822 26.736C214.42 26.736 214.836 26.7893 215.07 26.896C215.305 27.0027 215.422 27.1733 215.422 27.408C215.422 27.536 215.38 27.7387 215.294 28.016C215.209 28.2933 215.092 28.5707 214.942 28.848C214.558 29.616 214.366 30.2667 214.366 30.8C214.366 31.12 214.473 31.472 214.686 31.856C214.921 32.24 215.273 32.72 215.742 33.296C216.425 34.192 216.937 34.96 217.278 35.6C217.641 36.2187 217.822 36.9013 217.822 37.648C217.822 37.8613 217.801 38.16 217.758 38.544C218.804 38.1387 220.03 37.0613 221.438 35.312C221.694 35.0133 221.982 34.864 222.302 34.864C222.58 34.864 222.793 34.992 222.942 35.248C223.113 35.504 223.198 35.856 223.198 36.304C223.198 37.1147 222.996 37.776 222.59 38.288C221.524 39.6107 220.5 40.5173 219.518 41.008C218.558 41.4773 217.364 41.7333 215.934 41.776C215.081 42.5013 214.068 42.864 212.894 42.864ZM224.791 24.976C223.895 24.976 223.223 24.7733 222.775 24.368C222.327 23.9413 222.103 23.3547 222.103 22.608C222.103 21.8613 222.391 21.2427 222.967 20.752C223.564 20.24 224.3 19.984 225.175 19.984C225.964 19.984 226.604 20.176 227.095 20.56C227.585 20.944 227.831 21.488 227.831 22.192C227.831 23.0453 227.553 23.728 226.999 24.24C226.444 24.7307 225.708 24.976 224.791 24.976ZM224.535 42.16C223.148 42.16 222.135 41.6693 221.495 40.688C220.876 39.7067 220.567 38.4053 220.567 36.784C220.567 35.824 220.684 34.5973 220.919 33.104C221.175 31.5893 221.495 30.1813 221.879 28.88C222.071 28.1973 222.327 27.728 222.647 27.472C222.967 27.216 223.479 27.088 224.183 27.088C225.271 27.088 225.815 27.4507 225.815 28.176C225.815 28.7093 225.612 29.9467 225.207 31.888C224.695 34.2347 224.439 35.824 224.439 36.656C224.439 37.296 224.524 37.7867 224.695 38.128C224.865 38.4693 225.153 38.64 225.559 38.64C225.943 38.64 226.423 38.3733 226.999 37.84C227.575 37.3067 228.343 36.464 229.303 35.312C229.559 35.0133 229.847 34.864 230.167 34.864C230.444 34.864 230.657 34.992 230.807 35.248C230.977 35.504 231.063 35.856 231.063 36.304C231.063 37.1573 230.86 37.8187 230.455 38.288C228.343 40.8693 226.369 42.16 224.535 42.16ZM242.746 34.864C243.023 34.864 243.236 34.992 243.385 35.248C243.556 35.504 243.642 35.856 243.642 36.304C243.642 37.1573 243.439 37.8187 243.034 38.288C242.116 39.4187 241.114 40.3467 240.026 41.072C238.938 41.7973 237.69 42.16 236.282 42.16C231.93 42.16 229.754 39.0987 229.754 32.976C229.754 32.0373 229.786 31.088 229.85 30.128H228.602C227.962 30.128 227.524 30.0107 227.29 29.776C227.076 29.5413 226.97 29.168 226.97 28.656C226.97 27.4613 227.45 26.864 228.41 26.864H230.234C230.596 24.5173 231.151 22.3733 231.898 20.432C232.644 18.4907 233.54 16.944 234.586 15.792C235.652 14.64 236.794 14.064 238.01 14.064C238.906 14.064 239.61 14.4587 240.122 15.248C240.634 16.0373 240.89 17.0293 240.89 18.224C240.89 21.5307 239.503 24.4107 236.73 26.864H240.314C240.655 26.864 240.9 26.9387 241.05 27.088C241.199 27.2373 241.274 27.5147 241.274 27.92C241.274 29.392 240.068 30.128 237.658 30.128H233.754C233.711 31.1947 233.69 32.0267 233.69 32.624C233.69 34.8427 233.946 36.4 234.458 37.296C234.991 38.192 235.823 38.64 236.954 38.64C237.871 38.64 238.682 38.3627 239.386 37.808C240.09 37.2533 240.922 36.4213 241.882 35.312C242.138 35.0133 242.426 34.864 242.746 34.864ZM237.146 17.136C236.826 17.136 236.463 17.5413 236.058 18.352C235.674 19.1413 235.3 20.2507 234.938 21.68C234.596 23.088 234.308 24.656 234.074 26.384C235.332 25.296 236.271 24.08 236.89 22.736C237.53 21.3707 237.85 20.1333 237.85 19.024C237.85 17.7653 237.615 17.136 237.146 17.136ZM252.492 35.824C252.769 35.824 252.983 35.952 253.132 36.208C253.303 36.464 253.388 36.816 253.388 37.264C253.388 38.032 253.207 38.6933 252.844 39.248C252.247 40.1653 251.457 40.88 250.476 41.392C249.516 41.904 248.364 42.16 247.02 42.16C244.972 42.16 243.383 41.552 242.252 40.336C241.121 39.0987 240.556 37.4347 240.556 35.344C240.556 33.872 240.865 32.5067 241.484 31.248C242.103 29.968 242.956 28.9547 244.044 28.208C245.153 27.4613 246.401 27.088 247.788 27.088C249.025 27.088 250.017 27.4613 250.764 28.208C251.511 28.9333 251.884 29.9253 251.884 31.184C251.884 32.656 251.351 33.9253 250.284 34.992C249.239 36.0373 247.447 36.8693 244.908 37.488C245.42 38.4693 246.284 38.96 247.5 38.96C248.375 38.96 249.089 38.7573 249.644 38.352C250.22 37.9467 250.881 37.264 251.628 36.304C251.884 35.984 252.172 35.824 252.492 35.824ZM247.244 30.224C246.455 30.224 245.783 30.6827 245.228 31.6C244.695 32.5173 244.428 33.6267 244.428 34.928V34.992C245.687 34.6933 246.679 34.2453 247.404 33.648C248.129 33.0507 248.492 32.3573 248.492 31.568C248.492 31.1627 248.375 30.8427 248.14 30.608C247.927 30.352 247.628 30.224 247.244 30.224Z" fill="#001AFF"/>
<path d="M3.01378 82.2345C3.14324 83.3314 4.13744 84.1157 5.2344 83.9863L23.1103 81.8767C24.2073 81.7472 24.9916 80.753 24.8622 79.6561C24.7327 78.5591 23.7385 77.7748 22.6415 77.9042L6.75182 79.7794L4.87661 63.8897C4.74716 62.7928 3.75295 62.0084 2.656 62.1379C1.55904 62.2674 0.774724 63.2616 0.90418 64.3585L3.01378 82.2345ZM77 82L75.7266 83.5422L75.7266 83.5422L77 82ZM139.5 192.5L138.824 190.618L139.5 192.5ZM183.583 270.456C184.663 270.686 185.726 269.997 185.956 268.917C186.186 267.836 185.497 266.774 184.417 266.544L183.583 270.456ZM5 82.0001C6.57021 83.2388 6.56957 83.2396 6.56904 83.2403C6.56901 83.2403 6.56858 83.2408 6.56851 83.2409C6.56837 83.2411 6.56866 83.2407 6.56938 83.2398C6.5708 83.2381 6.57394 83.2341 6.57877 83.2281C6.58843 83.2161 6.60488 83.1958 6.62807 83.1676C6.67445 83.1111 6.74775 83.0231 6.84757 82.9068C7.04725 82.674 7.35274 82.3282 7.76074 81.8954C8.57725 81.0293 9.8012 79.8181 11.4061 78.4681C14.6217 75.7635 19.3308 72.532 25.3251 70.3827C37.1637 66.1377 54.4307 65.9584 75.7266 83.5422L78.2734 80.4578C55.9693 62.0415 37.2363 61.8623 23.9749 66.6174C17.4192 68.9681 12.3033 72.4866 8.83136 75.407C7.09255 76.8695 5.75712 78.1896 4.8502 79.1516C4.39648 79.6328 4.04923 80.0254 3.81161 80.3023C3.69277 80.4409 3.60128 80.5506 3.53753 80.6282C3.50566 80.667 3.48071 80.6977 3.46273 80.7201C3.45375 80.7312 3.4465 80.7403 3.44101 80.7472C3.43827 80.7506 3.43596 80.7535 3.43408 80.7559C3.43315 80.7571 3.43207 80.7584 3.43161 80.759C3.43064 80.7603 3.42979 80.7613 5 82.0001ZM75.7266 83.5422C102.348 105.523 108.15 135.941 112.089 159.702C113.069 165.608 113.942 171.153 115.003 175.983C116.06 180.801 117.337 185.085 119.196 188.438C121.078 191.833 123.635 194.41 127.263 195.528C130.832 196.628 135.092 196.207 140.176 194.382L138.824 190.618C134.158 192.292 130.855 192.45 128.442 191.706C126.087 190.98 124.242 189.292 122.695 186.499C121.124 183.665 119.944 179.84 118.91 175.126C117.878 170.425 117.025 165.017 116.036 159.048C112.1 135.309 106.152 103.477 78.2734 80.4578L75.7266 83.5422ZM140.176 194.382C141.691 193.838 142.946 193.257 143.913 192.623C144.847 192.01 145.717 191.216 146.14 190.164C146.622 188.967 146.393 187.782 145.761 186.833C145.193 185.979 144.32 185.329 143.423 184.822C141.605 183.796 138.966 182.961 135.893 182.309C132.783 181.649 129.086 181.148 125.064 180.854C117.027 180.265 107.571 180.492 98.7297 181.987C89.9365 183.473 81.5068 186.253 75.7375 190.949L78.2625 194.051C83.2432 189.997 90.8696 187.372 99.3964 185.931C107.875 184.498 117.004 184.274 124.772 184.843C128.653 185.127 132.165 185.607 135.063 186.222C138 186.845 140.169 187.578 141.456 188.305C142.11 188.675 142.364 188.948 142.432 189.05C142.436 189.056 142.353 188.86 142.43 188.67C142.448 188.626 142.359 188.858 141.719 189.278C141.112 189.676 140.177 190.132 138.824 190.618L140.176 194.382ZM75.7375 190.949C72.7941 193.345 70.7643 196.184 69.7627 199.394C68.761 202.605 68.8309 206.047 69.8614 209.576C71.9029 216.568 77.735 224.012 86.8769 231.313C105.21 245.954 137.667 260.671 183.583 270.456L184.417 266.544C138.833 256.829 107.04 242.296 89.3731 228.187C80.515 221.113 75.4096 214.307 73.7011 208.455C72.8566 205.563 72.8484 202.934 73.5811 200.586C74.3138 198.238 75.8309 196.03 78.2625 194.051L75.7375 190.949Z" fill="#001AFF"/>
</svg>
