<svg width="297" height="271" viewBox="0 0 297 271" fill="none" xmlns="http://www.w3.org/2000/svg">
<path d="M46.124 34.864C46.4013 34.864 46.6147 34.992 46.764 35.248C46.9347 35.504 47.02 35.856 47.02 36.304C47.02 37.1573 46.8173 37.8187 46.412 38.288C45.4947 39.4187 44.5027 40.3467 43.436 41.072C42.3907 41.7973 41.196 42.16 39.852 42.16C38.7213 42.16 37.804 41.7547 37.1 40.944C35.884 41.7333 34.6147 42.1387 33.292 42.16C33.0147 46.2773 32.3853 49.712 31.404 52.464C30.4227 55.2373 28.9827 56.624 27.084 56.624C25.932 56.624 25.0787 56.208 24.524 55.376C23.9693 54.544 23.692 53.392 23.692 51.92C23.692 49.8293 24.172 47.3867 25.132 44.592C26.092 41.8187 27.5747 38.7573 29.58 35.408C29.58 32.2933 29.5587 30.128 29.516 28.912C29.4947 28.2933 29.74 27.8027 30.252 27.44C30.764 27.0773 31.404 26.896 32.172 26.896C32.62 26.896 32.94 26.992 33.132 27.184C33.3453 27.3547 33.4627 27.7067 33.484 28.24C33.484 28.7733 33.4947 29.168 33.516 29.424C34.1987 28.5707 34.8707 27.9627 35.532 27.6C36.1933 27.216 36.8973 27.024 37.644 27.024C38.8387 27.024 39.8093 27.504 40.556 28.464C41.324 29.424 41.708 30.6827 41.708 32.24C41.708 33.3707 41.5267 34.4693 41.164 35.536C40.8013 36.6027 40.3 37.5733 39.66 38.448C40.108 38.576 40.4813 38.64 40.78 38.64C41.484 38.64 42.156 38.384 42.796 37.872C43.436 37.36 44.2573 36.5067 45.26 35.312C45.516 35.0133 45.804 34.864 46.124 34.864ZM33.452 39.088C34.22 38.9173 34.924 38.5013 35.564 37.84C36.2253 37.1573 36.748 36.3253 37.132 35.344C37.516 34.3413 37.708 33.296 37.708 32.208C37.708 31.568 37.58 31.088 37.324 30.768C37.068 30.4267 36.7267 30.256 36.3 30.256C35.532 30.256 34.604 31.0667 33.516 32.688C33.4947 33.6267 33.484 35.0027 33.484 36.816C33.484 37.7973 33.4733 38.5547 33.452 39.088ZM27.34 53.488C27.916 53.488 28.396 52.2293 28.78 49.712C29.164 47.216 29.4093 44.1013 29.516 40.368C28.5987 42.5013 27.8733 44.5387 27.34 46.48C26.8067 48.4213 26.54 50.0533 26.54 51.376C26.54 52.0587 26.6253 52.5813 26.796 52.944C26.9453 53.3067 27.1267 53.488 27.34 53.488ZM46.7143 42.16C45.9036 42.16 45.3276 41.7333 44.9863 40.88C44.6663 40.0267 44.5063 38.6613 44.5063 36.784C44.5063 34.0107 44.9009 31.376 45.6903 28.88C45.8823 28.2613 46.1916 27.8133 46.6183 27.536C47.0663 27.2373 47.6849 27.088 48.4743 27.088C48.9009 27.088 49.1996 27.1413 49.3703 27.248C49.5409 27.3547 49.6263 27.5573 49.6263 27.856C49.6263 28.1973 49.4663 28.9653 49.1463 30.16C48.9329 31.0133 48.7623 31.76 48.6343 32.4C48.5063 33.04 48.3996 33.8293 48.3143 34.768C49.0183 32.9333 49.8076 31.44 50.6823 30.288C51.5569 29.136 52.4103 28.3147 53.2423 27.824C54.0956 27.3333 54.8743 27.088 55.5783 27.088C56.9649 27.088 57.6583 27.7813 57.6583 29.168C57.6583 29.4453 57.5623 30.1173 57.3703 31.184C57.1996 32.0373 57.1143 32.5707 57.1143 32.784C57.1143 33.5307 57.3809 33.904 57.9143 33.904C58.5116 33.904 59.2796 33.4347 60.2183 32.496C60.4956 32.2187 60.7836 32.08 61.0823 32.08C61.3596 32.08 61.5729 32.208 61.7222 32.464C61.8929 32.6987 61.9783 33.0187 61.9783 33.424C61.9783 34.2133 61.7649 34.832 61.3383 35.28C60.7409 35.8987 60.0369 36.432 59.2263 36.88C58.4369 37.3067 57.5943 37.52 56.6983 37.52C55.5676 37.52 54.7036 37.232 54.1063 36.656C53.5303 36.08 53.2423 35.3013 53.2423 34.32C53.2423 34 53.2743 33.68 53.3383 33.36C53.3809 32.9333 53.4023 32.6453 53.4023 32.496C53.4023 32.1547 53.2849 31.984 53.0503 31.984C52.7303 31.984 52.3036 32.3467 51.7703 33.072C51.2583 33.776 50.7463 34.7147 50.2343 35.888C49.7223 37.0613 49.3063 38.2987 48.9863 39.6C48.7516 40.6027 48.4743 41.2853 48.1543 41.648C47.8556 41.9893 47.3756 42.16 46.7143 42.16ZM75.3248 32.176C75.6021 32.176 75.8154 32.3147 75.9648 32.592C76.1141 32.8693 76.1888 33.2213 76.1888 33.648C76.1888 34.672 75.8794 35.28 75.2608 35.472C73.9808 35.92 72.5728 36.176 71.0368 36.24C70.6314 38.032 69.8314 39.472 68.6368 40.56C67.4421 41.6267 66.0874 42.16 64.5728 42.16C63.2928 42.16 62.1941 41.8507 61.2768 41.232C60.3808 40.6133 59.6981 39.792 59.2288 38.768C58.7594 37.744 58.5247 36.6347 58.5247 35.44C58.5247 33.8187 58.8341 32.3787 59.4528 31.12C60.0714 29.84 60.9248 28.848 62.0128 28.144C63.1008 27.4187 64.3061 27.056 65.6288 27.056C67.2501 27.056 68.5514 27.6213 69.5328 28.752C70.5354 29.8613 71.1221 31.2373 71.2928 32.88C72.2954 32.816 73.4901 32.6027 74.8768 32.24C75.0474 32.1973 75.1968 32.176 75.3248 32.176ZM64.8288 38.768C65.5114 38.768 66.0981 38.4907 66.5888 37.936C67.1008 37.3813 67.4421 36.5813 67.6128 35.536C66.9514 35.088 66.4394 34.5013 66.0768 33.776C65.7354 33.0507 65.5648 32.2827 65.5648 31.472C65.5648 31.1307 65.5968 30.7893 65.6608 30.448H65.5008C64.6474 30.448 63.9328 30.864 63.3568 31.696C62.8021 32.5067 62.5248 33.6587 62.5248 35.152C62.5248 36.3253 62.7488 37.2213 63.1968 37.84C63.6661 38.4587 64.2101 38.768 64.8288 38.768ZM88.5268 34.864C88.8041 34.864 89.0174 34.992 89.1667 35.248C89.3374 35.504 89.4228 35.856 89.4228 36.304C89.4228 37.1573 89.2201 37.8187 88.8148 38.288C87.8974 39.4187 86.8948 40.3467 85.8068 41.072C84.7188 41.7973 83.4708 42.16 82.0628 42.16C77.7108 42.16 75.5348 39.0987 75.5348 32.976C75.5348 32.0373 75.5668 31.088 75.6308 30.128H74.3828C73.7428 30.128 73.3054 30.0107 73.0708 29.776C72.8574 29.5413 72.7508 29.168 72.7508 28.656C72.7508 27.4613 73.2308 26.864 74.1908 26.864H76.0148C76.3774 24.5173 76.9321 22.3733 77.6788 20.432C78.4254 18.4907 79.3214 16.944 80.3668 15.792C81.4334 14.64 82.5748 14.064 83.7908 14.064C84.6868 14.064 85.3908 14.4587 85.9028 15.248C86.4148 16.0373 86.6708 17.0293 86.6708 18.224C86.6708 21.5307 85.2841 24.4107 82.5108 26.864H86.0948C86.4361 26.864 86.6814 26.9387 86.8308 27.088C86.9801 27.2373 87.0548 27.5147 87.0548 27.92C87.0548 29.392 85.8494 30.128 83.4388 30.128H79.5348C79.4921 31.1947 79.4708 32.0267 79.4708 32.624C79.4708 34.8427 79.7268 36.4 80.2388 37.296C80.7721 38.192 81.6041 38.64 82.7348 38.64C83.6521 38.64 84.4628 38.3627 85.1668 37.808C85.8708 37.2533 86.7028 36.4213 87.6628 35.312C87.9188 35.0133 88.2068 34.864 88.5268 34.864ZM82.9268 17.136C82.6068 17.136 82.2441 17.5413 81.8388 18.352C81.4548 19.1413 81.0814 20.2507 80.7188 21.68C80.3774 23.088 80.0894 24.656 79.8548 26.384C81.1134 25.296 82.0521 24.08 82.6708 22.736C83.3108 21.3707 83.6308 20.1333 83.6308 19.024C83.6308 17.7653 83.3961 17.136 82.9268 17.136ZM103.137 32.176C103.415 32.176 103.628 32.3147 103.777 32.592C103.927 32.8693 104.001 33.2213 104.001 33.648C104.001 34.672 103.692 35.28 103.073 35.472C101.793 35.92 100.385 36.176 98.8493 36.24C98.4439 38.032 97.6439 39.472 96.4493 40.56C95.2546 41.6267 93.8999 42.16 92.3853 42.16C91.1053 42.16 90.0066 41.8507 89.0893 41.232C88.1933 40.6133 87.5106 39.792 87.0413 38.768C86.5719 37.744 86.3372 36.6347 86.3372 35.44C86.3372 33.8187 86.6466 32.3787 87.2653 31.12C87.8839 29.84 88.7373 28.848 89.8253 28.144C90.9133 27.4187 92.1186 27.056 93.4413 27.056C95.0626 27.056 96.3639 27.6213 97.3453 28.752C98.3479 29.8613 98.9346 31.2373 99.1053 32.88C100.108 32.816 101.303 32.6027 102.689 32.24C102.86 32.1973 103.009 32.176 103.137 32.176ZM92.6413 38.768C93.3239 38.768 93.9106 38.4907 94.4013 37.936C94.9133 37.3813 95.2546 36.5813 95.4253 35.536C94.7639 35.088 94.2519 34.5013 93.8893 33.776C93.5479 33.0507 93.3773 32.2827 93.3773 31.472C93.3773 31.1307 93.4093 30.7893 93.4733 30.448H93.3133C92.4599 30.448 91.7453 30.864 91.1693 31.696C90.6146 32.5067 90.3373 33.6587 90.3373 35.152C90.3373 36.3253 90.5613 37.2213 91.0093 37.84C91.4786 38.4587 92.0226 38.768 92.6413 38.768ZM116.339 34.864C116.617 34.864 116.83 34.992 116.979 35.248C117.15 35.504 117.235 35.856 117.235 36.304C117.235 37.1573 117.033 37.8187 116.627 38.288C115.71 39.4187 114.707 40.3467 113.619 41.072C112.531 41.7973 111.283 42.16 109.875 42.16C105.523 42.16 103.347 39.0987 103.347 32.976C103.347 32.0373 103.379 31.088 103.443 30.128H102.195C101.555 30.128 101.118 30.0107 100.883 29.776C100.67 29.5413 100.563 29.168 100.563 28.656C100.563 27.4613 101.043 26.864 102.003 26.864H103.827C104.19 24.5173 104.745 22.3733 105.491 20.432C106.238 18.4907 107.134 16.944 108.179 15.792C109.246 14.64 110.387 14.064 111.603 14.064C112.499 14.064 113.203 14.4587 113.715 15.248C114.227 16.0373 114.483 17.0293 114.483 18.224C114.483 21.5307 113.097 24.4107 110.323 26.864H113.907C114.249 26.864 114.494 26.9387 114.643 27.088C114.793 27.2373 114.867 27.5147 114.867 27.92C114.867 29.392 113.662 30.128 111.251 30.128H107.347C107.305 31.1947 107.283 32.0267 107.283 32.624C107.283 34.8427 107.539 36.4 108.051 37.296C108.585 38.192 109.417 38.64 110.547 38.64C111.465 38.64 112.275 38.3627 112.979 37.808C113.683 37.2533 114.515 36.4213 115.475 35.312C115.731 35.0133 116.019 34.864 116.339 34.864ZM110.739 17.136C110.419 17.136 110.057 17.5413 109.651 18.352C109.267 19.1413 108.894 20.2507 108.531 21.68C108.19 23.088 107.902 24.656 107.667 26.384C108.926 25.296 109.865 24.08 110.483 22.736C111.123 21.3707 111.443 20.1333 111.443 19.024C111.443 17.7653 111.209 17.136 110.739 17.136ZM131.014 34.928C131.291 34.928 131.504 35.0667 131.654 35.344C131.824 35.6 131.91 35.9307 131.91 36.336C131.91 36.8267 131.835 37.2107 131.686 37.488C131.536 37.7653 131.302 38.0107 130.982 38.224L124.838 42.352C124.027 46.768 122.96 50.2347 121.638 52.752C120.336 55.2907 118.672 56.56 116.646 56.56C115.558 56.56 114.672 56.2187 113.99 55.536C113.307 54.8747 112.966 54 112.966 52.912C112.966 51.9093 113.19 50.8853 113.638 49.84C114.107 48.7947 114.96 47.5893 116.198 46.224C117.456 44.88 119.227 43.3333 121.51 41.584L121.606 40.848C121.755 40.0587 121.926 38.928 122.118 37.456C121.691 38.992 121.094 40.1653 120.326 40.976C119.558 41.7653 118.747 42.16 117.894 42.16C116.934 42.16 116.144 41.7227 115.526 40.848C114.928 39.952 114.63 38.8427 114.63 37.52C114.63 35.92 114.736 34.4587 114.95 33.136C115.163 31.792 115.515 30.3733 116.006 28.88C116.219 28.24 116.518 27.7813 116.902 27.504C117.286 27.2267 117.894 27.088 118.726 27.088C119.195 27.088 119.515 27.1627 119.686 27.312C119.878 27.4613 119.974 27.6853 119.974 27.984C119.974 28.1547 119.856 28.7307 119.622 29.712C119.408 30.5013 119.238 31.216 119.11 31.856C118.939 32.7307 118.79 33.5733 118.662 34.384C118.534 35.1733 118.47 35.824 118.47 36.336C118.47 37.1467 118.694 37.552 119.142 37.552C119.462 37.552 119.856 37.232 120.326 36.592C120.816 35.952 121.328 34.9813 121.862 33.68C122.416 32.3787 122.95 30.7787 123.462 28.88C123.632 28.24 123.888 27.7813 124.23 27.504C124.592 27.2267 125.126 27.088 125.83 27.088C126.32 27.088 126.662 27.152 126.854 27.28C127.046 27.408 127.142 27.6213 127.142 27.92C127.142 28.4533 126.864 30.288 126.31 33.424L125.478 38.576C127.12 37.3387 128.72 36.208 130.278 35.184C130.555 35.0133 130.8 34.928 131.014 34.928ZM116.998 53.456C117.531 53.456 118.128 52.8373 118.79 51.6C119.451 50.3627 120.112 48.304 120.774 45.424C119.131 46.8107 117.936 48.0693 117.19 49.2C116.464 50.352 116.102 51.3547 116.102 52.208C116.102 52.5707 116.166 52.8693 116.294 53.104C116.443 53.3387 116.678 53.456 116.998 53.456ZM147.343 34.864C147.62 34.864 147.833 34.992 147.983 35.248C148.153 35.504 148.239 35.856 148.239 36.304C148.239 37.1573 148.036 37.8187 147.631 38.288C146.713 39.4187 145.721 40.3467 144.655 41.072C143.609 41.7973 142.415 42.16 141.071 42.16C139.94 42.16 139.023 41.7547 138.319 40.944C137.103 41.7333 135.833 42.1387 134.511 42.16C134.233 46.2773 133.604 49.712 132.623 52.464C131.641 55.2373 130.201 56.624 128.303 56.624C127.151 56.624 126.297 56.208 125.743 55.376C125.188 54.544 124.911 53.392 124.911 51.92C124.911 49.8293 125.391 47.3867 126.351 44.592C127.311 41.8187 128.793 38.7573 130.799 35.408C130.799 32.2933 130.777 30.128 130.735 28.912C130.713 28.2933 130.959 27.8027 131.471 27.44C131.983 27.0773 132.623 26.896 133.391 26.896C133.839 26.896 134.159 26.992 134.351 27.184C134.564 27.3547 134.681 27.7067 134.703 28.24C134.703 28.7733 134.713 29.168 134.735 29.424C135.417 28.5707 136.089 27.9627 136.751 27.6C137.412 27.216 138.116 27.024 138.863 27.024C140.057 27.024 141.028 27.504 141.775 28.464C142.543 29.424 142.927 30.6827 142.927 32.24C142.927 33.3707 142.745 34.4693 142.383 35.536C142.02 36.6027 141.519 37.5733 140.879 38.448C141.327 38.576 141.7 38.64 141.999 38.64C142.703 38.64 143.375 38.384 144.015 37.872C144.655 37.36 145.476 36.5067 146.479 35.312C146.735 35.0133 147.023 34.864 147.343 34.864ZM134.671 39.088C135.439 38.9173 136.143 38.5013 136.783 37.84C137.444 37.1573 137.967 36.3253 138.351 35.344C138.735 34.3413 138.927 33.296 138.927 32.208C138.927 31.568 138.799 31.088 138.543 30.768C138.287 30.4267 137.945 30.256 137.519 30.256C136.751 30.256 135.823 31.0667 134.735 32.688C134.713 33.6267 134.703 35.0027 134.703 36.816C134.703 37.7973 134.692 38.5547 134.671 39.088ZM128.559 53.488C129.135 53.488 129.615 52.2293 129.999 49.712C130.383 47.216 130.628 44.1013 130.735 40.368C129.817 42.5013 129.092 44.5387 128.559 46.48C128.025 48.4213 127.759 50.0533 127.759 51.376C127.759 52.0587 127.844 52.5813 128.015 52.944C128.164 53.3067 128.345 53.488 128.559 53.488ZM157.117 35.824C157.394 35.824 157.608 35.952 157.757 36.208C157.928 36.464 158.013 36.816 158.013 37.264C158.013 38.032 157.832 38.6933 157.469 39.248C156.872 40.1653 156.082 40.88 155.101 41.392C154.141 41.904 152.989 42.16 151.645 42.16C149.597 42.16 148.008 41.552 146.877 40.336C145.746 39.0987 145.181 37.4347 145.181 35.344C145.181 33.872 145.49 32.5067 146.109 31.248C146.728 29.968 147.581 28.9547 148.669 28.208C149.778 27.4613 151.026 27.088 152.413 27.088C153.65 27.088 154.642 27.4613 155.389 28.208C156.136 28.9333 156.509 29.9253 156.509 31.184C156.509 32.656 155.976 33.9253 154.909 34.992C153.864 36.0373 152.072 36.8693 149.533 37.488C150.045 38.4693 150.909 38.96 152.125 38.96C153 38.96 153.714 38.7573 154.269 38.352C154.845 37.9467 155.506 37.264 156.253 36.304C156.509 35.984 156.797 35.824 157.117 35.824ZM151.869 30.224C151.08 30.224 150.408 30.6827 149.853 31.6C149.32 32.5173 149.053 33.6267 149.053 34.928V34.992C150.312 34.6933 151.304 34.2453 152.029 33.648C152.754 33.0507 153.117 32.3573 153.117 31.568C153.117 31.1627 153 30.8427 152.765 30.608C152.552 30.352 152.253 30.224 151.869 30.224ZM185.462 34.864C185.739 34.864 185.953 34.992 186.102 35.248C186.273 35.504 186.358 35.856 186.358 36.304C186.358 37.1573 186.155 37.8187 185.75 38.288C184.875 39.3547 183.915 40.272 182.87 41.04C181.825 41.7867 180.79 42.16 179.766 42.16C178.145 42.16 176.907 41.2107 176.054 39.312C175.158 40.4427 174.369 41.2 173.686 41.584C173.025 41.968 172.246 42.16 171.35 42.16C170.049 42.16 168.971 41.68 168.118 40.72C167.286 39.7387 166.87 38.4693 166.87 36.912C166.87 35.2053 167.233 33.6267 167.958 32.176C168.683 30.704 169.675 29.5093 170.934 28.592C172.214 27.6533 173.643 27.0987 175.222 26.928C175.627 22.7893 176.395 19.2587 177.526 16.336C178.678 13.392 180.182 11.92 182.038 11.92C182.955 11.92 183.713 12.336 184.31 13.168C184.929 14 185.238 15.2587 185.238 16.944C185.238 19.3333 184.651 22.128 183.478 25.328C182.305 28.528 180.737 31.8133 178.774 35.184C178.859 36.4213 179.041 37.3067 179.318 37.84C179.617 38.3733 179.99 38.64 180.438 38.64C181.014 38.64 181.601 38.384 182.198 37.872C182.795 37.36 183.595 36.5067 184.598 35.312C184.854 35.0133 185.142 34.864 185.462 34.864ZM181.686 15.056C181.281 15.056 180.875 15.7813 180.47 17.232C180.065 18.6613 179.713 20.5387 179.414 22.864C179.137 25.1893 178.934 27.6213 178.806 30.16C181.195 24.9547 182.39 20.7733 182.39 17.616C182.39 16.8053 182.315 16.176 182.166 15.728C182.038 15.28 181.878 15.056 181.686 15.056ZM172.47 38.928C172.875 38.928 173.281 38.768 173.686 38.448C174.091 38.1067 174.603 37.488 175.222 36.592C175.009 35.44 174.902 34.1493 174.902 32.72C174.902 32.208 174.923 31.376 174.966 30.224C173.793 30.5867 172.811 31.376 172.022 32.592C171.254 33.7867 170.87 35.12 170.87 36.592C170.87 38.1493 171.403 38.928 172.47 38.928ZM195.211 35.824C195.488 35.824 195.701 35.952 195.851 36.208C196.021 36.464 196.107 36.816 196.107 37.264C196.107 38.032 195.925 38.6933 195.563 39.248C194.965 40.1653 194.176 40.88 193.195 41.392C192.235 41.904 191.083 42.16 189.739 42.16C187.691 42.16 186.101 41.552 184.971 40.336C183.84 39.0987 183.275 37.4347 183.275 35.344C183.275 33.872 183.584 32.5067 184.203 31.248C184.821 29.968 185.675 28.9547 186.763 28.208C187.872 27.4613 189.12 27.088 190.507 27.088C191.744 27.088 192.736 27.4613 193.483 28.208C194.229 28.9333 194.603 29.9253 194.603 31.184C194.603 32.656 194.069 33.9253 193.003 34.992C191.957 36.0373 190.165 36.8693 187.627 37.488C188.139 38.4693 189.003 38.96 190.219 38.96C191.093 38.96 191.808 38.7573 192.363 38.352C192.939 37.9467 193.6 37.264 194.347 36.304C194.603 35.984 194.891 35.824 195.211 35.824ZM189.963 30.224C189.173 30.224 188.501 30.6827 187.947 31.6C187.413 32.5173 187.147 33.6267 187.147 34.928V34.992C188.405 34.6933 189.397 34.2453 190.123 33.648C190.848 33.0507 191.211 32.3573 191.211 31.568C191.211 31.1627 191.093 30.8427 190.859 30.608C190.645 30.352 190.347 30.224 189.963 30.224ZM217.508 34.864C217.785 34.864 217.998 34.992 218.148 35.248C218.318 35.504 218.404 35.856 218.404 36.304C218.404 37.1573 218.201 37.8187 217.796 38.288C216.878 39.4187 215.876 40.3467 214.788 41.072C213.721 41.7973 212.505 42.16 211.14 42.16C209.262 42.16 207.865 41.3067 206.948 39.6C206.052 37.8933 205.604 35.6853 205.604 32.976C205.604 30.3733 205.934 27.408 206.596 24.08C207.278 20.752 208.27 17.8933 209.572 15.504C210.894 13.1147 212.462 11.92 214.276 11.92C215.3 11.92 216.1 12.4 216.676 13.36C217.273 14.2987 217.572 15.6533 217.572 17.424C217.572 19.9627 216.868 22.9067 215.46 26.256C214.052 29.6053 212.142 32.9227 209.732 36.208C209.881 37.0827 210.126 37.712 210.468 38.096C210.809 38.4587 211.257 38.64 211.812 38.64C212.686 38.64 213.454 38.3947 214.116 37.904C214.777 37.392 215.62 36.528 216.644 35.312C216.9 35.0133 217.188 34.864 217.508 34.864ZM213.572 15.088C213.081 15.088 212.526 15.9733 211.908 17.744C211.289 19.5147 210.745 21.712 210.276 24.336C209.806 26.96 209.55 29.4773 209.508 31.888C211.022 29.392 212.228 26.896 213.124 24.4C214.02 21.8827 214.468 19.5893 214.468 17.52C214.468 15.8987 214.169 15.088 213.572 15.088ZM219.185 42.16C217.969 42.16 216.977 41.68 216.209 40.72C215.462 39.76 215.089 38.5013 215.089 36.944C215.089 35.2373 215.483 33.6267 216.273 32.112C217.062 30.576 218.107 29.3493 219.409 28.432C220.731 27.4933 222.129 27.024 223.601 27.024C224.07 27.024 224.379 27.12 224.529 27.312C224.699 27.4827 224.838 27.8027 224.945 28.272C225.35 28.1867 225.798 28.144 226.289 28.144C226.801 28.144 227.195 28.272 227.473 28.528C227.75 28.784 227.889 29.1467 227.889 29.616C227.889 30.1067 227.782 30.96 227.569 32.176C227.334 33.4773 227.153 34.7253 227.025 35.92C226.897 37.0933 226.833 38.416 226.833 39.888C226.833 40.6987 226.662 41.2853 226.321 41.648C226.001 41.9893 225.467 42.16 224.721 42.16C223.995 42.16 223.451 41.9893 223.089 41.648C222.747 41.2853 222.577 40.7093 222.577 39.92L222.609 39.408C221.947 41.2427 220.806 42.16 219.185 42.16ZM220.433 38.928C221.03 38.928 221.574 38.512 222.065 37.68C222.555 36.848 222.993 35.3653 223.377 33.232L223.985 30C223.11 30.0213 222.299 30.3627 221.553 31.024C220.806 31.664 220.209 32.5173 219.761 33.584C219.313 34.6507 219.089 35.7813 219.089 36.976C219.089 37.616 219.206 38.1067 219.441 38.448C219.697 38.768 220.027 38.928 220.433 38.928ZM255.718 34.864C255.995 34.864 256.208 34.992 256.358 35.248C256.528 35.504 256.614 35.856 256.614 36.304C256.614 37.1573 256.411 37.8187 256.006 38.288C255.088 39.4187 254.096 40.3467 253.03 41.072C251.984 41.7973 250.79 42.16 249.446 42.16C248.315 42.16 247.398 41.7547 246.694 40.944C245.478 41.7333 244.208 42.1387 242.886 42.16C242.608 46.2773 241.979 49.712 240.998 52.464C240.016 55.2373 238.576 56.624 236.678 56.624C235.526 56.624 234.672 56.208 234.118 55.376C233.563 54.544 233.286 53.392 233.286 51.92C233.286 49.8293 233.766 47.3867 234.726 44.592C235.686 41.8187 237.168 38.7573 239.174 35.408C239.174 32.2933 239.152 30.128 239.11 28.912C239.088 28.2933 239.334 27.8027 239.846 27.44C240.358 27.0773 240.998 26.896 241.766 26.896C242.214 26.896 242.534 26.992 242.726 27.184C242.939 27.3547 243.056 27.7067 243.078 28.24C243.078 28.7733 243.088 29.168 243.11 29.424C243.792 28.5707 244.464 27.9627 245.126 27.6C245.787 27.216 246.491 27.024 247.238 27.024C248.432 27.024 249.403 27.504 250.15 28.464C250.918 29.424 251.302 30.6827 251.302 32.24C251.302 33.3707 251.12 34.4693 250.758 35.536C250.395 36.6027 249.894 37.5733 249.254 38.448C249.702 38.576 250.075 38.64 250.374 38.64C251.078 38.64 251.75 38.384 252.39 37.872C253.03 37.36 253.851 36.5067 254.854 35.312C255.11 35.0133 255.398 34.864 255.718 34.864ZM243.046 39.088C243.814 38.9173 244.518 38.5013 245.158 37.84C245.819 37.1573 246.342 36.3253 246.726 35.344C247.11 34.3413 247.302 33.296 247.302 32.208C247.302 31.568 247.174 31.088 246.918 30.768C246.662 30.4267 246.32 30.256 245.894 30.256C245.126 30.256 244.198 31.0667 243.11 32.688C243.088 33.6267 243.078 35.0027 243.078 36.816C243.078 37.7973 243.067 38.5547 243.046 39.088ZM236.934 53.488C237.51 53.488 237.99 52.2293 238.374 49.712C238.758 47.216 239.003 44.1013 239.11 40.368C238.192 42.5013 237.467 44.5387 236.934 46.48C236.4 48.4213 236.134 50.0533 236.134 51.376C236.134 52.0587 236.219 52.5813 236.39 52.944C236.539 53.3067 236.72 53.488 236.934 53.488ZM257.972 42.16C256.649 42.16 255.593 41.68 254.804 40.72C254.015 39.76 253.62 38.5013 253.62 36.944C253.62 35.2373 254.015 33.6267 254.804 32.112C255.593 30.576 256.639 29.3493 257.94 28.432C259.263 27.4933 260.66 27.024 262.132 27.024C262.601 27.024 262.911 27.12 263.06 27.312C263.231 27.4827 263.369 27.8027 263.476 28.272C263.924 28.1867 264.393 28.144 264.884 28.144C265.929 28.144 266.452 28.5173 266.452 29.264C266.452 29.712 266.292 30.7787 265.972 32.464C265.481 34.9173 265.236 36.624 265.236 37.584C265.236 37.904 265.311 38.16 265.46 38.352C265.631 38.544 265.844 38.64 266.1 38.64C266.505 38.64 266.996 38.384 267.572 37.872C268.148 37.3387 268.927 36.4853 269.908 35.312C270.164 35.0133 270.452 34.864 270.772 34.864C271.049 34.864 271.263 34.992 271.412 35.248C271.583 35.504 271.668 35.856 271.668 36.304C271.668 37.1573 271.465 37.8187 271.06 38.288C270.185 39.376 269.257 40.2933 268.276 41.04C267.295 41.7867 266.345 42.16 265.428 42.16C264.724 42.16 264.073 41.9253 263.476 41.456C262.9 40.9653 262.463 40.304 262.164 39.472C261.055 41.264 259.657 42.16 257.972 42.16ZM259.124 38.928C259.593 38.928 260.041 38.6507 260.468 38.096C260.895 37.5413 261.204 36.8053 261.396 35.888L262.58 30C261.684 30.0213 260.852 30.3627 260.084 31.024C259.337 31.664 258.74 32.5173 258.292 33.584C257.844 34.6507 257.62 35.7813 257.62 36.976C257.62 37.6373 257.748 38.128 258.004 38.448C258.281 38.768 258.655 38.928 259.124 38.928ZM285.451 34.928C285.729 34.928 285.942 35.0667 286.091 35.344C286.262 35.6 286.347 35.9307 286.347 36.336C286.347 36.8267 286.273 37.2107 286.123 37.488C285.974 37.7653 285.739 38.0107 285.419 38.224C283.585 39.4613 282.241 40.3787 281.387 40.976L279.339 42.352C278.529 46.768 277.462 50.2347 276.139 52.752C274.838 55.2907 273.174 56.56 271.147 56.56C270.059 56.56 269.174 56.2187 268.491 55.536C267.809 54.8747 267.467 54 267.467 52.912C267.467 51.3973 268.065 49.7653 269.259 48.016C270.454 46.288 272.694 44.1547 275.979 41.616L276.171 40.368C275.809 40.944 275.329 41.392 274.731 41.712C274.155 42.0107 273.579 42.16 273.003 42.16C271.681 42.16 270.625 41.68 269.835 40.72C269.046 39.76 268.651 38.5013 268.651 36.944C268.651 35.2373 269.046 33.6267 269.835 32.112C270.625 30.576 271.67 29.3493 272.971 28.432C274.294 27.4933 275.691 27.024 277.163 27.024C277.633 27.024 277.942 27.12 278.091 27.312C278.262 27.4827 278.401 27.8027 278.507 28.272C278.913 28.1867 279.382 28.144 279.915 28.144C280.449 28.144 280.822 28.2293 281.035 28.4C281.27 28.5493 281.387 28.8587 281.387 29.328C281.387 29.584 281.377 29.7867 281.355 29.936C281.27 30.5973 281.003 32.272 280.555 34.96C280.47 35.472 280.374 36.0373 280.267 36.656C280.182 37.2533 280.086 37.8933 279.979 38.576C281.622 37.296 283.201 36.1653 284.715 35.184C284.993 35.0133 285.238 34.928 285.451 34.928ZM274.155 38.928C274.646 38.928 275.115 38.6293 275.563 38.032C276.011 37.4347 276.331 36.5813 276.523 35.472L277.547 30C276.673 30.0213 275.862 30.3627 275.115 31.024C274.369 31.664 273.771 32.5173 273.323 33.584C272.875 34.6507 272.651 35.7813 272.651 36.976C272.651 37.6373 272.779 38.128 273.035 38.448C273.313 38.768 273.686 38.928 274.155 38.928ZM271.499 53.456C272.033 53.456 272.63 52.816 273.291 51.536C273.974 50.256 274.625 48.2187 275.243 45.424C273.601 46.832 272.417 48.1013 271.691 49.232C270.966 50.3627 270.603 51.3547 270.603 52.208C270.603 52.5707 270.667 52.8693 270.795 53.104C270.945 53.3387 271.179 53.456 271.499 53.456ZM295.836 35.824C296.113 35.824 296.326 35.952 296.476 36.208C296.646 36.464 296.732 36.816 296.732 37.264C296.732 38.032 296.55 38.6933 296.188 39.248C295.59 40.1653 294.801 40.88 293.82 41.392C292.86 41.904 291.708 42.16 290.364 42.16C288.316 42.16 286.726 41.552 285.596 40.336C284.465 39.0987 283.9 37.4347 283.9 35.344C283.9 33.872 284.209 32.5067 284.828 31.248C285.446 29.968 286.3 28.9547 287.388 28.208C288.497 27.4613 289.745 27.088 291.132 27.088C292.369 27.088 293.361 27.4613 294.108 28.208C294.854 28.9333 295.228 29.9253 295.228 31.184C295.228 32.656 294.694 33.9253 293.628 34.992C292.582 36.0373 290.79 36.8693 288.252 37.488C288.764 38.4693 289.628 38.96 290.844 38.96C291.718 38.96 292.433 38.7573 292.988 38.352C293.564 37.9467 294.225 37.264 294.972 36.304C295.228 35.984 295.516 35.824 295.836 35.824ZM290.588 30.224C289.798 30.224 289.126 30.6827 288.572 31.6C288.038 32.5173 287.772 33.6267 287.772 34.928V34.992C289.03 34.6933 290.022 34.2453 290.748 33.648C291.473 33.0507 291.836 32.3573 291.836 31.568C291.836 31.1627 291.718 30.8427 291.484 30.608C291.27 30.352 290.972 30.224 290.588 30.224Z" fill="#001AFF"/>
<path d="M3.01378 82.2345C3.14324 83.3314 4.13744 84.1157 5.2344 83.9863L23.1103 81.8767C24.2073 81.7472 24.9916 80.753 24.8622 79.6561C24.7327 78.5591 23.7385 77.7748 22.6416 77.9042L6.75182 79.7794L4.87661 63.8897C4.74716 62.7928 3.75295 62.0084 2.656 62.1379C1.55904 62.2674 0.774724 63.2616 0.90418 64.3585L3.01378 82.2345ZM77 82L75.7266 83.5422L77 82ZM139.5 192.5L138.824 190.618L139.5 192.5ZM183.583 270.456C184.663 270.686 185.726 269.997 185.956 268.917C186.186 267.837 185.497 266.774 184.417 266.544L183.583 270.456ZM5 82.0001C6.57021 83.2388 6.56957 83.2396 6.56904 83.2403C6.56901 83.2403 6.56858 83.2408 6.56851 83.2409C6.56837 83.2411 6.56866 83.2407 6.56938 83.2398C6.5708 83.2381 6.57394 83.2341 6.57877 83.2281C6.58843 83.2161 6.60488 83.1958 6.62807 83.1676C6.67445 83.1111 6.74775 83.0231 6.84757 82.9068C7.04725 82.674 7.35274 82.3282 7.76074 81.8954C8.57725 81.0293 9.8012 79.8181 11.4061 78.4681C14.6217 75.7635 19.3308 72.532 25.3251 70.3827C37.1637 66.1377 54.4307 65.9584 75.7266 83.5422L78.2734 80.4578C55.9693 62.0415 37.2363 61.8623 23.975 66.6174C17.4192 68.9681 12.3033 72.4866 8.83136 75.407C7.09255 76.8695 5.75712 78.1896 4.8502 79.1516C4.39648 79.6328 4.04923 80.0254 3.81161 80.3023C3.69278 80.4409 3.60128 80.5506 3.53753 80.6282C3.50566 80.667 3.48071 80.6977 3.46273 80.7201C3.45375 80.7312 3.4465 80.7403 3.44101 80.7472C3.43827 80.7506 3.43596 80.7535 3.43408 80.7559C3.43315 80.7571 3.43207 80.7584 3.43161 80.759C3.43064 80.7603 3.42979 80.7613 5 82.0001ZM75.7266 83.5422C102.348 105.523 108.15 135.941 112.089 159.702C113.069 165.608 113.942 171.153 115.003 175.983C116.06 180.801 117.337 185.085 119.196 188.438C121.078 191.833 123.635 194.41 127.263 195.528C130.832 196.628 135.092 196.207 140.176 194.382L138.824 190.618C134.158 192.292 130.855 192.45 128.442 191.706C126.087 190.98 124.242 189.292 122.695 186.499C121.124 183.665 119.944 179.84 118.91 175.126C117.878 170.425 117.025 165.017 116.036 159.048C112.1 135.309 106.152 103.477 78.2734 80.4578L75.7266 83.5422ZM140.176 194.382C141.691 193.838 142.946 193.257 143.913 192.623C144.847 192.01 145.717 191.216 146.14 190.164C146.622 188.967 146.393 187.782 145.761 186.833C145.193 185.979 144.32 185.329 143.423 184.822C141.605 183.796 138.966 182.961 135.893 182.309C132.783 181.649 129.086 181.148 125.064 180.854C117.027 180.265 107.571 180.492 98.7297 181.987C89.9365 183.473 81.5068 186.253 75.7375 190.949L78.2625 194.051C83.2432 189.997 90.8696 187.372 99.3964 185.931C107.875 184.497 117.004 184.274 124.772 184.843C128.653 185.127 132.165 185.607 135.063 186.222C138 186.845 140.169 187.578 141.456 188.305C142.11 188.675 142.364 188.948 142.432 189.05C142.436 189.056 142.353 188.86 142.43 188.67C142.448 188.626 142.359 188.858 141.719 189.278C141.112 189.676 140.177 190.132 138.824 190.618L140.176 194.382ZM75.7375 190.949C72.7941 193.345 70.7643 196.184 69.7626 199.394C68.761 202.605 68.8309 206.047 69.8614 209.576C71.9029 216.568 77.735 224.012 86.8769 231.313C105.21 245.954 137.667 260.671 183.583 270.456L184.417 266.544C138.833 256.829 107.04 242.296 89.3731 228.187C80.515 221.113 75.4096 214.307 73.7011 208.455C72.8566 205.563 72.8484 202.934 73.5811 200.586C74.3138 198.238 75.8309 196.03 78.2625 194.051L75.7375 190.949Z" fill="#001AFF"/>
</svg>
