<svg width="393" height="162" viewBox="0 0 393 162" fill="none" xmlns="http://www.w3.org/2000/svg">
<path d="M3.808 147.16C2.99733 147.16 2.42133 146.733 2.08 145.88C1.76 145.027 1.6 143.661 1.6 141.784C1.6 139.011 1.99467 136.376 2.784 133.88C2.976 133.261 3.28533 132.813 3.712 132.536C4.16 132.237 4.77867 132.088 5.568 132.088C5.99467 132.088 6.29333 132.141 6.464 132.248C6.63467 132.355 6.72 132.557 6.72 132.856C6.72 133.197 6.56 133.965 6.24 135.16C6.02667 136.013 5.856 136.76 5.728 137.4C5.6 138.04 5.49333 138.829 5.408 139.768C6.112 137.933 6.90133 136.44 7.776 135.288C8.65067 134.136 9.504 133.315 10.336 132.824C11.1893 132.333 11.968 132.088 12.672 132.088C14.0587 132.088 14.752 132.781 14.752 134.168C14.752 134.445 14.656 135.117 14.464 136.184C14.2933 137.037 14.208 137.571 14.208 137.784C14.208 138.531 14.4747 138.904 15.008 138.904C15.6053 138.904 16.3733 138.435 17.312 137.496C17.5893 137.219 17.8773 137.08 18.176 137.08C18.4533 137.08 18.6667 137.208 18.816 137.464C18.9867 137.699 19.072 138.019 19.072 138.424C19.072 139.213 18.8587 139.832 18.432 140.28C17.8347 140.899 17.1307 141.432 16.32 141.88C15.5307 142.307 14.688 142.52 13.792 142.52C12.6613 142.52 11.7973 142.232 11.2 141.656C10.624 141.08 10.336 140.301 10.336 139.32C10.336 139 10.368 138.68 10.432 138.36C10.4747 137.933 10.496 137.645 10.496 137.496C10.496 137.155 10.3787 136.984 10.144 136.984C9.824 136.984 9.39733 137.347 8.864 138.072C8.352 138.776 7.84 139.715 7.328 140.888C6.816 142.061 6.4 143.299 6.08 144.6C5.84533 145.603 5.568 146.285 5.248 146.648C4.94933 146.989 4.46933 147.16 3.808 147.16ZM30.3705 139.864C30.6478 139.864 30.8612 139.992 31.0105 140.248C31.1812 140.504 31.2665 140.856 31.2665 141.304C31.2665 142.157 31.0638 142.819 30.6585 143.288C29.8692 144.248 28.7492 145.133 27.2985 145.944C25.8692 146.755 24.3332 147.16 22.6905 147.16C20.4505 147.16 18.7118 146.552 17.4745 145.336C16.2372 144.12 15.6185 142.456 15.6185 140.344C15.6185 138.872 15.9278 137.507 16.5465 136.248C17.1652 134.968 18.0185 133.955 19.1065 133.208C20.2158 132.461 21.4638 132.088 22.8505 132.088C24.0878 132.088 25.0798 132.461 25.8265 133.208C26.5732 133.933 26.9465 134.925 26.9465 136.184C26.9465 137.656 26.4132 138.925 25.3465 139.992C24.3012 141.037 22.5198 141.869 20.0025 142.488C20.5358 143.469 21.5492 143.96 23.0425 143.96C24.0025 143.96 25.0905 143.629 26.3065 142.968C27.5438 142.285 28.6105 141.4 29.5065 140.312C29.7625 140.013 30.0505 139.864 30.3705 139.864ZM22.3065 135.224C21.5172 135.224 20.8452 135.683 20.2905 136.6C19.7572 137.517 19.4905 138.627 19.4905 139.928V139.992C20.7492 139.693 21.7412 139.245 22.4665 138.648C23.1918 138.051 23.5545 137.357 23.5545 136.568C23.5545 136.163 23.4372 135.843 23.2025 135.608C22.9892 135.352 22.6905 135.224 22.3065 135.224ZM44.8888 139.928C45.1661 139.928 45.3794 140.067 45.5288 140.344C45.6994 140.6 45.7847 140.931 45.7847 141.336C45.7847 141.827 45.7101 142.211 45.5608 142.488C45.4114 142.765 45.1768 143.011 44.8568 143.224C43.0221 144.461 41.6781 145.379 40.8248 145.976L38.7768 147.352C37.9661 151.768 36.8994 155.235 35.5768 157.752C34.2754 160.291 32.6114 161.56 30.5848 161.56C29.4968 161.56 28.6114 161.219 27.9288 160.536C27.2461 159.875 26.9047 159 26.9047 157.912C26.9047 156.397 27.5021 154.765 28.6968 153.016C29.8914 151.288 32.1314 149.155 35.4167 146.616L35.6088 145.368C35.2461 145.944 34.7661 146.392 34.1688 146.712C33.5928 147.011 33.0168 147.16 32.4408 147.16C31.1181 147.16 30.0621 146.68 29.2728 145.72C28.4834 144.76 28.0888 143.501 28.0888 141.944C28.0888 140.237 28.4834 138.627 29.2728 137.112C30.0621 135.576 31.1074 134.349 32.4088 133.432C33.7314 132.493 35.1288 132.024 36.6008 132.024C37.0701 132.024 37.3794 132.12 37.5288 132.312C37.6994 132.483 37.8381 132.803 37.9448 133.272C38.3501 133.187 38.8194 133.144 39.3528 133.144C39.8861 133.144 40.2594 133.229 40.4728 133.4C40.7074 133.549 40.8248 133.859 40.8248 134.328C40.8248 134.584 40.8141 134.787 40.7928 134.936C40.7074 135.597 40.4408 137.272 39.9928 139.96C39.9074 140.472 39.8114 141.037 39.7048 141.656C39.6194 142.253 39.5234 142.893 39.4168 143.576C41.0594 142.296 42.6381 141.165 44.1528 140.184C44.4301 140.013 44.6754 139.928 44.8888 139.928ZM33.5928 143.928C34.0834 143.928 34.5528 143.629 35.0008 143.032C35.4488 142.435 35.7688 141.581 35.9608 140.472L36.9848 135C36.1101 135.021 35.2994 135.363 34.5528 136.024C33.8061 136.664 33.2088 137.517 32.7608 138.584C32.3128 139.651 32.0888 140.781 32.0888 141.976C32.0888 142.637 32.2168 143.128 32.4728 143.448C32.7501 143.768 33.1234 143.928 33.5928 143.928ZM30.9368 158.456C31.4701 158.456 32.0674 157.816 32.7288 156.536C33.4114 155.256 34.0621 153.219 34.6808 150.424C33.0381 151.832 31.8541 153.101 31.1288 154.232C30.4034 155.363 30.0408 156.355 30.0408 157.208C30.0408 157.571 30.1048 157.869 30.2328 158.104C30.3821 158.339 30.6168 158.456 30.9368 158.456ZM47.4408 147.16C46.1181 147.16 45.0621 146.68 44.2728 145.72C43.4834 144.76 43.0888 143.501 43.0888 141.944C43.0888 140.237 43.4834 138.627 44.2728 137.112C45.0621 135.576 46.1074 134.349 47.4088 133.432C48.7314 132.493 50.1288 132.024 51.6008 132.024C52.0701 132.024 52.3794 132.12 52.5288 132.312C52.6994 132.483 52.8381 132.803 52.9448 133.272C53.3928 133.187 53.8621 133.144 54.3528 133.144C55.3981 133.144 55.9208 133.517 55.9208 134.264C55.9208 134.712 55.7608 135.779 55.4408 137.464C54.9501 139.917 54.7048 141.624 54.7048 142.584C54.7048 142.904 54.7794 143.16 54.9288 143.352C55.0994 143.544 55.3128 143.64 55.5688 143.64C55.9741 143.64 56.4648 143.384 57.0408 142.872C57.6168 142.339 58.3954 141.485 59.3768 140.312C59.6328 140.013 59.9208 139.864 60.2408 139.864C60.5181 139.864 60.7314 139.992 60.8808 140.248C61.0514 140.504 61.1368 140.856 61.1368 141.304C61.1368 142.157 60.9341 142.819 60.5288 143.288C59.6541 144.376 58.7261 145.293 57.7448 146.04C56.7634 146.787 55.8141 147.16 54.8968 147.16C54.1928 147.16 53.5421 146.925 52.9448 146.456C52.3688 145.965 51.9314 145.304 51.6328 144.472C50.5234 146.264 49.1261 147.16 47.4408 147.16ZM48.5928 143.928C49.0621 143.928 49.5101 143.651 49.9368 143.096C50.3634 142.541 50.6728 141.805 50.8648 140.888L52.0488 135C51.1528 135.021 50.3208 135.363 49.5528 136.024C48.8061 136.664 48.2088 137.517 47.7608 138.584C47.3128 139.651 47.0888 140.781 47.0888 141.976C47.0888 142.637 47.2168 143.128 47.4728 143.448C47.7501 143.768 48.1234 143.928 48.5928 143.928ZM60.808 147.16C59.9973 147.16 59.4213 146.733 59.08 145.88C58.76 145.027 58.6 143.661 58.6 141.784C58.6 139.011 58.9947 136.376 59.784 133.88C59.976 133.261 60.2853 132.813 60.712 132.536C61.16 132.237 61.7787 132.088 62.568 132.088C62.9947 132.088 63.2933 132.141 63.464 132.248C63.6347 132.355 63.72 132.557 63.72 132.856C63.72 133.197 63.56 133.965 63.24 135.16C63.0267 136.013 62.856 136.76 62.728 137.4C62.6 138.04 62.4933 138.829 62.408 139.768C63.112 137.933 63.9013 136.44 64.776 135.288C65.6507 134.136 66.504 133.315 67.336 132.824C68.1893 132.333 68.968 132.088 69.672 132.088C71.0587 132.088 71.752 132.781 71.752 134.168C71.752 134.445 71.656 135.117 71.464 136.184C71.2933 137.037 71.208 137.571 71.208 137.784C71.208 138.531 71.4747 138.904 72.008 138.904C72.6053 138.904 73.3733 138.435 74.312 137.496C74.5893 137.219 74.8773 137.08 75.176 137.08C75.4533 137.08 75.6667 137.208 75.816 137.464C75.9867 137.699 76.072 138.019 76.072 138.424C76.072 139.213 75.8587 139.832 75.432 140.28C74.8347 140.899 74.1307 141.432 73.32 141.88C72.5307 142.307 71.688 142.52 70.792 142.52C69.6613 142.52 68.7973 142.232 68.2 141.656C67.624 141.08 67.336 140.301 67.336 139.32C67.336 139 67.368 138.68 67.432 138.36C67.4747 137.933 67.496 137.645 67.496 137.496C67.496 137.155 67.3787 136.984 67.144 136.984C66.824 136.984 66.3973 137.347 65.864 138.072C65.352 138.776 64.84 139.715 64.328 140.888C63.816 142.061 63.4 143.299 63.08 144.6C62.8453 145.603 62.568 146.285 62.248 146.648C61.9493 146.989 61.4693 147.16 60.808 147.16ZM91.2745 139.864C91.5518 139.864 91.7652 139.992 91.9145 140.248C92.0852 140.504 92.1705 140.856 92.1705 141.304C92.1705 142.157 91.9678 142.819 91.5625 143.288C90.6878 144.355 89.7278 145.272 88.6825 146.04C87.6372 146.787 86.6025 147.16 85.5785 147.16C83.9572 147.16 82.7198 146.211 81.8665 144.312C80.9705 145.443 80.1812 146.2 79.4985 146.584C78.8372 146.968 78.0585 147.16 77.1625 147.16C75.8612 147.16 74.7838 146.68 73.9305 145.72C73.0985 144.739 72.6825 143.469 72.6825 141.912C72.6825 140.205 73.0452 138.627 73.7705 137.176C74.4958 135.704 75.4878 134.509 76.7465 133.592C78.0265 132.653 79.4558 132.099 81.0345 131.928C81.4398 127.789 82.2078 124.259 83.3385 121.336C84.4905 118.392 85.9945 116.92 87.8505 116.92C88.7678 116.92 89.5252 117.336 90.1225 118.168C90.7412 119 91.0505 120.259 91.0505 121.944C91.0505 124.333 90.4638 127.128 89.2905 130.328C88.1172 133.528 86.5492 136.813 84.5865 140.184C84.6718 141.421 84.8532 142.307 85.1305 142.84C85.4292 143.373 85.8025 143.64 86.2505 143.64C86.8265 143.64 87.4132 143.384 88.0105 142.872C88.6078 142.36 89.4078 141.507 90.4105 140.312C90.6665 140.013 90.9545 139.864 91.2745 139.864ZM87.4985 120.056C87.0932 120.056 86.6878 120.781 86.2825 122.232C85.8772 123.661 85.5252 125.539 85.2265 127.864C84.9492 130.189 84.7465 132.621 84.6185 135.16C87.0078 129.955 88.2025 125.773 88.2025 122.616C88.2025 121.805 88.1278 121.176 87.9785 120.728C87.8505 120.28 87.6905 120.056 87.4985 120.056ZM78.2825 143.928C78.6878 143.928 79.0932 143.768 79.4985 143.448C79.9038 143.107 80.4158 142.488 81.0345 141.592C80.8212 140.44 80.7145 139.149 80.7145 137.72C80.7145 137.208 80.7358 136.376 80.7785 135.224C79.6052 135.587 78.6238 136.376 77.8345 137.592C77.0665 138.787 76.6825 140.12 76.6825 141.592C76.6825 143.149 77.2158 143.928 78.2825 143.928ZM103.839 139.864C104.117 139.864 104.33 139.992 104.479 140.248C104.65 140.504 104.735 140.856 104.735 141.304C104.735 142.157 104.533 142.819 104.127 143.288C103.338 144.248 102.218 145.133 100.767 145.944C99.3379 146.755 97.8019 147.16 96.1593 147.16C93.9193 147.16 92.1806 146.552 90.9433 145.336C89.7059 144.12 89.0872 142.456 89.0872 140.344C89.0872 138.872 89.3966 137.507 90.0153 136.248C90.6339 134.968 91.4873 133.955 92.5753 133.208C93.6846 132.461 94.9326 132.088 96.3193 132.088C97.5566 132.088 98.5486 132.461 99.2953 133.208C100.042 133.933 100.415 134.925 100.415 136.184C100.415 137.656 99.8819 138.925 98.8153 139.992C97.7699 141.037 95.9886 141.869 93.4713 142.488C94.0046 143.469 95.0179 143.96 96.5113 143.96C97.4713 143.96 98.5593 143.629 99.7753 142.968C101.013 142.285 102.079 141.4 102.975 140.312C103.231 140.013 103.519 139.864 103.839 139.864ZM95.7753 135.224C94.9859 135.224 94.3139 135.683 93.7593 136.6C93.2259 137.517 92.9593 138.627 92.9593 139.928V139.992C94.2179 139.693 95.2099 139.245 95.9353 138.648C96.6606 138.051 97.0233 137.357 97.0233 136.568C97.0233 136.163 96.9059 135.843 96.6713 135.608C96.4579 135.352 96.1593 135.224 95.7753 135.224ZM113.074 143.512C113.543 143.491 113.895 143.661 114.13 144.024C114.386 144.365 114.514 144.792 114.514 145.304C114.514 145.837 114.386 146.307 114.13 146.712C113.895 147.117 113.564 147.32 113.138 147.32C112.37 147.32 111.644 147.309 110.962 147.288C110.3 147.267 109.714 147.245 109.202 147.224C107.239 147.139 105.852 147.096 105.042 147.096C104.764 147.096 104.359 147.192 103.826 147.384C103.143 147.597 102.674 147.704 102.418 147.704C101.287 147.704 100.722 146.979 100.722 145.528C100.722 144.547 101.074 143.437 101.778 142.2C102.482 140.941 103.399 139.725 104.53 138.552C105.66 137.379 106.834 136.397 108.05 135.608L103.538 135.736C103.068 135.757 102.706 135.597 102.45 135.256C102.215 134.893 102.098 134.467 102.098 133.976C102.098 133.464 102.215 133.016 102.45 132.632C102.706 132.227 103.047 132.024 103.474 132.024C104.412 132.024 105.575 132.099 106.962 132.248C107.196 132.269 107.698 132.312 108.466 132.376C109.255 132.44 109.98 132.472 110.642 132.472C110.855 132.472 111.26 132.387 111.858 132.216C111.964 132.195 112.167 132.141 112.466 132.056C112.786 131.971 113.052 131.928 113.266 131.928C113.607 131.928 113.884 132.077 114.098 132.376C114.332 132.675 114.45 133.133 114.45 133.752C114.45 134.435 114.279 134.979 113.938 135.384C113.618 135.789 113.127 136.152 112.466 136.472C111.719 136.813 110.844 137.4 109.842 138.232C108.839 139.064 107.89 139.992 106.994 141.016C106.098 142.019 105.436 142.968 105.01 143.864L113.074 143.512ZM135.914 139.864C136.191 139.864 136.405 139.992 136.554 140.248C136.725 140.504 136.81 140.856 136.81 141.304C136.81 142.157 136.607 142.819 136.202 143.288C135.285 144.419 134.282 145.347 133.194 146.072C132.127 146.797 130.911 147.16 129.546 147.16C127.669 147.16 126.271 146.307 125.354 144.6C124.458 142.893 124.01 140.685 124.01 137.976C124.01 135.373 124.341 132.408 125.002 129.08C125.685 125.752 126.677 122.893 127.978 120.504C129.301 118.115 130.869 116.92 132.682 116.92C133.706 116.92 134.506 117.4 135.082 118.36C135.679 119.299 135.978 120.653 135.978 122.424C135.978 124.963 135.274 127.907 133.866 131.256C132.458 134.605 130.549 137.923 128.138 141.208C128.287 142.083 128.533 142.712 128.874 143.096C129.215 143.459 129.663 143.64 130.218 143.64C131.093 143.64 131.861 143.395 132.522 142.904C133.183 142.392 134.026 141.528 135.05 140.312C135.306 140.013 135.594 139.864 135.914 139.864ZM131.978 120.088C131.487 120.088 130.933 120.973 130.314 122.744C129.695 124.515 129.151 126.712 128.682 129.336C128.213 131.96 127.957 134.477 127.914 136.888C129.429 134.392 130.634 131.896 131.53 129.4C132.426 126.883 132.874 124.589 132.874 122.52C132.874 120.899 132.575 120.088 131.978 120.088ZM145.68 140.824C145.957 140.824 146.17 140.952 146.32 141.208C146.49 141.464 146.576 141.816 146.576 142.264C146.576 143.032 146.394 143.693 146.032 144.248C145.434 145.165 144.645 145.88 143.664 146.392C142.704 146.904 141.552 147.16 140.208 147.16C138.16 147.16 136.57 146.552 135.44 145.336C134.309 144.099 133.743 142.435 133.743 140.344C133.743 138.872 134.053 137.507 134.672 136.248C135.29 134.968 136.144 133.955 137.232 133.208C138.341 132.461 139.589 132.088 140.976 132.088C142.213 132.088 143.205 132.461 143.952 133.208C144.698 133.933 145.072 134.925 145.072 136.184C145.072 137.656 144.538 138.925 143.472 139.992C142.426 141.037 140.634 141.869 138.096 142.488C138.608 143.469 139.472 143.96 140.688 143.96C141.562 143.96 142.277 143.757 142.832 143.352C143.408 142.947 144.069 142.264 144.816 141.304C145.072 140.984 145.36 140.824 145.68 140.824ZM140.432 135.224C139.642 135.224 138.97 135.683 138.416 136.6C137.882 137.517 137.616 138.627 137.616 139.928V139.992C138.874 139.693 139.866 139.245 140.592 138.648C141.317 138.051 141.68 137.357 141.68 136.568C141.68 136.163 141.562 135.843 141.328 135.608C141.114 135.352 140.816 135.224 140.432 135.224ZM158.121 147.16C157.31 147.16 156.734 146.733 156.393 145.88C156.073 145.027 155.913 143.661 155.913 141.784C155.913 139.011 156.307 136.376 157.097 133.88C157.289 133.261 157.598 132.813 158.025 132.536C158.473 132.237 159.091 132.088 159.881 132.088C160.307 132.088 160.606 132.141 160.777 132.248C160.947 132.355 161.033 132.557 161.033 132.856C161.033 133.197 160.873 133.965 160.553 135.16C160.339 136.013 160.169 136.76 160.041 137.4C159.913 138.019 159.806 138.797 159.721 139.736C160.297 138.072 160.979 136.664 161.769 135.512C162.579 134.36 163.401 133.507 164.233 132.952C165.086 132.376 165.886 132.088 166.633 132.088C167.379 132.088 167.902 132.259 168.201 132.6C168.521 132.941 168.681 133.464 168.681 134.168C168.681 134.851 168.478 136.088 168.073 137.88C167.902 138.648 167.785 139.224 167.721 139.608C168.787 136.984 169.971 135.075 171.273 133.88C172.574 132.685 173.79 132.088 174.921 132.088C176.307 132.088 177.001 132.781 177.001 134.168C177.001 135 176.766 136.504 176.297 138.68C175.891 140.536 175.689 141.763 175.689 142.36C175.689 143.213 175.998 143.64 176.617 143.64C177.043 143.64 177.545 143.384 178.121 142.872C178.718 142.339 179.507 141.485 180.489 140.312C180.745 140.013 181.033 139.864 181.353 139.864C181.63 139.864 181.843 139.992 181.993 140.248C182.163 140.504 182.249 140.856 182.249 141.304C182.249 142.157 182.046 142.819 181.641 143.288C180.723 144.419 179.731 145.347 178.665 146.072C177.619 146.797 176.425 147.16 175.081 147.16C173.993 147.16 173.171 146.851 172.617 146.232C172.062 145.592 171.785 144.675 171.785 143.48C171.785 142.883 171.934 141.816 172.233 140.28C172.51 138.936 172.649 138.008 172.649 137.496C172.649 137.155 172.531 136.984 172.297 136.984C172.019 136.984 171.625 137.347 171.113 138.072C170.601 138.776 170.089 139.715 169.577 140.888C169.065 142.061 168.649 143.299 168.329 144.6C168.094 145.624 167.817 146.307 167.497 146.648C167.198 146.989 166.707 147.16 166.025 147.16C165.321 147.16 164.787 146.829 164.425 146.168C164.083 145.485 163.913 144.664 163.913 143.704C163.913 142.893 164.019 141.72 164.233 140.184C164.403 138.819 164.489 137.923 164.489 137.496C164.489 137.155 164.371 136.984 164.137 136.984C163.817 136.984 163.411 137.368 162.921 138.136C162.43 138.904 161.95 139.885 161.481 141.08C161.033 142.275 160.67 143.448 160.393 144.6C160.158 145.603 159.881 146.285 159.561 146.648C159.262 146.989 158.782 147.16 158.121 147.16ZM195.981 137.176C196.258 137.176 196.472 137.315 196.621 137.592C196.77 137.869 196.845 138.221 196.845 138.648C196.845 139.672 196.536 140.28 195.917 140.472C194.637 140.92 193.229 141.176 191.693 141.24C191.288 143.032 190.488 144.472 189.293 145.56C188.098 146.627 186.744 147.16 185.229 147.16C183.949 147.16 182.85 146.851 181.933 146.232C181.037 145.613 180.354 144.792 179.885 143.768C179.416 142.744 179.181 141.635 179.181 140.44C179.181 138.819 179.49 137.379 180.109 136.12C180.728 134.84 181.581 133.848 182.669 133.144C183.757 132.419 184.962 132.056 186.285 132.056C187.906 132.056 189.208 132.621 190.189 133.752C191.192 134.861 191.778 136.237 191.949 137.88C192.952 137.816 194.146 137.603 195.533 137.24C195.704 137.197 195.853 137.176 195.981 137.176ZM185.485 143.768C186.168 143.768 186.754 143.491 187.245 142.936C187.757 142.381 188.098 141.581 188.269 140.536C187.608 140.088 187.096 139.501 186.733 138.776C186.392 138.051 186.221 137.283 186.221 136.472C186.221 136.131 186.253 135.789 186.317 135.448H186.157C185.304 135.448 184.589 135.864 184.013 136.696C183.458 137.507 183.181 138.659 183.181 140.152C183.181 141.325 183.405 142.221 183.853 142.84C184.322 143.459 184.866 143.768 185.485 143.768ZM209.183 139.864C209.46 139.864 209.674 139.992 209.823 140.248C209.994 140.504 210.079 140.856 210.079 141.304C210.079 142.157 209.876 142.819 209.471 143.288C208.554 144.419 207.551 145.347 206.463 146.072C205.375 146.797 204.127 147.16 202.719 147.16C198.367 147.16 196.191 144.099 196.191 137.976C196.191 137.037 196.223 136.088 196.287 135.128H195.039C194.399 135.128 193.962 135.011 193.727 134.776C193.514 134.541 193.407 134.168 193.407 133.656C193.407 132.461 193.887 131.864 194.847 131.864H196.671C197.034 129.517 197.588 127.373 198.335 125.432C199.082 123.491 199.978 121.944 201.023 120.792C202.09 119.64 203.231 119.064 204.447 119.064C205.343 119.064 206.047 119.459 206.559 120.248C207.071 121.037 207.327 122.029 207.327 123.224C207.327 126.531 205.94 129.411 203.167 131.864H206.751C207.092 131.864 207.338 131.939 207.487 132.088C207.636 132.237 207.711 132.515 207.711 132.92C207.711 134.392 206.506 135.128 204.095 135.128H200.191C200.148 136.195 200.127 137.027 200.127 137.624C200.127 139.843 200.383 141.4 200.895 142.296C201.428 143.192 202.26 143.64 203.391 143.64C204.308 143.64 205.119 143.363 205.823 142.808C206.527 142.253 207.359 141.421 208.319 140.312C208.575 140.013 208.863 139.864 209.183 139.864ZM203.583 122.136C203.263 122.136 202.9 122.541 202.495 123.352C202.111 124.141 201.738 125.251 201.375 126.68C201.034 128.088 200.746 129.656 200.511 131.384C201.77 130.296 202.708 129.08 203.327 127.736C203.967 126.371 204.287 125.133 204.287 124.024C204.287 122.765 204.052 122.136 203.583 122.136ZM211.666 129.976C210.77 129.976 210.098 129.773 209.65 129.368C209.202 128.941 208.978 128.355 208.978 127.608C208.978 126.861 209.266 126.243 209.842 125.752C210.439 125.24 211.175 124.984 212.05 124.984C212.839 124.984 213.479 125.176 213.97 125.56C214.46 125.944 214.706 126.488 214.706 127.192C214.706 128.045 214.428 128.728 213.874 129.24C213.319 129.731 212.583 129.976 211.666 129.976ZM211.41 147.16C210.023 147.16 209.01 146.669 208.37 145.688C207.751 144.707 207.442 143.405 207.442 141.784C207.442 140.824 207.559 139.597 207.794 138.104C208.05 136.589 208.37 135.181 208.754 133.88C208.946 133.197 209.202 132.728 209.522 132.472C209.842 132.216 210.354 132.088 211.058 132.088C212.146 132.088 212.69 132.451 212.69 133.176C212.69 133.709 212.487 134.947 212.082 136.888C211.57 139.235 211.314 140.824 211.314 141.656C211.314 142.296 211.399 142.787 211.57 143.128C211.74 143.469 212.028 143.64 212.434 143.64C212.818 143.64 213.298 143.373 213.874 142.84C214.45 142.307 215.218 141.464 216.178 140.312C216.434 140.013 216.722 139.864 217.042 139.864C217.319 139.864 217.532 139.992 217.682 140.248C217.852 140.504 217.938 140.856 217.938 141.304C217.938 142.157 217.735 142.819 217.33 143.288C215.218 145.869 213.244 147.16 211.41 147.16ZM231.669 137.176C231.946 137.176 232.159 137.315 232.309 137.592C232.458 137.869 232.533 138.221 232.533 138.648C232.533 139.672 232.223 140.28 231.605 140.472C230.325 140.92 228.917 141.176 227.381 141.24C226.975 143.032 226.175 144.472 224.981 145.56C223.786 146.627 222.431 147.16 220.917 147.16C219.637 147.16 218.538 146.851 217.621 146.232C216.725 145.613 216.042 144.792 215.573 143.768C215.103 142.744 214.868 141.635 214.868 140.44C214.868 138.819 215.178 137.379 215.797 136.12C216.415 134.84 217.269 133.848 218.357 133.144C219.445 132.419 220.65 132.056 221.973 132.056C223.594 132.056 224.895 132.621 225.877 133.752C226.879 134.861 227.466 136.237 227.637 137.88C228.639 137.816 229.834 137.603 231.221 137.24C231.391 137.197 231.541 137.176 231.669 137.176ZM221.173 143.768C221.855 143.768 222.442 143.491 222.933 142.936C223.445 142.381 223.786 141.581 223.957 140.536C223.295 140.088 222.783 139.501 222.421 138.776C222.079 138.051 221.909 137.283 221.909 136.472C221.909 136.131 221.941 135.789 222.005 135.448H221.845C220.991 135.448 220.277 135.864 219.701 136.696C219.146 137.507 218.869 138.659 218.869 140.152C218.869 141.325 219.093 142.221 219.541 142.84C220.01 143.459 220.554 143.768 221.173 143.768ZM232.058 147.16C231.247 147.16 230.671 146.733 230.33 145.88C230.01 145.027 229.85 143.661 229.85 141.784C229.85 139.011 230.245 136.376 231.034 133.88C231.226 133.261 231.535 132.813 231.962 132.536C232.41 132.237 233.029 132.088 233.818 132.088C234.245 132.088 234.543 132.141 234.714 132.248C234.885 132.355 234.97 132.557 234.97 132.856C234.97 133.197 234.81 133.965 234.49 135.16C234.277 136.013 234.106 136.76 233.978 137.4C233.85 138.04 233.743 138.829 233.658 139.768C234.362 137.933 235.151 136.44 236.026 135.288C236.901 134.136 237.754 133.315 238.586 132.824C239.439 132.333 240.218 132.088 240.922 132.088C241.605 132.088 242.117 132.269 242.458 132.632C242.821 132.973 243.002 133.485 243.002 134.168C243.002 134.723 242.885 135.768 242.65 137.304C242.437 138.605 242.266 139.843 242.138 141.016C242.01 142.168 241.946 143.459 241.946 144.888C241.946 145.699 241.775 146.285 241.434 146.648C241.114 146.989 240.581 147.16 239.834 147.16C239.13 147.16 238.618 146.979 238.298 146.616C237.978 146.253 237.818 145.709 237.818 144.984C237.818 144.131 237.967 142.723 238.266 140.76C238.522 139.053 238.65 137.965 238.65 137.496C238.65 137.155 238.533 136.984 238.298 136.984C238.021 136.984 237.626 137.347 237.114 138.072C236.623 138.776 236.111 139.715 235.578 140.888C235.066 142.061 234.65 143.299 234.33 144.6C234.095 145.603 233.818 146.285 233.498 146.648C233.199 146.989 232.719 147.16 232.058 147.16Z" fill="#001AFF"/>
<path d="M392.55 103.292C392.865 102.234 392.262 101.12 391.203 100.805L373.949 95.678C372.89 95.3633 371.777 95.9666 371.462 97.0254C371.147 98.0842 371.751 99.1976 372.809 99.5123L388.146 104.07L383.589 119.407C383.274 120.466 383.877 121.579 384.936 121.894C385.995 122.209 387.108 121.605 387.423 120.547L392.55 103.292ZM137.689 24.9464C137.252 23.9316 136.076 23.4628 135.061 23.8992C134.047 24.3356 133.578 25.5119 134.014 26.5266L137.689 24.9464ZM389.681 100.964C355.84 119.299 301.913 121.515 251.706 108.367C201.5 95.2183 155.731 66.9001 137.689 24.9464L134.014 26.5266C152.754 70.1021 199.928 98.9414 250.693 112.236C301.458 125.531 356.531 123.475 391.586 104.481L389.681 100.964Z" fill="#001AFF"/>
</svg>
