<svg width="185" height="189" viewBox="0 0 185 189" fill="none" xmlns="http://www.w3.org/2000/svg">
<path d="M79.8939 73.66C78.5712 73.66 77.5152 73.18 76.7259 72.22C75.9365 71.26 75.5419 70.0013 75.5419 68.444C75.5419 66.7373 75.9365 65.1267 76.7259 63.612C77.5152 62.076 78.5605 60.8493 79.8619 59.932C81.1845 58.9933 82.5819 58.524 84.0539 58.524C84.5232 58.524 84.8325 58.62 84.9819 58.812C85.1525 58.9827 85.2912 59.3027 85.3979 59.772C85.8459 59.6867 86.3152 59.644 86.8059 59.644C87.8512 59.644 88.3739 60.0173 88.3739 60.764C88.3739 61.212 88.2139 62.2787 87.8939 63.964C87.4032 66.4173 87.1579 68.124 87.1579 69.084C87.1579 69.404 87.2325 69.66 87.3819 69.852C87.5525 70.044 87.7659 70.14 88.0219 70.14C88.4272 70.14 88.9179 69.884 89.4939 69.372C90.0699 68.8387 90.8485 67.9853 91.8299 66.812C92.0859 66.5133 92.3739 66.364 92.6939 66.364C92.9712 66.364 93.1845 66.492 93.3339 66.748C93.5045 67.004 93.5899 67.356 93.5899 67.804C93.5899 68.6573 93.3872 69.3187 92.9819 69.788C92.1072 70.876 91.1792 71.7933 90.1979 72.54C89.2165 73.2867 88.2672 73.66 87.3499 73.66C86.6459 73.66 85.9952 73.4253 85.3979 72.956C84.8219 72.4653 84.3845 71.804 84.0859 70.972C82.9765 72.764 81.5792 73.66 79.8939 73.66ZM81.0459 70.428C81.5152 70.428 81.9632 70.1507 82.3899 69.596C82.8165 69.0413 83.1259 68.3053 83.3179 67.388L84.5019 61.5C83.6059 61.5213 82.7739 61.8627 82.0059 62.524C81.2592 63.164 80.6619 64.0173 80.2139 65.084C79.7659 66.1507 79.5419 67.2813 79.5419 68.476C79.5419 69.1373 79.6699 69.628 79.9259 69.948C80.2032 70.268 80.5765 70.428 81.0459 70.428ZM108.077 66.364C108.354 66.364 108.568 66.492 108.717 66.748C108.888 67.004 108.973 67.356 108.973 67.804C108.973 68.6573 108.77 69.3187 108.365 69.788C107.448 70.9187 106.456 71.8467 105.389 72.572C104.344 73.2973 103.149 73.66 101.805 73.66C100.674 73.66 99.7571 73.2547 99.0531 72.444C97.8371 73.2333 96.5678 73.6387 95.2451 73.66C94.9678 77.7773 94.3385 81.212 93.3571 83.964C92.3758 86.7373 90.9358 88.124 89.0371 88.124C87.8851 88.124 87.0318 87.708 86.4771 86.876C85.9225 86.044 85.6451 84.892 85.6451 83.42C85.6451 81.3293 86.1251 78.8867 87.0851 76.092C88.0451 73.3187 89.5278 70.2573 91.5331 66.908C91.5331 63.7933 91.5118 61.628 91.4691 60.412C91.4478 59.7933 91.6931 59.3027 92.2051 58.94C92.7171 58.5773 93.3571 58.396 94.1251 58.396C94.5731 58.396 94.8931 58.492 95.0851 58.684C95.2985 58.8547 95.4158 59.2067 95.4371 59.74C95.4371 60.2733 95.4478 60.668 95.4691 60.924C96.1518 60.0707 96.8238 59.4627 97.4851 59.1C98.1465 58.716 98.8505 58.524 99.5971 58.524C100.792 58.524 101.762 59.004 102.509 59.964C103.277 60.924 103.661 62.1827 103.661 63.74C103.661 64.8707 103.48 65.9693 103.117 67.036C102.754 68.1027 102.253 69.0733 101.613 69.948C102.061 70.076 102.434 70.14 102.733 70.14C103.437 70.14 104.109 69.884 104.749 69.372C105.389 68.86 106.21 68.0067 107.213 66.812C107.469 66.5133 107.757 66.364 108.077 66.364ZM95.4051 70.588C96.1731 70.4173 96.8771 70.0013 97.5171 69.34C98.1785 68.6573 98.7011 67.8253 99.0851 66.844C99.4691 65.8413 99.6611 64.796 99.6611 63.708C99.6611 63.068 99.5331 62.588 99.2771 62.268C99.0211 61.9267 98.6798 61.756 98.2531 61.756C97.4851 61.756 96.5571 62.5667 95.4691 64.188C95.4478 65.1267 95.4371 66.5027 95.4371 68.316C95.4371 69.2973 95.4265 70.0547 95.4051 70.588ZM89.2931 84.988C89.8691 84.988 90.3491 83.7293 90.7331 81.212C91.1171 78.716 91.3625 75.6013 91.4691 71.868C90.5518 74.0013 89.8265 76.0387 89.2931 77.98C88.7598 79.9213 88.4931 81.5533 88.4931 82.876C88.4931 83.5587 88.5785 84.0813 88.7491 84.444C88.8985 84.8067 89.0798 84.988 89.2931 84.988ZM108.667 73.66C107.857 73.66 107.281 73.2333 106.939 72.38C106.619 71.5267 106.459 70.1613 106.459 68.284C106.459 65.5107 106.854 62.876 107.643 60.38C107.835 59.7613 108.145 59.3133 108.571 59.036C109.019 58.7373 109.638 58.588 110.427 58.588C110.854 58.588 111.153 58.6413 111.323 58.748C111.494 58.8547 111.579 59.0573 111.579 59.356C111.579 59.6973 111.419 60.4653 111.099 61.66C110.886 62.5133 110.715 63.26 110.587 63.9C110.459 64.54 110.353 65.3293 110.267 66.268C110.971 64.4333 111.761 62.94 112.635 61.788C113.51 60.636 114.363 59.8147 115.195 59.324C116.049 58.8333 116.827 58.588 117.531 58.588C118.918 58.588 119.611 59.2813 119.611 60.668C119.611 60.9453 119.515 61.6173 119.323 62.684C119.153 63.5373 119.067 64.0707 119.067 64.284C119.067 65.0307 119.334 65.404 119.867 65.404C120.465 65.404 121.233 64.9347 122.171 63.996C122.449 63.7187 122.737 63.58 123.035 63.58C123.313 63.58 123.526 63.708 123.675 63.964C123.846 64.1987 123.931 64.5187 123.931 64.924C123.931 65.7133 123.718 66.332 123.291 66.78C122.694 67.3987 121.99 67.932 121.179 68.38C120.39 68.8067 119.547 69.02 118.651 69.02C117.521 69.02 116.657 68.732 116.059 68.156C115.483 67.58 115.195 66.8013 115.195 65.82C115.195 65.5 115.227 65.18 115.291 64.86C115.334 64.4333 115.355 64.1453 115.355 63.996C115.355 63.6547 115.238 63.484 115.003 63.484C114.683 63.484 114.257 63.8467 113.723 64.572C113.211 65.276 112.699 66.2147 112.187 67.388C111.675 68.5613 111.259 69.7987 110.939 71.1C110.705 72.1027 110.427 72.7853 110.107 73.148C109.809 73.4893 109.329 73.66 108.667 73.66ZM135.23 66.364C135.507 66.364 135.721 66.492 135.87 66.748C136.041 67.004 136.126 67.356 136.126 67.804C136.126 68.6573 135.923 69.3187 135.518 69.788C134.729 70.748 133.609 71.6333 132.158 72.444C130.729 73.2547 129.193 73.66 127.55 73.66C125.31 73.66 123.571 73.052 122.334 71.836C121.097 70.62 120.478 68.956 120.478 66.844C120.478 65.372 120.787 64.0067 121.406 62.748C122.025 61.468 122.878 60.4547 123.966 59.708C125.075 58.9613 126.323 58.588 127.71 58.588C128.947 58.588 129.939 58.9613 130.686 59.708C131.433 60.4333 131.806 61.4253 131.806 62.684C131.806 64.156 131.273 65.4253 130.206 66.492C129.161 67.5373 127.379 68.3693 124.862 68.988C125.395 69.9693 126.409 70.46 127.902 70.46C128.862 70.46 129.95 70.1293 131.166 69.468C132.403 68.7853 133.47 67.9 134.366 66.812C134.622 66.5133 134.91 66.364 135.23 66.364ZM127.166 61.724C126.377 61.724 125.705 62.1827 125.15 63.1C124.617 64.0173 124.35 65.1267 124.35 66.428V66.492C125.609 66.1933 126.601 65.7453 127.326 65.148C128.051 64.5507 128.414 63.8573 128.414 63.068C128.414 62.6627 128.297 62.3427 128.062 62.108C127.849 61.852 127.55 61.724 127.166 61.724ZM127.998 56.476C127.614 56.476 127.283 56.2947 127.006 55.932L122.878 50.62C122.409 50.0227 122.174 49.4253 122.174 48.828C122.174 48.2307 122.377 47.74 122.782 47.356C123.209 46.972 123.689 46.78 124.222 46.78C124.585 46.78 124.926 46.8867 125.246 47.1C125.566 47.3133 125.822 47.6333 126.014 48.06L128.99 54.716C129.075 54.908 129.118 55.1107 129.118 55.324C129.118 55.644 129.001 55.9213 128.766 56.156C128.553 56.3693 128.297 56.476 127.998 56.476ZM139.472 74.364C138.363 74.364 137.51 74.108 136.912 73.596C136.336 73.084 136.048 72.508 136.048 71.868C136.048 71.3133 136.251 70.8333 136.656 70.428C137.062 70.0227 137.659 69.82 138.448 69.82C138.726 69.82 139.046 69.852 139.408 69.916C139.792 69.9587 140.08 69.9907 140.272 70.012C140.251 69.4573 140.123 68.9347 139.888 68.444C139.675 67.9533 139.398 67.484 139.056 67.036C138.715 66.5667 138.395 66.1613 138.096 65.82C137.435 67.0787 136.774 68.124 136.112 68.956C135.472 69.788 134.768 70.5773 134 71.324C133.616 71.708 133.211 71.9 132.784 71.9C132.443 71.9 132.166 71.7827 131.952 71.548C131.739 71.292 131.632 70.9827 131.632 70.62C131.632 70.1933 131.782 69.7987 132.08 69.436L132.496 68.924C133.67 67.4733 134.555 66.2787 135.152 65.34C135.536 64.7213 135.92 63.9853 136.304 63.132C136.71 62.2787 137.232 61.116 137.872 59.644C138.278 58.7053 139.12 58.236 140.4 58.236C140.998 58.236 141.414 58.2893 141.648 58.396C141.883 58.5027 142 58.6733 142 58.908C142 59.036 141.958 59.2387 141.872 59.516C141.787 59.7933 141.67 60.0707 141.52 60.348C141.136 61.116 140.944 61.7667 140.944 62.3C140.944 62.62 141.051 62.972 141.264 63.356C141.499 63.74 141.851 64.22 142.32 64.796C143.003 65.692 143.515 66.46 143.856 67.1C144.219 67.7187 144.4 68.4013 144.4 69.148C144.4 70.044 144.187 70.8973 143.76 71.708C143.355 72.4973 142.779 73.1373 142.032 73.628C141.286 74.1187 140.432 74.364 139.472 74.364Z" fill="#001AFF"/>
<path d="M155.643 2.74278C155.233 1.71721 155.732 0.553273 156.757 0.143047C157.783 -0.26718 158.947 0.231652 159.357 1.25722L155.643 2.74278ZM120 122L119.812 123.991L120 122ZM13.0319 188.713C12.0856 189.283 10.8566 188.978 10.2867 188.032L1.00006 172.612C0.430179 171.666 0.735258 170.437 1.68147 169.867C2.62768 169.297 3.85671 169.603 4.42659 170.549L12.6814 184.255L26.3875 176C27.3337 175.43 28.5628 175.735 29.1327 176.681C29.7025 177.628 29.3975 178.857 28.4512 179.427L13.0319 188.713ZM159.357 1.25722C168.288 23.5837 174.005 55.3722 169.849 81.0056C167.77 93.8336 163.181 105.337 155.054 113.28C146.86 121.288 135.3 125.453 119.812 123.991L120.188 120.009C134.7 121.378 145.036 117.479 152.258 110.419C159.548 103.294 163.897 92.7243 165.901 80.3655C169.912 55.6252 164.379 24.583 155.643 2.74278L159.357 1.25722ZM119.812 123.991C115.993 123.631 112.911 123.109 110.504 122.448C108.135 121.798 106.249 120.968 104.977 119.884C103.621 118.728 102.855 117.157 103.226 115.362C103.553 113.784 104.687 112.473 105.96 111.431C108.553 109.308 112.871 107.375 117.982 105.861C123.149 104.33 129.326 103.169 135.791 102.695C148.626 101.754 163.053 103.495 172.889 110.962C177.86 114.736 181.618 119.947 183.361 126.879C185.095 133.776 184.803 142.247 181.926 152.538L178.074 151.462C180.823 141.628 180.999 133.891 179.482 127.854C177.972 121.852 174.758 117.403 170.471 114.148C161.791 107.559 148.562 105.77 136.084 106.684C129.893 107.138 124 108.25 119.118 109.696C114.18 111.159 110.47 112.908 108.493 114.526C107.481 115.355 107.194 115.931 107.143 116.174C107.138 116.2 107.038 116.385 107.572 116.84C108.189 117.366 109.416 118.002 111.563 118.591C113.671 119.17 116.507 119.662 120.188 120.009L119.812 123.991ZM181.926 152.538C179.029 162.904 174.38 170.285 168.308 175.27C162.241 180.252 154.92 182.704 146.918 183.506C131.044 185.096 112.014 180.219 93.5972 175.179C74.9563 170.078 56.9585 164.819 42.5088 165.109C35.3431 165.253 29.2629 166.765 24.4838 170.183C19.7343 173.58 16.0408 179.023 13.9411 187.482L10.0589 186.518C12.3342 177.352 16.4688 170.998 22.1569 166.93C27.8153 162.883 34.7819 161.263 42.4287 161.11C57.6041 160.806 76.2938 166.297 94.653 171.321C113.236 176.406 131.519 181.029 146.52 179.526C153.955 178.78 160.463 176.537 165.77 172.179C171.074 167.824 175.346 161.221 178.074 151.462L181.926 152.538Z" fill="#001AFF"/>
</svg>
