<svg width="185" height="190" viewBox="0 0 185 190" fill="none" xmlns="http://www.w3.org/2000/svg">
<path d="M43.5501 74.16C42.2275 74.16 41.1715 73.68 40.3821 72.72C39.5928 71.76 39.1981 70.5013 39.1981 68.944C39.1981 67.2373 39.5928 65.6267 40.3821 64.112C41.1715 62.576 42.2168 61.3493 43.5181 60.432C44.8408 59.4933 46.2381 59.024 47.7101 59.024C48.1795 59.024 48.4888 59.12 48.6381 59.312C48.8088 59.4827 48.9475 59.8027 49.0541 60.272C49.5021 60.1867 49.9715 60.144 50.4621 60.144C51.5075 60.144 52.0301 60.5173 52.0301 61.264C52.0301 61.712 51.8701 62.7787 51.5501 64.464C51.0595 66.9173 50.8141 68.624 50.8141 69.584C50.8141 69.904 50.8888 70.16 51.0381 70.352C51.2088 70.544 51.4221 70.64 51.6781 70.64C52.0835 70.64 52.5741 70.384 53.1501 69.872C53.7261 69.3387 54.5048 68.4853 55.4861 67.312C55.7421 67.0133 56.0301 66.864 56.3501 66.864C56.6275 66.864 56.8408 66.992 56.9901 67.248C57.1608 67.504 57.2461 67.856 57.2461 68.304C57.2461 69.1573 57.0435 69.8187 56.6381 70.288C55.7635 71.376 54.8355 72.2933 53.8541 73.04C52.8728 73.7867 51.9235 74.16 51.0061 74.16C50.3021 74.16 49.6515 73.9253 49.0541 73.456C48.4781 72.9653 48.0408 72.304 47.7421 71.472C46.6328 73.264 45.2355 74.16 43.5501 74.16ZM44.7021 70.928C45.1715 70.928 45.6195 70.6507 46.0461 70.096C46.4728 69.5413 46.7821 68.8053 46.9741 67.888L48.1581 62C47.2621 62.0213 46.4301 62.3627 45.6621 63.024C44.9155 63.664 44.3181 64.5173 43.8701 65.584C43.4221 66.6507 43.1981 67.7813 43.1981 68.976C43.1981 69.6373 43.3261 70.128 43.5821 70.448C43.8595 70.768 44.2328 70.928 44.7021 70.928ZM70.7979 64.272C70.8619 64.2507 70.9685 64.24 71.1179 64.24C71.4379 64.24 71.6832 64.3467 71.8539 64.56C72.0245 64.7733 72.1099 65.0613 72.1099 65.424C72.1099 66.0853 71.9819 66.608 71.7259 66.992C71.4699 67.3547 71.0859 67.6213 70.5739 67.792C69.5925 68.112 68.5472 68.272 67.4379 68.272C66.4992 68.272 65.6139 68.144 64.7819 67.888C64.1632 68.8907 63.4805 69.9253 62.7339 70.992C61.8805 72.208 61.1445 73.04 60.5259 73.488C59.9072 73.936 59.2032 74.16 58.4139 74.16C57.5392 74.16 56.8459 73.8187 56.3339 73.136C55.8432 72.4533 55.5339 71.376 55.4059 69.904C55.1499 66.9173 55.0219 64.304 55.0219 62.064V60.944C55.0432 60.24 55.2352 59.7493 55.5979 59.472C55.9605 59.1947 56.5045 59.056 57.2299 59.056C57.7845 59.056 58.1899 59.184 58.4459 59.44C58.7232 59.6747 58.8619 60.08 58.8619 60.656C58.8619 63.1093 59.0112 66.2987 59.3099 70.224C60.5899 68.3253 61.5499 66.8107 62.1899 65.68C61.8699 65.0613 61.7099 64.3253 61.7099 63.472C61.7099 62.7467 61.8699 62.0427 62.1899 61.36C62.5099 60.6773 62.9472 60.1227 63.5019 59.696C64.0565 59.2693 64.6859 59.056 65.3899 59.056C66.0085 59.056 66.5099 59.28 66.8939 59.728C67.2779 60.1547 67.4699 60.784 67.4699 61.616C67.4699 62.576 67.2139 63.6747 66.7019 64.912C67.5125 64.8693 68.5899 64.7093 69.9339 64.432L70.7979 64.272ZM73.2689 74.16C71.9462 74.16 70.8902 73.68 70.1009 72.72C69.3115 71.76 68.9169 70.5013 68.9169 68.944C68.9169 67.2373 69.3115 65.6267 70.1009 64.112C70.8902 62.576 71.9355 61.3493 73.2369 60.432C74.5595 59.4933 75.9569 59.024 77.4289 59.024C77.8982 59.024 78.2075 59.12 78.3569 59.312C78.5275 59.4827 78.6662 59.8027 78.7729 60.272C79.2209 60.1867 79.6902 60.144 80.1809 60.144C81.2262 60.144 81.7489 60.5173 81.7489 61.264C81.7489 61.712 81.5889 62.7787 81.2689 64.464C80.7782 66.9173 80.5329 68.624 80.5329 69.584C80.5329 69.904 80.6075 70.16 80.7569 70.352C80.9275 70.544 81.1409 70.64 81.3969 70.64C81.8022 70.64 82.2929 70.384 82.8689 69.872C83.4449 69.3387 84.2235 68.4853 85.2049 67.312C85.4609 67.0133 85.7489 66.864 86.0689 66.864C86.3462 66.864 86.5595 66.992 86.7089 67.248C86.8795 67.504 86.9649 67.856 86.9649 68.304C86.9649 69.1573 86.7622 69.8187 86.3569 70.288C85.4822 71.376 84.5542 72.2933 83.5729 73.04C82.5915 73.7867 81.6422 74.16 80.7249 74.16C80.0209 74.16 79.3702 73.9253 78.7729 73.456C78.1969 72.9653 77.7595 72.304 77.4609 71.472C76.3515 73.264 74.9542 74.16 73.2689 74.16ZM74.4209 70.928C74.8902 70.928 75.3382 70.6507 75.7649 70.096C76.1915 69.5413 76.5009 68.8053 76.6929 67.888L77.8769 62C76.9809 62.0213 76.1489 62.3627 75.3809 63.024C74.6342 63.664 74.0369 64.5173 73.5889 65.584C73.1409 66.6507 72.9169 67.7813 72.9169 68.976C72.9169 69.6373 73.0449 70.128 73.3009 70.448C73.5782 70.768 73.9515 70.928 74.4209 70.928ZM86.6361 74.16C85.8255 74.16 85.2495 73.7333 84.9081 72.88C84.5881 72.0267 84.4281 70.6613 84.4281 68.784C84.4281 66.0107 84.8228 63.376 85.6121 60.88C85.8041 60.2613 86.1135 59.8133 86.5401 59.536C86.9881 59.2373 87.6068 59.088 88.3961 59.088C88.8228 59.088 89.1215 59.1413 89.2921 59.248C89.4628 59.3547 89.5481 59.5573 89.5481 59.856C89.5481 60.1973 89.3881 60.9653 89.0681 62.16C88.8548 63.0133 88.6841 63.76 88.5561 64.4C88.4281 65.04 88.3215 65.8293 88.2361 66.768C88.9401 64.9333 89.7295 63.44 90.6041 62.288C91.4788 61.136 92.3321 60.3147 93.1641 59.824C94.0175 59.3333 94.7961 59.088 95.5001 59.088C96.8868 59.088 97.5801 59.7813 97.5801 61.168C97.5801 62 97.3455 63.504 96.8761 65.68C96.4708 67.536 96.2681 68.7627 96.2681 69.36C96.2681 70.2133 96.5775 70.64 97.1961 70.64C97.6228 70.64 98.1241 70.384 98.7001 69.872C99.2975 69.3387 100.087 68.4853 101.068 67.312C101.324 67.0133 101.612 66.864 101.932 66.864C102.209 66.864 102.423 66.992 102.572 67.248C102.743 67.504 102.828 67.856 102.828 68.304C102.828 69.1573 102.625 69.8187 102.22 70.288C101.303 71.4187 100.311 72.3467 99.2441 73.072C98.1988 73.7973 97.0041 74.16 95.6601 74.16C94.5721 74.16 93.7508 73.8507 93.1961 73.232C92.6415 72.592 92.3641 71.6747 92.3641 70.48C92.3641 69.8827 92.5135 68.816 92.8121 67.28C93.0895 65.936 93.2281 65.008 93.2281 64.496C93.2281 64.1547 93.1108 63.984 92.8761 63.984C92.5988 63.984 92.2041 64.3467 91.6921 65.072C91.2015 65.776 90.6895 66.7147 90.1561 67.888C89.6441 69.0613 89.2281 70.2987 88.9081 71.6C88.6735 72.6027 88.3961 73.2853 88.0761 73.648C87.7775 73.9893 87.2975 74.16 86.6361 74.16ZM105.519 62.128C105.476 63.1947 105.455 64.0267 105.455 64.624C105.455 66.16 105.53 67.3653 105.679 68.24C105.85 69.0933 106.116 69.712 106.479 70.096C106.863 70.4587 107.386 70.64 108.047 70.64C108.388 70.64 108.794 70.5333 109.263 70.32C109.732 70.1067 110.159 69.8293 110.543 69.488C110.778 69.2747 111.012 69.168 111.247 69.168C111.503 69.168 111.706 69.3173 111.855 69.616C112.026 69.8933 112.111 70.2347 112.111 70.64C112.111 71.0453 112.026 71.44 111.855 71.824C111.706 72.208 111.471 72.528 111.151 72.784C110.042 73.7013 108.783 74.16 107.375 74.16C105.348 74.16 103.866 73.3173 102.927 71.632C101.988 69.9253 101.519 67.7067 101.519 64.976C101.519 64.0373 101.551 63.088 101.615 62.128H100.367C99.7271 62.128 99.2898 62.0107 99.0551 61.776C98.8418 61.5413 98.7351 61.168 98.7351 60.656C98.7351 59.4613 99.2151 58.864 100.175 58.864H101.999C102.362 56.5173 102.916 54.3733 103.663 52.432C104.41 50.4907 105.306 48.944 106.351 47.792C107.418 46.64 108.559 46.064 109.775 46.064C110.671 46.064 111.375 46.4587 111.887 47.248C112.399 48.0373 112.655 49.0293 112.655 50.224C112.655 53.5307 111.268 56.4107 108.495 58.864H112.079C112.42 58.864 112.666 58.9387 112.815 59.088C112.964 59.2373 113.039 59.5147 113.039 59.92C113.039 61.392 111.834 62.128 109.423 62.128H105.519ZM108.911 49.136C108.591 49.136 108.228 49.5413 107.823 50.352C107.439 51.1413 107.066 52.2507 106.703 53.68C106.362 55.088 106.074 56.656 105.839 58.384C107.098 57.296 108.036 56.08 108.655 54.736C109.295 53.3707 109.615 52.1333 109.615 51.024C109.615 49.7653 109.38 49.136 108.911 49.136Z" fill="#001AFF"/>
<path d="M29.3568 3.24278C29.767 2.21721 29.2682 1.05327 28.2426 0.643047C27.2171 0.23282 26.0531 0.731652 25.6429 1.75722L29.3568 3.24278ZM65 122.5L65.1879 124.491L65 122.5ZM171.968 189.213C172.914 189.783 174.143 189.478 174.713 188.532L184 173.112C184.57 172.166 184.265 170.937 183.319 170.367C182.372 169.797 181.143 170.103 180.573 171.049L172.319 184.755L158.612 176.5C157.666 175.93 156.437 176.235 155.867 177.181C155.297 178.128 155.603 179.357 156.549 179.927L171.968 189.213ZM25.6429 1.75722C16.7123 24.0837 10.9949 55.8722 15.1506 81.5056C17.2303 94.3336 21.819 105.837 29.9457 113.78C38.1396 121.788 49.6996 125.953 65.1879 124.491L64.8121 120.509C50.3003 121.878 39.9644 117.979 32.7416 110.919C25.4516 103.794 21.1027 93.2243 19.0991 80.8655C15.0881 56.1252 20.6208 25.083 29.3568 3.24278L25.6429 1.75722ZM65.1879 124.491C69.0072 124.131 72.0894 123.609 74.4962 122.948C76.865 122.298 78.7508 121.468 80.023 120.384C81.3788 119.228 82.1452 117.657 81.7736 115.862C81.4467 114.284 80.3133 112.973 79.0405 111.931C76.4468 109.808 72.1295 107.875 67.0184 106.361C61.8511 104.83 55.6741 103.669 49.2086 103.195C36.3745 102.254 21.9468 103.995 12.1108 111.462C7.14001 115.236 3.38201 120.447 1.63923 127.379C-0.094966 134.276 0.197166 142.747 3.07359 153.038L6.92594 151.962C4.17734 142.128 4.00072 134.391 5.51849 128.354C7.02767 122.352 10.2424 117.903 14.5294 114.648C23.2091 108.059 36.4378 106.27 48.9163 107.184C55.1071 107.638 61.0004 108.75 65.8821 110.196C70.8198 111.659 74.5298 113.408 76.5065 115.026C77.5188 115.855 77.8064 116.431 77.8567 116.674C77.8622 116.7 77.9622 116.885 77.4283 117.34C76.8109 117.866 75.5839 118.502 73.4373 119.091C71.3287 119.67 68.4928 120.162 64.8121 120.509L65.1879 124.491ZM3.07359 153.038C5.97075 163.404 10.6201 170.785 16.6916 175.77C22.7594 180.752 30.08 183.204 38.0817 184.006C53.9564 185.596 72.986 180.719 91.4028 175.679C110.044 170.578 128.041 165.319 142.491 165.609C149.657 165.753 155.737 167.265 160.516 170.683C165.266 174.08 168.959 179.523 171.059 187.982L174.941 187.018C172.666 177.852 168.531 171.498 162.843 167.43C157.185 163.383 150.218 161.763 142.571 161.61C127.396 161.306 108.706 166.797 90.347 171.821C71.7638 176.906 53.4808 181.529 38.4805 180.026C31.0446 179.28 24.5371 177.037 19.2299 172.679C13.9264 168.324 9.6538 161.721 6.92594 151.962L3.07359 153.038Z" fill="#001AFF"/>
</svg>
